<svg width="501" height="335" viewBox="0 0 501 335" fill="none" xmlns="http://www.w3.org/2000/svg">
<g filter="url(#filter0_d)">
<rect x="18.8637" y="3.94633" width="97.3305" height="29.9555" fill="white" stroke="black" stroke-width="0.329245"/>
<line y1="-0.164623" x2="92.8005" y2="-0.164623" transform="matrix(0.959507 -0.281685 0.69002 0.723791 23.2949 31.9939)" stroke="black" stroke-width="0.329245"/>
<line y1="-0.164623" x2="92.9526" y2="-0.164623" transform="matrix(0.9604 0.278624 -0.685722 0.727863 23.2948 5.85342)" stroke="black" stroke-width="0.329245"/>
<rect x="5.42305" y="48.5225" width="489.671" height="279.039" fill="white" stroke="black" stroke-width="0.329245"/>
<line y1="-0.164623" x2="507.687" y2="-0.164623" transform="matrix(0.879999 -0.474975 0.460327 0.887749 28.3172 308.611)" stroke="black" stroke-width="0.329245"/>
<line y1="-0.164623" x2="507.646" y2="-0.164623" transform="matrix(0.882335 0.470621 -0.456034 0.889962 28.3173 67.4726)" stroke="black" stroke-width="0.329245"/>
<rect x="134.806" y="99.1533" width="235.556" height="138.345" fill="white" stroke="black" stroke-width="0.329245"/>
<rect x="227.542" y="191.439" width="57.518" height="16.6846" fill="white" stroke="black" stroke-width="0.329245"/>
<path d="M238.513 198.216C238.037 198.079 237.69 197.912 237.472 197.713C237.255 197.512 237.147 197.265 237.147 196.972C237.147 196.64 237.28 196.366 237.544 196.15C237.81 195.932 238.155 195.823 238.58 195.823C238.869 195.823 239.127 195.879 239.352 195.991C239.58 196.103 239.756 196.257 239.879 196.454C240.005 196.651 240.067 196.866 240.067 197.099H239.509C239.509 196.845 239.428 196.645 239.266 196.5C239.104 196.354 238.875 196.28 238.58 196.28C238.306 196.28 238.092 196.341 237.937 196.463C237.785 196.582 237.709 196.749 237.709 196.963C237.709 197.135 237.781 197.281 237.926 197.4C238.072 197.518 238.32 197.626 238.67 197.724C239.021 197.823 239.295 197.932 239.491 198.051C239.69 198.169 239.837 198.307 239.931 198.465C240.028 198.623 240.076 198.81 240.076 199.024C240.076 199.365 239.943 199.639 239.677 199.846C239.41 200.05 239.054 200.152 238.609 200.152C238.319 200.152 238.049 200.097 237.799 199.987C237.548 199.875 237.354 199.723 237.217 199.53C237.082 199.337 237.014 199.118 237.014 198.873H237.573C237.573 199.128 237.666 199.33 237.853 199.478C238.043 199.625 238.294 199.698 238.609 199.698C238.902 199.698 239.127 199.638 239.283 199.519C239.439 199.399 239.517 199.236 239.517 199.03C239.517 198.823 239.445 198.664 239.3 198.552C239.156 198.438 238.893 198.326 238.513 198.216ZM241.288 200.094H240.753V196.963H241.288V200.094ZM240.71 196.133C240.71 196.046 240.736 195.973 240.788 195.913C240.842 195.853 240.921 195.823 241.025 195.823C241.129 195.823 241.208 195.853 241.262 195.913C241.316 195.973 241.343 196.046 241.343 196.133C241.343 196.22 241.316 196.292 241.262 196.35C241.208 196.408 241.129 196.437 241.025 196.437C240.921 196.437 240.842 196.408 240.788 196.35C240.736 196.292 240.71 196.22 240.71 196.133ZM242.02 198.503C242.02 198.015 242.133 197.627 242.359 197.34C242.585 197.05 242.884 196.906 243.256 196.906C243.638 196.906 243.936 197.041 244.15 197.311L244.176 196.963H244.665V200.019C244.665 200.424 244.545 200.744 244.304 200.977C244.064 201.21 243.742 201.327 243.337 201.327C243.111 201.327 242.891 201.279 242.674 201.182C242.458 201.086 242.293 200.954 242.18 200.786L242.457 200.465C242.687 200.748 242.968 200.89 243.3 200.89C243.56 200.89 243.763 200.817 243.907 200.67C244.054 200.524 244.127 200.317 244.127 200.051V199.782C243.913 200.029 243.621 200.152 243.25 200.152C242.884 200.152 242.587 200.005 242.359 199.71C242.133 199.414 242.02 199.012 242.02 198.503ZM242.559 198.564C242.559 198.917 242.631 199.194 242.776 199.397C242.92 199.598 243.123 199.698 243.383 199.698C243.721 199.698 243.969 199.545 244.127 199.238V197.808C243.963 197.509 243.717 197.36 243.389 197.36C243.129 197.36 242.925 197.461 242.779 197.664C242.632 197.866 242.559 198.166 242.559 198.564ZM245.982 196.963L245.999 197.357C246.239 197.056 246.551 196.906 246.937 196.906C247.599 196.906 247.932 197.279 247.938 198.025V200.094H247.403V198.022C247.401 197.797 247.349 197.63 247.247 197.522C247.146 197.414 246.989 197.36 246.775 197.36C246.601 197.36 246.449 197.406 246.318 197.499C246.187 197.591 246.084 197.713 246.011 197.863V200.094H245.476V196.963H245.982ZM253.266 195.881V198.746C253.264 199.143 253.138 199.468 252.889 199.721C252.643 199.974 252.307 200.116 251.882 200.147L251.735 200.152C251.274 200.152 250.906 200.028 250.632 199.779C250.358 199.53 250.219 199.188 250.216 198.752V195.881H250.765V198.734C250.765 199.039 250.849 199.276 251.017 199.446C251.185 199.614 251.424 199.698 251.735 199.698C252.049 199.698 252.289 199.614 252.455 199.446C252.623 199.278 252.707 199.042 252.707 198.737V195.881H253.266ZM256.703 198.564C256.703 199.04 256.594 199.424 256.376 199.715C256.158 200.007 255.863 200.152 255.491 200.152C255.111 200.152 254.812 200.032 254.594 199.791V201.298H254.059V196.963H254.548L254.574 197.311C254.792 197.041 255.094 196.906 255.482 196.906C255.858 196.906 256.156 197.047 256.374 197.331C256.593 197.614 256.703 198.009 256.703 198.514V198.564ZM256.168 198.503C256.168 198.15 256.093 197.871 255.942 197.667C255.792 197.462 255.585 197.36 255.323 197.36C254.999 197.36 254.756 197.504 254.594 197.791V199.287C254.754 199.573 254.999 199.715 255.329 199.715C255.585 199.715 255.789 199.614 255.939 199.411C256.092 199.207 256.168 198.904 256.168 198.503ZM261.736 196.338H260.381V200.094H259.829V196.338H258.477V195.881H261.736V196.338ZM261.846 198.5C261.846 198.193 261.905 197.917 262.025 197.672C262.147 197.427 262.314 197.238 262.529 197.105C262.745 196.972 262.991 196.906 263.266 196.906C263.693 196.906 264.037 197.053 264.3 197.348C264.564 197.643 264.696 198.036 264.696 198.526V198.564C264.696 198.868 264.637 199.142 264.519 199.385C264.404 199.627 264.237 199.815 264.019 199.95C263.803 200.085 263.554 200.152 263.272 200.152C262.848 200.152 262.503 200.005 262.239 199.71C261.977 199.414 261.846 199.024 261.846 198.538V198.5ZM262.384 198.564C262.384 198.911 262.464 199.19 262.624 199.4C262.786 199.61 263.002 199.715 263.272 199.715C263.544 199.715 263.76 199.609 263.92 199.397C264.081 199.183 264.161 198.884 264.161 198.5C264.161 198.157 264.079 197.879 263.915 197.667C263.753 197.452 263.537 197.345 263.266 197.345C263.002 197.345 262.789 197.45 262.627 197.661C262.465 197.871 262.384 198.172 262.384 198.564ZM265.237 198.503C265.237 198.022 265.351 197.637 265.579 197.345C265.806 197.052 266.104 196.906 266.473 196.906C266.839 196.906 267.13 197.031 267.344 197.282V195.65H267.879V200.094H267.387L267.361 199.759C267.147 200.021 266.849 200.152 266.467 200.152C266.104 200.152 265.808 200.004 265.579 199.707C265.351 199.41 265.237 199.022 265.237 198.543V198.503ZM265.772 198.564C265.772 198.919 265.846 199.196 265.992 199.397C266.139 199.598 266.342 199.698 266.6 199.698C266.94 199.698 267.187 199.546 267.344 199.241V197.803C267.184 197.507 266.938 197.36 266.606 197.36C266.343 197.36 266.139 197.461 265.992 197.664C265.846 197.866 265.772 198.166 265.772 198.564ZM270.646 200.094C270.615 200.033 270.59 199.923 270.57 199.765C270.321 200.023 270.024 200.152 269.679 200.152C269.37 200.152 269.117 200.065 268.918 199.892C268.721 199.716 268.623 199.494 268.623 199.226C268.623 198.9 268.746 198.648 268.993 198.468C269.242 198.287 269.591 198.196 270.041 198.196H270.562V197.95C270.562 197.763 270.506 197.614 270.394 197.505C270.282 197.393 270.117 197.337 269.899 197.337C269.708 197.337 269.548 197.385 269.419 197.481C269.289 197.578 269.225 197.695 269.225 197.832H268.686C268.686 197.675 268.741 197.525 268.851 197.38C268.963 197.233 269.114 197.118 269.303 197.033C269.494 196.948 269.703 196.906 269.931 196.906C270.292 196.906 270.574 196.996 270.779 197.178C270.983 197.357 271.089 197.605 271.097 197.921V199.362C271.097 199.65 271.134 199.878 271.207 200.048V200.094H270.646ZM269.757 199.686C269.925 199.686 270.084 199.643 270.235 199.556C270.385 199.469 270.494 199.357 270.562 199.218V198.575H270.142C269.486 198.575 269.158 198.767 269.158 199.151C269.158 199.319 269.214 199.45 269.326 199.545C269.438 199.639 269.582 199.686 269.757 199.686ZM272.914 199.31L273.643 196.963H274.216L272.958 200.578C272.763 201.099 272.453 201.359 272.029 201.359L271.927 201.35L271.728 201.313V200.879L271.872 200.89C272.054 200.89 272.195 200.854 272.295 200.78C272.397 200.707 272.481 200.573 272.547 200.378L272.665 200.06L271.548 196.963H272.133L272.914 199.31ZM275.296 198.905H274.813L274.775 195.881H275.336L275.296 198.905ZM274.755 199.825C274.755 199.738 274.781 199.666 274.833 199.608C274.887 199.548 274.966 199.519 275.07 199.519C275.174 199.519 275.253 199.548 275.307 199.608C275.361 199.666 275.388 199.738 275.388 199.825C275.388 199.912 275.361 199.984 275.307 200.042C275.253 200.098 275.174 200.126 275.07 200.126C274.966 200.126 274.887 200.098 274.833 200.042C274.781 199.984 274.755 199.912 274.755 199.825Z" fill="black"/>
<path d="M350.272 19.7046H351.911V20.3245H349.5V16.5794H350.272V19.7046ZM352.191 18.9072C352.191 18.6311 352.244 18.3851 352.351 18.169C352.457 17.9529 352.609 17.7857 352.808 17.6674C353.009 17.5491 353.241 17.4899 353.505 17.4899C353.881 17.4899 354.187 17.6048 354.424 17.8346C354.662 18.0644 354.795 18.3765 354.822 18.7709L354.828 18.9612C354.828 19.3882 354.708 19.7312 354.47 19.9901C354.232 20.2474 353.912 20.376 353.511 20.376C353.109 20.376 352.789 20.2474 352.549 19.9901C352.31 19.7329 352.191 19.3831 352.191 18.9407V18.9072ZM352.934 18.9612C352.934 19.2253 352.984 19.4277 353.084 19.5683C353.183 19.7072 353.325 19.7766 353.511 19.7766C353.691 19.7766 353.831 19.708 353.932 19.5709C354.034 19.432 354.084 19.2107 354.084 18.9072C354.084 18.6483 354.034 18.4477 353.932 18.3053C353.831 18.163 353.689 18.0918 353.505 18.0918C353.324 18.0918 353.183 18.163 353.084 18.3053C352.984 18.4459 352.934 18.6646 352.934 18.9612ZM355.177 18.9124C355.177 18.4854 355.279 18.1416 355.481 17.8809C355.685 17.6203 355.959 17.4899 356.304 17.4899C356.609 17.4899 356.847 17.5945 357.017 17.8037L357.047 17.5414H357.721V20.2319C357.721 20.4754 357.666 20.6872 357.554 20.8673C357.444 21.0473 357.289 21.1845 357.089 21.2788C356.888 21.3731 356.653 21.4203 356.384 21.4203C356.18 21.4203 355.981 21.3791 355.787 21.2968C355.593 21.2162 355.447 21.1116 355.347 20.983L355.676 20.5303C355.862 20.7378 356.086 20.8415 356.35 20.8415C356.548 20.8415 356.701 20.7884 356.811 20.6821C356.92 20.5775 356.975 20.4283 356.975 20.2345V20.0853C356.804 20.2791 356.578 20.376 356.299 20.376C355.964 20.376 355.694 20.2456 355.486 19.985C355.28 19.7226 355.177 19.3754 355.177 18.9432V18.9124ZM355.921 18.9664C355.921 19.2185 355.971 19.4165 356.073 19.5606C356.174 19.7029 356.313 19.7741 356.489 19.7741C356.716 19.7741 356.878 19.6892 356.975 19.5194V18.3491C356.876 18.1793 356.716 18.0944 356.494 18.0944C356.316 18.0944 356.175 18.1673 356.073 18.313C355.971 18.4588 355.921 18.6766 355.921 18.9664ZM360.391 20.3245H359.645V17.5414H360.391V20.3245ZM359.602 16.8212C359.602 16.7097 359.638 16.6179 359.712 16.5459C359.788 16.4739 359.89 16.4379 360.018 16.4379C360.145 16.4379 360.246 16.4739 360.322 16.5459C360.397 16.6179 360.435 16.7097 360.435 16.8212C360.435 16.9343 360.396 17.0269 360.319 17.099C360.244 17.171 360.143 17.207 360.018 17.207C359.893 17.207 359.792 17.171 359.715 17.099C359.639 17.0269 359.602 16.9343 359.602 16.8212ZM361.69 17.5414L361.713 17.8629C361.912 17.6143 362.179 17.4899 362.513 17.4899C362.808 17.4899 363.028 17.5765 363.172 17.7497C363.316 17.9229 363.39 18.1819 363.393 18.5265V20.3245H362.65V18.5445C362.65 18.3868 362.615 18.2727 362.547 18.2024C362.478 18.1304 362.364 18.0944 362.205 18.0944C361.995 18.0944 361.839 18.1836 361.734 18.3619V20.3245H360.991V17.5414H361.69ZM364.193 20.6461H363.64L365.019 16.5794H365.572L364.193 20.6461ZM367.92 19.3419C367.92 19.1962 367.869 19.0847 367.766 19.0075C367.663 18.9287 367.478 18.8464 367.21 18.7606C366.943 18.6732 366.731 18.5874 366.575 18.5034C366.15 18.2736 365.937 17.9641 365.937 17.5748C365.937 17.3725 365.994 17.1924 366.107 17.0346C366.222 16.8752 366.385 16.7508 366.598 16.6617C366.812 16.5725 367.052 16.5279 367.318 16.5279C367.586 16.5279 367.824 16.5768 368.033 16.6745C368.243 16.7706 368.405 16.9069 368.52 17.0835C368.636 17.2601 368.694 17.4608 368.694 17.6854H367.923C367.923 17.5139 367.869 17.381 367.761 17.2867C367.653 17.1907 367.501 17.1427 367.305 17.1427C367.117 17.1427 366.97 17.183 366.866 17.2636C366.761 17.3425 366.709 17.4471 366.709 17.5774C366.709 17.6991 366.77 17.8012 366.891 17.8835C367.015 17.9658 367.196 18.043 367.434 18.115C367.873 18.247 368.193 18.4108 368.393 18.6063C368.594 18.8018 368.694 19.0453 368.694 19.3368C368.694 19.6609 368.572 19.9155 368.327 20.1007C368.081 20.2842 367.751 20.376 367.336 20.376C367.048 20.376 366.786 20.3237 366.549 20.2191C366.313 20.1127 366.132 19.9678 366.006 19.7844C365.883 19.6009 365.821 19.3882 365.821 19.1464H366.595C366.595 19.5597 366.842 19.7664 367.336 19.7664C367.52 19.7664 367.663 19.7295 367.766 19.6557C367.869 19.5803 367.92 19.4757 367.92 19.3419ZM369.955 20.3245H369.209V17.5414H369.955V20.3245ZM369.165 16.8212C369.165 16.7097 369.202 16.6179 369.276 16.5459C369.351 16.4739 369.453 16.4379 369.582 16.4379C369.709 16.4379 369.81 16.4739 369.885 16.5459C369.961 16.6179 369.999 16.7097 369.999 16.8212C369.999 16.9343 369.96 17.0269 369.883 17.099C369.807 17.171 369.707 17.207 369.582 17.207C369.457 17.207 369.355 17.171 369.278 17.099C369.203 17.0269 369.165 16.9343 369.165 16.8212ZM370.462 18.9124C370.462 18.4854 370.563 18.1416 370.765 17.8809C370.969 17.6203 371.244 17.4899 371.588 17.4899C371.893 17.4899 372.131 17.5945 372.301 17.8037L372.332 17.5414H373.005V20.2319C373.005 20.4754 372.95 20.6872 372.838 20.8673C372.729 21.0473 372.573 21.1845 372.373 21.2788C372.172 21.3731 371.937 21.4203 371.668 21.4203C371.464 21.4203 371.265 21.3791 371.071 21.2968C370.877 21.2162 370.731 21.1116 370.631 20.983L370.961 20.5303C371.146 20.7378 371.37 20.8415 371.634 20.8415C371.832 20.8415 371.985 20.7884 372.095 20.6821C372.205 20.5775 372.26 20.4283 372.26 20.2345V20.0853C372.088 20.2791 371.863 20.376 371.583 20.376C371.249 20.376 370.978 20.2456 370.77 19.985C370.564 19.7226 370.462 19.3754 370.462 18.9432V18.9124ZM371.205 18.9664C371.205 19.2185 371.256 19.4165 371.357 19.5606C371.458 19.7029 371.597 19.7741 371.773 19.7741C372 19.7741 372.162 19.6892 372.26 19.5194V18.3491C372.16 18.1793 372 18.0944 371.779 18.0944C371.6 18.0944 371.46 18.1673 371.357 18.313C371.256 18.4588 371.205 18.6766 371.205 18.9664ZM374.263 17.5414L374.286 17.8629C374.485 17.6143 374.752 17.4899 375.086 17.4899C375.381 17.4899 375.601 17.5765 375.745 17.7497C375.889 17.9229 375.963 18.1819 375.966 18.5265V20.3245H375.223V18.5445C375.223 18.3868 375.188 18.2727 375.12 18.2024C375.051 18.1304 374.937 18.0944 374.778 18.0944C374.569 18.0944 374.412 18.1836 374.307 18.3619V20.3245H373.564V17.5414H374.263ZM379.511 20.0416C379.327 20.2645 379.073 20.376 378.749 20.376C378.451 20.376 378.223 20.2902 378.065 20.1187C377.909 19.9473 377.829 19.696 377.826 19.3651V17.5414H378.569V19.3394C378.569 19.6292 378.701 19.7741 378.965 19.7741C379.217 19.7741 379.391 19.6866 379.485 19.5117V17.5414H380.231V20.3245H379.531L379.511 20.0416ZM383.297 18.9587C383.297 19.3874 383.199 19.7312 383.004 19.9901C382.81 20.2474 382.548 20.376 382.217 20.376C381.935 20.376 381.708 20.2782 381.535 20.0827V21.3946H380.792V17.5414H381.481L381.507 17.814C381.687 17.598 381.922 17.4899 382.211 17.4899C382.554 17.4899 382.821 17.6168 383.011 17.8706C383.202 18.1244 383.297 18.4742 383.297 18.9201V18.9587ZM382.554 18.9047C382.554 18.6457 382.507 18.4459 382.415 18.3053C382.324 18.1647 382.191 18.0944 382.016 18.0944C381.783 18.0944 381.622 18.1836 381.535 18.3619V19.5014C381.626 19.6849 381.788 19.7766 382.021 19.7766C382.376 19.7766 382.554 19.486 382.554 18.9047Z" fill="black"/>
<path d="M399.644 19.5529H398.291L398.034 20.3245H397.214L398.608 16.5794H399.323L400.725 20.3245H399.904L399.644 19.5529ZM398.5 18.9278H399.436L398.965 17.5259L398.5 18.9278ZM403.534 18.9587C403.534 19.4045 403.439 19.7526 403.248 20.003C403.058 20.2516 402.792 20.376 402.451 20.376C402.149 20.376 401.908 20.2602 401.728 20.0287L401.695 20.3245H401.026V16.3736H401.769V17.7909C401.941 17.5902 402.166 17.4899 402.446 17.4899C402.785 17.4899 403.051 17.6151 403.243 17.8655C403.437 18.1141 403.534 18.4648 403.534 18.9175V18.9587ZM402.79 18.9047C402.79 18.6234 402.746 18.4185 402.657 18.2899C402.567 18.1596 402.434 18.0944 402.258 18.0944C402.021 18.0944 401.858 18.1913 401.769 18.3851V19.4834C401.86 19.6789 402.025 19.7766 402.263 19.7766C402.503 19.7766 402.661 19.6583 402.736 19.4217C402.772 19.3085 402.79 19.1362 402.79 18.9047ZM403.878 18.9072C403.878 18.6311 403.932 18.3851 404.038 18.169C404.144 17.9529 404.297 17.7857 404.496 17.6674C404.696 17.5491 404.929 17.4899 405.193 17.4899C405.568 17.4899 405.874 17.6048 406.111 17.8346C406.349 18.0644 406.482 18.3765 406.51 18.7709L406.515 18.9612C406.515 19.3882 406.396 19.7312 406.157 19.9901C405.919 20.2474 405.599 20.376 405.198 20.376C404.797 20.376 404.476 20.2474 404.236 19.9901C403.998 19.7329 403.878 19.3831 403.878 18.9407V18.9072ZM404.622 18.9612C404.622 19.2253 404.671 19.4277 404.771 19.5683C404.87 19.7072 405.013 19.7766 405.198 19.7766C405.378 19.7766 405.519 19.708 405.62 19.5709C405.721 19.432 405.772 19.2107 405.772 18.9072C405.772 18.6483 405.721 18.4477 405.62 18.3053C405.519 18.163 405.376 18.0918 405.193 18.0918C405.011 18.0918 404.87 18.163 404.771 18.3053C404.671 18.4459 404.622 18.6646 404.622 18.9612ZM408.64 20.0416C408.456 20.2645 408.202 20.376 407.878 20.376C407.58 20.376 407.352 20.2902 407.194 20.1187C407.038 19.9473 406.958 19.696 406.955 19.3651V17.5414H407.698V19.3394C407.698 19.6292 407.83 19.7741 408.094 19.7741C408.346 19.7741 408.52 19.6866 408.614 19.5117V17.5414H409.36V20.3245H408.66L408.64 20.0416ZM410.811 16.8572V17.5414H411.286V18.0867H410.811V19.4757C410.811 19.5786 410.83 19.6523 410.87 19.6969C410.909 19.7415 410.985 19.7638 411.096 19.7638C411.178 19.7638 411.251 19.7578 411.315 19.7458V20.3091C411.169 20.3537 411.019 20.376 410.865 20.376C410.343 20.376 410.077 20.1127 410.067 19.5863V18.0867H409.661V17.5414H410.067V16.8572H410.811Z" fill="black"/>
<path d="M30.9546 314.997C30.9546 314.906 30.9225 314.837 30.8582 314.788C30.7939 314.739 30.6781 314.688 30.5109 314.634C30.3437 314.579 30.2114 314.526 30.1138 314.473C29.848 314.33 29.7151 314.136 29.7151 313.893C29.7151 313.766 29.7505 313.654 29.8213 313.555C29.8931 313.456 29.9954 313.378 30.1283 313.322C30.2623 313.266 30.4123 313.239 30.5785 313.239C30.7456 313.239 30.8946 313.269 31.0254 313.33C31.1561 313.39 31.2574 313.475 31.3292 313.586C31.4021 313.696 31.4385 313.822 31.4385 313.962H30.9562C30.9562 313.855 30.9225 313.772 30.855 313.713C30.7874 313.653 30.6926 313.623 30.5704 313.623C30.4525 313.623 30.3609 313.648 30.2955 313.698C30.2301 313.748 30.1974 313.813 30.1974 313.894C30.1974 313.971 30.2355 314.034 30.3116 314.086C30.3888 314.137 30.5018 314.185 30.6508 314.23C30.9252 314.313 31.1251 314.415 31.2504 314.538C31.3758 314.66 31.4385 314.812 31.4385 314.994C31.4385 315.197 31.3619 315.356 31.2086 315.472C31.0554 315.586 30.8491 315.644 30.5897 315.644C30.4096 315.644 30.2457 315.611 30.0978 315.546C29.9499 315.479 29.8368 315.389 29.7586 315.274C29.6814 315.159 29.6428 315.026 29.6428 314.875H30.1267C30.1267 315.133 30.281 315.263 30.5897 315.263C30.7044 315.263 30.7939 315.24 30.8582 315.193C30.9225 315.146 30.9546 315.081 30.9546 314.997ZM32.2263 315.611H31.7601V313.872H32.2263V315.611ZM31.7327 313.422C31.7327 313.352 31.7558 313.295 31.8019 313.25C31.849 313.205 31.9128 313.182 31.9932 313.182C32.0725 313.182 32.1357 313.205 32.1829 313.25C32.23 313.295 32.2536 313.352 32.2536 313.422C32.2536 313.493 32.2295 313.55 32.1813 313.595C32.1341 313.64 32.0714 313.663 31.9932 313.663C31.9149 313.663 31.8517 313.64 31.8035 313.595C31.7563 313.55 31.7327 313.493 31.7327 313.422ZM33.1668 313.444V313.872H33.4642V314.213H33.1668V315.081C33.1668 315.145 33.1791 315.191 33.2037 315.219C33.2284 315.247 33.2755 315.261 33.3452 315.261C33.3966 315.261 33.4422 315.257 33.4819 315.25V315.602C33.3908 315.63 33.297 315.644 33.2005 315.644C32.8747 315.644 32.7086 315.479 32.7021 315.15V314.213H32.4481V313.872H32.7021V313.444H33.1668ZM34.5236 315.644C34.2685 315.644 34.0606 315.565 33.8998 315.409C33.7401 315.252 33.6603 315.044 33.6603 314.784V314.739C33.6603 314.564 33.6941 314.408 33.7616 314.271C33.8291 314.132 33.9245 314.026 34.0477 313.952C34.1721 313.877 34.3135 313.84 34.4722 313.84C34.7101 313.84 34.8971 313.915 35.0332 314.065C35.1704 314.215 35.239 314.428 35.239 314.703V314.893H34.1313C34.1463 315.006 34.1914 315.098 34.2664 315.166C34.3425 315.235 34.4384 315.269 34.5541 315.269C34.7331 315.269 34.873 315.204 34.9737 315.074L35.202 315.33C35.1324 315.429 35.0381 315.506 34.9191 315.562C34.8001 315.616 34.6683 315.644 34.5236 315.644ZM34.4706 314.216C34.3784 314.216 34.3034 314.247 34.2455 314.309C34.1887 314.371 34.1522 314.46 34.1362 314.576H34.7824V314.539C34.7803 314.436 34.7524 314.357 34.6988 314.301C34.6452 314.244 34.5692 314.216 34.4706 314.216ZM35.9399 313.872L35.9544 314.067C36.0777 313.915 36.2443 313.84 36.4544 313.84C36.6784 313.84 36.8322 313.928 36.9158 314.105C37.038 313.928 37.2121 313.84 37.4383 313.84C37.6269 313.84 37.7673 313.895 37.8595 314.005C37.9516 314.115 37.9977 314.28 37.9977 314.501V315.611H37.5315V314.502C37.5315 314.404 37.5122 314.332 37.4736 314.287C37.435 314.241 37.367 314.218 37.2695 314.218C37.1301 314.218 37.0337 314.284 36.9801 314.417L36.9817 315.611H36.5171V314.504C36.5171 314.403 36.4973 314.33 36.4576 314.285C36.4179 314.24 36.3504 314.218 36.255 314.218C36.1232 314.218 36.0278 314.272 35.9689 314.382V315.611H35.5043V313.872H35.9399ZM39.3642 315.611C39.3428 315.57 39.3272 315.518 39.3176 315.456C39.2051 315.581 39.0588 315.644 38.8787 315.644C38.7083 315.644 38.5668 315.594 38.4543 315.496C38.3428 315.397 38.2871 315.273 38.2871 315.123C38.2871 314.938 38.3552 314.797 38.4913 314.698C38.6285 314.6 38.8262 314.55 39.0845 314.549H39.2983V314.449C39.2983 314.369 39.2774 314.304 39.2356 314.256C39.1949 314.208 39.13 314.184 39.0411 314.184C38.9628 314.184 38.9012 314.203 38.8562 314.24C38.8123 314.278 38.7903 314.329 38.7903 314.394H38.3257C38.3257 314.294 38.3568 314.2 38.4189 314.115C38.4811 314.029 38.569 313.962 38.6826 313.914C38.7962 313.864 38.9237 313.84 39.0652 313.84C39.2795 313.84 39.4494 313.894 39.5748 314.002C39.7013 314.109 39.7645 314.26 39.7645 314.456V315.21C39.7656 315.375 39.7886 315.499 39.8336 315.584V315.611H39.3642ZM38.98 315.288C39.0486 315.288 39.1118 315.273 39.1697 315.243C39.2276 315.212 39.2704 315.171 39.2983 315.12V314.82H39.1247C38.8921 314.82 38.7683 314.901 38.7533 315.062L38.7517 315.089C38.7517 315.147 38.7721 315.195 38.8128 315.232C38.8535 315.27 38.9093 315.288 38.98 315.288ZM41.6873 314.758C41.6873 315.026 41.6262 315.241 41.504 315.402C41.3829 315.563 41.2189 315.644 41.012 315.644C40.8363 315.644 40.6943 315.583 40.586 315.46V316.28H40.1214V313.872H40.5523L40.5683 314.042C40.6809 313.907 40.8277 313.84 41.0088 313.84C41.2232 313.84 41.3898 313.919 41.5088 314.078C41.6278 314.236 41.6873 314.455 41.6873 314.734V314.758ZM41.2226 314.724C41.2226 314.562 41.1937 314.437 41.1358 314.349C41.079 314.262 40.996 314.218 40.8867 314.218C40.7409 314.218 40.6407 314.273 40.586 314.385V315.097C40.6428 315.212 40.7441 315.269 40.8899 315.269C41.1117 315.269 41.2226 315.087 41.2226 314.724Z" fill="black"/>
<path d="M57.3408 314.832C57.3226 315.084 57.2294 315.282 57.0611 315.427C56.8939 315.571 56.6731 315.644 56.3988 315.644C56.0987 315.644 55.8623 315.543 55.6898 315.341C55.5183 315.139 55.4326 314.861 55.4326 314.509V314.366C55.4326 314.14 55.4722 313.942 55.5515 313.771C55.6308 313.599 55.7439 313.468 55.8908 313.377C56.0387 313.285 56.2101 313.239 56.4052 313.239C56.6753 313.239 56.8928 313.311 57.0579 313.456C57.2229 313.6 57.3183 313.803 57.3441 314.065H56.8618C56.85 313.914 56.8076 313.804 56.7348 313.737C56.663 313.668 56.5531 313.634 56.4052 313.634C56.2444 313.634 56.1239 313.692 56.0435 313.808C55.9642 313.922 55.9234 314.101 55.9213 314.343V314.52C55.9213 314.773 55.9593 314.958 56.0354 315.074C56.1126 315.191 56.2337 315.25 56.3988 315.25C56.5477 315.25 56.6587 315.216 56.7315 315.148C56.8055 315.08 56.8478 314.974 56.8586 314.832H57.3408ZM57.5547 314.726C57.5547 314.553 57.5879 314.399 57.6543 314.264C57.7208 314.129 57.8162 314.025 57.9405 313.951C58.0659 313.877 58.2111 313.84 58.3762 313.84C58.6109 313.84 58.8022 313.912 58.9501 314.055C59.0991 314.199 59.1821 314.394 59.1993 314.64L59.2025 314.759C59.2025 315.026 59.128 315.241 58.979 315.402C58.8301 315.563 58.6302 315.644 58.3794 315.644C58.1286 315.644 57.9282 315.563 57.7781 315.402C57.6291 315.242 57.5547 315.023 57.5547 314.747V314.726ZM58.0193 314.759C58.0193 314.924 58.0503 315.051 58.1125 315.139C58.1747 315.226 58.2636 315.269 58.3794 315.269C58.4919 315.269 58.5798 315.226 58.643 315.14C58.7063 315.054 58.7379 314.915 58.7379 314.726C58.7379 314.564 58.7063 314.438 58.643 314.349C58.5798 314.26 58.4908 314.216 58.3762 314.216C58.2626 314.216 58.1747 314.26 58.1125 314.349C58.0503 314.437 58.0193 314.574 58.0193 314.759ZM61.0545 314.758C61.0545 315.026 60.9934 315.241 60.8712 315.402C60.7501 315.563 60.5861 315.644 60.3793 315.644C60.2035 315.644 60.0615 315.583 59.9533 315.46V316.28H59.4887V313.872H59.9195L59.9356 314.042C60.0481 313.907 60.1949 313.84 60.3761 313.84C60.5904 313.84 60.7571 313.919 60.876 314.078C60.995 314.236 61.0545 314.455 61.0545 314.734V314.758ZM60.5899 314.724C60.5899 314.562 60.5609 314.437 60.5031 314.349C60.4463 314.262 60.3632 314.218 60.2539 314.218C60.1081 314.218 60.0079 314.273 59.9533 314.385V315.097C60.0101 315.212 60.1113 315.269 60.2571 315.269C60.479 315.269 60.5899 315.087 60.5899 314.724ZM61.9741 314.954L62.2956 313.872H62.794L62.0946 315.882L62.0561 315.973C61.9521 316.2 61.7806 316.314 61.5416 316.314C61.4741 316.314 61.4055 316.304 61.3358 316.283V315.931L61.4066 315.933C61.4945 315.933 61.5598 315.92 61.6027 315.893C61.6466 315.866 61.6809 315.822 61.7056 315.759L61.7603 315.616L61.151 313.872H61.6509L61.9741 314.954ZM63.9547 314.308C63.8914 314.299 63.8357 314.295 63.7875 314.295C63.6117 314.295 63.4965 314.354 63.4418 314.473V315.611H62.9772V313.872H63.4161L63.429 314.079C63.5222 313.92 63.6514 313.84 63.8164 313.84C63.8679 313.84 63.9161 313.847 63.9611 313.861L63.9547 314.308ZM64.6701 315.611H64.2039V313.872H64.6701V315.611ZM64.1765 313.422C64.1765 313.352 64.1996 313.295 64.2457 313.25C64.2928 313.205 64.3566 313.182 64.437 313.182C64.5163 313.182 64.5795 313.205 64.6267 313.25C64.6738 313.295 64.6974 313.352 64.6974 313.422C64.6974 313.493 64.6733 313.55 64.6251 313.595C64.5779 313.64 64.5152 313.663 64.437 313.663C64.3587 313.663 64.2955 313.64 64.2473 313.595C64.2001 313.55 64.1765 313.493 64.1765 313.422ZM64.9868 314.729C64.9868 314.462 65.05 314.247 65.1765 314.084C65.304 313.921 65.4755 313.84 65.6909 313.84C65.8817 313.84 66.0301 313.905 66.1363 314.036L66.1555 313.872H66.5767V315.554C66.5767 315.706 66.5419 315.838 66.4722 315.951C66.4037 316.063 66.3067 316.149 66.1813 316.208C66.0559 316.267 65.909 316.296 65.7408 316.296C65.6132 316.296 65.4889 316.271 65.3678 316.219C65.2467 316.169 65.1551 316.103 65.0929 316.023L65.2987 315.74C65.4144 315.87 65.5548 315.935 65.7199 315.935C65.8431 315.935 65.939 315.901 66.0076 315.835C66.0762 315.77 66.1105 315.676 66.1105 315.555V315.462C66.0034 315.583 65.8624 315.644 65.6877 315.644C65.4787 315.644 65.3094 315.562 65.1797 315.399C65.0511 315.235 64.9868 315.018 64.9868 314.748V314.729ZM65.4514 314.763C65.4514 314.92 65.483 315.044 65.5462 315.134C65.6095 315.223 65.6963 315.267 65.8067 315.267C65.9482 315.267 66.0494 315.214 66.1105 315.108V314.377C66.0484 314.271 65.9482 314.218 65.8099 314.218C65.6984 314.218 65.6106 314.263 65.5462 314.354C65.483 314.445 65.4514 314.581 65.4514 314.763ZM67.3886 314.062C67.5119 313.914 67.6667 313.84 67.8532 313.84C68.2305 313.84 68.4218 314.059 68.4271 314.497V315.611H67.9625V314.51C67.9625 314.411 67.9411 314.337 67.8982 314.29C67.8554 314.242 67.7841 314.218 67.6844 314.218C67.5483 314.218 67.4497 314.27 67.3886 314.375V315.611H66.924V313.142H67.3886V314.062ZM69.3339 313.444V313.872H69.6313V314.213H69.3339V315.081C69.3339 315.145 69.3462 315.191 69.3708 315.219C69.3955 315.247 69.4426 315.261 69.5123 315.261C69.5637 315.261 69.6093 315.257 69.6489 315.25V315.602C69.5578 315.63 69.4641 315.644 69.3676 315.644C69.0418 315.644 68.8757 315.479 68.8692 315.15V314.213H68.6152V313.872H68.8692V313.444H69.3339ZM71.2534 315.611H70.7711V313.271H71.2534V315.611ZM72.099 313.872L72.1135 314.073C72.2378 313.918 72.4044 313.84 72.6134 313.84C72.7978 313.84 72.935 313.894 73.025 314.002C73.115 314.11 73.1611 314.272 73.1633 314.488V315.611H72.6986V314.499C72.6986 314.4 72.6772 314.329 72.6343 314.285C72.5915 314.24 72.5202 314.218 72.4205 314.218C72.2898 314.218 72.1917 314.273 72.1263 314.385V315.611H71.6617V313.872H72.099ZM73.6439 315.611V314.213H73.3851V313.872H73.6439V313.724C73.6439 313.529 73.6997 313.378 73.8111 313.271C73.9237 313.162 74.0807 313.108 74.2822 313.108C74.3465 313.108 74.4253 313.119 74.5185 313.141L74.5137 313.501C74.4751 313.491 74.4279 313.486 74.3722 313.486C74.1975 313.486 74.1102 313.568 74.1102 313.732V313.872H74.4558V314.213H74.1102V315.611H73.6439ZM74.6246 314.726C74.6246 314.553 74.6578 314.399 74.7243 314.264C74.7907 314.129 74.8861 314.025 75.0104 313.951C75.1358 313.877 75.2811 313.84 75.4461 313.84C75.6808 313.84 75.8721 313.912 76.02 314.055C76.169 314.199 76.2521 314.394 76.2692 314.64L76.2724 314.759C76.2724 315.026 76.1979 315.241 76.049 315.402C75.9 315.563 75.7001 315.644 75.4493 315.644C75.1985 315.644 74.9981 315.563 74.8481 315.402C74.6991 315.242 74.6246 315.023 74.6246 314.747V314.726ZM75.0892 314.759C75.0892 314.924 75.1203 315.051 75.1825 315.139C75.2446 315.226 75.3336 315.269 75.4493 315.269C75.5619 315.269 75.6497 315.226 75.713 315.14C75.7762 315.054 75.8078 314.915 75.8078 314.726C75.8078 314.564 75.7762 314.438 75.713 314.349C75.6497 314.26 75.5608 314.216 75.4461 314.216C75.3325 314.216 75.2446 314.26 75.1825 314.349C75.1203 314.437 75.0892 314.574 75.0892 314.759Z" fill="black"/>
<path d="M94.587 313.271H95.0693V314.891C95.0693 315.04 95.036 315.172 94.9696 315.287C94.9042 315.4 94.8115 315.488 94.6915 315.55C94.5714 315.613 94.4358 315.644 94.2847 315.644C94.0372 315.644 93.8442 315.581 93.706 315.456C93.5677 315.329 93.4986 315.151 93.4986 314.92H93.9841C93.9841 315.035 94.0082 315.12 94.0564 315.174C94.1047 315.229 94.1808 315.256 94.2847 315.256C94.3769 315.256 94.4503 315.225 94.505 315.161C94.5596 315.098 94.587 315.008 94.587 314.891V313.271ZM95.3795 314.726C95.3795 314.553 95.4128 314.399 95.4792 314.264C95.5457 314.129 95.641 314.025 95.7654 313.951C95.8908 313.877 96.036 313.84 96.201 313.84C96.4358 313.84 96.6271 313.912 96.775 314.055C96.9239 314.199 97.007 314.394 97.0242 314.64L97.0274 314.759C97.0274 315.026 96.9529 315.241 96.8039 315.402C96.6549 315.563 96.455 315.644 96.2043 315.644C95.9535 315.644 95.753 315.563 95.603 315.402C95.454 315.242 95.3795 315.023 95.3795 314.747V314.726ZM95.8441 314.759C95.8441 314.924 95.8752 315.051 95.9374 315.139C95.9995 315.226 96.0885 315.269 96.2043 315.269C96.3168 315.269 96.4047 315.226 96.4679 315.14C96.5311 315.054 96.5628 314.915 96.5628 314.726C96.5628 314.564 96.5311 314.438 96.4679 314.349C96.4047 314.26 96.3157 314.216 96.201 314.216C96.0874 314.216 95.9995 314.26 95.9374 314.349C95.8752 314.437 95.8441 314.574 95.8441 314.759ZM98.881 314.758C98.881 315.036 98.8215 315.254 98.7025 315.41C98.5836 315.566 98.4174 315.644 98.2042 315.644C98.0155 315.644 97.8649 315.571 97.7524 315.427L97.7315 315.611H97.3135V313.142H97.7781V314.028C97.8853 313.903 98.0262 313.84 98.2009 313.84C98.4132 313.84 98.5793 313.918 98.6993 314.075C98.8204 314.23 98.881 314.449 98.881 314.732V314.758ZM98.4164 314.724C98.4164 314.548 98.3885 314.42 98.3328 314.34C98.277 314.258 98.194 314.218 98.0836 314.218C97.9357 314.218 97.8339 314.278 97.7781 314.399V315.086C97.8349 315.208 97.9378 315.269 98.0868 315.269C98.2368 315.269 98.3355 315.195 98.3826 315.047C98.4051 314.976 98.4164 314.869 98.4164 314.724ZM100.111 315.131C100.111 315.074 100.082 315.029 100.026 314.997C99.9699 314.964 99.8799 314.935 99.7555 314.909C99.3418 314.822 99.135 314.646 99.135 314.382C99.135 314.227 99.1988 314.099 99.3263 313.996C99.4549 313.892 99.6226 313.84 99.8295 313.84C100.05 313.84 100.227 313.892 100.358 313.996C100.491 314.1 100.558 314.235 100.558 314.401H100.093C100.093 314.334 100.072 314.28 100.029 314.237C99.986 314.193 99.919 314.171 99.8279 314.171C99.7496 314.171 99.6891 314.189 99.6462 314.224C99.6033 314.259 99.5819 314.304 99.5819 314.359C99.5819 314.411 99.606 314.452 99.6543 314.484C99.7036 314.516 99.7861 314.543 99.9018 314.566C100.018 314.589 100.115 314.615 100.194 314.644C100.44 314.734 100.563 314.89 100.563 315.111C100.563 315.27 100.495 315.399 100.358 315.497C100.222 315.595 100.047 315.644 99.8311 315.644C99.6853 315.644 99.5557 315.618 99.442 315.566C99.3295 315.514 99.2411 315.443 99.1768 315.353C99.1125 315.262 99.0803 315.163 99.0803 315.058H99.5208C99.5251 315.141 99.5557 315.204 99.6125 315.248C99.6693 315.292 99.7454 315.314 99.8407 315.314C99.9297 315.314 99.9967 315.297 100.042 315.264C100.088 315.23 100.111 315.185 100.111 315.131Z" fill="black"/>
<path d="M124.545 314.832C124.526 315.084 124.433 315.282 124.265 315.427C124.098 315.571 123.877 315.644 123.602 315.644C123.302 315.644 123.066 315.543 122.893 315.341C122.722 315.139 122.636 314.861 122.636 314.509V314.366C122.636 314.14 122.676 313.942 122.755 313.771C122.835 313.599 122.948 313.468 123.094 313.377C123.242 313.285 123.414 313.239 123.609 313.239C123.879 313.239 124.097 313.311 124.262 313.456C124.427 313.6 124.522 313.803 124.548 314.065H124.065C124.054 313.914 124.011 313.804 123.938 313.737C123.867 313.668 123.757 313.634 123.609 313.634C123.448 313.634 123.328 313.692 123.247 313.808C123.168 313.922 123.127 314.101 123.125 314.343V314.52C123.125 314.773 123.163 314.958 123.239 315.074C123.316 315.191 123.437 315.25 123.602 315.25C123.751 315.25 123.862 315.216 123.935 315.148C124.009 315.08 124.052 314.974 124.062 314.832H124.545ZM124.758 314.726C124.758 314.553 124.792 314.399 124.858 314.264C124.924 314.129 125.02 314.025 125.144 313.951C125.27 313.877 125.415 313.84 125.58 313.84C125.815 313.84 126.006 313.912 126.154 314.055C126.303 314.199 126.386 314.394 126.403 314.64L126.406 314.759C126.406 315.026 126.332 315.241 126.183 315.402C126.034 315.563 125.834 315.644 125.583 315.644C125.332 315.644 125.132 315.563 124.982 315.402C124.833 315.242 124.758 315.023 124.758 314.747V314.726ZM125.223 314.759C125.223 314.924 125.254 315.051 125.316 315.139C125.378 315.226 125.467 315.269 125.583 315.269C125.696 315.269 125.783 315.226 125.847 315.14C125.91 315.054 125.942 314.915 125.942 314.726C125.942 314.564 125.91 314.438 125.847 314.349C125.783 314.26 125.695 314.216 125.58 314.216C125.466 314.216 125.378 314.26 125.316 314.349C125.254 314.437 125.223 314.574 125.223 314.759ZM127.12 313.872L127.134 314.073C127.259 313.918 127.425 313.84 127.634 313.84C127.819 313.84 127.956 313.894 128.046 314.002C128.136 314.11 128.182 314.272 128.184 314.488V315.611H127.72V314.499C127.72 314.4 127.698 314.329 127.655 314.285C127.612 314.24 127.541 314.218 127.442 314.218C127.311 314.218 127.213 314.273 127.147 314.385V315.611H126.683V313.872H127.12ZM129.094 313.444V313.872H129.392V314.213H129.094V315.081C129.094 315.145 129.106 315.191 129.131 315.219C129.156 315.247 129.203 315.261 129.273 315.261C129.324 315.261 129.37 315.257 129.409 315.25V315.602C129.318 315.63 129.224 315.644 129.128 315.644C128.802 315.644 128.636 315.479 128.63 315.15V314.213H128.376V313.872H128.63V313.444H129.094ZM130.658 315.611C130.637 315.57 130.621 315.518 130.612 315.456C130.499 315.581 130.353 315.644 130.173 315.644C130.002 315.644 129.861 315.594 129.748 315.496C129.637 315.397 129.581 315.273 129.581 315.123C129.581 314.938 129.649 314.797 129.785 314.698C129.923 314.6 130.12 314.55 130.379 314.549H130.592V314.449C130.592 314.369 130.572 314.304 130.53 314.256C130.489 314.208 130.424 314.184 130.335 314.184C130.257 314.184 130.195 314.203 130.15 314.24C130.106 314.278 130.084 314.329 130.084 314.394H129.62C129.62 314.294 129.651 314.2 129.713 314.115C129.775 314.029 129.863 313.962 129.977 313.914C130.09 313.864 130.218 313.84 130.359 313.84C130.574 313.84 130.744 313.894 130.869 314.002C130.995 314.109 131.059 314.26 131.059 314.456V315.21C131.06 315.375 131.083 315.499 131.128 315.584V315.611H130.658ZM130.274 315.288C130.343 315.288 130.406 315.273 130.464 315.243C130.522 315.212 130.565 315.171 130.592 315.12V314.82H130.419C130.186 314.82 130.062 314.901 130.047 315.062L130.046 315.089C130.046 315.147 130.066 315.195 130.107 315.232C130.148 315.27 130.203 315.288 130.274 315.288ZM132.139 315.269C132.225 315.269 132.294 315.245 132.348 315.198C132.402 315.151 132.429 315.088 132.432 315.01H132.867C132.866 315.128 132.834 315.236 132.771 315.335C132.708 315.432 132.621 315.509 132.51 315.563C132.401 315.617 132.28 315.644 132.147 315.644C131.898 315.644 131.702 315.565 131.559 315.407C131.415 315.249 131.343 315.03 131.343 314.751V314.721C131.343 314.453 131.415 314.239 131.557 314.079C131.7 313.92 131.895 313.84 132.144 313.84C132.361 313.84 132.536 313.902 132.666 314.026C132.798 314.15 132.865 314.314 132.867 314.52H132.432C132.429 314.43 132.402 314.357 132.348 314.301C132.294 314.244 132.224 314.216 132.136 314.216C132.028 314.216 131.946 314.256 131.89 314.335C131.835 314.413 131.808 314.541 131.808 314.718V314.766C131.808 314.945 131.835 315.073 131.89 315.152C131.945 315.23 132.028 315.269 132.139 315.269ZM133.689 313.444V313.872H133.986V314.213H133.689V315.081C133.689 315.145 133.701 315.191 133.726 315.219C133.75 315.247 133.798 315.261 133.867 315.261C133.919 315.261 133.964 315.257 134.004 315.25V315.602C133.913 315.63 133.819 315.644 133.723 315.644C133.397 315.644 133.231 315.479 133.224 315.15V314.213H132.97V313.872H133.224V313.444H133.689Z" fill="black"/>
<path d="M424.969 19.005V20.3245H424.197V16.5794H425.658C425.94 16.5794 426.187 16.6308 426.399 16.7337C426.614 16.8366 426.778 16.9832 426.893 17.1735C427.008 17.3622 427.065 17.5774 427.065 17.8192C427.065 18.1861 426.939 18.476 426.687 18.6886C426.437 18.8995 426.09 19.005 425.646 19.005H424.969ZM424.969 18.3799H425.658C425.862 18.3799 426.018 18.3319 426.124 18.2359C426.232 18.1398 426.286 18.0027 426.286 17.8243C426.286 17.6408 426.232 17.4925 426.124 17.3793C426.016 17.2661 425.867 17.2078 425.676 17.2044H424.969V18.3799ZM429.113 18.2384C429.012 18.2247 428.923 18.2179 428.845 18.2179C428.564 18.2179 428.38 18.313 428.292 18.5034V20.3245H427.549V17.5414H428.251L428.272 17.8732C428.421 17.6177 428.628 17.4899 428.892 17.4899C428.974 17.4899 429.051 17.5011 429.123 17.5234L429.113 18.2384ZM430.258 20.3245H429.512V17.5414H430.258V20.3245ZM429.468 16.8212C429.468 16.7097 429.505 16.6179 429.578 16.5459C429.654 16.4739 429.756 16.4379 429.885 16.4379C430.011 16.4379 430.113 16.4739 430.188 16.5459C430.264 16.6179 430.301 16.7097 430.301 16.8212C430.301 16.9343 430.263 17.0269 430.185 17.099C430.11 17.171 430.01 17.207 429.885 17.207C429.759 17.207 429.658 17.171 429.581 17.099C429.506 17.0269 429.468 16.9343 429.468 16.8212ZM432.03 19.7766C432.167 19.7766 432.278 19.7389 432.364 19.6635C432.45 19.588 432.494 19.4877 432.498 19.3625H433.195C433.193 19.5511 433.142 19.7243 433.041 19.8821C432.939 20.0381 432.801 20.1599 432.624 20.2474C432.449 20.3331 432.255 20.376 432.043 20.376C431.645 20.376 431.331 20.2499 431.101 19.9979C430.871 19.7441 430.757 19.3942 430.757 18.9484V18.8995C430.757 18.4708 430.871 18.1287 431.099 17.8732C431.327 17.6177 431.64 17.4899 432.038 17.4899C432.386 17.4899 432.664 17.5894 432.873 17.7883C433.084 17.9855 433.192 18.2487 433.195 18.578H432.498C432.494 18.4339 432.45 18.3173 432.364 18.2282C432.278 18.1373 432.165 18.0918 432.025 18.0918C431.851 18.0918 431.72 18.1553 431.631 18.2822C431.544 18.4074 431.5 18.6114 431.5 18.8944V18.9715C431.5 19.2579 431.544 19.4637 431.631 19.5889C431.719 19.714 431.851 19.7766 432.03 19.7766ZM434.404 20.3245H433.658V17.5414H434.404V20.3245ZM433.614 16.8212C433.614 16.7097 433.651 16.6179 433.725 16.5459C433.8 16.4739 433.902 16.4379 434.031 16.4379C434.158 16.4379 434.259 16.4739 434.334 16.5459C434.41 16.6179 434.448 16.7097 434.448 16.8212C434.448 16.9343 434.409 17.0269 434.332 17.099C434.256 17.171 434.156 17.207 434.031 17.207C433.906 17.207 433.805 17.171 433.727 17.099C433.652 17.0269 433.614 16.9343 433.614 16.8212ZM435.703 17.5414L435.726 17.8629C435.925 17.6143 436.192 17.4899 436.526 17.4899C436.821 17.4899 437.04 17.5765 437.185 17.7497C437.329 17.9229 437.402 18.1819 437.406 18.5265V20.3245H436.662V18.5445C436.662 18.3868 436.628 18.2727 436.559 18.2024C436.491 18.1304 436.377 18.0944 436.217 18.0944C436.008 18.0944 435.851 18.1836 435.747 18.3619V20.3245H435.003V17.5414H435.703ZM437.864 18.9124C437.864 18.4854 437.965 18.1416 438.167 17.8809C438.371 17.6203 438.646 17.4899 438.99 17.4899C439.295 17.4899 439.533 17.5945 439.703 17.8037L439.734 17.5414H440.408V20.2319C440.408 20.4754 440.352 20.6872 440.24 20.8673C440.131 21.0473 439.975 21.1845 439.775 21.2788C439.574 21.3731 439.339 21.4203 439.07 21.4203C438.866 21.4203 438.667 21.3791 438.473 21.2968C438.279 21.2162 438.133 21.1116 438.033 20.983L438.363 20.5303C438.548 20.7378 438.772 20.8415 439.037 20.8415C439.234 20.8415 439.387 20.7884 439.497 20.6821C439.607 20.5775 439.662 20.4283 439.662 20.2345V20.0853C439.49 20.2791 439.265 20.376 438.985 20.376C438.651 20.376 438.38 20.2456 438.172 19.985C437.966 19.7226 437.864 19.3754 437.864 18.9432V18.9124ZM438.607 18.9664C438.607 19.2185 438.658 19.4165 438.759 19.5606C438.86 19.7029 438.999 19.7741 439.175 19.7741C439.402 19.7741 439.564 19.6892 439.662 19.5194V18.3491C439.562 18.1793 439.402 18.0944 439.181 18.0944C439.002 18.0944 438.862 18.1673 438.759 18.313C438.658 18.4588 438.607 18.6766 438.607 18.9664Z" fill="black"/>
<path d="M453.184 20.3245H452.412V18.7195H450.908V20.3245H450.136V16.5794H450.908V18.097H452.412V16.5794H453.184V20.3245ZM455.093 20.376C454.685 20.376 454.352 20.2508 454.095 20.0004C453.839 19.7501 453.711 19.4165 453.711 18.9998V18.9278C453.711 18.6483 453.765 18.3988 453.874 18.1793C453.982 17.9581 454.134 17.7883 454.331 17.67C454.53 17.5499 454.757 17.4899 455.01 17.4899C455.391 17.4899 455.69 17.61 455.908 17.85C456.128 18.0901 456.237 18.4305 456.237 18.8712V19.1747H454.465C454.489 19.3565 454.561 19.5023 454.681 19.612C454.803 19.7218 454.956 19.7766 455.142 19.7766C455.428 19.7766 455.652 19.6729 455.813 19.4654L456.178 19.8744C456.067 20.0321 455.916 20.1556 455.726 20.2448C455.535 20.3322 455.324 20.376 455.093 20.376ZM455.008 18.0918C454.86 18.0918 454.74 18.1416 454.648 18.241C454.557 18.3405 454.499 18.4828 454.473 18.668H455.507V18.6088C455.503 18.4442 455.459 18.3173 455.373 18.2282C455.287 18.1373 455.166 18.0918 455.008 18.0918ZM457.446 20.3245H456.7V16.3736H457.446V20.3245ZM460.566 18.9587C460.566 19.3874 460.469 19.7312 460.273 19.9901C460.079 20.2474 459.817 20.376 459.486 20.376C459.205 20.376 458.978 20.2782 458.804 20.0827V21.3946H458.061V17.5414H458.75L458.776 17.814C458.956 17.598 459.191 17.4899 459.481 17.4899C459.824 17.4899 460.091 17.6168 460.281 17.8706C460.471 18.1244 460.566 18.4742 460.566 18.9201V18.9587ZM459.823 18.9047C459.823 18.6457 459.777 18.4459 459.684 18.3053C459.593 18.1647 459.46 18.0944 459.285 18.0944C459.052 18.0944 458.892 18.1836 458.804 18.3619V19.5014C458.895 19.6849 459.057 19.7766 459.291 19.7766C459.646 19.7766 459.823 19.486 459.823 18.9047ZM461.264 20.6461H460.71L462.089 16.5794H462.642L461.264 20.6461ZM465.302 18.794H463.82V20.3245H463.049V16.5794H465.487V17.2044H463.82V18.1716H465.302V18.794ZM467.555 19.5529H466.202L465.945 20.3245H465.124L466.519 16.5794H467.234L468.636 20.3245H467.815L467.555 19.5529ZM466.411 18.9278H467.347L466.876 17.5259L466.411 18.9278ZM472 18.5368C472 18.8866 471.943 19.191 471.83 19.45C471.717 19.7072 471.56 19.9138 471.36 20.0699L471.982 20.5586L471.491 20.9933L470.693 20.3528C470.602 20.3683 470.508 20.376 470.41 20.376C470.1 20.376 469.823 20.3014 469.58 20.1522C469.336 20.003 469.147 19.7904 469.014 19.5143C468.88 19.2365 468.812 18.9175 468.81 18.5574V18.3722C468.81 18.0035 468.876 17.6794 469.008 17.3999C469.142 17.1187 469.33 16.9035 469.572 16.7543C469.815 16.6034 470.093 16.5279 470.405 16.5279C470.717 16.5279 470.994 16.6034 471.236 16.7543C471.48 16.9035 471.667 17.1187 471.799 17.3999C471.933 17.6794 472 18.0027 472 18.3696V18.5368ZM471.218 18.3671C471.218 17.9744 471.148 17.676 471.007 17.4719C470.866 17.2679 470.666 17.1658 470.405 17.1658C470.146 17.1658 469.946 17.267 469.806 17.4694C469.665 17.67 469.594 17.9649 469.592 18.3542V18.5368C469.592 18.9192 469.663 19.2159 469.803 19.4268C469.944 19.6377 470.146 19.7432 470.41 19.7432C470.669 19.7432 470.868 19.642 471.007 19.4397C471.146 19.2356 471.216 18.939 471.218 18.5497V18.3671Z" fill="black"/>
<path d="M194.345 136.898C194.345 137.727 194.199 138.455 193.906 139.08C193.612 139.705 193.192 140.187 192.644 140.526C192.1 140.866 191.475 141.036 190.769 141.036C190.07 141.036 189.447 140.868 188.899 140.532C188.352 140.197 187.927 139.718 187.626 139.097C187.325 138.472 187.173 137.754 187.169 136.944V136.527C187.169 135.698 187.317 134.968 187.615 134.34C187.916 133.707 188.338 133.223 188.882 132.887C189.43 132.547 190.055 132.378 190.757 132.378C191.459 132.378 192.083 132.547 192.627 132.887C193.174 133.223 193.597 133.707 193.894 134.34C194.195 134.968 194.345 135.696 194.345 136.521V136.898ZM192.586 136.516C192.586 135.632 192.428 134.961 192.111 134.502C191.795 134.042 191.344 133.813 190.757 133.813C190.175 133.813 189.725 134.041 189.409 134.496C189.092 134.947 188.932 135.611 188.928 136.487V136.898C188.928 137.758 189.087 138.426 189.403 138.9C189.719 139.375 190.175 139.612 190.769 139.612C191.351 139.612 191.799 139.384 192.111 138.929C192.424 138.47 192.582 137.802 192.586 136.927V136.516ZM199.016 136.226C198.788 136.195 198.588 136.18 198.414 136.18C197.781 136.18 197.367 136.394 197.17 136.822V140.92H195.497V134.658H197.077L197.123 135.404C197.459 134.83 197.924 134.542 198.518 134.542C198.703 134.542 198.877 134.567 199.039 134.617L199.016 136.226ZM199.467 137.743C199.467 136.782 199.695 136.008 200.15 135.422C200.609 134.835 201.227 134.542 202.002 134.542C202.689 134.542 203.224 134.778 203.605 135.248L203.675 134.658H205.191V140.712C205.191 141.26 205.066 141.736 204.815 142.141C204.568 142.546 204.219 142.855 203.768 143.067C203.316 143.279 202.788 143.385 202.182 143.385C201.723 143.385 201.275 143.293 200.839 143.108C200.403 142.926 200.073 142.691 199.849 142.402L200.59 141.383C201.007 141.85 201.512 142.083 202.107 142.083C202.55 142.083 202.896 141.964 203.142 141.724C203.389 141.489 203.513 141.153 203.513 140.717V140.382C203.127 140.818 202.62 141.036 201.991 141.036C201.238 141.036 200.629 140.742 200.162 140.156C199.699 139.566 199.467 138.784 199.467 137.812V137.743ZM201.14 137.864C201.14 138.431 201.254 138.877 201.481 139.201C201.709 139.521 202.022 139.681 202.419 139.681C202.928 139.681 203.293 139.49 203.513 139.108V136.475C203.289 136.093 202.928 135.902 202.431 135.902C202.029 135.902 201.713 136.066 201.481 136.394C201.254 136.722 201.14 137.212 201.14 137.864ZM210.111 140.92C210.033 140.77 209.978 140.582 209.943 140.359C209.538 140.81 209.011 141.036 208.363 141.036C207.749 141.036 207.24 140.858 206.835 140.503C206.434 140.148 206.233 139.701 206.233 139.161C206.233 138.497 206.478 137.988 206.968 137.633C207.462 137.278 208.174 137.098 209.104 137.094H209.873V136.736C209.873 136.446 209.798 136.215 209.648 136.041C209.501 135.867 209.268 135.781 208.947 135.781C208.666 135.781 208.444 135.848 208.282 135.983C208.124 136.118 208.045 136.303 208.045 136.539H206.372C206.372 136.176 206.484 135.84 206.708 135.532C206.931 135.223 207.248 134.982 207.657 134.808C208.066 134.631 208.525 134.542 209.034 134.542C209.806 134.542 210.417 134.737 210.869 135.127C211.324 135.513 211.552 136.057 211.552 136.759V139.473C211.556 140.067 211.639 140.517 211.801 140.822V140.92H210.111ZM208.727 139.757C208.974 139.757 209.202 139.703 209.41 139.595C209.619 139.483 209.773 139.334 209.873 139.149V138.073H209.248C208.411 138.073 207.965 138.362 207.911 138.941L207.906 139.039C207.906 139.247 207.979 139.419 208.126 139.554C208.272 139.689 208.473 139.757 208.727 139.757ZM214.376 134.658L214.428 135.381C214.876 134.822 215.476 134.542 216.228 134.542C216.892 134.542 217.386 134.737 217.71 135.127C218.034 135.516 218.2 136.099 218.207 136.875V140.92H216.535V136.915C216.535 136.56 216.458 136.303 216.303 136.145C216.149 135.983 215.892 135.902 215.534 135.902C215.063 135.902 214.71 136.103 214.474 136.504V140.92H212.802V134.658H214.376ZM221.246 140.92H219.567V134.658H221.246V140.92ZM219.469 133.037C219.469 132.787 219.552 132.58 219.718 132.418C219.888 132.256 220.117 132.175 220.407 132.175C220.692 132.175 220.92 132.256 221.09 132.418C221.259 132.58 221.344 132.787 221.344 133.037C221.344 133.292 221.257 133.5 221.084 133.662C220.914 133.824 220.688 133.906 220.407 133.906C220.125 133.906 219.897 133.824 219.724 133.662C219.554 133.5 219.469 133.292 219.469 133.037ZM224.55 139.571H227.612V140.92H222.415V139.901L225.361 136.012H222.502V134.658H227.519V135.648L224.55 139.571ZM230.425 140.92H228.746V134.658H230.425V140.92ZM228.648 133.037C228.648 132.787 228.731 132.58 228.897 132.418C229.067 132.256 229.296 132.175 229.586 132.175C229.871 132.175 230.099 132.256 230.269 132.418C230.438 132.58 230.523 132.787 230.523 133.037C230.523 133.292 230.436 133.5 230.263 133.662C230.093 133.824 229.867 133.906 229.586 133.906C229.304 133.906 229.076 133.824 228.903 133.662C228.733 133.5 228.648 133.292 228.648 133.037ZM233.347 134.658L233.4 135.381C233.847 134.822 234.447 134.542 235.199 134.542C235.863 134.542 236.357 134.737 236.681 135.127C237.005 135.516 237.171 136.099 237.179 136.875V140.92H235.506V136.915C235.506 136.56 235.429 136.303 235.275 136.145C235.12 135.983 234.864 135.902 234.505 135.902C234.034 135.902 233.681 136.103 233.446 136.504V140.92H231.773V134.658H233.347ZM238.209 137.743C238.209 136.782 238.437 136.008 238.892 135.422C239.351 134.835 239.968 134.542 240.744 134.542C241.431 134.542 241.965 134.778 242.347 135.248L242.417 134.658H243.933V140.712C243.933 141.26 243.807 141.736 243.557 142.141C243.31 142.546 242.961 142.855 242.509 143.067C242.058 143.279 241.529 143.385 240.923 143.385C240.464 143.385 240.017 143.293 239.581 143.108C239.145 142.926 238.815 142.691 238.591 142.402L239.332 141.383C239.748 141.85 240.254 142.083 240.848 142.083C241.292 142.083 241.637 141.964 241.884 141.724C242.131 141.489 242.254 141.153 242.254 140.717V140.382C241.869 140.818 241.361 141.036 240.732 141.036C239.98 141.036 239.37 140.742 238.904 140.156C238.441 139.566 238.209 138.784 238.209 137.812V137.743ZM239.882 137.864C239.882 138.431 239.995 138.877 240.223 139.201C240.451 139.521 240.763 139.681 241.161 139.681C241.67 139.681 242.035 139.49 242.254 139.108V136.475C242.031 136.093 241.67 135.902 241.172 135.902C240.771 135.902 240.455 136.066 240.223 136.394C239.995 136.722 239.882 137.212 239.882 137.864ZM249.946 134.658V141.261C249.946 141.952 249.763 142.488 249.396 142.87C249.03 143.256 248.501 143.449 247.81 143.449C247.521 143.449 247.245 143.416 246.983 143.351V142.025C247.184 142.06 247.359 142.077 247.51 142.077C248.015 142.077 248.268 141.809 248.268 141.273V134.658H249.946ZM248.135 133.037C248.135 132.787 248.218 132.58 248.383 132.418C248.553 132.256 248.783 132.175 249.072 132.175C249.362 132.175 249.589 132.256 249.755 132.418C249.925 132.58 250.01 132.787 250.01 133.037C250.01 133.292 249.923 133.5 249.749 133.662C249.58 133.824 249.354 133.906 249.072 133.906C248.791 133.906 248.563 133.824 248.389 133.662C248.219 133.5 248.135 133.292 248.135 133.037ZM255.004 140.283C254.592 140.785 254.02 141.036 253.291 141.036C252.62 141.036 252.107 140.843 251.752 140.457C251.401 140.071 251.221 139.506 251.214 138.761V134.658H252.886V138.703C252.886 139.355 253.183 139.681 253.777 139.681C254.345 139.681 254.734 139.485 254.946 139.091V134.658H256.625V140.92H255.051L255.004 140.283ZM261.278 139.19C261.278 138.985 261.176 138.825 260.971 138.709C260.771 138.59 260.447 138.483 259.999 138.391C258.51 138.078 257.765 137.446 257.765 136.493C257.765 135.937 257.995 135.474 258.454 135.104C258.917 134.729 259.521 134.542 260.265 134.542C261.06 134.542 261.695 134.729 262.169 135.104C262.648 135.478 262.887 135.964 262.887 136.562H261.214C261.214 136.323 261.137 136.126 260.983 135.972C260.829 135.813 260.587 135.734 260.259 135.734C259.978 135.734 259.76 135.798 259.605 135.925C259.451 136.053 259.374 136.215 259.374 136.412C259.374 136.597 259.461 136.747 259.634 136.863C259.812 136.975 260.109 137.073 260.526 137.158C260.942 137.239 261.293 137.332 261.579 137.436C262.463 137.76 262.904 138.321 262.904 139.12C262.904 139.691 262.659 140.154 262.169 140.509C261.679 140.86 261.047 141.036 260.271 141.036C259.746 141.036 259.279 140.943 258.87 140.758C258.465 140.569 258.147 140.312 257.915 139.988C257.684 139.66 257.568 139.307 257.568 138.929H259.154C259.169 139.226 259.279 139.454 259.484 139.612C259.688 139.77 259.962 139.849 260.306 139.849C260.626 139.849 260.867 139.789 261.029 139.67C261.195 139.546 261.278 139.386 261.278 139.19ZM265.989 133.118V134.658H267.06V135.885H265.989V139.01C265.989 139.242 266.033 139.408 266.122 139.508C266.211 139.608 266.381 139.658 266.631 139.658C266.817 139.658 266.981 139.645 267.123 139.618V140.885C266.795 140.986 266.458 141.036 266.111 141.036C264.938 141.036 264.34 140.443 264.316 139.259V135.885H263.402V134.658H264.316V133.118H265.989ZM270.7 137.743C270.7 136.782 270.928 136.008 271.383 135.422C271.842 134.835 272.459 134.542 273.235 134.542C273.922 134.542 274.456 134.778 274.838 135.248L274.908 134.658H276.424V140.712C276.424 141.26 276.299 141.736 276.048 142.141C275.801 142.546 275.452 142.855 275 143.067C274.549 143.279 274.02 143.385 273.414 143.385C272.955 143.385 272.508 143.293 272.072 143.108C271.636 142.926 271.306 142.691 271.082 142.402L271.823 141.383C272.24 141.85 272.745 142.083 273.339 142.083C273.783 142.083 274.128 141.964 274.375 141.724C274.622 141.489 274.746 141.153 274.746 140.717V140.382C274.36 140.818 273.852 141.036 273.223 141.036C272.471 141.036 271.861 140.742 271.395 140.156C270.932 139.566 270.7 138.784 270.7 137.812V137.743ZM272.373 137.864C272.373 138.431 272.486 138.877 272.714 139.201C272.942 139.521 273.254 139.681 273.652 139.681C274.161 139.681 274.526 139.49 274.746 139.108V136.475C274.522 136.093 274.161 135.902 273.663 135.902C273.262 135.902 272.946 136.066 272.714 136.394C272.486 136.722 272.373 137.212 272.373 137.864ZM277.454 137.731C277.454 137.11 277.574 136.556 277.813 136.07C278.052 135.584 278.396 135.208 278.843 134.941C279.295 134.675 279.817 134.542 280.412 134.542C281.257 134.542 281.945 134.801 282.478 135.318C283.014 135.835 283.313 136.537 283.375 137.424L283.386 137.853C283.386 138.813 283.118 139.585 282.582 140.168C282.046 140.746 281.326 141.036 280.423 141.036C279.52 141.036 278.799 140.746 278.259 140.168C277.722 139.589 277.454 138.802 277.454 137.806V137.731ZM279.127 137.853C279.127 138.447 279.239 138.902 279.462 139.218C279.686 139.531 280.006 139.687 280.423 139.687C280.828 139.687 281.145 139.533 281.372 139.224C281.6 138.912 281.714 138.414 281.714 137.731C281.714 137.148 281.6 136.697 281.372 136.377C281.145 136.057 280.824 135.896 280.412 135.896C280.003 135.896 279.686 136.057 279.462 136.377C279.239 136.693 279.127 137.185 279.127 137.853ZM286.419 133.118V134.658H287.49V135.885H286.419V139.01C286.419 139.242 286.463 139.408 286.552 139.508C286.641 139.608 286.811 139.658 287.061 139.658C287.247 139.658 287.411 139.645 287.553 139.618V140.885C287.225 140.986 286.888 141.036 286.541 141.036C285.368 141.036 284.77 140.443 284.746 139.259V135.885H283.832V134.658H284.746V133.118H286.419ZM294.255 141.036C293.337 141.036 292.588 140.754 292.01 140.191C291.435 139.627 291.147 138.877 291.147 137.939V137.777C291.147 137.148 291.269 136.587 291.512 136.093C291.755 135.595 292.098 135.213 292.542 134.947C292.99 134.677 293.499 134.542 294.07 134.542C294.927 134.542 295.6 134.812 296.09 135.352C296.584 135.893 296.831 136.658 296.831 137.65V138.333H292.843C292.897 138.742 293.059 139.07 293.329 139.317C293.603 139.564 293.949 139.687 294.365 139.687C295.01 139.687 295.513 139.454 295.876 138.987L296.698 139.907C296.447 140.262 296.107 140.54 295.679 140.741C295.251 140.937 294.776 141.036 294.255 141.036ZM294.064 135.896C293.732 135.896 293.462 136.008 293.254 136.232C293.05 136.456 292.918 136.776 292.86 137.193H295.187V137.06C295.179 136.689 295.079 136.404 294.886 136.203C294.693 135.999 294.419 135.896 294.064 135.896ZM301.414 140.92C301.337 140.77 301.281 140.582 301.247 140.359C300.841 140.81 300.315 141.036 299.667 141.036C299.053 141.036 298.544 140.858 298.139 140.503C297.737 140.148 297.537 139.701 297.537 139.161C297.537 138.497 297.782 137.988 298.272 137.633C298.766 137.278 299.478 137.098 300.407 137.094H301.177V136.736C301.177 136.446 301.102 136.215 300.951 136.041C300.805 135.867 300.571 135.781 300.251 135.781C299.969 135.781 299.748 135.848 299.586 135.983C299.427 136.118 299.348 136.303 299.348 136.539H297.676C297.676 136.176 297.788 135.84 298.011 135.532C298.235 135.223 298.552 134.982 298.96 134.808C299.369 134.631 299.829 134.542 300.338 134.542C301.11 134.542 301.721 134.737 302.173 135.127C302.628 135.513 302.855 136.057 302.855 136.759V139.473C302.859 140.067 302.942 140.517 303.104 140.822V140.92H301.414ZM300.031 139.757C300.278 139.757 300.506 139.703 300.714 139.595C300.922 139.483 301.077 139.334 301.177 139.149V138.073H300.552C299.715 138.073 299.269 138.362 299.215 138.941L299.209 139.039C299.209 139.247 299.283 139.419 299.429 139.554C299.576 139.689 299.777 139.757 300.031 139.757ZM307.532 139.19C307.532 138.985 307.43 138.825 307.225 138.709C307.024 138.59 306.7 138.483 306.253 138.391C304.763 138.078 304.019 137.446 304.019 136.493C304.019 135.937 304.248 135.474 304.707 135.104C305.17 134.729 305.774 134.542 306.519 134.542C307.314 134.542 307.948 134.729 308.423 135.104C308.901 135.478 309.141 135.964 309.141 136.562H307.468C307.468 136.323 307.391 136.126 307.237 135.972C307.082 135.813 306.841 135.734 306.513 135.734C306.232 135.734 306.014 135.798 305.859 135.925C305.705 136.053 305.628 136.215 305.628 136.412C305.628 136.597 305.715 136.747 305.888 136.863C306.066 136.975 306.363 137.073 306.779 137.158C307.196 137.239 307.547 137.332 307.833 137.436C308.716 137.76 309.158 138.321 309.158 139.12C309.158 139.691 308.913 140.154 308.423 140.509C307.933 140.86 307.3 141.036 306.525 141.036C306 141.036 305.533 140.943 305.124 140.758C304.719 140.569 304.401 140.312 304.169 139.988C303.938 139.66 303.822 139.307 303.822 138.929H305.408C305.423 139.226 305.533 139.454 305.738 139.612C305.942 139.77 306.216 139.849 306.559 139.849C306.88 139.849 307.121 139.789 307.283 139.67C307.449 139.546 307.532 139.386 307.532 139.19ZM312.006 140.92H310.327V134.658H312.006V140.92ZM310.229 133.037C310.229 132.787 310.312 132.58 310.478 132.418C310.647 132.256 310.877 132.175 311.166 132.175C311.452 132.175 311.68 132.256 311.849 132.418C312.019 132.58 312.104 132.787 312.104 133.037C312.104 133.292 312.017 133.5 311.843 133.662C311.674 133.824 311.448 133.906 311.166 133.906C310.885 133.906 310.657 133.824 310.483 133.662C310.314 133.5 310.229 133.292 310.229 133.037ZM316.271 141.036C315.353 141.036 314.604 140.754 314.025 140.191C313.45 139.627 313.163 138.877 313.163 137.939V137.777C313.163 137.148 313.285 136.587 313.528 136.093C313.771 135.595 314.114 135.213 314.558 134.947C315.005 134.677 315.515 134.542 316.086 134.542C316.942 134.542 317.616 134.812 318.106 135.352C318.599 135.893 318.846 136.658 318.846 137.65V138.333H314.859C314.913 138.742 315.075 139.07 315.345 139.317C315.619 139.564 315.964 139.687 316.381 139.687C317.025 139.687 317.529 139.454 317.891 138.987L318.713 139.907C318.462 140.262 318.123 140.54 317.695 140.741C317.266 140.937 316.792 141.036 316.271 141.036ZM316.08 135.896C315.748 135.896 315.478 136.008 315.27 136.232C315.065 136.456 314.934 136.776 314.876 137.193H317.203V137.06C317.195 136.689 317.095 136.404 316.902 136.203C316.709 135.999 316.435 135.896 316.08 135.896ZM323.32 136.226C323.092 136.195 322.892 136.18 322.718 136.18C322.085 136.18 321.671 136.394 321.474 136.822V140.92H319.801V134.658H321.381L321.428 135.404C321.763 134.83 322.228 134.542 322.822 134.542C323.008 134.542 323.181 134.567 323.343 134.617L323.32 136.226ZM323.21 140.098C323.21 139.832 323.299 139.616 323.476 139.45C323.658 139.284 323.883 139.201 324.154 139.201C324.427 139.201 324.653 139.284 324.831 139.45C325.012 139.616 325.103 139.832 325.103 140.098C325.103 140.361 325.014 140.575 324.836 140.741C324.659 140.903 324.431 140.984 324.154 140.984C323.88 140.984 323.654 140.903 323.476 140.741C323.299 140.575 323.21 140.361 323.21 140.098Z" fill="black"/>
<path d="M180.805 159.171C180.749 159.77 180.527 160.239 180.141 160.576C179.756 160.91 179.242 161.077 178.602 161.077C178.154 161.077 177.76 160.972 177.417 160.761C177.078 160.547 176.816 160.245 176.63 159.854C176.445 159.463 176.349 159.009 176.341 158.492V157.967C176.341 157.437 176.435 156.971 176.623 156.567C176.81 156.163 177.079 155.852 177.429 155.633C177.781 155.414 178.188 155.305 178.648 155.305C179.268 155.305 179.767 155.474 180.145 155.81C180.523 156.147 180.743 156.623 180.805 157.238H179.833C179.787 156.834 179.668 156.544 179.478 156.366C179.29 156.186 179.014 156.096 178.648 156.096C178.224 156.096 177.897 156.252 177.668 156.563C177.442 156.872 177.326 157.326 177.321 157.925V158.423C177.321 159.03 177.429 159.493 177.645 159.812C177.864 160.131 178.183 160.29 178.602 160.29C178.985 160.29 179.273 160.204 179.466 160.031C179.659 159.859 179.781 159.572 179.833 159.171H180.805ZM183.776 157.682C183.653 157.661 183.525 157.651 183.394 157.651C182.964 157.651 182.675 157.816 182.526 158.145V161H181.588V156.825H182.483L182.507 157.292C182.733 156.929 183.047 156.748 183.448 156.748C183.582 156.748 183.692 156.766 183.78 156.802L183.776 157.682ZM186.13 161.077C185.535 161.077 185.053 160.891 184.683 160.518C184.315 160.142 184.131 159.643 184.131 159.021V158.905C184.131 158.488 184.211 158.116 184.37 157.79C184.532 157.461 184.759 157.205 185.049 157.022C185.34 156.839 185.664 156.748 186.022 156.748C186.59 156.748 187.029 156.929 187.337 157.292C187.649 157.655 187.804 158.168 187.804 158.832V159.21H185.076C185.105 159.554 185.219 159.827 185.42 160.028C185.623 160.228 185.878 160.329 186.184 160.329C186.613 160.329 186.963 160.155 187.233 159.808L187.739 160.29C187.571 160.54 187.348 160.734 187.067 160.873C186.789 161.009 186.477 161.077 186.13 161.077ZM186.018 157.5C185.761 157.5 185.552 157.59 185.393 157.771C185.236 157.951 185.135 158.201 185.092 158.523H186.878V158.453C186.858 158.14 186.774 157.903 186.627 157.744C186.481 157.581 186.278 157.5 186.018 157.5ZM191.03 161C190.989 160.92 190.953 160.79 190.922 160.61C190.623 160.921 190.258 161.077 189.826 161.077C189.407 161.077 189.065 160.957 188.8 160.718C188.535 160.479 188.402 160.183 188.402 159.831C188.402 159.386 188.567 159.045 188.896 158.808C189.228 158.569 189.701 158.45 190.316 158.45H190.891V158.176C190.891 157.96 190.83 157.787 190.709 157.659C190.589 157.527 190.405 157.462 190.158 157.462C189.944 157.462 189.769 157.516 189.633 157.624C189.497 157.729 189.428 157.864 189.428 158.029H188.491C188.491 157.8 188.567 157.587 188.719 157.389C188.87 157.188 189.076 157.031 189.336 156.918C189.598 156.805 189.89 156.748 190.212 156.748C190.7 156.748 191.09 156.872 191.381 157.118C191.671 157.363 191.821 157.707 191.828 158.152V160.035C191.828 160.411 191.881 160.711 191.987 160.934V161H191.03ZM190 160.325C190.185 160.325 190.358 160.28 190.52 160.19C190.685 160.1 190.808 159.979 190.891 159.827V159.04H190.385C190.038 159.04 189.777 159.1 189.602 159.221C189.427 159.342 189.34 159.513 189.34 159.734C189.34 159.914 189.399 160.059 189.517 160.167C189.638 160.272 189.799 160.325 190 160.325ZM193.985 155.81V156.825H194.722V157.52H193.985V159.85C193.985 160.01 194.016 160.125 194.078 160.197C194.142 160.267 194.255 160.302 194.417 160.302C194.525 160.302 194.635 160.289 194.745 160.263V160.988C194.532 161.048 194.326 161.077 194.128 161.077C193.408 161.077 193.048 160.68 193.048 159.885V157.52H192.361V156.825H193.048V155.81H193.985ZM197.28 161.077C196.686 161.077 196.204 160.891 195.833 160.518C195.466 160.142 195.282 159.643 195.282 159.021V158.905C195.282 158.488 195.361 158.116 195.521 157.79C195.683 157.461 195.909 157.205 196.2 157.022C196.491 156.839 196.815 156.748 197.172 156.748C197.741 156.748 198.179 156.929 198.488 157.292C198.799 157.655 198.955 158.168 198.955 158.832V159.21H196.227C196.255 159.554 196.37 159.827 196.57 160.028C196.773 160.228 197.028 160.329 197.334 160.329C197.764 160.329 198.114 160.155 198.384 159.808L198.889 160.29C198.722 160.54 198.498 160.734 198.218 160.873C197.94 161.009 197.627 161.077 197.28 161.077ZM197.168 157.5C196.911 157.5 196.703 157.59 196.543 157.771C196.386 157.951 196.286 158.201 196.242 158.523H198.029V158.453C198.008 158.14 197.925 157.903 197.778 157.744C197.631 157.581 197.428 157.5 197.168 157.5ZM199.819 162.265L199.314 161.965C199.463 161.73 199.564 161.526 199.618 161.351C199.675 161.179 199.705 161.003 199.707 160.822V160.093H200.552L200.548 160.768C200.546 161.041 200.476 161.314 200.34 161.586C200.206 161.862 200.032 162.088 199.819 162.265ZM205.73 159.866C205.73 159.698 205.661 159.571 205.522 159.484C205.385 159.396 205.158 159.319 204.839 159.252C204.52 159.185 204.254 159.1 204.04 158.997C203.572 158.771 203.338 158.443 203.338 158.014C203.338 157.653 203.49 157.353 203.793 157.111C204.097 156.869 204.482 156.748 204.951 156.748C205.45 156.748 205.852 156.872 206.158 157.118C206.467 157.365 206.621 157.686 206.621 158.079H205.684C205.684 157.899 205.617 157.75 205.483 157.632C205.349 157.511 205.172 157.45 204.951 157.45C204.745 157.45 204.576 157.498 204.445 157.593C204.317 157.688 204.252 157.816 204.252 157.975C204.252 158.119 204.313 158.231 204.434 158.311C204.554 158.39 204.799 158.471 205.167 158.554C205.534 158.633 205.823 158.73 206.031 158.843C206.242 158.954 206.397 159.087 206.498 159.244C206.601 159.401 206.652 159.592 206.652 159.815C206.652 160.191 206.497 160.496 206.185 160.73C205.874 160.961 205.466 161.077 204.962 161.077C204.62 161.077 204.315 161.015 204.048 160.892C203.78 160.768 203.572 160.599 203.423 160.383C203.274 160.167 203.199 159.934 203.199 159.684H204.109C204.122 159.905 204.206 160.077 204.36 160.197C204.515 160.316 204.719 160.375 204.974 160.375C205.221 160.375 205.408 160.329 205.537 160.236C205.666 160.141 205.73 160.017 205.73 159.866ZM209.966 161C209.925 160.92 209.889 160.79 209.858 160.61C209.56 160.921 209.195 161.077 208.763 161.077C208.343 161.077 208.001 160.957 207.736 160.718C207.471 160.479 207.339 160.183 207.339 159.831C207.339 159.386 207.504 159.045 207.833 158.808C208.165 158.569 208.638 158.45 209.253 158.45H209.828V158.176C209.828 157.96 209.767 157.787 209.646 157.659C209.525 157.527 209.341 157.462 209.094 157.462C208.881 157.462 208.706 157.516 208.57 157.624C208.433 157.729 208.365 157.864 208.365 158.029H207.428C207.428 157.8 207.504 157.587 207.655 157.389C207.807 157.188 208.013 157.031 208.273 156.918C208.535 156.805 208.827 156.748 209.148 156.748C209.637 156.748 210.027 156.872 210.318 157.118C210.608 157.363 210.757 157.707 210.765 158.152V160.035C210.765 160.411 210.818 160.711 210.923 160.934V161H209.966ZM208.936 160.325C209.121 160.325 209.295 160.28 209.457 160.19C209.622 160.1 209.745 159.979 209.828 159.827V159.04H209.322C208.975 159.04 208.714 159.1 208.539 159.221C208.364 159.342 208.276 159.513 208.276 159.734C208.276 159.914 208.336 160.059 208.454 160.167C208.575 160.272 208.736 160.325 208.936 160.325ZM213.157 159.812L214.041 156.825H215.009L213.562 161H212.748L211.29 156.825H212.262L213.157 159.812ZM217.382 161.077C216.788 161.077 216.306 160.891 215.935 160.518C215.567 160.142 215.384 159.643 215.384 159.021V158.905C215.384 158.488 215.463 158.116 215.623 157.79C215.785 157.461 216.011 157.205 216.302 157.022C216.592 156.839 216.917 156.748 217.274 156.748C217.843 156.748 218.281 156.929 218.59 157.292C218.901 157.655 219.057 158.168 219.057 158.832V159.21H216.329C216.357 159.554 216.472 159.827 216.672 160.028C216.875 160.228 217.13 160.329 217.436 160.329C217.866 160.329 218.216 160.155 218.486 159.808L218.991 160.29C218.824 160.54 218.6 160.734 218.32 160.873C218.042 161.009 217.729 161.077 217.382 161.077ZM217.27 157.5C217.013 157.5 216.805 157.59 216.645 157.771C216.488 157.951 216.388 158.201 216.344 158.523H218.131V158.453C218.11 158.14 218.027 157.903 217.88 157.744C217.733 157.581 217.53 157.5 217.27 157.5ZM219.921 162.265L219.416 161.965C219.565 161.73 219.666 161.526 219.72 161.351C219.777 161.179 219.806 161.003 219.809 160.822V160.093H220.654L220.65 160.768C220.648 161.041 220.578 161.314 220.442 161.586C220.308 161.862 220.134 162.088 219.921 162.265ZM225.986 161C225.945 160.92 225.909 160.79 225.878 160.61C225.58 160.921 225.215 161.077 224.782 161.077C224.363 161.077 224.021 160.957 223.756 160.718C223.491 160.479 223.359 160.183 223.359 159.831C223.359 159.386 223.523 159.045 223.853 158.808C224.184 158.569 224.658 158.45 225.272 158.45H225.847V158.176C225.847 157.96 225.787 157.787 225.666 157.659C225.545 157.527 225.361 157.462 225.114 157.462C224.901 157.462 224.726 157.516 224.59 157.624C224.453 157.729 224.385 157.864 224.385 158.029H223.447C223.447 157.8 223.523 157.587 223.675 157.389C223.827 157.188 224.033 157.031 224.292 156.918C224.555 156.805 224.847 156.748 225.168 156.748C225.657 156.748 226.047 156.872 226.337 157.118C226.628 157.363 226.777 157.707 226.785 158.152V160.035C226.785 160.411 226.838 160.711 226.943 160.934V161H225.986ZM224.956 160.325C225.141 160.325 225.315 160.28 225.477 160.19C225.642 160.1 225.765 159.979 225.847 159.827V159.04H225.342C224.995 159.04 224.734 159.1 224.559 159.221C224.384 159.342 224.296 159.513 224.296 159.734C224.296 159.914 224.355 160.059 224.474 160.167C224.595 160.272 224.755 160.325 224.956 160.325ZM228.637 156.825L228.664 157.308C228.973 156.935 229.378 156.748 229.879 156.748C230.749 156.748 231.191 157.246 231.207 158.241V161H230.269V158.295C230.269 158.03 230.211 157.835 230.095 157.709C229.982 157.58 229.796 157.516 229.536 157.516C229.158 157.516 228.876 157.687 228.691 158.029V161H227.753V156.825H228.637ZM231.99 158.882C231.99 158.239 232.139 157.723 232.437 157.335C232.736 156.944 233.136 156.748 233.637 156.748C234.08 156.748 234.437 156.902 234.71 157.211V155.074H235.648V161H234.799L234.752 160.568C234.472 160.907 234.098 161.077 233.63 161.077C233.141 161.077 232.745 160.88 232.441 160.487C232.14 160.093 231.99 159.558 231.99 158.882ZM232.927 158.963C232.927 159.387 233.008 159.719 233.17 159.958C233.335 160.195 233.568 160.313 233.869 160.313C234.252 160.313 234.532 160.142 234.71 159.8V158.017C234.538 157.683 234.26 157.516 233.877 157.516C233.573 157.516 233.339 157.637 233.174 157.879C233.01 158.118 232.927 158.479 232.927 158.963ZM240.308 160.329C240.542 160.329 240.737 160.26 240.891 160.124C241.045 159.988 241.128 159.819 241.138 159.619H242.022C242.011 159.878 241.93 160.122 241.778 160.348C241.627 160.572 241.421 160.749 241.161 160.88C240.901 161.012 240.621 161.077 240.32 161.077C239.736 161.077 239.273 160.888 238.931 160.51C238.589 160.132 238.418 159.61 238.418 158.943V158.847C238.418 158.212 238.588 157.704 238.927 157.323C239.267 156.94 239.73 156.748 240.316 156.748C240.813 156.748 241.216 156.893 241.528 157.184C241.841 157.472 242.006 157.852 242.022 158.322H241.138C241.128 158.083 241.045 157.886 240.891 157.732C240.739 157.578 240.545 157.5 240.308 157.5C240.005 157.5 239.771 157.611 239.606 157.832C239.442 158.051 239.358 158.384 239.355 158.832V158.982C239.355 159.435 239.436 159.773 239.598 159.997C239.763 160.218 240 160.329 240.308 160.329ZM242.554 158.874C242.554 158.465 242.635 158.097 242.797 157.771C242.959 157.441 243.187 157.189 243.48 157.014C243.773 156.837 244.11 156.748 244.491 156.748C245.054 156.748 245.511 156.929 245.861 157.292C246.213 157.655 246.403 158.136 246.432 158.735L246.435 158.955C246.435 159.367 246.356 159.734 246.196 160.059C246.039 160.383 245.813 160.633 245.517 160.811C245.224 160.988 244.884 161.077 244.499 161.077C243.91 161.077 243.438 160.882 243.083 160.491C242.73 160.097 242.554 159.574 242.554 158.92V158.874ZM243.492 158.955C243.492 159.385 243.58 159.722 243.758 159.966C243.935 160.208 244.182 160.329 244.499 160.329C244.815 160.329 245.061 160.205 245.236 159.958C245.413 159.711 245.502 159.35 245.502 158.874C245.502 158.452 245.41 158.118 245.228 157.871C245.048 157.624 244.802 157.5 244.491 157.5C244.185 157.5 243.942 157.623 243.762 157.867C243.582 158.109 243.492 158.471 243.492 158.955ZM248.226 161H247.288V155.074H248.226V161ZM250.248 161H249.31V155.074H250.248V161ZM253.766 161C253.725 160.92 253.689 160.79 253.658 160.61C253.36 160.921 252.995 161.077 252.563 161.077C252.143 161.077 251.801 160.957 251.536 160.718C251.271 160.479 251.139 160.183 251.139 159.831C251.139 159.386 251.303 159.045 251.633 158.808C251.964 158.569 252.438 158.45 253.053 158.45H253.627V158.176C253.627 157.96 253.567 157.787 253.446 157.659C253.325 157.527 253.141 157.462 252.894 157.462C252.681 157.462 252.506 157.516 252.37 157.624C252.233 157.729 252.165 157.864 252.165 158.029H251.228C251.228 157.8 251.303 157.587 251.455 157.389C251.607 157.188 251.813 157.031 252.073 156.918C252.335 156.805 252.627 156.748 252.948 156.748C253.437 156.748 253.827 156.872 254.117 157.118C254.408 157.363 254.557 157.707 254.565 158.152V160.035C254.565 160.411 254.618 160.711 254.723 160.934V161H253.766ZM252.736 160.325C252.921 160.325 253.095 160.28 253.257 160.19C253.422 160.1 253.545 159.979 253.627 159.827V159.04H253.122C252.775 159.04 252.514 159.1 252.339 159.221C252.164 159.342 252.076 159.513 252.076 159.734C252.076 159.914 252.136 160.059 252.254 160.167C252.375 160.272 252.536 160.325 252.736 160.325ZM259.21 158.955C259.21 159.603 259.065 160.119 258.774 160.502C258.486 160.885 258.089 161.077 257.582 161.077C257.093 161.077 256.713 160.901 256.44 160.549L256.394 161H255.545V155.074H256.483V157.226C256.753 156.908 257.117 156.748 257.574 156.748C258.084 156.748 258.484 156.937 258.774 157.315C259.065 157.693 259.21 158.222 259.21 158.901V158.955ZM258.273 158.874C258.273 158.421 258.193 158.082 258.034 157.855C257.874 157.629 257.643 157.516 257.339 157.516C256.933 157.516 256.647 157.693 256.483 158.048V159.769C256.65 160.132 256.938 160.313 257.347 160.313C257.64 160.313 257.866 160.204 258.026 159.985C258.185 159.767 258.268 159.436 258.273 158.994V158.874ZM259.824 158.874C259.824 158.465 259.905 158.097 260.067 157.771C260.229 157.441 260.457 157.189 260.75 157.014C261.043 156.837 261.38 156.748 261.761 156.748C262.324 156.748 262.781 156.929 263.131 157.292C263.483 157.655 263.673 158.136 263.702 158.735L263.705 158.955C263.705 159.367 263.626 159.734 263.466 160.059C263.309 160.383 263.083 160.633 262.787 160.811C262.494 160.988 262.154 161.077 261.769 161.077C261.179 161.077 260.707 160.882 260.353 160.491C260 160.097 259.824 159.574 259.824 158.92V158.874ZM260.761 158.955C260.761 159.385 260.85 159.722 261.028 159.966C261.205 160.208 261.452 160.329 261.769 160.329C262.085 160.329 262.331 160.205 262.505 159.958C262.683 159.711 262.772 159.35 262.772 158.874C262.772 158.452 262.68 158.118 262.498 157.871C262.318 157.624 262.072 157.5 261.761 157.5C261.455 157.5 261.212 157.623 261.032 157.867C260.852 158.109 260.761 158.471 260.761 158.955ZM266.684 157.682C266.561 157.661 266.433 157.651 266.302 157.651C265.872 157.651 265.583 157.816 265.434 158.145V161H264.496V156.825H265.391L265.415 157.292C265.641 156.929 265.955 156.748 266.356 156.748C266.49 156.748 266.6 156.766 266.688 156.802L266.684 157.682ZM269.655 161C269.614 160.92 269.578 160.79 269.547 160.61C269.249 160.921 268.883 161.077 268.451 161.077C268.032 161.077 267.69 160.957 267.425 160.718C267.16 160.479 267.027 160.183 267.027 159.831C267.027 159.386 267.192 159.045 267.521 158.808C267.853 158.569 268.326 158.45 268.941 158.45H269.516V158.176C269.516 157.96 269.456 157.787 269.335 157.659C269.214 157.527 269.03 157.462 268.783 157.462C268.569 157.462 268.395 157.516 268.258 157.624C268.122 157.729 268.054 157.864 268.054 158.029H267.116C267.116 157.8 267.192 157.587 267.344 157.389C267.496 157.188 267.701 157.031 267.961 156.918C268.224 156.805 268.515 156.748 268.837 156.748C269.326 156.748 269.715 156.872 270.006 157.118C270.297 157.363 270.446 157.707 270.454 158.152V160.035C270.454 160.411 270.506 160.711 270.612 160.934V161H269.655ZM268.625 160.325C268.81 160.325 268.984 160.28 269.146 160.19C269.31 160.1 269.434 159.979 269.516 159.827V159.04H269.011C268.663 159.04 268.402 159.1 268.227 159.221C268.052 159.342 267.965 159.513 267.965 159.734C267.965 159.914 268.024 160.059 268.142 160.167C268.263 160.272 268.424 160.325 268.625 160.325ZM272.61 155.81V156.825H273.347V157.52H272.61V159.85C272.61 160.01 272.641 160.125 272.703 160.197C272.767 160.267 272.881 160.302 273.043 160.302C273.151 160.302 273.26 160.289 273.371 160.263V160.988C273.157 161.048 272.951 161.077 272.753 161.077C272.033 161.077 271.673 160.68 271.673 159.885V157.52H270.986V156.825H271.673V155.81H272.61ZM275.905 161.077C275.311 161.077 274.829 160.891 274.459 160.518C274.091 160.142 273.907 159.643 273.907 159.021V158.905C273.907 158.488 273.987 158.116 274.146 157.79C274.308 157.461 274.534 157.205 274.825 157.022C275.116 156.839 275.44 156.748 275.797 156.748C276.366 156.748 276.804 156.929 277.113 157.292C277.424 157.655 277.58 158.168 277.58 158.832V159.21H274.852C274.88 159.554 274.995 159.827 275.196 160.028C275.399 160.228 275.653 160.329 275.959 160.329C276.389 160.329 276.739 160.155 277.009 159.808L277.514 160.29C277.347 160.54 277.123 160.734 276.843 160.873C276.565 161.009 276.253 161.077 275.905 161.077ZM275.794 157.5C275.536 157.5 275.328 157.59 275.169 157.771C275.012 157.951 274.911 158.201 274.868 158.523H276.654V158.453C276.633 158.14 276.55 157.903 276.403 157.744C276.257 157.581 276.053 157.5 275.794 157.5ZM278.444 162.265L277.939 161.965C278.088 161.73 278.19 161.526 278.244 161.351C278.3 161.179 278.33 161.003 278.332 160.822V160.093H279.177L279.173 160.768C279.171 161.041 279.101 161.314 278.965 161.586C278.831 161.862 278.658 162.088 278.444 162.265ZM284.51 161C284.468 160.92 284.432 160.79 284.402 160.61C284.103 160.921 283.738 161.077 283.306 161.077C282.886 161.077 282.544 160.957 282.279 160.718C282.015 160.479 281.882 160.183 281.882 159.831C281.882 159.386 282.047 159.045 282.376 158.808C282.708 158.569 283.181 158.45 283.796 158.45H284.371V158.176C284.371 157.96 284.31 157.787 284.189 157.659C284.068 157.527 283.885 157.462 283.638 157.462C283.424 157.462 283.249 157.516 283.113 157.624C282.977 157.729 282.908 157.864 282.908 158.029H281.971C281.971 157.8 282.047 157.587 282.198 157.389C282.35 157.188 282.556 157.031 282.816 156.918C283.078 156.805 283.37 156.748 283.692 156.748C284.18 156.748 284.57 156.872 284.861 157.118C285.151 157.363 285.301 157.707 285.308 158.152V160.035C285.308 160.411 285.361 160.711 285.466 160.934V161H284.51ZM283.479 160.325C283.665 160.325 283.838 160.28 284 160.19C284.165 160.1 284.288 159.979 284.371 159.827V159.04H283.865C283.518 159.04 283.257 159.1 283.082 159.221C282.907 159.342 282.82 159.513 282.82 159.734C282.82 159.914 282.879 160.059 282.997 160.167C283.118 160.272 283.279 160.325 283.479 160.325ZM287.288 161H286.35V155.074H287.288V161ZM289.309 161H288.372V155.074H289.309V161ZM293.299 161H292.361V156.825H293.299V161ZM292.303 155.741C292.303 155.597 292.348 155.477 292.438 155.382C292.531 155.287 292.662 155.239 292.832 155.239C293.002 155.239 293.133 155.287 293.226 155.382C293.318 155.477 293.364 155.597 293.364 155.741C293.364 155.882 293.318 156.001 293.226 156.096C293.133 156.189 293.002 156.235 292.832 156.235C292.662 156.235 292.531 156.189 292.438 156.096C292.348 156.001 292.303 155.882 292.303 155.741ZM295.193 156.825L295.22 157.308C295.529 156.935 295.934 156.748 296.436 156.748C297.305 156.748 297.748 157.246 297.763 158.241V161H296.825V158.295C296.825 158.03 296.768 157.835 296.652 157.709C296.539 157.58 296.352 157.516 296.092 157.516C295.714 157.516 295.433 157.687 295.247 158.029V161H294.31V156.825H295.193ZM300.514 158.874C300.514 158.465 300.595 158.097 300.757 157.771C300.919 157.441 301.147 157.189 301.44 157.014C301.733 156.837 302.07 156.748 302.451 156.748C303.014 156.748 303.471 156.929 303.821 157.292C304.173 157.655 304.363 158.136 304.392 158.735L304.395 158.955C304.395 159.367 304.316 159.734 304.156 160.059C303.999 160.383 303.773 160.633 303.477 160.811C303.184 160.988 302.844 161.077 302.459 161.077C301.87 161.077 301.398 160.882 301.043 160.491C300.69 160.097 300.514 159.574 300.514 158.92V158.874ZM301.452 158.955C301.452 159.385 301.54 159.722 301.718 159.966C301.895 160.208 302.142 160.329 302.459 160.329C302.775 160.329 303.021 160.205 303.196 159.958C303.373 159.711 303.462 159.35 303.462 158.874C303.462 158.452 303.37 158.118 303.188 157.871C303.008 157.624 302.762 157.5 302.451 157.5C302.145 157.5 301.902 157.623 301.722 157.867C301.542 158.109 301.452 158.471 301.452 158.955ZM306.058 156.825L306.085 157.308C306.394 156.935 306.799 156.748 307.301 156.748C308.17 156.748 308.613 157.246 308.628 158.241V161H307.69V158.295C307.69 158.03 307.633 157.835 307.517 157.709C307.404 157.58 307.217 157.516 306.957 157.516C306.579 157.516 306.298 157.687 306.112 158.029V161H305.175V156.825H306.058ZM311.425 161.077C310.831 161.077 310.349 160.891 309.978 160.518C309.611 160.142 309.427 159.643 309.427 159.021V158.905C309.427 158.488 309.506 158.116 309.666 157.79C309.828 157.461 310.054 157.205 310.345 157.022C310.636 156.839 310.96 156.748 311.317 156.748C311.886 156.748 312.324 156.929 312.633 157.292C312.944 157.655 313.1 158.168 313.1 158.832V159.21H310.372C310.4 159.554 310.515 159.827 310.715 160.028C310.919 160.228 311.173 160.329 311.479 160.329C311.909 160.329 312.259 160.155 312.529 159.808L313.034 160.29C312.867 160.54 312.643 160.734 312.363 160.873C312.085 161.009 311.773 161.077 311.425 161.077ZM311.313 157.5C311.056 157.5 310.848 157.59 310.688 157.771C310.531 157.951 310.431 158.201 310.387 158.523H312.174V158.453C312.153 158.14 312.07 157.903 311.923 157.744C311.776 157.581 311.573 157.5 311.313 157.5ZM319.455 158.955C319.455 159.601 319.308 160.116 319.015 160.502C318.721 160.885 318.328 161.077 317.834 161.077C317.376 161.077 317.01 160.927 316.734 160.626V162.605H315.797V156.825H316.661L316.7 157.25C316.975 156.915 317.349 156.748 317.822 156.748C318.332 156.748 318.73 156.938 319.019 157.319C319.309 157.697 319.455 158.223 319.455 158.897V158.955ZM318.521 158.874C318.521 158.457 318.437 158.127 318.27 157.882C318.105 157.638 317.869 157.516 317.56 157.516C317.177 157.516 316.902 157.674 316.734 157.99V159.842C316.904 160.167 317.182 160.329 317.568 160.329C317.866 160.329 318.099 160.209 318.266 159.97C318.436 159.728 318.521 159.363 318.521 158.874ZM321.249 161H320.311V155.074H321.249V161ZM324.767 161C324.726 160.92 324.69 160.79 324.659 160.61C324.361 160.921 323.996 161.077 323.564 161.077C323.144 161.077 322.802 160.957 322.537 160.718C322.272 160.479 322.14 160.183 322.14 159.831C322.14 159.386 322.305 159.045 322.634 158.808C322.966 158.569 323.439 158.45 324.054 158.45H324.629V158.176C324.629 157.96 324.568 157.787 324.447 157.659C324.326 157.527 324.142 157.462 323.895 157.462C323.682 157.462 323.507 157.516 323.371 157.624C323.234 157.729 323.166 157.864 323.166 158.029H322.229C322.229 157.8 322.305 157.587 322.456 157.389C322.608 157.188 322.814 157.031 323.074 156.918C323.336 156.805 323.628 156.748 323.95 156.748C324.438 156.748 324.828 156.872 325.119 157.118C325.409 157.363 325.558 157.707 325.566 158.152V160.035C325.566 160.411 325.619 160.711 325.724 160.934V161H324.767ZM323.737 160.325C323.922 160.325 324.096 160.28 324.258 160.19C324.423 160.1 324.546 159.979 324.629 159.827V159.04H324.123C323.776 159.04 323.515 159.1 323.34 159.221C323.165 159.342 323.078 159.513 323.078 159.734C323.078 159.914 323.137 160.059 323.255 160.167C323.376 160.272 323.537 160.325 323.737 160.325ZM328.263 160.329C328.497 160.329 328.691 160.26 328.846 160.124C329 159.988 329.082 159.819 329.093 159.619H329.976C329.966 159.878 329.885 160.122 329.733 160.348C329.581 160.572 329.376 160.749 329.116 160.88C328.856 161.012 328.576 161.077 328.275 161.077C327.691 161.077 327.228 160.888 326.886 160.51C326.544 160.132 326.373 159.61 326.373 158.943V158.847C326.373 158.212 326.542 157.704 326.882 157.323C327.221 156.94 327.684 156.748 328.271 156.748C328.767 156.748 329.171 156.893 329.482 157.184C329.796 157.472 329.961 157.852 329.976 158.322H329.093C329.082 158.083 329 157.886 328.846 157.732C328.694 157.578 328.5 157.5 328.263 157.5C327.96 157.5 327.726 157.611 327.561 157.832C327.396 158.051 327.313 158.384 327.31 158.832V158.982C327.31 159.435 327.391 159.773 327.553 159.997C327.718 160.218 327.954 160.329 328.263 160.329ZM332.523 161.077C331.929 161.077 331.446 160.891 331.076 160.518C330.708 160.142 330.524 159.643 330.524 159.021V158.905C330.524 158.488 330.604 158.116 330.763 157.79C330.925 157.461 331.152 157.205 331.442 157.022C331.733 156.839 332.057 156.748 332.415 156.748C332.983 156.748 333.422 156.929 333.73 157.292C334.042 157.655 334.197 158.168 334.197 158.832V159.21H331.469C331.498 159.554 331.612 159.827 331.813 160.028C332.016 160.228 332.271 160.329 332.577 160.329C333.006 160.329 333.356 160.155 333.626 159.808L334.132 160.29C333.964 160.54 333.741 160.734 333.46 160.873C333.183 161.009 332.87 161.077 332.523 161.077ZM332.411 157.5C332.154 157.5 331.945 157.59 331.786 157.771C331.629 157.951 331.529 158.201 331.485 158.523H333.271V158.453C333.251 158.14 333.167 157.903 333.02 157.744C332.874 157.581 332.671 157.5 332.411 157.5ZM335.513 160.012C335.688 160.012 335.823 160.062 335.918 160.163C336.013 160.26 336.061 160.384 336.061 160.533C336.061 160.68 336.013 160.802 335.918 160.9C335.823 160.995 335.688 161.042 335.513 161.042C335.346 161.042 335.213 160.995 335.116 160.9C335.018 160.804 334.969 160.682 334.969 160.533C334.969 160.384 335.017 160.26 335.112 160.163C335.207 160.062 335.341 160.012 335.513 160.012Z" fill="black"/>
<path d="M55.683 9.56714H54.8148V7.76144H53.122V9.56714H52.2539V5.35383H53.122V7.06115H54.8148V5.35383H55.683V9.56714ZM56.2588 7.97268C56.2588 7.66208 56.3186 7.38525 56.4382 7.14217C56.5578 6.8991 56.7295 6.711 56.9533 6.57789C57.179 6.44478 57.4404 6.37822 57.7375 6.37822C58.16 6.37822 58.5044 6.50748 58.7706 6.76598C59.0387 7.02449 59.1883 7.3756 59.2191 7.81931L59.2249 8.03345C59.2249 8.51381 59.0908 8.89965 58.8227 9.19095C58.5545 9.48033 58.1947 9.62501 57.7433 9.62501C57.2919 9.62501 56.9311 9.48033 56.661 9.19095C56.3929 8.90158 56.2588 8.50802 56.2588 8.0103V7.97268ZM57.0951 8.03345C57.0951 8.33054 57.1511 8.55818 57.2629 8.71637C57.3748 8.87264 57.535 8.95077 57.7433 8.95077C57.9459 8.95077 58.1041 8.8736 58.2179 8.71927C58.3317 8.56301 58.3886 8.31414 58.3886 7.97268C58.3886 7.68138 58.3317 7.45566 58.2179 7.29554C58.1041 7.13542 57.9439 7.05536 57.7375 7.05536C57.533 7.05536 57.3748 7.13542 57.2629 7.29554C57.1511 7.45373 57.0951 7.6997 57.0951 8.03345ZM60.5097 6.4361L60.5358 6.79782C60.7596 6.51809 61.0596 6.37822 61.4357 6.37822C61.7676 6.37822 62.0145 6.47564 62.1765 6.67049C62.3386 6.86534 62.4215 7.15664 62.4254 7.5444V9.56714H61.5891V7.56466C61.5891 7.38718 61.5505 7.25889 61.4734 7.17979C61.3962 7.09877 61.2679 7.05825 61.0885 7.05825C60.8531 7.05825 60.6766 7.15857 60.5589 7.3592V9.56714H59.7226V6.4361H60.5097ZM64.5031 9.62501C64.044 9.62501 63.6697 9.48418 63.3803 9.20253C63.0929 8.92087 62.9492 8.54564 62.9492 8.07685V7.99583C62.9492 7.68138 63.0099 7.40068 63.1315 7.15375C63.253 6.90488 63.4247 6.7139 63.6466 6.58078C63.8704 6.44574 64.125 6.37822 64.4105 6.37822C64.8388 6.37822 65.1754 6.51326 65.4204 6.78335C65.6674 7.05343 65.7908 7.43637 65.7908 7.93217V8.27363H63.797C63.8241 8.47812 63.9051 8.6421 64.0401 8.76557C64.1771 8.88904 64.3498 8.95077 64.5581 8.95077C64.8803 8.95077 65.132 8.83405 65.3134 8.60062L65.7243 9.06073C65.5989 9.23822 65.4291 9.37712 65.215 9.47743C65.0008 9.57582 64.7636 9.62501 64.5031 9.62501ZM64.4076 7.05536C64.2417 7.05536 64.1067 7.11131 64.0025 7.2232C63.9003 7.33509 63.8347 7.49521 63.8057 7.70356H64.969V7.637C64.9652 7.4518 64.915 7.30905 64.8185 7.20873C64.7221 7.10648 64.5851 7.05536 64.4076 7.05536ZM67.3969 8.38359L67.9756 6.4361H68.8727L67.6139 10.0533L67.5445 10.2182C67.3573 10.6272 67.0487 10.8317 66.6185 10.8317C66.4969 10.8317 66.3735 10.8134 66.2481 10.7767V10.143L66.3754 10.1459C66.5336 10.1459 66.6513 10.1218 66.7284 10.0735C66.8075 10.0253 66.8693 9.94526 66.9136 9.83336L67.012 9.57582L65.9153 6.4361H66.8152L67.3969 8.38359ZM70.4643 8.95077C70.6186 8.95077 70.744 8.90833 70.8404 8.82344C70.9369 8.73856 70.9871 8.6257 70.9909 8.48487H71.7751C71.7732 8.69708 71.7153 8.89193 71.6015 9.06941C71.4877 9.24497 71.3314 9.38194 71.1327 9.48033C70.9359 9.57678 70.7179 9.62501 70.4787 9.62501C70.0312 9.62501 69.6781 9.48322 69.4196 9.19963C69.1611 8.91411 69.0319 8.52056 69.0319 8.01898V7.964C69.0319 7.48171 69.1601 7.09684 69.4167 6.80939C69.6733 6.52194 70.0254 6.37822 70.4729 6.37822C70.8646 6.37822 71.1781 6.49011 71.4134 6.7139C71.6507 6.93575 71.7713 7.23188 71.7751 7.60228H70.9909C70.9871 7.44023 70.9369 7.30905 70.8404 7.20873C70.744 7.10648 70.6167 7.05536 70.4585 7.05536C70.2636 7.05536 70.116 7.12674 70.0157 7.2695C69.9173 7.41033 69.8681 7.6399 69.8681 7.95821V8.04502C69.8681 8.36719 69.9173 8.5987 70.0157 8.73952C70.1141 8.88035 70.2636 8.95077 70.4643 8.95077ZM72.1224 7.97268C72.1224 7.66208 72.1822 7.38525 72.3018 7.14217C72.4214 6.8991 72.5931 6.711 72.8169 6.57789C73.0426 6.44478 73.304 6.37822 73.6011 6.37822C74.0236 6.37822 74.3679 6.50748 74.6342 6.76598C74.9023 7.02449 75.0518 7.3756 75.0827 7.81931L75.0885 8.03345C75.0885 8.51381 74.9544 8.89965 74.6862 9.19095C74.4181 9.48033 74.0583 9.62501 73.6069 9.62501C73.1555 9.62501 72.7947 9.48033 72.5246 9.19095C72.2565 8.90158 72.1224 8.50802 72.1224 8.0103V7.97268ZM72.9587 8.03345C72.9587 8.33054 73.0146 8.55818 73.1265 8.71637C73.2384 8.87264 73.3985 8.95077 73.6069 8.95077C73.8094 8.95077 73.9676 8.8736 74.0815 8.71927C74.1953 8.56301 74.2522 8.31414 74.2522 7.97268C74.2522 7.68138 74.1953 7.45566 74.0815 7.29554C73.9676 7.13542 73.8075 7.05536 73.6011 7.05536C73.3966 7.05536 73.2384 7.13542 73.1265 7.29554C73.0146 7.45373 72.9587 7.6997 72.9587 8.03345ZM76.3878 6.4361L76.4138 6.78624C76.6357 6.51423 76.9357 6.37822 77.3138 6.37822C77.717 6.37822 77.9938 6.53738 78.1443 6.85569C78.3642 6.53738 78.6777 6.37822 79.0848 6.37822C79.4243 6.37822 79.677 6.47757 79.8429 6.67628C80.0088 6.87305 80.0918 7.17014 80.0918 7.56755V9.56714H79.2526V7.57045C79.2526 7.39296 79.2179 7.26371 79.1484 7.18268C79.079 7.09973 78.9565 7.05825 78.7809 7.05825C78.5301 7.05825 78.3565 7.17786 78.26 7.41708L78.2629 9.56714H77.4266V7.57334C77.4266 7.392 77.3909 7.26082 77.3196 7.17979C77.2482 7.09877 77.1266 7.05825 76.955 7.05825C76.7177 7.05825 76.546 7.15664 76.4399 7.35342V9.56714H75.6036V6.4361H76.3878ZM83.5585 8.03055C83.5585 8.53214 83.4514 8.92376 83.2373 9.20542C83.0232 9.48515 82.7241 9.62501 82.3402 9.62501C82.0007 9.62501 81.7296 9.49479 81.5271 9.23436L81.4895 9.56714H80.7371V5.12233H81.5734V6.71679C81.7663 6.49108 82.02 6.37822 82.3344 6.37822C82.7164 6.37822 83.0154 6.51905 83.2315 6.80071C83.4495 7.08044 83.5585 7.47495 83.5585 7.98425V8.03055ZM82.7222 7.96979C82.7222 7.6534 82.672 7.42287 82.5717 7.27818C82.4714 7.13156 82.3219 7.05825 82.1232 7.05825C81.857 7.05825 81.6737 7.16725 81.5734 7.38525V8.62088C81.6756 8.84081 81.8608 8.95077 82.129 8.95077C82.3991 8.95077 82.5766 8.81766 82.6614 8.55143C82.7019 8.42411 82.7222 8.23022 82.7222 7.96979ZM62.4109 14.8697H64.2543V15.5671H61.5428V11.3538H62.4109V14.8697ZM64.5697 13.9727C64.5697 13.6621 64.6295 13.3852 64.7491 13.1422C64.8687 12.8991 65.0404 12.711 65.2642 12.5779C65.4899 12.4448 65.7513 12.3782 66.0484 12.3782C66.4709 12.3782 66.8152 12.5075 67.0815 12.766C67.3496 13.0245 67.4991 13.3756 67.53 13.8193L67.5358 14.0334C67.5358 14.5138 67.4017 14.8996 67.1335 15.191C66.8654 15.4803 66.5056 15.625 66.0542 15.625C65.6028 15.625 65.242 15.4803 64.9719 15.191C64.7038 14.9016 64.5697 14.508 64.5697 14.0103V13.9727ZM65.406 14.0334C65.406 14.3305 65.4619 14.5582 65.5738 14.7164C65.6857 14.8726 65.8458 14.9508 66.0542 14.9508C66.2567 14.9508 66.4149 14.8736 66.5288 14.7193C66.6426 14.563 66.6995 14.3141 66.6995 13.9727C66.6995 13.6814 66.6426 13.4557 66.5288 13.2955C66.4149 13.1354 66.2548 13.0554 66.0484 13.0554C65.8439 13.0554 65.6857 13.1354 65.5738 13.2955C65.4619 13.4537 65.406 13.6997 65.406 14.0334ZM67.9293 13.9785C67.9293 13.4981 68.0432 13.1113 68.2708 12.8181C68.5004 12.5248 68.809 12.3782 69.1968 12.3782C69.5402 12.3782 69.8074 12.4959 69.9984 12.7313L70.0331 12.4361H70.7913V15.463C70.7913 15.7369 70.7286 15.9752 70.6032 16.1777C70.4797 16.3803 70.3051 16.5346 70.0794 16.6407C69.8537 16.7468 69.5894 16.7999 69.2865 16.7999C69.0569 16.7999 68.8331 16.7536 68.6151 16.661C68.3972 16.5703 68.2322 16.4526 68.1203 16.3079L68.4907 15.7986C68.6991 16.0321 68.9518 16.1488 69.2489 16.1488C69.4707 16.1488 69.6434 16.089 69.7669 15.9694C69.8903 15.8517 69.9521 15.6839 69.9521 15.4659V15.298C69.7591 15.516 69.5055 15.625 69.191 15.625C68.8148 15.625 68.51 15.4784 68.2766 15.1852C68.0451 14.89 67.9293 14.4993 67.9293 14.0132V13.9785ZM68.7656 14.0392C68.7656 14.3228 68.8225 14.5456 68.9364 14.7077C69.0502 14.8678 69.2064 14.9479 69.4051 14.9479C69.6598 14.9479 69.8421 14.8524 69.9521 14.6614V13.3447C69.8402 13.1537 69.6598 13.0583 69.4109 13.0583C69.2103 13.0583 69.0521 13.1402 68.9364 13.3042C68.8225 13.4682 68.7656 13.7132 68.7656 14.0392ZM71.3063 13.9727C71.3063 13.6621 71.3661 13.3852 71.4858 13.1422C71.6054 12.8991 71.7771 12.711 72.0008 12.5779C72.2266 12.4448 72.488 12.3782 72.785 12.3782C73.2075 12.3782 73.5519 12.5075 73.8181 12.766C74.0863 13.0245 74.2358 13.3756 74.2667 13.8193L74.2724 14.0334C74.2724 14.5138 74.1384 14.8996 73.8702 15.191C73.6021 15.4803 73.2423 15.625 72.7908 15.625C72.3394 15.625 71.9787 15.4803 71.7086 15.191C71.4404 14.9016 71.3063 14.508 71.3063 14.0103V13.9727ZM72.1426 14.0334C72.1426 14.3305 72.1986 14.5582 72.3105 14.7164C72.4224 14.8726 72.5825 14.9508 72.7908 14.9508C72.9934 14.9508 73.1516 14.8736 73.2654 14.7193C73.3792 14.563 73.4361 14.3141 73.4361 13.9727C73.4361 13.6814 73.3792 13.4557 73.2654 13.2955C73.1516 13.1354 72.9915 13.0554 72.785 13.0554C72.5806 13.0554 72.4224 13.1354 72.3105 13.2955C72.1986 13.4537 72.1426 13.6997 72.1426 14.0334Z" fill="black"/>
</g>
<defs>
<filter id="filter0_d" x="0.258423" y="0.781708" width="500" height="333.944" filterUnits="userSpaceOnUse" color-interpolation-filters="sRGB">
<feFlood flood-opacity="0" result="BackgroundImageFix"/>
<feColorMatrix in="SourceAlpha" type="matrix" values="0 0 0 0 0 0 0 0 0 0 0 0 0 0 0 0 0 0 127 0"/>
<feOffset dy="2"/>
<feGaussianBlur stdDeviation="2.5"/>
<feColorMatrix type="matrix" values="0 0 0 0 0 0 0 0 0 0 0 0 0 0 0 0 0 0 0.125 0"/>
<feBlend mode="normal" in2="BackgroundImageFix" result="effect1_dropShadow"/>
<feBlend mode="normal" in="SourceGraphic" in2="effect1_dropShadow" result="shape"/>
</filter>
</defs>
</svg>
