<svg width="415" height="77" viewBox="0 0 415 77" fill="none" xmlns="http://www.w3.org/2000/svg">
<path fill-rule="evenodd" clip-rule="evenodd" d="M27.8093 51.2473L20.9321 39.3354L7.17746 39.3354L0.30017 51.2473L7.17746 63.1591L20.9321 63.1591L27.8093 51.2473ZM43.4287 52.4371L50.306 64.3489L43.4287 76.2607L29.6741 76.2607L22.7968 64.3489L29.6741 52.4371L43.4287 52.4371ZM66.0757 39.3355L72.953 51.2473L66.0757 63.1591L52.3211 63.1591L45.4438 51.2473L52.3211 39.3355L66.0757 39.3355ZM43.4284 26.3279L50.3057 38.2397L43.4284 50.1515L29.6738 50.1515L22.7965 38.2397L29.6738 26.3279L43.4284 26.3279ZM72.953 25.2459L66.0757 13.334L52.3211 13.334L45.4438 25.2459L52.3211 37.1577L66.0757 37.1577L72.953 25.2459ZM43.4288 0.23255L50.3061 12.1444L43.4288 24.0562L29.6742 24.0562L22.7969 12.1444L29.6742 0.23255L43.4288 0.23255ZM27.8093 25.2459L20.932 13.334L7.17746 13.334L0.300169 25.2459L7.17746 37.1577L20.9321 37.1577L27.8093 25.2459Z" fill="#F7CB33"/>
<path d="M126.646 59.6477C126.842 59.6915 126.985 59.768 127.072 59.8773C127.181 59.9866 127.225 60.1069 127.203 60.2381C127.203 60.3474 127.149 60.4567 127.039 60.5661C126.93 60.6535 126.766 60.6973 126.547 60.6973H105.622C105.404 60.6973 105.24 60.6535 105.13 60.5661C105.021 60.4567 104.955 60.3474 104.934 60.2381C104.934 60.1069 104.977 59.9866 105.065 59.8773C105.174 59.768 105.327 59.6915 105.524 59.6477C105.786 59.604 106.202 59.5165 106.77 59.3854C107.339 59.2323 107.907 58.9699 108.476 58.5982C109.066 58.2265 109.58 57.7236 110.017 57.0895C110.454 56.4554 110.673 55.6245 110.673 54.5969V38.9851H96.4389V54.5969C96.4389 55.6245 96.6575 56.4554 97.0948 57.0895C97.5321 57.7236 98.035 58.2265 98.6035 58.5982C99.1939 58.9699 99.7733 59.2323 100.342 59.3854C100.91 59.5165 101.326 59.604 101.588 59.6477C101.785 59.6915 101.927 59.768 102.014 59.8773C102.124 59.9866 102.168 60.1069 102.146 60.2381C102.146 60.3474 102.091 60.4567 101.982 60.5661C101.872 60.6535 101.708 60.6973 101.49 60.6973H80.5647C80.3461 60.6973 80.1821 60.6535 80.0727 60.5661C79.9634 60.4567 79.8978 60.3474 79.876 60.2381C79.876 60.1069 79.9197 59.9866 80.0071 59.8773C80.1165 59.768 80.2695 59.6915 80.4663 59.6477C80.7287 59.604 81.1441 59.5165 81.7126 59.3854C82.2811 59.2323 82.8496 58.9699 83.4181 58.5982C84.0085 58.2265 84.5223 57.7236 84.9596 57.0895C85.3969 56.4554 85.6156 55.6245 85.6156 54.5969V22.5206C85.6156 21.5148 85.3969 20.6948 84.9596 20.0608C84.5223 19.4048 84.0085 18.9019 83.4181 18.5521C82.8496 18.1803 82.2811 17.918 81.7126 17.7649C81.1441 17.6118 80.7287 17.5135 80.4663 17.4697C80.2695 17.4479 80.1165 17.3823 80.0071 17.2729C79.9197 17.1417 79.876 17.0215 79.876 16.9122C79.8978 16.781 79.9634 16.6716 80.0727 16.5842C80.1821 16.4749 80.3461 16.4202 80.5647 16.4202H101.49C101.708 16.4202 101.872 16.4749 101.982 16.5842C102.091 16.6716 102.146 16.781 102.146 16.9122C102.168 17.0215 102.124 17.1417 102.014 17.2729C101.927 17.3823 101.785 17.4479 101.588 17.4697C101.326 17.5135 100.91 17.6118 100.342 17.7649C99.7733 17.918 99.1939 18.1803 98.6035 18.5521C98.035 18.9019 97.5321 19.4048 97.0948 20.0608C96.6575 20.6948 96.4389 21.5148 96.4389 22.5206V36.8532H110.673V22.5206C110.673 21.5148 110.454 20.6948 110.017 20.0608C109.58 19.4048 109.066 18.9019 108.476 18.5521C107.907 18.1803 107.339 17.918 106.77 17.7649C106.202 17.6118 105.786 17.5135 105.524 17.4697C105.327 17.4479 105.174 17.3823 105.065 17.2729C104.977 17.1417 104.934 17.0215 104.934 16.9122C104.955 16.781 105.021 16.6716 105.13 16.5842C105.24 16.4749 105.404 16.4202 105.622 16.4202H126.547C126.766 16.4202 126.93 16.4749 127.039 16.5842C127.149 16.6716 127.203 16.781 127.203 16.9122C127.225 17.0215 127.181 17.1417 127.072 17.2729C126.985 17.3823 126.842 17.4479 126.646 17.4697C126.383 17.5135 125.968 17.6118 125.399 17.7649C124.831 17.918 124.251 18.1803 123.661 18.5521C123.093 18.9019 122.59 19.4048 122.152 20.0608C121.715 20.6948 121.496 21.5148 121.496 22.5206V54.5969C121.496 55.6245 121.715 56.4554 122.152 57.0895C122.59 57.7236 123.093 58.2265 123.661 58.5982C124.251 58.9699 124.831 59.2323 125.399 59.3854C125.968 59.5165 126.383 59.604 126.646 59.6477ZM144.861 30.3593C147.113 30.3593 149.179 30.7638 151.06 31.5728C152.962 32.3599 154.591 33.4532 155.946 34.8526C157.302 36.2301 158.363 37.859 159.128 39.7395C159.893 41.6199 160.276 43.6315 160.276 45.7743C160.276 47.9389 159.86 49.9724 159.029 51.8746C158.199 53.7769 157.062 55.4496 155.618 56.8927C154.175 58.314 152.47 59.44 150.502 60.2709C148.556 61.1018 146.457 61.5172 144.205 61.5172C141.953 61.5172 139.875 61.1236 137.973 60.3365C136.093 59.5275 134.475 58.4342 133.119 57.0567C131.763 55.6573 130.703 54.0284 129.938 52.1698C129.172 50.2894 128.79 48.2669 128.79 46.1022C128.79 43.9594 129.205 41.9369 130.036 40.0346C130.867 38.1105 132.004 36.4378 133.447 35.0166C134.89 33.5735 136.585 32.4365 138.531 31.6056C140.499 30.7747 142.609 30.3593 144.861 30.3593ZM144.533 59.7789C145.582 59.7789 146.49 59.4182 147.255 58.6966C148.042 57.975 148.687 56.9911 149.19 55.7448C149.715 54.4766 150.108 53.0007 150.371 51.3171C150.633 49.6335 150.764 47.8405 150.764 45.9382C150.764 44.036 150.633 42.243 150.371 40.5594C150.108 38.8758 149.715 37.4108 149.19 36.1645C148.687 34.8963 148.042 33.9014 147.255 33.1799C146.49 32.4583 145.582 32.0976 144.533 32.0976C143.483 32.0976 142.565 32.4583 141.778 33.1799C141.012 33.9014 140.367 34.8963 139.843 36.1645C139.318 37.4108 138.924 38.8758 138.662 40.5594C138.421 42.243 138.301 44.036 138.301 45.9382C138.301 47.8405 138.421 49.6335 138.662 51.3171C138.924 53.0007 139.318 54.4766 139.843 55.7448C140.367 56.9911 141.012 57.975 141.778 58.6966C142.565 59.4182 143.483 59.7789 144.533 59.7789ZM198.54 59.7461C198.715 59.7899 198.835 59.8664 198.901 59.9757C198.988 60.0632 199.021 60.1616 198.999 60.2709C198.977 60.3802 198.912 60.4786 198.802 60.5661C198.715 60.6535 198.584 60.6973 198.409 60.6973H194.604H194.309H186.044H185.749H181.944C181.769 60.6973 181.627 60.6535 181.518 60.5661C181.431 60.4786 181.376 60.3802 181.354 60.2709C181.332 60.1616 181.354 60.0632 181.42 59.9757C181.507 59.8664 181.638 59.7899 181.813 59.7461C181.988 59.7243 182.283 59.6587 182.699 59.5493C183.136 59.4182 183.573 59.2104 184.011 58.9262C184.47 58.6201 184.874 58.2046 185.224 57.6799C185.574 57.1332 185.749 56.4226 185.749 55.548V43.5112V43.2488V41.4121C185.727 40.4938 185.65 39.5536 185.519 38.5915C185.41 37.6076 185.159 36.7221 184.765 35.9349C184.393 35.1259 183.836 34.4699 183.092 33.967C182.371 33.4423 181.398 33.1799 180.173 33.1799C178.905 33.1799 177.921 33.4313 177.221 33.9342C176.522 34.4371 175.997 35.0603 175.647 35.8037C175.319 36.5471 175.111 37.3452 175.024 38.198C174.958 39.0288 174.926 39.7723 174.926 40.4282V55.548C174.926 56.4226 175.101 57.1332 175.45 57.6799C175.8 58.2046 176.194 58.6201 176.631 58.9262C177.09 59.2104 177.528 59.4182 177.943 59.5493C178.38 59.6587 178.686 59.7243 178.861 59.7461C179.036 59.7899 179.157 59.8664 179.222 59.9757C179.31 60.0632 179.342 60.1616 179.321 60.2709C179.299 60.3802 179.233 60.4786 179.124 60.5661C179.036 60.6535 178.905 60.6973 178.73 60.6973H162.266C162.091 60.6973 161.949 60.6535 161.839 60.5661C161.752 60.4786 161.697 60.3802 161.675 60.2709C161.653 60.1616 161.675 60.0632 161.741 59.9757C161.828 59.8664 161.96 59.7899 162.134 59.7461C162.309 59.7243 162.605 59.6587 163.02 59.5493C163.457 59.4182 163.895 59.2104 164.332 58.9262C164.791 58.6201 165.196 58.2046 165.545 57.6799C165.895 57.1332 166.07 56.4226 166.07 55.548V37.3124C166.07 37.0282 165.939 36.8532 165.677 36.7876C165.633 36.7876 165.469 36.7548 165.185 36.6893C164.922 36.6237 164.616 36.5471 164.266 36.4597C163.916 36.3722 163.588 36.2957 163.282 36.2301C162.998 36.1645 162.823 36.1208 162.758 36.0989C162.473 36.0333 162.32 35.8912 162.298 35.6725C162.298 35.432 162.462 35.268 162.79 35.1806C163.643 34.9838 164.561 34.7214 165.545 34.3934C166.551 34.0436 167.557 33.6609 168.563 33.2455C169.569 32.8082 170.542 32.349 171.482 31.868C172.422 31.3651 173.264 30.8622 174.007 30.3593C174.204 30.2281 174.401 30.1734 174.598 30.1953C174.816 30.2171 174.926 30.3811 174.926 30.6873V33.5079C175.385 33.0924 175.91 32.6989 176.5 32.3271C177.09 31.9336 177.746 31.5947 178.468 31.3104C179.211 31.0262 180.031 30.7966 180.928 30.6217C181.846 30.4467 182.852 30.3593 183.945 30.3593C185.738 30.3593 187.236 30.5561 188.438 30.9496C189.663 31.3432 190.669 31.868 191.456 32.5239C192.265 33.1799 192.877 33.9342 193.292 34.787C193.73 35.6397 194.036 36.5253 194.211 37.4436C194.408 38.3619 194.517 39.2803 194.539 40.1986C194.582 41.0951 194.604 41.9369 194.604 42.7241V42.888V55.548C194.604 56.4226 194.779 57.1332 195.129 57.6799C195.479 58.2046 195.872 58.6201 196.31 58.9262C196.769 59.2104 197.206 59.4182 197.622 59.5493C198.059 59.6587 198.365 59.7243 198.54 59.7461ZM209.512 43.3144C209.162 43.3144 208.987 43.5003 208.987 43.872C208.987 46.1022 209.184 48.0154 209.578 49.6116C209.971 51.2078 210.54 52.5197 211.283 53.5473C212.048 54.5531 212.989 55.2966 214.104 55.7776C215.241 56.2586 216.553 56.4991 218.039 56.4991C219.176 56.4991 220.182 56.3789 221.057 56.1384C221.953 55.8978 222.729 55.6245 223.385 55.3184C224.041 54.9904 224.577 54.6843 224.993 54.4001C225.408 54.1158 225.714 53.93 225.911 53.8425C226.217 53.7113 226.457 53.7441 226.632 53.9409C226.807 54.1158 226.807 54.3891 226.632 54.7609C226.567 54.892 226.414 55.1544 226.173 55.548C225.955 55.9197 225.627 56.357 225.189 56.8599C224.752 57.3628 224.205 57.8876 223.549 58.4342C222.893 58.9808 222.106 59.4837 221.188 59.9429C220.291 60.4021 219.253 60.7738 218.072 61.058C216.913 61.3642 215.612 61.5172 214.169 61.5172C211.983 61.5172 210.004 61.1783 208.233 60.5005C206.462 59.8008 204.942 58.795 203.674 57.4831C202.428 56.1712 201.455 54.575 200.755 52.6946C200.077 50.8142 199.738 48.6933 199.738 46.3318C199.738 43.7517 200.165 41.4668 201.017 39.4771C201.87 37.4873 202.985 35.8256 204.363 34.4918C205.74 33.1362 207.304 32.1085 209.053 31.4088C210.802 30.7091 212.584 30.3593 214.399 30.3593C216.104 30.3593 217.602 30.5998 218.892 31.0808C220.204 31.54 221.33 32.1522 222.27 32.9175C223.232 33.6609 224.02 34.5027 224.632 35.4429C225.266 36.3613 225.769 37.2796 226.14 38.198C226.534 39.1163 226.807 39.98 226.96 40.789C227.113 41.598 227.19 42.243 227.19 42.7241C227.19 42.9427 227.113 43.0958 226.96 43.1832C226.829 43.2707 226.643 43.3144 226.403 43.3144H209.512ZM209.151 41.1498C209.107 41.434 209.239 41.5761 209.545 41.5761C209.61 41.5761 209.829 41.5761 210.201 41.5761C210.572 41.5543 211.021 41.5324 211.545 41.5105C212.092 41.4887 212.671 41.4668 213.284 41.4449C213.896 41.4231 214.475 41.4012 215.022 41.3793C215.59 41.3575 216.072 41.3465 216.465 41.3465C216.881 41.3247 217.143 41.3028 217.252 41.281C217.602 41.2591 217.963 41.106 218.335 40.8218C218.728 40.5375 218.925 40.0456 218.925 39.3459C218.925 38.7118 218.837 37.9793 218.663 37.1484C218.488 36.3175 218.203 35.5304 217.81 34.787C217.438 34.0436 216.957 33.4204 216.367 32.9175C215.776 32.3927 215.055 32.1304 214.202 32.1304C213.524 32.1304 212.934 32.3162 212.431 32.6879C211.928 33.0378 211.491 33.5079 211.119 34.0982C210.769 34.6667 210.474 35.3008 210.233 36.0005C209.993 36.7002 209.796 37.3889 209.643 38.0668C209.49 38.7227 209.37 39.3349 209.282 39.9034C209.217 40.4501 209.173 40.8655 209.151 41.1498ZM235.703 68.5359L240 58.959C239.65 58.15 239.191 57.0786 238.622 55.7448C238.054 54.411 237.43 52.9679 236.753 51.4155C236.075 49.8412 235.386 48.2341 234.686 46.5942C233.987 44.9543 233.331 43.4456 232.718 42.0681C232.106 40.6687 231.581 39.4771 231.144 38.4931C230.707 37.4873 230.412 36.8314 230.259 36.5253C229.931 35.8912 229.614 35.3445 229.307 34.8854C229.001 34.4043 228.673 33.9889 228.324 33.6391C227.974 33.2892 227.58 33.005 227.143 32.7863C226.706 32.5458 226.192 32.349 225.601 32.196C225.426 32.1522 225.306 32.0757 225.241 31.9664C225.153 31.857 225.12 31.7477 225.142 31.6384C225.142 31.5072 225.197 31.3979 225.306 31.3104C225.394 31.2229 225.525 31.1792 225.7 31.1792H242.099C242.252 31.1792 242.383 31.2229 242.492 31.3104C242.602 31.3979 242.667 31.5072 242.689 31.6384C242.711 31.7477 242.689 31.868 242.623 31.9992C242.558 32.1085 242.427 32.185 242.23 32.2287C241.902 32.3162 241.541 32.4365 241.147 32.5895C240.776 32.7207 240.448 32.9394 240.164 33.2455C239.879 33.5297 239.693 33.9233 239.606 34.4262C239.519 34.9072 239.595 35.5413 239.836 36.3285C239.945 36.6783 240.131 37.1922 240.393 37.87C240.656 38.5478 240.951 39.2912 241.279 40.1002C241.607 40.9092 241.946 41.7511 242.295 42.6257C242.645 43.4784 242.973 44.2656 243.279 44.9871C243.585 45.6868 243.848 46.2881 244.067 46.791C244.285 47.272 244.416 47.5453 244.46 47.6109C244.613 47.8952 244.766 47.8952 244.919 47.6109C244.985 47.4579 245.127 47.119 245.346 46.5942C245.564 46.0694 245.805 45.4463 246.067 44.7247C246.351 43.9813 246.658 43.1832 246.986 42.3305C247.313 41.4777 247.62 40.6687 247.904 39.9034C248.188 39.1163 248.44 38.4057 248.658 37.7716C248.899 37.1156 249.063 36.6346 249.15 36.3285C249.391 35.5413 249.467 34.9072 249.38 34.4262C249.314 33.9233 249.15 33.5297 248.888 33.2455C248.625 32.9394 248.308 32.7207 247.937 32.5895C247.565 32.4365 247.215 32.3162 246.887 32.2287C246.69 32.185 246.559 32.1085 246.494 31.9992C246.428 31.868 246.406 31.7477 246.428 31.6384C246.45 31.5072 246.504 31.3979 246.592 31.3104C246.701 31.2229 246.843 31.1792 247.018 31.1792H256.825C256.978 31.1792 257.098 31.2229 257.186 31.3104C257.295 31.3979 257.361 31.5072 257.382 31.6384C257.404 31.7477 257.371 31.857 257.284 31.9664C257.218 32.0757 257.098 32.1522 256.923 32.196C256.355 32.349 255.852 32.5458 255.415 32.7863C254.977 33.005 254.573 33.2892 254.201 33.6391C253.851 33.9889 253.523 34.4043 253.217 34.8854C252.911 35.3445 252.594 35.8912 252.266 36.5253C252.135 36.7876 251.851 37.3889 251.413 38.3291C250.998 39.2475 250.495 40.3626 249.905 41.6745C249.314 42.9864 248.669 44.4186 247.969 45.971C247.27 47.5235 246.581 49.065 245.903 50.5955C245.225 52.1042 244.58 53.5364 243.968 54.892C243.356 56.2477 242.853 57.3738 242.459 58.2702L236.818 70.8646C236.097 72.5045 235.244 73.8164 234.26 74.8003C233.298 75.7843 232.095 76.2762 230.652 76.2762C230.149 76.2762 229.646 76.1997 229.143 76.0467C228.641 75.9155 228.192 75.6968 227.799 75.3907C227.405 75.1064 227.077 74.7238 226.815 74.2428C226.574 73.7836 226.454 73.2151 226.454 72.5373C226.454 71.9251 226.563 71.4003 226.782 70.963C227.023 70.5257 227.329 70.1649 227.7 69.8807C228.094 69.5964 228.531 69.3887 229.012 69.2575C229.493 69.1263 229.985 69.0607 230.488 69.0607C231.166 69.0607 231.756 69.1591 232.259 69.3559C232.762 69.5745 233.221 69.7385 233.637 69.8479C234.052 69.9572 234.424 69.9353 234.752 69.7823C235.08 69.6511 235.397 69.2356 235.703 68.5359ZM270.075 32.1632C269.2 32.1632 268.391 32.4693 267.648 33.0815C266.926 33.6719 266.303 34.5137 265.778 35.6069C265.253 36.7002 264.849 38.023 264.565 39.5755C264.28 41.106 264.138 42.8006 264.138 44.6591C264.138 46.5395 264.368 48.2232 264.827 49.71C265.308 51.175 265.964 52.4213 266.795 53.4489C267.626 54.4766 268.599 55.2638 269.714 55.8104C270.829 56.357 272.032 56.6303 273.322 56.6303C274.568 56.6303 275.705 56.4445 276.733 56.0728C277.782 55.7011 278.7 55.2856 279.488 54.8265C280.297 54.3673 280.953 53.93 281.456 53.5145C281.98 53.0991 282.341 52.8477 282.538 52.7602C282.844 52.629 283.084 52.6618 283.259 52.8586C283.456 53.0335 283.456 53.3068 283.259 53.6785C283.128 53.919 282.91 54.2798 282.603 54.7609C282.297 55.2419 281.882 55.7776 281.357 56.368C280.854 56.9364 280.242 57.5268 279.52 58.139C278.799 58.7513 277.957 59.3088 276.995 59.8117C276.055 60.3146 274.983 60.7191 273.781 61.0252C272.6 61.3532 271.277 61.5172 269.812 61.5172C267.538 61.5172 265.494 61.1892 263.679 60.5333C261.864 59.8773 260.312 58.9153 259.022 57.6471C257.732 56.3789 256.737 54.8265 256.037 52.9898C255.359 51.1312 255.02 49.0212 255.02 46.6598C255.02 44.5826 255.283 42.735 255.808 41.117C256.332 39.4989 257.021 38.0886 257.874 36.886C258.748 35.6835 259.743 34.6667 260.858 33.8358C261.974 33.005 263.111 32.3381 264.269 31.8352C265.45 31.3104 266.609 30.9387 267.746 30.72C268.883 30.4795 269.911 30.3593 270.829 30.3593C272.316 30.3593 273.682 30.5014 274.929 30.7856C276.175 31.048 277.246 31.4307 278.143 31.9336C279.039 32.4146 279.739 32.994 280.242 33.6719C280.745 34.3278 280.996 35.0384 280.996 35.8037C280.996 36.4815 280.876 37.05 280.636 37.5092C280.417 37.9684 280.122 38.351 279.75 38.6571C279.4 38.9414 278.996 39.1491 278.537 39.2803C278.099 39.4115 277.651 39.4771 277.192 39.4771C276.536 39.4771 275.913 39.3568 275.322 39.1163C274.754 38.8758 274.284 38.4713 273.912 37.9028C273.628 37.4873 273.398 36.9516 273.223 36.2957C273.048 35.6397 272.841 35.0056 272.6 34.3934C272.381 33.7812 272.086 33.2564 271.715 32.8191C271.343 32.3818 270.796 32.1632 270.075 32.1632ZM301.099 30.3593C303.351 30.3593 305.417 30.7638 307.298 31.5728C309.2 32.3599 310.829 33.4532 312.185 34.8526C313.54 36.2301 314.601 37.859 315.366 39.7395C316.131 41.6199 316.514 43.6315 316.514 45.7743C316.514 47.9389 316.098 49.9724 315.268 51.8746C314.437 53.7769 313.3 55.4496 311.857 56.8927C310.413 58.314 308.708 59.44 306.74 60.2709C304.794 61.1018 302.695 61.5172 300.443 61.5172C298.191 61.5172 296.114 61.1236 294.211 60.3365C292.331 59.5275 290.713 58.4342 289.357 57.0567C288.002 55.6573 286.941 54.0284 286.176 52.1698C285.411 50.2894 285.028 48.2669 285.028 46.1022C285.028 43.9594 285.443 41.9369 286.274 40.0346C287.105 38.1105 288.242 36.4378 289.685 35.0166C291.128 33.5735 292.823 32.4365 294.769 31.6056C296.737 30.7747 298.847 30.3593 301.099 30.3593ZM300.771 59.7789C301.82 59.7789 302.728 59.4182 303.493 58.6966C304.28 57.975 304.925 56.9911 305.428 55.7448C305.953 54.4766 306.346 53.0007 306.609 51.3171C306.871 49.6335 307.002 47.8405 307.002 45.9382C307.002 44.036 306.871 42.243 306.609 40.5594C306.346 38.8758 305.953 37.4108 305.428 36.1645C304.925 34.8963 304.28 33.9014 303.493 33.1799C302.728 32.4583 301.82 32.0976 300.771 32.0976C299.721 32.0976 298.803 32.4583 298.016 33.1799C297.251 33.9014 296.606 34.8963 296.081 36.1645C295.556 37.4108 295.162 38.8758 294.9 40.5594C294.66 42.243 294.539 44.036 294.539 45.9382C294.539 47.8405 294.66 49.6335 294.9 51.3171C295.162 53.0007 295.556 54.4766 296.081 55.7448C296.606 56.9911 297.251 57.975 298.016 58.6966C298.803 59.4182 299.721 59.7789 300.771 59.7789ZM372.128 59.7461C372.303 59.7899 372.423 59.8664 372.489 59.9757C372.576 60.0632 372.609 60.1616 372.587 60.2709C372.565 60.3802 372.5 60.4786 372.391 60.5661C372.303 60.6535 372.172 60.6973 371.997 60.6973H356.582C356.407 60.6973 356.265 60.6535 356.156 60.5661C356.068 60.4786 356.014 60.3802 355.992 60.2709C355.97 60.1616 355.992 60.0632 356.057 59.9757C356.145 59.8664 356.276 59.7899 356.451 59.7461C356.626 59.7243 356.899 59.6696 357.271 59.5821C357.642 59.4728 358.014 59.287 358.386 59.0246C358.779 58.7622 359.118 58.3796 359.403 57.8767C359.709 57.3738 359.862 56.685 359.862 55.8104V40.625C359.84 39.7504 359.763 38.8758 359.632 38.0012C359.501 37.1047 359.25 36.3066 358.878 35.6069C358.506 34.8854 357.981 34.3059 357.304 33.8686C356.648 33.4095 355.762 33.1799 354.647 33.1799C353.685 33.1799 352.898 33.3439 352.286 33.6719C351.695 33.9998 351.236 34.4262 350.908 34.951C350.58 35.4539 350.35 36.0224 350.219 36.6565C350.088 37.2905 350.012 37.9246 349.99 38.5587V55.8104C349.99 56.685 350.132 57.3738 350.416 57.8767C350.722 58.3796 351.061 58.7622 351.433 59.0246C351.826 59.287 352.209 59.4728 352.581 59.5821C352.952 59.6696 353.226 59.7243 353.401 59.7461C353.576 59.7899 353.696 59.8664 353.761 59.9757C353.849 60.0632 353.882 60.1616 353.86 60.2709C353.838 60.3802 353.772 60.4786 353.663 60.5661C353.576 60.6535 353.444 60.6973 353.269 60.6973H337.854C337.68 60.6973 337.537 60.6535 337.428 60.5661C337.341 60.4786 337.286 60.3802 337.264 60.2709C337.242 60.1616 337.264 60.0632 337.33 59.9757C337.417 59.8664 337.548 59.7899 337.723 59.7461C337.898 59.7243 338.172 59.6696 338.543 59.5821C338.915 59.4728 339.287 59.287 339.658 59.0246C340.052 58.7622 340.391 58.3796 340.675 57.8767C340.981 57.3738 341.134 56.685 341.134 55.8104V40.5922C341.112 39.7176 341.036 38.843 340.905 37.9684C340.773 37.0938 340.522 36.3066 340.15 35.6069C339.779 34.8854 339.254 34.3059 338.576 33.8686C337.898 33.4095 337.013 33.1799 335.919 33.1799C334.935 33.1799 334.148 33.3439 333.558 33.6719C332.968 33.9998 332.497 34.4262 332.148 34.951C331.82 35.4539 331.59 36.0333 331.459 36.6893C331.35 37.3233 331.284 37.9574 331.262 38.5915V55.8104C331.262 56.685 331.404 57.3738 331.688 57.8767C331.995 58.3796 332.333 58.7622 332.705 59.0246C333.099 59.287 333.481 59.4728 333.853 59.5821C334.225 59.6696 334.498 59.7243 334.673 59.7461C334.848 59.7899 334.968 59.8664 335.034 59.9757C335.121 60.0632 335.154 60.1616 335.132 60.2709C335.11 60.3802 335.045 60.4786 334.935 60.5661C334.848 60.6535 334.717 60.6973 334.542 60.6973H319.127C318.952 60.6973 318.81 60.6535 318.701 60.5661C318.613 60.4786 318.558 60.3802 318.537 60.2709C318.515 60.1616 318.537 60.0632 318.602 59.9757C318.69 59.8664 318.821 59.7899 318.996 59.7461C319.171 59.7243 319.444 59.6696 319.816 59.5821C320.187 59.4728 320.559 59.287 320.931 59.0246C321.324 58.7622 321.663 58.3796 321.948 57.8767C322.254 57.3738 322.407 56.685 322.407 55.8104V37.3124C322.407 37.0282 322.275 36.8532 322.013 36.7876C321.969 36.7876 321.805 36.7548 321.521 36.6893C321.259 36.6237 320.953 36.5471 320.603 36.4597C320.253 36.3722 319.925 36.2957 319.619 36.2301C319.335 36.1645 319.16 36.1208 319.094 36.0989C318.81 36.0333 318.657 35.8912 318.635 35.6725C318.635 35.432 318.799 35.268 319.127 35.1806C319.98 34.9838 320.898 34.7214 321.882 34.3934C322.888 34.0436 323.894 33.6609 324.899 33.2455C325.905 32.8082 326.878 32.349 327.818 31.868C328.759 31.3651 329.6 30.8622 330.344 30.3593C330.541 30.2281 330.737 30.1734 330.934 30.1953C331.153 30.2171 331.262 30.3811 331.262 30.6873V33.1143C332.246 32.349 333.416 31.704 334.771 31.1792C336.149 30.6326 337.789 30.3593 339.691 30.3593C340.937 30.3593 342.042 30.4577 343.004 30.6545C343.966 30.8512 344.797 31.1355 345.496 31.5072C346.218 31.857 346.83 32.2834 347.333 32.7863C347.836 33.2673 348.251 33.803 348.579 34.3934C349.06 33.8905 349.618 33.3985 350.252 32.9175C350.886 32.4365 351.608 32.0101 352.417 31.6384C353.226 31.2448 354.122 30.9387 355.106 30.72C356.112 30.4795 357.216 30.3593 358.419 30.3593C360.19 30.3593 361.666 30.5561 362.846 30.9496C364.049 31.3432 365.033 31.868 365.798 32.5239C366.563 33.1799 367.143 33.9342 367.536 34.787C367.93 35.6397 368.214 36.5253 368.389 37.4436C368.564 38.3619 368.663 39.2803 368.684 40.1986C368.706 41.0951 368.717 41.9369 368.717 42.7241V42.888V55.8104C368.717 56.685 368.859 57.3738 369.144 57.8767C369.45 58.3796 369.789 58.7622 370.16 59.0246C370.554 59.287 370.937 59.4728 371.308 59.5821C371.68 59.6696 371.953 59.7243 372.128 59.7461ZM396.282 30.3593C398.031 30.3593 399.562 30.5889 400.874 31.048C402.186 31.5072 403.312 32.1304 404.252 32.9175C405.214 33.7047 406.001 34.6011 406.614 35.6069C407.248 36.6127 407.74 37.6732 408.089 38.7883C408.461 39.9034 408.713 41.0186 408.844 42.1337C408.997 43.2488 409.073 44.2983 409.073 45.2823C409.073 47.7531 408.767 49.9833 408.155 51.973C407.565 53.9628 406.657 55.6683 405.433 57.0895C404.23 58.5107 402.711 59.604 400.874 60.3693C399.037 61.1346 396.894 61.5172 394.446 61.5172C393.068 61.5172 391.855 61.4298 390.805 61.2548C389.755 61.0799 388.793 60.8285 387.919 60.5005C387.066 60.1725 386.268 59.768 385.525 59.287C384.803 58.7841 384.071 58.2046 383.327 57.5487C383.24 57.4831 383.152 57.4393 383.065 57.4175C382.999 57.3956 382.912 57.4393 382.802 57.5487C382.562 57.7455 382.223 58.0406 381.786 58.4342C381.37 58.8059 380.922 59.2214 380.441 59.6805C379.96 60.1397 379.479 60.5989 378.998 61.058C378.539 61.5172 378.167 61.9108 377.883 62.2388C377.708 62.4356 377.522 62.4902 377.325 62.4028C377.128 62.3372 377.03 62.1622 377.03 61.878V40.3626C377.03 38.5697 377.03 36.7986 377.03 35.0494C377.03 33.2783 377.03 31.5947 377.03 29.9985C377.03 28.4023 377.03 26.9264 377.03 25.5708C377.052 24.2151 377.063 23.0344 377.063 22.0286C377.063 21.0228 377.063 20.2357 377.063 19.6672C377.063 19.0987 377.063 18.8144 377.063 18.8144C377.063 18.5302 376.932 18.3553 376.669 18.2897C376.625 18.2897 376.461 18.2569 376.177 18.1913C375.915 18.1038 375.609 18.0273 375.259 17.9617C374.909 17.8742 374.581 17.7977 374.275 17.7321C373.991 17.6446 373.816 17.6009 373.75 17.6009C373.466 17.5353 373.313 17.3823 373.291 17.1417C373.291 16.9012 373.455 16.7482 373.783 16.6826C374.636 16.4858 375.554 16.2234 376.538 15.8954C377.544 15.5456 378.55 15.1629 379.555 14.7475C380.561 14.3102 381.534 13.851 382.474 13.37C383.415 12.8671 384.256 12.3642 385 11.8613C385.197 11.7301 385.393 11.6754 385.59 11.6973C385.809 11.7192 385.918 11.8832 385.918 12.1893V34.9182C385.962 35.0056 386.027 35.0603 386.115 35.0822C386.202 35.104 386.279 35.0603 386.344 34.951C386.541 34.7105 386.869 34.3387 387.328 33.8358C387.788 33.3111 388.411 32.7972 389.198 32.2943C390.007 31.7696 390.991 31.3213 392.15 30.9496C393.33 30.5561 394.708 30.3593 396.282 30.3593ZM399.562 46.8238C399.562 46.3209 399.551 45.6649 399.529 44.8559C399.529 44.0469 399.464 43.1723 399.332 42.2321C399.223 41.2919 399.037 40.3407 398.775 39.3787C398.512 38.4166 398.13 37.5529 397.627 36.7876C397.124 36.0224 396.479 35.3992 395.692 34.9182C394.905 34.4153 393.932 34.1638 392.773 34.1638C391.286 34.1638 390.094 34.4371 389.198 34.9838C388.301 35.5304 387.613 36.1973 387.132 36.9844C386.651 37.7716 386.334 38.6134 386.18 39.5099C386.027 40.3845 385.951 41.1607 385.951 41.8385V50.6939C385.951 51.5248 386.038 52.4541 386.213 53.4817C386.41 54.5094 386.749 55.4824 387.23 56.4007C387.711 57.3191 388.367 58.0953 389.198 58.7294C390.029 59.3416 391.089 59.6477 392.379 59.6477C393.669 59.6477 394.763 59.3198 395.659 58.6638C396.577 58.0078 397.321 57.1114 397.889 55.9744C398.48 54.8155 398.906 53.4599 399.168 51.9074C399.431 50.3332 399.562 48.6386 399.562 46.8238Z" fill="#333332"/>
</svg>
