<svg width="172" height="60" viewBox="0 0 172 60" fill="none" xmlns="http://www.w3.org/2000/svg">
<rect x="0.700592" y="0.835938" width="171.055" height="58.7011" rx="29.3505" fill="white"/>
<path fill-rule="evenodd" clip-rule="evenodd" d="M40.2249 10.5854C38.6427 10.5854 37.3601 11.8681 37.3601 13.4502V26.7985H24.0116C22.4295 26.7985 21.1469 28.0811 21.1469 29.6633V30.7094C21.1469 32.2915 22.4295 33.5741 24.0116 33.5741H37.3601V46.9226C37.3601 48.5048 38.6427 49.7874 40.2249 49.7874H41.271C42.8531 49.7874 44.1357 48.5048 44.1357 46.9226V33.5741H57.484C59.0662 33.5741 60.3488 32.2915 60.3488 30.7094V29.6633C60.3488 28.0811 59.0662 26.7985 57.484 26.7985H44.1357V13.4502C44.1357 11.868 42.8531 10.5854 41.271 10.5854H40.2249Z" fill="url(#paint0_linear)"/>
<path d="M88.6069 38.499V24.499H90.7269L97.7469 35.039V24.499H99.8669V38.499H97.7469L90.7269 27.959V38.499H88.6069ZM107.268 38.739C106.295 38.739 105.428 38.5257 104.668 38.099C103.922 37.659 103.335 37.0524 102.908 36.279C102.482 35.5057 102.268 34.6057 102.268 33.579C102.268 32.539 102.475 31.6257 102.888 30.839C103.315 30.0524 103.902 29.439 104.648 28.999C105.408 28.559 106.288 28.339 107.288 28.339C108.262 28.339 109.108 28.559 109.828 28.999C110.548 29.4257 111.108 29.999 111.508 30.719C111.908 31.439 112.108 32.2324 112.108 33.099C112.108 33.2324 112.102 33.379 112.088 33.539C112.088 33.6857 112.082 33.8524 112.068 34.039H104.348C104.415 34.999 104.728 35.7324 105.288 36.239C105.862 36.7324 106.522 36.979 107.268 36.979C107.868 36.979 108.368 36.8457 108.768 36.579C109.182 36.299 109.488 35.9257 109.688 35.459H111.808C111.542 36.3924 111.008 37.1724 110.208 37.799C109.422 38.4257 108.442 38.739 107.268 38.739ZM107.268 30.079C106.562 30.079 105.935 30.2924 105.388 30.719C104.842 31.1324 104.508 31.759 104.388 32.599H109.988C109.948 31.8257 109.675 31.2124 109.168 30.759C108.662 30.3057 108.028 30.079 107.268 30.079ZM115.898 38.499L112.978 28.579H115.098L117.018 36.059L119.178 28.579H121.538L123.698 36.059L125.618 28.579H127.738L124.818 38.499H122.638L120.358 30.699L118.078 38.499H115.898Z" fill="#333332"/>
<defs>
<linearGradient id="paint0_linear" x1="32.1757" y1="20.63" x2="55.8587" y2="43.4053" gradientUnits="userSpaceOnUse">
<stop stop-color="#8F798F"/>
<stop offset="0.298384" stop-color="#8EC4D9"/>
<stop offset="0.441907" stop-color="#AFC5B2"/>
<stop offset="0.631295" stop-color="#F7CB33"/>
<stop offset="0.830795" stop-color="#FCA328"/>
</linearGradient>
</defs>
</svg>
