<svg width="172" height="60" viewBox="0 0 172 60" fill="none" xmlns="http://www.w3.org/2000/svg">
<rect x="0.700592" y="0.5" width="171.055" height="58.7011" rx="29.3505" fill="white"/>
<path fill-rule="evenodd" clip-rule="evenodd" d="M40.2249 10.2495C38.6427 10.2495 37.3601 11.5321 37.3601 13.1143V26.4626H24.0116C22.4295 26.4626 21.1469 27.7452 21.1469 29.3273V30.3734C21.1469 31.9556 22.4295 33.2382 24.0116 33.2382H37.3601V46.5867C37.3601 48.1688 38.6427 49.4514 40.2249 49.4514H41.271C42.8531 49.4514 44.1357 48.1688 44.1357 46.5867V33.2382H57.484C59.0662 33.2382 60.3488 31.9556 60.3488 30.3734V29.3273C60.3488 27.7452 59.0662 26.4626 57.484 26.4626H44.1357V13.1143C44.1357 11.5321 42.8531 10.2495 41.271 10.2495H40.2249Z" fill="#ADACAA"/>
<path d="M88.6069 38.1631V24.1631H90.7269L97.7469 34.7031V24.1631H99.8669V38.1631H97.7469L90.7269 27.6231V38.1631H88.6069ZM107.268 38.4031C106.295 38.4031 105.428 38.1898 104.668 37.7631C103.922 37.3231 103.335 36.7164 102.908 35.9431C102.482 35.1698 102.268 34.2698 102.268 33.2431C102.268 32.2031 102.475 31.2898 102.888 30.5031C103.315 29.7164 103.902 29.1031 104.648 28.6631C105.408 28.2231 106.288 28.0031 107.288 28.0031C108.262 28.0031 109.108 28.2231 109.828 28.6631C110.548 29.0898 111.108 29.6631 111.508 30.3831C111.908 31.1031 112.108 31.8964 112.108 32.7631C112.108 32.8964 112.102 33.0431 112.088 33.2031C112.088 33.3498 112.082 33.5164 112.068 33.7031H104.348C104.415 34.6631 104.728 35.3964 105.288 35.9031C105.862 36.3964 106.522 36.6431 107.268 36.6431C107.868 36.6431 108.368 36.5098 108.768 36.2431C109.182 35.9631 109.488 35.5898 109.688 35.1231H111.808C111.542 36.0564 111.008 36.8364 110.208 37.4631C109.422 38.0898 108.442 38.4031 107.268 38.4031ZM107.268 29.7431C106.562 29.7431 105.935 29.9564 105.388 30.3831C104.842 30.7964 104.508 31.4231 104.388 32.2631H109.988C109.948 31.4898 109.675 30.8764 109.168 30.4231C108.662 29.9698 108.028 29.7431 107.268 29.7431ZM115.898 38.1631L112.978 28.2431H115.098L117.018 35.7231L119.178 28.2431H121.538L123.698 35.7231L125.618 28.2431H127.738L124.818 38.1631H122.638L120.358 30.3631L118.078 38.1631H115.898Z" fill="#333332"/>
</svg>
