<svg width="134" height="106" viewBox="0 0 134 106" fill="none" xmlns="http://www.w3.org/2000/svg">
<rect x="6.80524" y="94.709" width="68.8878" height="10.9555" rx="5.47773" fill="#726172"/>
<path d="M23.4596 102.332V97.6195H24.3213V101.659H26.4083V102.332H23.4596ZM28.6186 102.413C28.282 102.413 27.9835 102.341 27.7232 102.197C27.4629 102.054 27.2587 101.852 27.1106 101.591C26.9625 101.331 26.8884 101.03 26.8884 100.689C26.8884 100.344 26.9602 100.036 27.1039 99.7671C27.252 99.4978 27.4539 99.2891 27.7098 99.141C27.9701 98.9884 28.2753 98.9121 28.6253 98.9121C28.953 98.9121 29.2425 98.9839 29.4938 99.1275C29.7451 99.2711 29.9404 99.4686 30.0795 99.7199C30.2231 99.9668 30.2949 100.243 30.2949 100.548C30.2949 100.597 30.2927 100.649 30.2882 100.703C30.2882 100.757 30.286 100.813 30.2815 100.871H27.7434C27.7614 101.131 27.8511 101.336 28.0127 101.484C28.1788 101.632 28.3785 101.706 28.6119 101.706C28.7869 101.706 28.9328 101.668 29.0495 101.591C29.1707 101.511 29.2604 101.407 29.3188 101.282H30.194C30.1311 101.493 30.0256 101.686 29.8775 101.861C29.7339 102.031 29.5544 102.166 29.339 102.265C29.128 102.363 28.8879 102.413 28.6186 102.413ZM28.6253 99.6122C28.4144 99.6122 28.2281 99.6728 28.0666 99.794C27.905 99.9107 27.8018 100.09 27.7569 100.333H29.4197C29.4063 100.113 29.3255 99.9376 29.1774 99.8074C29.0293 99.6773 28.8453 99.6122 28.6253 99.6122ZM32.1709 102.413C31.8837 102.413 31.648 102.368 31.464 102.278C31.28 102.184 31.1431 102.06 31.0534 101.908C30.9636 101.755 30.9187 101.587 30.9187 101.403C30.9187 101.093 31.0399 100.842 31.2823 100.649C31.5246 100.456 31.8882 100.359 32.3729 100.359H33.2211V100.279C33.2211 100.05 33.1561 99.8815 33.0259 99.7738C32.8958 99.6661 32.7342 99.6122 32.5412 99.6122C32.3661 99.6122 32.2136 99.6548 32.0834 99.7401C31.9532 99.8209 31.8725 99.9421 31.841 100.104H30.9995C31.0219 99.8613 31.1027 99.6504 31.2419 99.4708C31.3855 99.2913 31.5695 99.1544 31.7939 99.0602C32.0183 98.9614 32.2697 98.9121 32.5479 98.9121C33.0237 98.9121 33.3984 99.031 33.6722 99.2689C33.946 99.5067 34.0829 99.8433 34.0829 100.279V102.332H33.3491L33.2683 101.793C33.1695 101.973 33.0304 102.121 32.8509 102.238C32.6758 102.354 32.4492 102.413 32.1709 102.413ZM32.3661 101.74C32.613 101.74 32.8037 101.659 32.9384 101.497C33.0775 101.336 33.165 101.136 33.2009 100.898H32.4671C32.2382 100.898 32.0744 100.941 31.9757 101.026C31.8769 101.107 31.8276 101.208 31.8276 101.329C31.8276 101.459 31.8769 101.56 31.9757 101.632C32.0744 101.704 32.2046 101.74 32.3661 101.74ZM34.9052 102.332V98.9928H35.6727L35.7535 99.6189C35.8746 99.4035 36.0385 99.233 36.2449 99.1073C36.4559 98.9771 36.7027 98.9121 36.9855 98.9121V99.8209H36.7431C36.5546 99.8209 36.3863 99.8501 36.2382 99.9084C36.0901 99.9668 35.9734 100.068 35.8881 100.211C35.8073 100.355 35.7669 100.555 35.7669 100.811V102.332H34.9052ZM37.5744 102.332V98.9928H38.3352L38.4025 99.5584C38.5057 99.3609 38.6538 99.2038 38.8468 99.0871C39.0443 98.9704 39.2754 98.9121 39.5402 98.9121C39.9531 98.9121 40.2741 99.0422 40.5029 99.3025C40.7318 99.5628 40.8463 99.9443 40.8463 100.447V102.332H39.9846V100.528C39.9846 100.241 39.9262 100.021 39.8095 99.868C39.6928 99.7154 39.5111 99.6391 39.2642 99.6391C39.0219 99.6391 38.8221 99.7244 38.665 99.895C38.5124 100.066 38.4362 100.303 38.4362 100.609V102.332H37.5744ZM43.2947 102.332V97.6195H44.318L45.8193 100.609L47.3003 97.6195H48.3236V102.332H47.4619V99.0804L46.1491 101.659H45.4692L44.1564 99.0804V102.332H43.2947ZM50.82 102.413C50.4969 102.413 50.2052 102.339 49.9449 102.191C49.689 102.043 49.4848 101.838 49.3322 101.578C49.1841 101.313 49.1101 101.008 49.1101 100.662C49.1101 100.317 49.1864 100.014 49.3389 99.7536C49.4915 99.4888 49.6958 99.2823 49.9516 99.1342C50.2119 98.9861 50.5036 98.9121 50.8268 98.9121C51.1454 98.9121 51.4327 98.9861 51.6885 99.1342C51.9488 99.2823 52.153 99.4888 52.3011 99.7536C52.4537 100.014 52.53 100.317 52.53 100.662C52.53 101.008 52.4537 101.313 52.3011 101.578C52.153 101.838 51.9488 102.043 51.6885 102.191C51.4282 102.339 51.1387 102.413 50.82 102.413ZM50.82 101.666C51.0444 101.666 51.2397 101.583 51.4057 101.416C51.5718 101.246 51.6548 100.995 51.6548 100.662C51.6548 100.33 51.5718 100.081 51.4057 99.9152C51.2397 99.7446 51.0467 99.6593 50.8268 99.6593C50.5979 99.6593 50.4004 99.7446 50.2343 99.9152C50.0728 100.081 49.992 100.33 49.992 100.662C49.992 100.995 50.0728 101.246 50.2343 101.416C50.4004 101.583 50.5956 101.666 50.82 101.666ZM53.3005 102.332V98.9928H54.068L54.1488 99.6189C54.2699 99.4035 54.4338 99.233 54.6402 99.1073C54.8512 98.9771 55.098 98.9121 55.3808 98.9121V99.8209H55.1384C54.9499 99.8209 54.7816 99.8501 54.6335 99.9084C54.4854 99.9668 54.3687 100.068 54.2834 100.211C54.2026 100.355 54.1622 100.555 54.1622 100.811V102.332H53.3005ZM57.533 102.413C57.1964 102.413 56.898 102.341 56.6376 102.197C56.3773 102.054 56.1731 101.852 56.025 101.591C55.8769 101.331 55.8028 101.03 55.8028 100.689C55.8028 100.344 55.8747 100.036 56.0183 99.7671C56.1664 99.4978 56.3683 99.2891 56.6242 99.141C56.8845 98.9884 57.1897 98.9121 57.5398 98.9121C57.8674 98.9121 58.1569 98.9839 58.4082 99.1275C58.6596 99.2711 58.8548 99.4686 58.9939 99.7199C59.1375 99.9668 59.2094 100.243 59.2094 100.548C59.2094 100.597 59.2071 100.649 59.2026 100.703C59.2026 100.757 59.2004 100.813 59.1959 100.871H56.6578C56.6758 101.131 56.7656 101.336 56.9271 101.484C57.0932 101.632 57.2929 101.706 57.5263 101.706C57.7013 101.706 57.8472 101.668 57.9639 101.591C58.0851 101.511 58.1748 101.407 58.2332 101.282H59.1084C59.0455 101.493 58.9401 101.686 58.792 101.861C58.6483 102.031 58.4688 102.166 58.2534 102.265C58.0424 102.363 57.8023 102.413 57.533 102.413ZM57.5398 99.6122C57.3288 99.6122 57.1426 99.6728 56.981 99.794C56.8194 99.9107 56.7162 100.09 56.6713 100.333H58.3342C58.3207 100.113 58.2399 99.9376 58.0918 99.8074C57.9437 99.6773 57.7597 99.6122 57.5398 99.6122Z" fill="white"/>
<path d="M1.32653 11.2698V8.64846C1.32653 8.56501 1.35599 8.51837 1.41489 8.50856C1.4738 8.49383 1.51798 8.52083 1.54744 8.58955C1.72416 8.99208 1.9156 9.34798 2.12178 9.65724C2.33286 9.96651 2.56358 10.2267 2.81394 10.4378C3.0692 10.6439 3.34901 10.801 3.65336 10.909C3.95772 11.017 4.29643 11.071 4.66951 11.071C4.88059 11.071 5.08186 11.0416 5.27331 10.9827C5.46475 10.9188 5.63166 10.8207 5.77402 10.6881C5.92128 10.5556 6.03664 10.3862 6.12009 10.18C6.20846 9.97387 6.25264 9.72597 6.25264 9.43634C6.25264 9.16144 6.20109 8.92091 6.098 8.71473C5.99983 8.50365 5.86483 8.31711 5.69302 8.15511C5.52612 7.99312 5.33467 7.85322 5.11867 7.7354C4.90268 7.61268 4.68178 7.50223 4.45597 7.40405C4.20562 7.29605 3.95772 7.18315 3.71227 7.06533C3.47173 6.94752 3.24101 6.81498 3.02011 6.66771C2.79921 6.52044 2.59549 6.35109 2.40895 6.15964C2.22732 5.96819 2.07269 5.74729 1.94506 5.49693C1.83215 5.28094 1.74379 5.06004 1.67998 4.83423C1.62107 4.60842 1.59162 4.37525 1.59162 4.13471C1.59162 3.78617 1.65298 3.43519 1.7757 3.08174C1.89842 2.7283 2.09969 2.40922 2.3795 2.12451C2.65931 1.83979 3.02257 1.60907 3.46928 1.43235C3.9209 1.25072 4.47561 1.1599 5.1334 1.1599C5.55066 1.1599 5.91147 1.19427 6.21582 1.26299C6.52017 1.32681 6.77298 1.40044 6.97425 1.48389C7.18042 1.56243 7.33751 1.63852 7.4455 1.71216C7.5535 1.78088 7.61486 1.82261 7.62959 1.83733C7.68849 1.88151 7.71795 1.93306 7.71795 1.99196V3.3321C7.71795 3.36646 7.70813 3.39592 7.68849 3.42046C7.66886 3.4401 7.64677 3.45237 7.62222 3.45728C7.59768 3.45728 7.57314 3.45237 7.54859 3.44255C7.52405 3.42782 7.50441 3.40328 7.48968 3.36892C7.39641 3.14802 7.28596 2.92957 7.15833 2.71358C7.0307 2.49267 6.86871 2.29877 6.67235 2.13187C6.4809 1.96006 6.24527 1.82261 5.96546 1.71952C5.68566 1.61152 5.34939 1.55752 4.95668 1.55752C4.44615 1.55752 4.04853 1.67779 3.76381 1.91833C3.4791 2.15887 3.33674 2.48531 3.33674 2.89766C3.33674 3.13329 3.37601 3.33946 3.45455 3.51618C3.53309 3.69291 3.66563 3.85981 3.85217 4.01689C4.04362 4.16907 4.29643 4.3237 4.6106 4.48079C4.92477 4.63296 5.31994 4.80478 5.79611 4.99622C6.25754 5.18276 6.66498 5.38403 7.01843 5.60002C7.37187 5.81601 7.6664 6.05901 7.90203 6.329C8.14257 6.59408 8.32175 6.89598 8.43956 7.23469C8.56228 7.57341 8.62364 7.96121 8.62364 8.39811C8.62364 8.83009 8.5451 9.23508 8.38802 9.61306C8.23584 9.99105 8.00021 10.3224 7.68113 10.6071C7.36205 10.8869 6.95952 11.1078 6.47354 11.2698C5.98755 11.4318 5.41566 11.5128 4.75787 11.5128C4.34061 11.5128 3.92581 11.4588 3.51346 11.3508C3.10602 11.2477 2.71085 11.1324 2.32795 11.0047C2.27396 10.9851 2.21505 10.9655 2.15123 10.9458C2.08742 10.9262 2.02606 10.9164 1.96715 10.9164C1.84933 10.9164 1.76343 10.9557 1.70943 11.0342C1.65543 11.1078 1.60389 11.2011 1.5548 11.314C1.52535 11.3827 1.47871 11.4122 1.41489 11.4024C1.35599 11.3925 1.32653 11.3484 1.32653 11.2698ZM13.6548 10.239C13.7431 10.1948 13.807 10.1997 13.8462 10.2537C13.8855 10.3077 13.888 10.3641 13.8536 10.423C13.7652 10.5801 13.6523 10.7249 13.5149 10.8575C13.3823 10.9851 13.2302 11.098 13.0584 11.1962C12.8865 11.2895 12.6975 11.3606 12.4914 11.4097C12.2901 11.4637 12.0766 11.4907 11.8508 11.4907C11.6053 11.4907 11.3623 11.4588 11.1218 11.395C10.8812 11.3312 10.6653 11.2183 10.4738 11.0563C10.2824 10.8894 10.1253 10.666 10.0026 10.3862C9.88474 10.1015 9.82583 9.7407 9.82583 9.3038V5.16558C9.82583 5.12631 9.80619 5.10667 9.76692 5.10667H9.57548C9.45766 5.10667 9.38403 5.09931 9.35457 5.08458C9.33003 5.06986 9.31776 5.03795 9.31776 4.98886C9.31776 4.92504 9.34476 4.85877 9.39875 4.79005C9.45766 4.71642 9.52884 4.6796 9.61229 4.6796H9.77429C9.80865 4.6796 9.82583 4.65996 9.82583 4.62069V2.86084C9.82583 2.75285 9.87001 2.69149 9.95837 2.67676C10.0811 2.65221 10.2112 2.62031 10.3486 2.58103C10.491 2.53685 10.6333 2.48777 10.7757 2.43377C10.923 2.37486 11.0653 2.3135 11.2028 2.24968C11.3451 2.18096 11.4752 2.10978 11.593 2.03614C11.647 2.00669 11.6961 2.00178 11.7403 2.02142C11.7894 2.04105 11.8139 2.09014 11.8139 2.16869V4.62805C11.8139 4.66242 11.8336 4.6796 11.8729 4.6796H13.2572C13.375 4.6796 13.4462 4.68696 13.4707 4.70169C13.5002 4.71642 13.5149 4.74832 13.5149 4.79741C13.5149 4.86123 13.4805 4.92995 13.4118 5.00359C13.3431 5.07231 13.267 5.10667 13.1835 5.10667H11.8655C11.8311 5.10667 11.8139 5.12386 11.8139 5.15822V9.6867C11.8139 9.81924 11.836 9.93705 11.8802 10.0401C11.9293 10.1383 11.9907 10.2242 12.0643 10.2979C12.1428 10.3666 12.2312 10.4181 12.3294 10.4525C12.4325 10.4869 12.5356 10.504 12.6386 10.504C12.8497 10.504 13.0461 10.4746 13.2277 10.4157C13.4093 10.3519 13.5517 10.2929 13.6548 10.239ZM17.688 4.49551C18.1936 4.49551 18.6575 4.58633 19.0796 4.76796C19.5067 4.94468 19.8724 5.19013 20.1768 5.5043C20.4811 5.81356 20.7192 6.17927 20.891 6.60144C21.0628 7.02361 21.1488 7.47523 21.1488 7.9563C21.1488 8.44229 21.0555 8.89882 20.8689 9.32589C20.6824 9.75297 20.4271 10.1285 20.1032 10.4525C19.7792 10.7716 19.3963 11.0244 18.9545 11.2109C18.5176 11.3975 18.0463 11.4907 17.5407 11.4907C17.0351 11.4907 16.5687 11.4024 16.1417 11.2256C15.7195 11.044 15.3562 10.7986 15.0519 10.4893C14.7475 10.1751 14.5094 9.80942 14.3376 9.39216C14.1658 8.96999 14.0799 8.51592 14.0799 8.02994C14.0799 7.54886 14.1732 7.09479 14.3597 6.66771C14.5463 6.23573 14.8015 5.86019 15.1255 5.54111C15.4495 5.21713 15.8299 4.96186 16.2668 4.77532C16.7086 4.58878 17.1823 4.49551 17.688 4.49551ZM17.6143 11.1005C17.85 11.1005 18.0537 11.0195 18.2255 10.8575C18.4022 10.6955 18.547 10.4746 18.6599 10.1948C18.7777 9.91005 18.8661 9.5787 18.925 9.20071C18.9839 8.82273 19.0134 8.4202 19.0134 7.99312C19.0134 7.56604 18.9839 7.16351 18.925 6.78553C18.8661 6.40754 18.7777 6.07864 18.6599 5.79883C18.547 5.51411 18.4022 5.29076 18.2255 5.12876C18.0537 4.96677 17.85 4.88577 17.6143 4.88577C17.3787 4.88577 17.1725 4.96677 16.9958 5.12876C16.824 5.29076 16.6792 5.51411 16.5614 5.79883C16.4436 6.07864 16.3552 6.40754 16.2963 6.78553C16.2423 7.16351 16.2153 7.56604 16.2153 7.99312C16.2153 8.4202 16.2423 8.82273 16.2963 9.20071C16.3552 9.5787 16.4436 9.91005 16.5614 10.1948C16.6792 10.4746 16.824 10.6955 16.9958 10.8575C17.1725 11.0195 17.3787 11.1005 17.6143 11.1005ZM26.1534 4.49551C26.3596 4.49551 26.5339 4.52251 26.6762 4.57651C26.8186 4.6256 26.934 4.69433 27.0223 4.78269C27.1107 4.86614 27.1745 4.96677 27.2138 5.08458C27.253 5.19749 27.2727 5.31776 27.2727 5.44539C27.2727 5.68102 27.1966 5.8651 27.0444 5.99764C26.8971 6.13018 26.6983 6.19645 26.448 6.19645C26.2565 6.19645 26.1068 6.16209 25.9988 6.09337C25.8908 6.02464 25.7975 5.95101 25.719 5.87247C25.6454 5.78901 25.5766 5.71293 25.5128 5.6442C25.449 5.57548 25.3705 5.54111 25.2772 5.54111C25.1937 5.54111 25.1029 5.57057 25.0047 5.62947C24.9115 5.68347 24.8231 5.78901 24.7397 5.9461C24.6611 6.10319 24.5949 6.31918 24.5409 6.59408C24.4869 6.86898 24.4599 7.22487 24.4599 7.66177V10.2095C24.4599 10.4059 24.4918 10.5605 24.5556 10.6734C24.6243 10.7863 24.7004 10.8722 24.7838 10.9311C24.8722 10.99 24.9581 11.0317 25.0416 11.0563C25.125 11.0759 25.1864 11.0882 25.2256 11.0931C25.2649 11.1029 25.2919 11.1201 25.3066 11.1446C25.3263 11.1643 25.3336 11.1864 25.3287 11.2109C25.3238 11.2355 25.3091 11.2576 25.2846 11.2772C25.2649 11.2968 25.2355 11.3066 25.1962 11.3066H24.4599H24.3936H22.538H22.4717H21.7354C21.6961 11.3066 21.6642 11.2968 21.6397 11.2772C21.62 11.2576 21.6078 11.2355 21.6029 11.2109C21.598 11.1864 21.6029 11.1643 21.6176 11.1446C21.6372 11.1201 21.6667 11.1029 21.706 11.0931C21.7452 11.0882 21.8066 11.0759 21.89 11.0563C21.9735 11.0317 22.0569 10.99 22.1404 10.9311C22.2288 10.8722 22.3048 10.7863 22.3687 10.6734C22.4374 10.5605 22.4717 10.4059 22.4717 10.2095V6.05655C22.4717 5.99273 22.4423 5.95346 22.3834 5.93874C22.3736 5.93874 22.3367 5.93137 22.2729 5.91665C22.214 5.90192 22.1453 5.88474 22.0668 5.8651C21.9882 5.84547 21.9146 5.82829 21.8459 5.81356C21.782 5.79883 21.7428 5.78901 21.728 5.78411C21.6642 5.76938 21.6299 5.73747 21.625 5.68838C21.625 5.63438 21.6618 5.59757 21.7354 5.57793C21.9269 5.53375 22.133 5.47484 22.3539 5.40121C22.5797 5.32267 22.8056 5.23676 23.0314 5.14349C23.2572 5.04531 23.4756 4.94223 23.6867 4.83423C23.8978 4.72132 24.0868 4.60842 24.2537 4.49551C24.2979 4.46606 24.342 4.45379 24.3862 4.4587C24.4353 4.46361 24.4599 4.50042 24.4599 4.56915V5.62211C24.6317 5.24412 24.8648 4.96186 25.1594 4.77532C25.4539 4.58878 25.7853 4.49551 26.1534 4.49551ZM29.4989 7.40405C29.4204 7.40405 29.3811 7.44577 29.3811 7.52923C29.3811 8.02994 29.4253 8.45947 29.5137 8.81782C29.602 9.17617 29.7297 9.4707 29.8966 9.70142C30.0684 9.92723 30.2795 10.0941 30.5298 10.2021C30.7851 10.3101 31.0796 10.3641 31.4134 10.3641C31.6687 10.3641 31.8945 10.3371 32.0909 10.2831C32.2921 10.2291 32.4664 10.1678 32.6137 10.099C32.7609 10.0254 32.8812 9.95669 32.9745 9.89287C33.0677 9.82906 33.1365 9.78733 33.1806 9.76769C33.2494 9.73824 33.3034 9.7456 33.3426 9.78978C33.3819 9.82906 33.3819 9.89042 33.3426 9.97387C33.3279 10.0033 33.2935 10.0622 33.2395 10.1506C33.1904 10.234 33.1168 10.3322 33.0186 10.4451C32.9205 10.558 32.7977 10.6758 32.6505 10.7986C32.5032 10.9213 32.3265 11.0342 32.1203 11.1373C31.919 11.2404 31.6859 11.3238 31.4208 11.3876C31.1606 11.4564 30.8685 11.4907 30.5445 11.4907C30.0536 11.4907 29.6094 11.4146 29.2118 11.2625C28.8141 11.1054 28.473 10.8796 28.1883 10.585C27.9085 10.2905 27.69 9.93214 27.5329 9.50998C27.3807 9.08781 27.3047 8.61164 27.3047 8.08148C27.3047 7.50223 27.4004 6.98925 27.5918 6.54253C27.7833 6.09582 28.0336 5.72274 28.3429 5.4233C28.6522 5.11895 29.0031 4.88823 29.3959 4.73114C29.7886 4.57406 30.1886 4.49551 30.5961 4.49551C30.979 4.49551 31.3152 4.54951 31.6049 4.65751C31.8994 4.7606 32.1522 4.89805 32.3633 5.06986C32.5793 5.23676 32.756 5.42575 32.8935 5.63684C33.0358 5.84301 33.1487 6.04919 33.2322 6.25536C33.3205 6.46154 33.3819 6.65544 33.4163 6.83707C33.4506 7.0187 33.4678 7.16351 33.4678 7.27151C33.4678 7.3206 33.4506 7.35496 33.4163 7.3746C33.3868 7.39423 33.3451 7.40405 33.2911 7.40405H29.4989ZM29.4179 6.91807C29.4081 6.98188 29.4376 7.01379 29.5063 7.01379C29.521 7.01379 29.5701 7.01379 29.6536 7.01379C29.737 7.00888 29.8377 7.00397 29.9555 6.99906C30.0782 6.99415 30.2083 6.98925 30.3457 6.98434C30.4832 6.97943 30.6133 6.97452 30.736 6.96961C30.8636 6.9647 30.9716 6.96225 31.06 6.96225C31.1532 6.95734 31.2122 6.95243 31.2367 6.94752C31.3152 6.94261 31.3962 6.90825 31.4797 6.84443C31.5681 6.78062 31.6122 6.67017 31.6122 6.51308C31.6122 6.37072 31.5926 6.20627 31.5533 6.01973C31.5141 5.83319 31.4502 5.65647 31.3619 5.48957C31.2784 5.32267 31.1704 5.18276 31.0379 5.06986C30.9053 4.95204 30.7434 4.89314 30.5519 4.89314C30.3997 4.89314 30.2672 4.93486 30.1543 5.01831C30.0414 5.09686 29.9432 5.2024 29.8597 5.33494C29.7812 5.46257 29.7149 5.60493 29.6609 5.76202C29.6069 5.9191 29.5628 6.07373 29.5284 6.22591C29.494 6.37318 29.467 6.51063 29.4474 6.63826C29.4327 6.76098 29.4229 6.85425 29.4179 6.91807ZM44.0996 1.36608C44.2027 1.36608 44.2542 1.41271 44.2542 1.50598V3.1112C44.2542 3.18483 44.2248 3.22656 44.1659 3.23638C44.107 3.24128 44.0579 3.20938 44.0186 3.14065C43.9892 3.07684 43.9302 2.97129 43.8419 2.82403C43.7535 2.67676 43.6308 2.52704 43.4737 2.37486C43.3166 2.21778 43.1203 2.08033 42.8846 1.96251C42.649 1.8447 42.3668 1.78579 42.0379 1.78579C41.8071 1.78579 41.5961 1.80543 41.4046 1.8447C41.2132 1.88397 41.0487 1.94778 40.9113 2.03614C40.7787 2.1196 40.6732 2.23005 40.5946 2.3675C40.521 2.50004 40.4842 2.66203 40.4842 2.85348V6.07128V5.96083C40.4842 5.99028 40.494 6.01728 40.5136 6.04182C40.5382 6.06146 40.5652 6.07128 40.5946 6.07128H41.5371C41.758 6.07128 41.9372 6.0271 42.0747 5.93874C42.217 5.85038 42.3275 5.74729 42.406 5.62947C42.4895 5.51166 42.5484 5.3963 42.5827 5.2834C42.6171 5.16558 42.6392 5.07722 42.649 5.01831C42.6539 4.97904 42.6687 4.95204 42.6932 4.93732C42.7227 4.91768 42.7496 4.91032 42.7742 4.91523C42.8036 4.91523 42.8282 4.9275 42.8478 4.95204C42.8724 4.97168 42.8846 5.00113 42.8846 5.0404V7.54395C42.8846 7.58322 42.8724 7.61513 42.8478 7.63968C42.8282 7.65931 42.8036 7.67159 42.7742 7.67649C42.7496 7.67649 42.7227 7.66913 42.6932 7.6544C42.6687 7.63477 42.6539 7.60531 42.649 7.56604C42.6392 7.50714 42.6171 7.42123 42.5827 7.30832C42.5484 7.19051 42.4895 7.0727 42.406 6.95488C42.3275 6.83707 42.217 6.73398 42.0747 6.64562C41.9372 6.55726 41.758 6.51308 41.5371 6.51308H40.5946C40.5652 6.51308 40.5382 6.52535 40.5136 6.5499C40.494 6.56953 40.4842 6.59408 40.4842 6.62353V6.51308V9.93705C40.4842 10.1678 40.5333 10.3543 40.6315 10.4967C40.7296 10.639 40.8425 10.7519 40.9702 10.8354C41.1027 10.9188 41.2328 10.9777 41.3604 11.0121C41.4881 11.0416 41.5813 11.0612 41.6402 11.071C41.6844 11.0808 41.7163 11.098 41.736 11.1226C41.7605 11.1471 41.7703 11.1741 41.7654 11.2036C41.7654 11.2281 41.7531 11.2526 41.7286 11.2772C41.704 11.2968 41.6672 11.3066 41.6181 11.3066H36.9203C36.8712 11.3066 36.8344 11.2968 36.8099 11.2772C36.7853 11.2526 36.7706 11.2281 36.7657 11.2036C36.7657 11.1741 36.7755 11.1471 36.7951 11.1226C36.8197 11.098 36.854 11.0808 36.8982 11.071C36.9571 11.0612 37.0504 11.0416 37.178 11.0121C37.3057 10.9777 37.4333 10.9188 37.5609 10.8354C37.6935 10.7519 37.8088 10.639 37.907 10.4967C38.0052 10.3543 38.0543 10.1678 38.0543 9.93705V2.73567C38.0543 2.50986 38.0052 2.32577 37.907 2.18341C37.8088 2.03614 37.6935 1.92324 37.5609 1.8447C37.4333 1.76125 37.3057 1.70234 37.178 1.66798C37.0504 1.63361 36.9571 1.61152 36.8982 1.60171C36.854 1.5968 36.8197 1.58207 36.7951 1.55752C36.7755 1.52807 36.7657 1.50107 36.7657 1.47653C36.7706 1.44707 36.7853 1.42253 36.8099 1.40289C36.8344 1.37835 36.8712 1.36608 36.9203 1.36608H44.0996ZM47.5216 4.56915C47.5216 4.50042 47.4971 4.46361 47.448 4.4587C47.4038 4.45379 47.3596 4.46606 47.3154 4.49551C47.1485 4.60842 46.9595 4.72132 46.7485 4.83423C46.5374 4.94223 46.3189 5.04531 46.0931 5.14349C45.8673 5.23676 45.6415 5.32267 45.4157 5.40121C45.1948 5.47484 44.9886 5.53375 44.7972 5.57793C44.7235 5.59757 44.6867 5.63438 44.6867 5.68838C44.6916 5.73747 44.726 5.76938 44.7898 5.78411C44.8045 5.78901 44.8438 5.79883 44.9076 5.81356C44.9763 5.82829 45.05 5.84547 45.1285 5.8651C45.2071 5.88474 45.2758 5.90192 45.3347 5.91665C45.3985 5.93137 45.4353 5.93874 45.4451 5.93874C45.5041 5.95346 45.5335 5.99273 45.5335 6.05655V10.1506C45.5335 10.3469 45.4942 10.5065 45.4157 10.6292C45.3371 10.747 45.2463 10.8403 45.1432 10.909C45.0451 10.9728 44.9469 11.0195 44.8487 11.0489C44.7554 11.0735 44.6892 11.0882 44.6499 11.0931C44.6106 11.1029 44.5812 11.1201 44.5615 11.1446C44.5468 11.1643 44.5419 11.1864 44.5468 11.2109C44.5517 11.2355 44.564 11.2576 44.5836 11.2772C44.6082 11.2968 44.6401 11.3066 44.6794 11.3066H48.3758C48.415 11.3066 48.4445 11.2968 48.4641 11.2772C48.4887 11.2576 48.5034 11.2355 48.5083 11.2109C48.5132 11.1864 48.5059 11.1643 48.4862 11.1446C48.4715 11.1201 48.4445 11.1029 48.4052 11.0931C48.366 11.0882 48.2972 11.0735 48.199 11.0489C48.1058 11.0195 48.0076 10.9728 47.9045 10.909C47.8063 10.8403 47.718 10.747 47.6394 10.6292C47.5609 10.5065 47.5216 10.3469 47.5216 10.1506V4.56915ZM47.6689 2.31595C47.6689 2.47795 47.637 2.63258 47.5732 2.77985C47.5093 2.9222 47.421 3.04738 47.3081 3.15538C47.1952 3.25847 47.0626 3.34192 46.9105 3.40573C46.7632 3.46955 46.6012 3.50146 46.4245 3.50146C46.2527 3.50146 46.0931 3.472 45.9459 3.4131C45.8035 3.34928 45.6783 3.26583 45.5703 3.16274C45.4672 3.05965 45.3862 2.93693 45.3273 2.79457C45.2684 2.65221 45.239 2.50004 45.239 2.33804C45.239 2.17605 45.2709 2.02387 45.3347 1.88151C45.3985 1.73425 45.4844 1.60661 45.5924 1.49862C45.7053 1.39062 45.8379 1.30472 45.99 1.2409C46.1422 1.17708 46.3042 1.14518 46.476 1.14518C46.6527 1.14518 46.8123 1.17708 46.9546 1.2409C47.1019 1.29981 47.2271 1.38326 47.3302 1.49125C47.4382 1.59434 47.5216 1.71707 47.5805 1.85942C47.6394 2.00178 47.6689 2.15396 47.6689 2.31595ZM51.706 10.1138C51.706 10.315 51.7477 10.477 51.8312 10.5998C51.9195 10.7225 52.0177 10.8207 52.1257 10.8943C52.2386 10.963 52.3466 11.0121 52.4497 11.0416C52.5577 11.071 52.6313 11.0882 52.6706 11.0931C52.7098 11.1029 52.7368 11.1201 52.7516 11.1446C52.7712 11.1643 52.7786 11.1864 52.7737 11.2109C52.7688 11.2355 52.754 11.2576 52.7295 11.2772C52.7098 11.2968 52.6804 11.3066 52.6411 11.3066H48.7827C48.7434 11.3066 48.7115 11.2968 48.687 11.2772C48.6674 11.2576 48.6551 11.2355 48.6502 11.2109C48.6453 11.1864 48.6502 11.1643 48.6649 11.1446C48.6845 11.1201 48.714 11.1029 48.7533 11.0931C48.7925 11.0882 48.8637 11.071 48.9668 11.0416C49.0748 11.0121 49.1828 10.963 49.2908 10.8943C49.4037 10.8207 49.5019 10.7225 49.5853 10.5998C49.6737 10.477 49.7179 10.315 49.7179 10.1138V1.85942C49.7179 1.79561 49.6884 1.75634 49.6295 1.74161C49.6197 1.74161 49.5829 1.73425 49.519 1.71952C49.4601 1.70479 49.3914 1.68761 49.3129 1.66798C49.2343 1.64834 49.1607 1.63116 49.092 1.61643C49.0282 1.60171 48.9889 1.59189 48.9742 1.58698C48.9103 1.57225 48.876 1.54034 48.8711 1.49125C48.8711 1.43726 48.9079 1.40044 48.9815 1.3808C49.173 1.33662 49.3791 1.27772 49.6 1.20408C49.8259 1.12554 50.0517 1.03963 50.2775 0.946365C50.5033 0.848186 50.7217 0.745099 50.9328 0.637102C51.1439 0.524197 51.3329 0.411292 51.4998 0.298387C51.544 0.268934 51.5882 0.256661 51.6323 0.26157C51.6814 0.266479 51.706 0.303296 51.706 0.372021V10.1138ZM55.2708 7.40405C55.1922 7.40405 55.153 7.44577 55.153 7.52923C55.153 8.02994 55.1971 8.45947 55.2855 8.81782C55.3739 9.17617 55.5015 9.4707 55.6684 9.70142C55.8402 9.92723 56.0513 10.0941 56.3016 10.2021C56.5569 10.3101 56.8514 10.3641 57.1852 10.3641C57.4405 10.3641 57.6663 10.3371 57.8627 10.2831C58.0639 10.2291 58.2382 10.1678 58.3855 10.099C58.5327 10.0254 58.653 9.95669 58.7463 9.89287C58.8396 9.82906 58.9083 9.78733 58.9525 9.76769C59.0212 9.73824 59.0752 9.7456 59.1145 9.78978C59.1537 9.82906 59.1537 9.89042 59.1145 9.97387C59.0997 10.0033 59.0654 10.0622 59.0114 10.1506C58.9623 10.234 58.8886 10.3322 58.7905 10.4451C58.6923 10.558 58.5696 10.6758 58.4223 10.7986C58.275 10.9213 58.0983 11.0342 57.8921 11.1373C57.6909 11.2404 57.4577 11.3238 57.1926 11.3876C56.9324 11.4564 56.6404 11.4907 56.3164 11.4907C55.8255 11.4907 55.3812 11.4146 54.9836 11.2625C54.586 11.1054 54.2448 10.8796 53.9601 10.585C53.6803 10.2905 53.4618 9.93214 53.3047 9.50998C53.1526 9.08781 53.0765 8.61164 53.0765 8.08148C53.0765 7.50223 53.1722 6.98925 53.3637 6.54253C53.5551 6.09582 53.8055 5.72274 54.1147 5.4233C54.424 5.11895 54.775 4.88823 55.1677 4.73114C55.5604 4.57406 55.9605 4.49551 56.3679 4.49551C56.7508 4.49551 57.0871 4.54951 57.3767 4.65751C57.6712 4.7606 57.924 4.89805 58.1351 5.06986C58.3511 5.23676 58.5278 5.42575 58.6653 5.63684C58.8076 5.84301 58.9206 6.04919 59.004 6.25536C59.0924 6.46154 59.1537 6.65544 59.1881 6.83707C59.2225 7.0187 59.2396 7.16351 59.2396 7.27151C59.2396 7.3206 59.2225 7.35496 59.1881 7.3746C59.1586 7.39423 59.1169 7.40405 59.0629 7.40405H55.2708ZM55.1898 6.91807C55.18 6.98188 55.2094 7.01379 55.2781 7.01379C55.2929 7.01379 55.3419 7.01379 55.4254 7.01379C55.5089 7.00888 55.6095 7.00397 55.7273 6.99906C55.85 6.99415 55.9801 6.98925 56.1176 6.98434C56.255 6.97943 56.3851 6.97452 56.5078 6.96961C56.6355 6.9647 56.7434 6.96225 56.8318 6.96225C56.9251 6.95734 56.984 6.95243 57.0085 6.94752C57.0871 6.94261 57.1681 6.90825 57.2515 6.84443C57.3399 6.78062 57.3841 6.67017 57.3841 6.51308C57.3841 6.37072 57.3644 6.20627 57.3252 6.01973C57.2859 5.83319 57.2221 5.65647 57.1337 5.48957C57.0503 5.32267 56.9423 5.18276 56.8097 5.06986C56.6772 4.95204 56.5152 4.89314 56.3237 4.89314C56.1716 4.89314 56.039 4.93486 55.9261 5.01831C55.8132 5.09686 55.715 5.2024 55.6316 5.33494C55.553 5.46257 55.4868 5.60493 55.4328 5.76202C55.3788 5.9191 55.3346 6.07373 55.3002 6.22591C55.2659 6.37318 55.2389 6.51063 55.2192 6.63826C55.2045 6.76098 55.1947 6.85425 55.1898 6.91807ZM60.0956 10.7986C60.0956 10.7887 60.0834 10.72 60.0588 10.5924C60.0392 10.4599 60.0171 10.315 59.9925 10.158C59.968 10.0009 59.9435 9.8536 59.9189 9.71615C59.8993 9.57379 59.887 9.48543 59.8821 9.45107C59.8723 9.38234 59.8919 9.34307 59.941 9.33325C59.9901 9.31853 60.0269 9.3308 60.0514 9.37007C60.0564 9.3848 60.0883 9.43634 60.1472 9.5247C60.2061 9.61306 60.2871 9.72106 60.3902 9.84869C60.4932 9.97632 60.616 10.1138 60.7583 10.261C60.9056 10.4083 61.0676 10.5458 61.2443 10.6734C61.4259 10.7961 61.6223 10.8992 61.8334 10.9827C62.0445 11.0612 62.2703 11.1005 62.5108 11.1005C62.7906 11.1005 63.0091 11.0244 63.1662 10.8722C63.3282 10.72 63.4091 10.5188 63.4091 10.2684C63.4091 10.1359 63.392 10.0058 63.3576 9.87814C63.3232 9.75051 63.2496 9.62288 63.1367 9.49525C63.0238 9.36762 62.8618 9.24244 62.6507 9.11972C62.4396 8.99208 62.1574 8.86445 61.8039 8.73682C61.4799 8.62392 61.2075 8.48892 60.9866 8.33184C60.7657 8.17475 60.5865 8.00048 60.4491 7.80903C60.3116 7.61268 60.211 7.40405 60.1472 7.18315C60.0883 6.95734 60.0588 6.71925 60.0588 6.4689C60.0588 6.27745 60.0932 6.06882 60.1619 5.84301C60.2306 5.61229 60.3533 5.39876 60.5301 5.2024C60.7117 5.00113 60.9571 4.83423 61.2664 4.70169C61.5757 4.56424 61.9708 4.49551 62.4519 4.49551C62.7563 4.49551 63.0385 4.52006 63.2987 4.56915C63.5589 4.61824 63.7847 4.67469 63.9761 4.73851C64.1725 4.79741 64.3271 4.85387 64.44 4.90786C64.5578 4.96186 64.6241 4.99131 64.6388 4.99622C64.6683 5.01095 64.6855 5.02322 64.6904 5.03304C64.6953 5.04286 64.7002 5.06004 64.7051 5.08458C64.7051 5.0944 64.7174 5.16313 64.7419 5.29076C64.7665 5.41348 64.791 5.54848 64.8156 5.69574C64.8401 5.84301 64.8646 5.97801 64.8892 6.10073C64.9137 6.22345 64.926 6.29218 64.926 6.30691C64.9358 6.35599 64.9186 6.39281 64.8745 6.41736C64.8303 6.43699 64.791 6.42227 64.7566 6.37318C64.6879 6.275 64.5799 6.14246 64.4327 5.97555C64.2854 5.80865 64.1062 5.6442 63.8951 5.48221C63.684 5.32021 63.4484 5.18031 63.1882 5.06249C62.933 4.93977 62.6605 4.87841 62.3709 4.87841C62.0666 4.87841 61.8432 4.95941 61.7008 5.1214C61.5585 5.2834 61.4873 5.47975 61.4873 5.71047C61.4873 5.82829 61.5045 5.94365 61.5388 6.05655C61.5732 6.16455 61.6468 6.27009 61.7598 6.37318C61.8727 6.47626 62.0347 6.5818 62.2457 6.6898C62.4617 6.79289 62.7489 6.89843 63.1072 7.00643C63.824 7.22733 64.3664 7.52677 64.7346 7.90476C65.1027 8.28275 65.2868 8.77118 65.2868 9.37007C65.2868 9.67442 65.2353 9.95669 65.1322 10.2169C65.0291 10.4721 64.8696 10.6955 64.6536 10.8869C64.4376 11.0735 64.1627 11.2207 63.8289 11.3287C63.4951 11.4367 63.0974 11.4907 62.636 11.4907C62.2482 11.4907 61.9021 11.4613 61.5978 11.4024C61.2983 11.3484 61.043 11.287 60.832 11.2183C60.6258 11.1496 60.4638 11.0857 60.346 11.0268C60.2282 10.963 60.1594 10.9237 60.1398 10.909C60.13 10.8992 60.1202 10.8845 60.1104 10.8648C60.1054 10.8452 60.1005 10.8231 60.0956 10.7986Z" fill="black"/>
<path d="M20.5945 28.9854V23.0946H21.3014V25.7623L23.7586 23.0946H24.6506L22.4627 25.4425L24.6843 28.9854H23.8259L21.9577 25.9895L21.3014 26.688V28.9854H20.5945ZM27.0476 29.0863C26.6492 29.0863 26.2958 28.9966 25.9872 28.817C25.6787 28.6319 25.4346 28.3766 25.2551 28.0513C25.0812 27.7259 24.9942 27.3416 24.9942 26.8984C24.9942 26.4608 25.0812 26.0793 25.2551 25.7539C25.429 25.4229 25.6703 25.1676 25.9788 24.9881C26.293 24.803 26.6548 24.7104 27.0644 24.7104C27.4683 24.7104 27.8162 24.803 28.1079 24.9881C28.4052 25.1676 28.6324 25.406 28.7895 25.7034C28.9466 26.0007 29.0251 26.3205 29.0251 26.6627C29.0251 26.7244 29.0223 26.7862 29.0167 26.8479C29.0167 26.9096 29.0167 26.9797 29.0167 27.0582H25.6927C25.7095 27.378 25.7825 27.6445 25.9115 27.8577C26.0461 28.0653 26.2116 28.2224 26.408 28.329C26.61 28.4356 26.8231 28.4888 27.0476 28.4888C27.3393 28.4888 27.5833 28.4215 27.7797 28.2869C27.976 28.1522 28.1191 27.9699 28.2089 27.7399H28.9073C28.7951 28.127 28.5791 28.4496 28.2594 28.7076C27.9452 28.9601 27.5413 29.0863 27.0476 29.0863ZM27.0476 25.3079C26.7109 25.3079 26.4108 25.4117 26.1471 25.6192C25.889 25.8212 25.7404 26.1185 25.7011 26.5113H28.3267C28.3098 26.1354 28.1808 25.8408 27.9396 25.6277C27.6983 25.4145 27.401 25.3079 27.0476 25.3079ZM31.8387 29.0863C31.4404 29.0863 31.0869 28.9966 30.7784 28.817C30.4698 28.6319 30.2258 28.3766 30.0462 28.0513C29.8723 27.7259 29.7854 27.3416 29.7854 26.8984C29.7854 26.4608 29.8723 26.0793 30.0462 25.7539C30.2201 25.4229 30.4614 25.1676 30.7699 24.9881C31.0841 24.803 31.446 24.7104 31.8555 24.7104C32.2594 24.7104 32.6073 24.803 32.899 24.9881C33.1963 25.1676 33.4236 25.406 33.5806 25.7034C33.7377 26.0007 33.8163 26.3205 33.8163 26.6627C33.8163 26.7244 33.8135 26.7862 33.8079 26.8479C33.8079 26.9096 33.8079 26.9797 33.8079 27.0582H30.4838C30.5007 27.378 30.5736 27.6445 30.7026 27.8577C30.8373 28.0653 31.0028 28.2224 31.1991 28.329C31.4011 28.4356 31.6143 28.4888 31.8387 28.4888C32.1304 28.4888 32.3745 28.4215 32.5708 28.2869C32.7672 28.1522 32.9102 27.9699 33 27.7399H33.6985C33.5863 28.127 33.3703 28.4496 33.0505 28.7076C32.7363 28.9601 32.3324 29.0863 31.8387 29.0863ZM31.8387 25.3079C31.5021 25.3079 31.2019 25.4117 30.9382 25.6192C30.6802 25.8212 30.5315 26.1185 30.4922 26.5113H33.1178C33.101 26.1354 32.9719 25.8408 32.7307 25.6277C32.4895 25.4145 32.1921 25.3079 31.8387 25.3079ZM34.7532 30.8367V24.8114H35.3928L35.4601 25.5014C35.5947 25.2995 35.7855 25.1171 36.0323 24.9544C36.2848 24.7917 36.6046 24.7104 36.9917 24.7104C37.4068 24.7104 37.7687 24.8058 38.0772 24.9965C38.3858 25.1873 38.6242 25.4481 38.7925 25.7791C38.9665 26.1101 39.0534 26.486 39.0534 26.9068C39.0534 27.3275 38.9665 27.7034 38.7925 28.0344C38.6242 28.3598 38.383 28.6179 38.0688 28.8086C37.7603 28.9938 37.3984 29.0863 36.9833 29.0863C36.641 29.0863 36.3353 29.0162 36.066 28.876C35.8023 28.7357 35.6003 28.5393 35.4601 28.2869V30.8367H34.7532ZM36.9075 28.472C37.188 28.472 37.4349 28.4075 37.6481 28.2785C37.8612 28.1438 38.0296 27.9587 38.153 27.7231C38.2764 27.4874 38.3381 27.2125 38.3381 26.8984C38.3381 26.5842 38.2764 26.3093 38.153 26.0737C38.0296 25.838 37.8612 25.6557 37.6481 25.5267C37.4349 25.392 37.188 25.3247 36.9075 25.3247C36.627 25.3247 36.3802 25.392 36.167 25.5267C35.9538 25.6557 35.7855 25.838 35.6621 26.0737C35.5386 26.3093 35.4769 26.5842 35.4769 26.8984C35.4769 27.2125 35.5386 27.4874 35.6621 27.7231C35.7855 27.9587 35.9538 28.1438 36.167 28.2785C36.3802 28.4075 36.627 28.472 36.9075 28.472ZM42.7189 30.8367L43.754 28.5814H43.51L41.8522 24.8114H42.6179L43.9981 28.0597L45.4623 24.8114H46.1944L43.4595 30.8367H42.7189ZM48.448 29.0863C48.0553 29.0863 47.7018 28.9966 47.3876 28.817C47.0735 28.6375 46.8238 28.3851 46.6387 28.0597C46.4592 27.7287 46.3694 27.3416 46.3694 26.8984C46.3694 26.4552 46.462 26.0709 46.6471 25.7455C46.8322 25.4145 47.0819 25.1592 47.3961 24.9797C47.7158 24.8001 48.0721 24.7104 48.4648 24.7104C48.8575 24.7104 49.211 24.8001 49.5251 24.9797C49.8393 25.1592 50.0861 25.4145 50.2657 25.7455C50.4508 26.0709 50.5434 26.4552 50.5434 26.8984C50.5434 27.3416 50.4508 27.7287 50.2657 28.0597C50.0805 28.3851 49.8281 28.6375 49.5083 28.817C49.1941 28.9966 48.8407 29.0863 48.448 29.0863ZM48.448 28.4804C48.6892 28.4804 48.9136 28.4215 49.1212 28.3037C49.3288 28.1859 49.4971 28.0092 49.6261 27.7735C49.7551 27.5379 49.8197 27.2462 49.8197 26.8984C49.8197 26.5505 49.7551 26.2588 49.6261 26.0232C49.5027 25.7875 49.3372 25.6108 49.1296 25.493C48.922 25.3752 48.7004 25.3163 48.4648 25.3163C48.2236 25.3163 47.9992 25.3752 47.7916 25.493C47.584 25.6108 47.4157 25.7875 47.2867 26.0232C47.1576 26.2588 47.0931 26.5505 47.0931 26.8984C47.0931 27.2462 47.1576 27.5379 47.2867 27.7735C47.4157 28.0092 47.5812 28.1859 47.7832 28.3037C47.9907 28.4215 48.2123 28.4804 48.448 28.4804ZM55.1785 24.8114V28.9854H54.5389L54.4969 28.2364C54.3622 28.5001 54.1687 28.7076 53.9162 28.8591C53.6637 29.0106 53.3776 29.0863 53.0578 29.0863C52.5641 29.0863 52.1686 28.9377 51.8713 28.6403C51.5796 28.3374 51.4337 27.8745 51.4337 27.2518V24.8114H52.1406V27.1761C52.1406 28.0456 52.4996 28.4804 53.2177 28.4804C53.5768 28.4804 53.8741 28.3514 54.1098 28.0933C54.351 27.8297 54.4716 27.4566 54.4716 26.9741V24.8114H55.1785ZM56.342 28.9854V24.8114H56.9816L57.0405 25.6108C57.1695 25.3359 57.3659 25.1171 57.6296 24.9544C57.8933 24.7917 58.2186 24.7104 58.6058 24.7104V25.4509H58.4122C58.1654 25.4509 57.9381 25.4958 57.7306 25.5856C57.523 25.6697 57.3575 25.8156 57.2341 26.0232C57.1106 26.2307 57.0489 26.5169 57.0489 26.8815V28.9854H56.342ZM61.8535 28.9854V25.4089H61.2223V24.8114H61.8535V24.0877C61.8535 23.6837 61.9544 23.3892 62.1564 23.204C62.3584 23.0189 62.6529 22.9263 63.04 22.9263H63.4608V23.5322H63.1494C62.9362 23.5322 62.7848 23.5771 62.695 23.6669C62.6052 23.751 62.5603 23.8969 62.5603 24.1045V24.8114H65.1523V28.9854H64.4454V25.4089H62.5603V28.9854H61.8535ZM64.8072 24.0119C64.6726 24.0119 64.5576 23.967 64.4622 23.8773C64.3668 23.7819 64.3191 23.6641 64.3191 23.5238C64.3191 23.3892 64.3668 23.277 64.4622 23.1872C64.5576 23.0975 64.6726 23.0526 64.8072 23.0526C64.9475 23.0526 65.0625 23.0975 65.1523 23.1872C65.2476 23.277 65.2953 23.3892 65.2953 23.5238C65.2953 23.6641 65.2476 23.7819 65.1523 23.8773C65.0625 23.967 64.9475 24.0119 64.8072 24.0119ZM66.4009 28.9854V22.9263H67.1078V28.9854H66.4009ZM70.143 29.0863C69.7447 29.0863 69.3913 28.9966 69.0827 28.817C68.7742 28.6319 68.5301 28.3766 68.3506 28.0513C68.1767 27.7259 68.0897 27.3416 68.0897 26.8984C68.0897 26.4608 68.1767 26.0793 68.3506 25.7539C68.5245 25.4229 68.7657 25.1676 69.0743 24.9881C69.3885 24.803 69.7503 24.7104 70.1599 24.7104C70.5638 24.7104 70.9116 24.803 71.2034 24.9881C71.5007 25.1676 71.7279 25.406 71.885 25.7034C72.0421 26.0007 72.1206 26.3205 72.1206 26.6627C72.1206 26.7244 72.1178 26.7862 72.1122 26.8479C72.1122 26.9096 72.1122 26.9797 72.1122 27.0582H68.7882C68.805 27.378 68.8779 27.6445 69.007 27.8577C69.1416 28.0653 69.3071 28.2224 69.5035 28.329C69.7055 28.4356 69.9186 28.4888 70.143 28.4888C70.4348 28.4888 70.6788 28.4215 70.8752 28.2869C71.0715 28.1522 71.2146 27.9699 71.3044 27.7399H72.0028C71.8906 28.127 71.6746 28.4496 71.3549 28.7076C71.0407 28.9601 70.6367 29.0863 70.143 29.0863ZM70.143 25.3079C69.8064 25.3079 69.5063 25.4117 69.2426 25.6192C68.9845 25.8212 68.8359 26.1185 68.7966 26.5113H71.4222C71.4053 26.1354 71.2763 25.8408 71.0351 25.6277C70.7938 25.4145 70.4965 25.3079 70.143 25.3079ZM74.6565 29.0863C74.1572 29.0863 73.742 28.9601 73.411 28.7076C73.08 28.4552 72.8865 28.113 72.8304 27.681H73.5541C73.5989 27.8998 73.714 28.0905 73.8991 28.2532C74.0898 28.4103 74.3451 28.4888 74.6649 28.4888C74.9622 28.4888 75.181 28.4271 75.3213 28.3037C75.4615 28.1747 75.5317 28.0232 75.5317 27.8493C75.5317 27.5968 75.4391 27.4285 75.254 27.3444C75.0744 27.2602 74.8192 27.1845 74.4882 27.1172C74.2638 27.0723 74.0393 27.0078 73.8149 26.9236C73.5905 26.8395 73.4026 26.7216 73.2511 26.5702C73.0996 26.4131 73.0239 26.2083 73.0239 25.9558C73.0239 25.5912 73.1585 25.2938 73.4278 25.0638C73.7027 24.8282 74.073 24.7104 74.5387 24.7104C74.9819 24.7104 75.3437 24.8226 75.6242 25.047C75.9103 25.2658 76.0758 25.58 76.1207 25.9895H75.4223C75.3942 25.7763 75.3016 25.6108 75.1446 25.493C74.9931 25.3696 74.7883 25.3079 74.5302 25.3079C74.2778 25.3079 74.0814 25.3612 73.9412 25.4678C73.8065 25.5744 73.7392 25.7146 73.7392 25.8885C73.7392 26.0568 73.8262 26.1887 74.0001 26.284C74.1796 26.3794 74.4208 26.4608 74.7238 26.5281C74.9819 26.5842 75.2259 26.6543 75.4559 26.7385C75.6916 26.817 75.8823 26.9376 76.0282 27.1003C76.1796 27.2574 76.2554 27.4874 76.2554 27.7904C76.261 28.1663 76.1179 28.4776 75.8262 28.7245C75.5401 28.9657 75.1502 29.0863 74.6565 29.0863ZM81.0912 29.0863C80.5919 29.0863 80.1767 28.9601 79.8457 28.7076C79.5147 28.4552 79.3212 28.113 79.2651 27.681H79.9888C80.0337 27.8998 80.1487 28.0905 80.3338 28.2532C80.5246 28.4103 80.7798 28.4888 81.0996 28.4888C81.397 28.4888 81.6158 28.4271 81.756 28.3037C81.8963 28.1747 81.9664 28.0232 81.9664 27.8493C81.9664 27.5968 81.8738 27.4285 81.6887 27.3444C81.5092 27.2602 81.2539 27.1845 80.9229 27.1172C80.6985 27.0723 80.4741 27.0078 80.2497 26.9236C80.0253 26.8395 79.8373 26.7216 79.6859 26.5702C79.5344 26.4131 79.4586 26.2083 79.4586 25.9558C79.4586 25.5912 79.5933 25.2938 79.8626 25.0638C80.1375 24.8282 80.5077 24.7104 80.9734 24.7104C81.4166 24.7104 81.7785 24.8226 82.059 25.047C82.3451 25.2658 82.5106 25.58 82.5555 25.9895H81.857C81.8289 25.7763 81.7364 25.6108 81.5793 25.493C81.4278 25.3696 81.223 25.3079 80.965 25.3079C80.7125 25.3079 80.5162 25.3612 80.3759 25.4678C80.2413 25.5744 80.1739 25.7146 80.1739 25.8885C80.1739 26.0568 80.2609 26.1887 80.4348 26.284C80.6143 26.3794 80.8556 26.4608 81.1585 26.5281C81.4166 26.5842 81.6606 26.6543 81.8907 26.7385C82.1263 26.817 82.317 26.9376 82.4629 27.1003C82.6144 27.2574 82.6901 27.4874 82.6901 27.7904C82.6957 28.1663 82.5527 28.4776 82.2609 28.7245C81.9748 28.9657 81.5849 29.0863 81.0912 29.0863ZM85.0885 29.0863C84.7406 29.0863 84.4517 29.0274 84.2217 28.9096C83.9917 28.7918 83.8206 28.6347 83.7084 28.4384C83.5962 28.242 83.5401 28.0288 83.5401 27.7988C83.5401 27.3724 83.7028 27.0442 84.0281 26.8142C84.3535 26.5842 84.7967 26.4692 85.3578 26.4692H86.4854V26.4187C86.4854 26.054 86.39 25.7791 86.1993 25.594C86.0085 25.4032 85.7533 25.3079 85.4335 25.3079C85.1586 25.3079 84.9202 25.378 84.7182 25.5183C84.5218 25.6529 84.3984 25.8521 84.3479 26.1157H83.6242C83.6523 25.8128 83.7532 25.5575 83.9272 25.3499C84.1067 25.1424 84.3283 24.9853 84.592 24.8787C84.8556 24.7665 85.1362 24.7104 85.4335 24.7104C86.017 24.7104 86.4546 24.8675 86.7463 25.1816C87.0436 25.4902 87.1923 25.9025 87.1923 26.4187V28.9854H86.5611L86.5191 28.2364C86.4013 28.472 86.2273 28.674 85.9973 28.8423C85.7729 29.005 85.47 29.0863 85.0885 29.0863ZM85.1979 28.4888C85.4672 28.4888 85.6972 28.4187 85.8879 28.2785C86.0843 28.1382 86.233 27.9559 86.3339 27.7315C86.4349 27.5071 86.4854 27.2714 86.4854 27.0246V27.0162H85.4167C85.0015 27.0162 84.707 27.0891 84.5331 27.235C84.3648 27.3752 84.2806 27.5519 84.2806 27.7651C84.2806 27.9839 84.3591 28.1607 84.5162 28.2953C84.6789 28.4243 84.9061 28.4888 85.1979 28.4888ZM88.48 28.9854V25.4089H87.8488V24.8114H88.48V24.0877C88.48 23.6837 88.5809 23.3892 88.7829 23.204C88.9849 23.0189 89.2794 22.9263 89.6665 22.9263H90.0873V23.5322H89.7759C89.5627 23.5322 89.4113 23.5771 89.3215 23.6669C89.2317 23.751 89.1868 23.8969 89.1868 24.1045V24.8114H90.2135V25.4089H89.1868V28.9854H88.48ZM92.7674 29.0863C92.369 29.0863 92.0156 28.9966 91.707 28.817C91.3985 28.6319 91.1544 28.3766 90.9749 28.0513C90.801 27.7259 90.714 27.3416 90.714 26.8984C90.714 26.4608 90.801 26.0793 90.9749 25.7539C91.1488 25.4229 91.3901 25.1676 91.6986 24.9881C92.0128 24.803 92.3746 24.7104 92.7842 24.7104C93.1881 24.7104 93.536 24.803 93.8277 24.9881C94.125 25.1676 94.3522 25.406 94.5093 25.7034C94.6664 26.0007 94.745 26.3205 94.745 26.6627C94.745 26.7244 94.7422 26.7862 94.7365 26.8479C94.7365 26.9096 94.7365 26.9797 94.7365 27.0582H91.4125C91.4293 27.378 91.5023 27.6445 91.6313 27.8577C91.7659 28.0653 91.9314 28.2224 92.1278 28.329C92.3298 28.4356 92.543 28.4888 92.7674 28.4888C93.0591 28.4888 93.3031 28.4215 93.4995 28.2869C93.6958 28.1522 93.8389 27.9699 93.9287 27.7399H94.6271C94.5149 28.127 94.2989 28.4496 93.9792 28.7076C93.665 28.9601 93.2611 29.0863 92.7674 29.0863ZM92.7674 25.3079C92.4308 25.3079 92.1306 25.4117 91.8669 25.6192C91.6089 25.8212 91.4602 26.1185 91.4209 26.5113H94.0465C94.0297 26.1354 93.9006 25.8408 93.6594 25.6277C93.4181 25.4145 93.1208 25.3079 92.7674 25.3079ZM95.1181 29.9868L95.6061 28.127H96.3383L95.6061 29.9868H95.1181ZM101.004 29.0863C100.504 29.0863 100.089 28.9601 99.7581 28.7076C99.4271 28.4552 99.2335 28.113 99.1774 27.681H99.9012C99.946 27.8998 100.061 28.0905 100.246 28.2532C100.437 28.4103 100.692 28.4888 101.012 28.4888C101.309 28.4888 101.528 28.4271 101.668 28.3037C101.809 28.1747 101.879 28.0232 101.879 27.8493C101.879 27.5968 101.786 27.4285 101.601 27.3444C101.422 27.2602 101.166 27.1845 100.835 27.1172C100.611 27.0723 100.386 27.0078 100.162 26.9236C99.9376 26.8395 99.7497 26.7216 99.5982 26.5702C99.4467 26.4131 99.371 26.2083 99.371 25.9558C99.371 25.5912 99.5056 25.2938 99.7749 25.0638C100.05 24.8282 100.42 24.7104 100.886 24.7104C101.329 24.7104 101.691 24.8226 101.971 25.047C102.257 25.2658 102.423 25.58 102.468 25.9895H101.769C101.741 25.7763 101.649 25.6108 101.492 25.493C101.34 25.3696 101.135 25.3079 100.877 25.3079C100.625 25.3079 100.429 25.3612 100.288 25.4678C100.154 25.5744 100.086 25.7146 100.086 25.8885C100.086 26.0568 100.173 26.1887 100.347 26.284C100.527 26.3794 100.768 26.4608 101.071 26.5281C101.329 26.5842 101.573 26.6543 101.803 26.7385C102.039 26.817 102.229 26.9376 102.375 27.1003C102.527 27.2574 102.602 27.4874 102.602 27.7904C102.608 28.1663 102.465 28.4776 102.173 28.7245C101.887 28.9657 101.497 29.0863 101.004 29.0863ZM105.489 29.0863C105.091 29.0863 104.737 28.9966 104.429 28.817C104.12 28.6319 103.876 28.3766 103.696 28.0513C103.523 27.7259 103.436 27.3416 103.436 26.8984C103.436 26.4608 103.523 26.0793 103.696 25.7539C103.87 25.4229 104.112 25.1676 104.42 24.9881C104.734 24.803 105.096 24.7104 105.506 24.7104C105.91 24.7104 106.258 24.803 106.549 24.9881C106.847 25.1676 107.074 25.406 107.231 25.7034C107.388 26.0007 107.467 26.3205 107.467 26.6627C107.467 26.7244 107.464 26.7862 107.458 26.8479C107.458 26.9096 107.458 26.9797 107.458 27.0582H104.134C104.151 27.378 104.224 27.6445 104.353 27.8577C104.487 28.0653 104.653 28.2224 104.849 28.329C105.051 28.4356 105.265 28.4888 105.489 28.4888C105.781 28.4888 106.025 28.4215 106.221 28.2869C106.417 28.1522 106.56 27.9699 106.65 27.7399H107.349C107.236 28.127 107.02 28.4496 106.701 28.7076C106.387 28.9601 105.983 29.0863 105.489 29.0863ZM105.489 25.3079C105.152 25.3079 104.852 25.4117 104.588 25.6192C104.33 25.8212 104.182 26.1185 104.142 26.5113H106.768C106.751 26.1354 106.622 25.8408 106.381 25.6277C106.14 25.4145 105.842 25.3079 105.489 25.3079ZM110.322 29.0863C109.924 29.0863 109.565 28.9966 109.245 28.817C108.931 28.6319 108.681 28.3766 108.496 28.0513C108.316 27.7203 108.227 27.336 108.227 26.8984C108.227 26.4608 108.316 26.0793 108.496 25.7539C108.681 25.4229 108.931 25.1676 109.245 24.9881C109.565 24.803 109.924 24.7104 110.322 24.7104C110.816 24.7104 111.231 24.8394 111.568 25.0975C111.91 25.3556 112.126 25.7006 112.216 26.1326H111.492C111.436 25.8745 111.298 25.6753 111.079 25.5351C110.861 25.3892 110.605 25.3163 110.314 25.3163C110.078 25.3163 109.856 25.3752 109.649 25.493C109.441 25.6108 109.273 25.7875 109.144 26.0232C109.015 26.2588 108.95 26.5505 108.95 26.8984C108.95 27.2462 109.015 27.5379 109.144 27.7735C109.273 28.0092 109.441 28.1887 109.649 28.3121C109.856 28.4299 110.078 28.4888 110.314 28.4888C110.605 28.4888 110.861 28.4187 111.079 28.2785C111.298 28.1326 111.436 27.9278 111.492 27.6642H112.216C112.131 28.0849 111.918 28.4271 111.576 28.6908C111.234 28.9545 110.816 29.0863 110.322 29.0863ZM116.855 24.8114V28.9854H116.215L116.173 28.2364C116.039 28.5001 115.845 28.7076 115.593 28.8591C115.34 29.0106 115.054 29.0863 114.734 29.0863C114.241 29.0863 113.845 28.9377 113.548 28.6403C113.256 28.3374 113.11 27.8745 113.11 27.2518V24.8114H113.817V27.1761C113.817 28.0456 114.176 28.4804 114.894 28.4804C115.253 28.4804 115.551 28.3514 115.786 28.0933C116.028 27.8297 116.148 27.4566 116.148 26.9741V24.8114H116.855ZM118.019 28.9854V24.8114H118.658L118.717 25.6108C118.846 25.3359 119.042 25.1171 119.306 24.9544C119.57 24.7917 119.895 24.7104 120.282 24.7104V25.4509H120.089C119.842 25.4509 119.615 25.4958 119.407 25.5856C119.2 25.6697 119.034 25.8156 118.911 26.0232C118.787 26.2307 118.725 26.5169 118.725 26.8815V28.9854H118.019ZM122.796 29.0863C122.398 29.0863 122.044 28.9966 121.736 28.817C121.427 28.6319 121.183 28.3766 121.004 28.0513C120.83 27.7259 120.743 27.3416 120.743 26.8984C120.743 26.4608 120.83 26.0793 121.004 25.7539C121.178 25.4229 121.419 25.1676 121.727 24.9881C122.042 24.803 122.403 24.7104 122.813 24.7104C123.217 24.7104 123.565 24.803 123.856 24.9881C124.154 25.1676 124.381 25.406 124.538 25.7034C124.695 26.0007 124.774 26.3205 124.774 26.6627C124.774 26.7244 124.771 26.7862 124.765 26.8479C124.765 26.9096 124.765 26.9797 124.765 27.0582H121.441C121.458 27.378 121.531 27.6445 121.66 27.8577C121.795 28.0653 121.96 28.2224 122.157 28.329C122.359 28.4356 122.572 28.4888 122.796 28.4888C123.088 28.4888 123.332 28.4215 123.528 28.2869C123.725 28.1522 123.868 27.9699 123.957 27.7399H124.656C124.544 28.127 124.328 28.4496 124.008 28.7076C123.694 28.9601 123.29 29.0863 122.796 29.0863ZM122.796 25.3079C122.46 25.3079 122.159 25.4117 121.896 25.6192C121.638 25.8212 121.489 26.1185 121.45 26.5113H124.075C124.058 26.1354 123.929 25.8408 123.688 25.6277C123.447 25.4145 123.15 25.3079 122.796 25.3079ZM21.9409 40.0863C21.5931 40.0863 21.3042 40.0274 21.0741 39.9096C20.8441 39.7918 20.673 39.6347 20.5608 39.4384C20.4486 39.242 20.3925 39.0288 20.3925 38.7988C20.3925 38.3724 20.5552 38.0442 20.8806 37.8142C21.206 37.5842 21.6492 37.4692 22.2102 37.4692H23.3379V37.4187C23.3379 37.054 23.2425 36.7791 23.0517 36.594C22.861 36.4032 22.6057 36.3079 22.2859 36.3079C22.011 36.3079 21.7726 36.378 21.5706 36.5183C21.3743 36.6529 21.2509 36.8521 21.2004 37.1157H20.4767C20.5047 36.8128 20.6057 36.5575 20.7796 36.3499C20.9591 36.1424 21.1807 35.9853 21.4444 35.8787C21.7081 35.7665 21.9886 35.7104 22.2859 35.7104C22.8694 35.7104 23.307 35.8675 23.5987 36.1816C23.8961 36.4902 24.0447 36.9025 24.0447 37.4187V39.9854H23.4136L23.3715 39.2364C23.2537 39.472 23.0798 39.674 22.8498 39.8423C22.6254 40.005 22.3224 40.0863 21.9409 40.0863ZM22.0503 39.4888C22.3196 39.4888 22.5496 39.4187 22.7404 39.2785C22.9367 39.1382 23.0854 38.9559 23.1864 38.7315C23.2874 38.5071 23.3379 38.2714 23.3379 38.0246V38.0162H22.2691C21.854 38.0162 21.5594 38.0891 21.3855 38.235C21.2172 38.3752 21.1331 38.5519 21.1331 38.7651C21.1331 38.9839 21.2116 39.1607 21.3687 39.2953C21.5314 39.4243 21.7586 39.4888 22.0503 39.4888ZM25.1052 39.9854V35.8114H25.7448L25.7868 36.5603C25.9215 36.2966 26.115 36.0891 26.3675 35.9376C26.62 35.7861 26.9061 35.7104 27.2259 35.7104C27.7196 35.7104 28.1123 35.8619 28.404 36.1648C28.7013 36.4621 28.85 36.9222 28.85 37.5449V39.9854H28.1431V37.6207C28.1431 36.7511 27.7841 36.3163 27.066 36.3163C26.7069 36.3163 26.4068 36.4481 26.1655 36.7118C25.9299 36.9699 25.8121 37.3401 25.8121 37.8226V39.9854H25.1052ZM31.8144 40.0863C31.3993 40.0863 31.0346 39.991 30.7204 39.8002C30.4119 39.6095 30.1706 39.3486 29.9967 39.0176C29.8284 38.6866 29.7443 38.3107 29.7443 37.8899C29.7443 37.4692 29.8312 37.0961 30.0051 36.7707C30.1791 36.4397 30.4203 36.1816 30.7288 35.9965C31.0374 35.8058 31.4021 35.7104 31.8228 35.7104C32.1651 35.7104 32.468 35.7805 32.7317 35.9208C32.9954 36.061 33.2001 36.2574 33.346 36.5098V33.9263H34.0529V39.9854H33.4133L33.346 39.2953C33.2114 39.4973 33.0178 39.6796 32.7653 39.8423C32.5129 40.005 32.1959 40.0863 31.8144 40.0863ZM31.8902 39.472C32.1707 39.472 32.4175 39.4075 32.6307 39.2785C32.8495 39.1438 33.0178 38.9587 33.1356 38.7231C33.259 38.4874 33.3208 38.2125 33.3208 37.8984C33.3208 37.5842 33.259 37.3093 33.1356 37.0737C33.0178 36.838 32.8495 36.6557 32.6307 36.5267C32.4175 36.392 32.1707 36.3247 31.8902 36.3247C31.6153 36.3247 31.3684 36.392 31.1496 36.5267C30.9364 36.6557 30.7681 36.838 30.6447 37.0737C30.5269 37.3093 30.468 37.5842 30.468 37.8984C30.468 38.2125 30.5269 38.4874 30.6447 38.7231C30.7681 38.9587 30.9364 39.1438 31.1496 39.2785C31.3684 39.4075 31.6153 39.472 31.8902 39.472ZM37.8615 34.8857C37.7212 34.8857 37.6034 34.8408 37.508 34.751C37.4183 34.6557 37.3734 34.5379 37.3734 34.3976C37.3734 34.263 37.4183 34.1507 37.508 34.061C37.6034 33.9712 37.7212 33.9263 37.8615 33.9263C37.9961 33.9263 38.1111 33.9712 38.2065 34.061C38.3019 34.1507 38.3496 34.263 38.3496 34.3976C38.3496 34.5379 38.3019 34.6557 38.2065 34.751C38.1111 34.8408 37.9961 34.8857 37.8615 34.8857ZM37.508 39.9854V35.8114H38.2149V39.9854H37.508ZM39.4457 39.9854V35.8114H40.0853L40.1273 36.5603C40.262 36.2966 40.4555 36.0891 40.708 35.9376C40.9605 35.7861 41.2466 35.7104 41.5664 35.7104C42.0601 35.7104 42.4528 35.8619 42.7445 36.1648C43.0418 36.4621 43.1905 36.9222 43.1905 37.5449V39.9854H42.4836V37.6207C42.4836 36.7511 42.1246 36.3163 41.4065 36.3163C41.0474 36.3163 40.7473 36.4481 40.506 36.7118C40.2704 36.9699 40.1526 37.3401 40.1526 37.8226V39.9854H39.4457ZM48.138 39.9854C47.7565 39.9854 47.4563 39.8928 47.2375 39.7076C47.0187 39.5225 46.9094 39.1887 46.9094 38.7062V36.4089H46.1856V35.8114H46.9094L47.0019 34.8099H47.6162V35.8114H48.8449V36.4089H47.6162V38.7062C47.6162 38.9699 47.6695 39.1494 47.7761 39.2448C47.8827 39.3346 48.0707 39.3795 48.3399 39.3795H48.7775V39.9854H48.138ZM49.7429 39.9854V33.9263H50.4498V36.5267C50.5901 36.2686 50.7892 36.0694 51.0473 35.9292C51.3054 35.7833 51.5859 35.7104 51.8888 35.7104C52.3713 35.7104 52.7584 35.8619 53.0501 36.1648C53.3419 36.4621 53.4877 36.9222 53.4877 37.5449V39.9854H52.7893V37.6207C52.7893 36.7511 52.4386 36.3163 51.7374 36.3163C51.3727 36.3163 51.0669 36.4481 50.8201 36.7118C50.5732 36.9699 50.4498 37.3401 50.4498 37.8226V39.9854H49.7429ZM56.4353 40.0863C56.037 40.0863 55.6836 39.9966 55.375 39.817C55.0664 39.6319 54.8224 39.3766 54.6429 39.0513C54.469 38.7259 54.382 38.3416 54.382 37.8984C54.382 37.4608 54.469 37.0793 54.6429 36.7539C54.8168 36.4229 55.058 36.1676 55.3666 35.9881C55.6808 35.803 56.0426 35.7104 56.4522 35.7104C56.8561 35.7104 57.2039 35.803 57.4957 35.9881C57.793 36.1676 58.0202 36.406 58.1773 36.7034C58.3344 37.0007 58.4129 37.3205 58.4129 37.6627C58.4129 37.7244 58.4101 37.7862 58.4045 37.8479C58.4045 37.9096 58.4045 37.9797 58.4045 38.0582H55.0805C55.0973 38.378 55.1702 38.6445 55.2993 38.8577C55.4339 39.0653 55.5994 39.2224 55.7958 39.329C55.9977 39.4356 56.2109 39.4888 56.4353 39.4888C56.7271 39.4888 56.9711 39.4215 57.1675 39.2869C57.3638 39.1522 57.5069 38.9699 57.5966 38.7399H58.2951C58.1829 39.127 57.9669 39.4496 57.6471 39.7076C57.333 39.9601 56.929 40.0863 56.4353 40.0863ZM56.4353 36.3079C56.0987 36.3079 55.7986 36.4117 55.5349 36.6192C55.2768 36.8212 55.1282 37.1185 55.0889 37.5113H57.7145C57.6976 37.1354 57.5686 36.8408 57.3273 36.6277C57.0861 36.4145 56.7888 36.3079 56.4353 36.3079ZM63.4956 40.0863C63.0973 40.0863 62.7382 39.9966 62.4185 39.817C62.1043 39.6319 61.8546 39.3766 61.6695 39.0513C61.49 38.7203 61.4002 38.336 61.4002 37.8984C61.4002 37.4608 61.49 37.0793 61.6695 36.7539C61.8546 36.4229 62.1043 36.1676 62.4185 35.9881C62.7382 35.803 63.0973 35.7104 63.4956 35.7104C63.9893 35.7104 64.4045 35.8394 64.7411 36.0975C65.0833 36.3556 65.2993 36.7006 65.3891 37.1326H64.6654C64.6092 36.8745 64.4718 36.6753 64.253 36.5351C64.0342 36.3892 63.7789 36.3163 63.4872 36.3163C63.2516 36.3163 63.03 36.3752 62.8224 36.493C62.6148 36.6108 62.4465 36.7875 62.3175 37.0232C62.1885 37.2588 62.1239 37.5505 62.1239 37.8984C62.1239 38.2462 62.1885 38.5379 62.3175 38.7735C62.4465 39.0092 62.6148 39.1887 62.8224 39.3121C63.03 39.4299 63.2516 39.4888 63.4872 39.4888C63.7789 39.4888 64.0342 39.4187 64.253 39.2785C64.4718 39.1326 64.6092 38.9278 64.6654 38.6642H65.3891C65.3049 39.0849 65.0917 39.4271 64.7495 39.6908C64.4073 39.9545 63.9893 40.0863 63.4956 40.0863ZM66.3763 39.9854V33.9263H67.0832V39.9854H66.3763ZM70.1436 40.0863C69.7509 40.0863 69.3975 39.9966 69.0833 39.817C68.7691 39.6375 68.5195 39.3851 68.3344 39.0597C68.1548 38.7287 68.0651 38.3416 68.0651 37.8984C68.0651 37.4552 68.1576 37.0709 68.3428 36.7455C68.5279 36.4145 68.7776 36.1592 69.0917 35.9797C69.4115 35.8001 69.7678 35.7104 70.1605 35.7104C70.5532 35.7104 70.9066 35.8001 71.2208 35.9797C71.535 36.1592 71.7818 36.4145 71.9613 36.7455C72.1465 37.0709 72.239 37.4552 72.239 37.8984C72.239 38.3416 72.1465 38.7287 71.9613 39.0597C71.7762 39.3851 71.5237 39.6375 71.204 39.817C70.8898 39.9966 70.5364 40.0863 70.1436 40.0863ZM70.1436 39.4804C70.3849 39.4804 70.6093 39.4215 70.8169 39.3037C71.0244 39.1859 71.1927 39.0092 71.3218 38.7735C71.4508 38.5379 71.5153 38.2462 71.5153 37.8984C71.5153 37.5505 71.4508 37.2588 71.3218 37.0232C71.1984 36.7875 71.0329 36.6108 70.8253 36.493C70.6177 36.3752 70.3961 36.3163 70.1605 36.3163C69.9192 36.3163 69.6948 36.3752 69.4872 36.493C69.2797 36.6108 69.1114 36.7875 68.9823 37.0232C68.8533 37.2588 68.7888 37.5505 68.7888 37.8984C68.7888 38.2462 68.8533 38.5379 68.9823 38.7735C69.1114 39.0092 69.2769 39.1859 69.4788 39.3037C69.6864 39.4215 69.908 39.4804 70.1436 39.4804ZM76.8742 35.8114V39.9854H76.2346L76.1925 39.2364C76.0579 39.5001 75.8643 39.7076 75.6119 39.8591C75.3594 40.0106 75.0733 40.0863 74.7535 40.0863C74.2598 40.0863 73.8643 39.9377 73.567 39.6403C73.2752 39.3374 73.1294 38.8745 73.1294 38.2518V35.8114H73.8362V38.1761C73.8362 39.0456 74.1953 39.4804 74.9134 39.4804C75.2725 39.4804 75.5698 39.3514 75.8054 39.0933C76.0467 38.8297 76.1673 38.4566 76.1673 37.9741V35.8114H76.8742ZM79.9311 40.0863C79.516 40.0863 79.1513 39.991 78.8372 39.8002C78.5286 39.6095 78.2874 39.3486 78.1134 39.0176C77.9451 38.6866 77.861 38.3107 77.861 37.8899C77.861 37.4692 77.9479 37.0961 78.1219 36.7707C78.2958 36.4397 78.537 36.1816 78.8456 35.9965C79.1541 35.8058 79.5188 35.7104 79.9396 35.7104C80.2818 35.7104 80.5847 35.7805 80.8484 35.9208C81.1121 36.061 81.3169 36.2574 81.4627 36.5098V33.9263H82.1696V39.9854H81.5301L81.4627 39.2953C81.3281 39.4973 81.1345 39.6796 80.8821 39.8423C80.6296 40.005 80.3126 40.0863 79.9311 40.0863ZM80.0069 39.472C80.2874 39.472 80.5342 39.4075 80.7474 39.2785C80.9662 39.1438 81.1345 38.9587 81.2524 38.7231C81.3758 38.4874 81.4375 38.2125 81.4375 37.8984C81.4375 37.5842 81.3758 37.3093 81.2524 37.0737C81.1345 36.838 80.9662 36.6557 80.7474 36.5267C80.5342 36.392 80.2874 36.3247 80.0069 36.3247C79.732 36.3247 79.4851 36.392 79.2663 36.5267C79.0532 36.6557 78.8848 36.838 78.7614 37.0737C78.6436 37.3093 78.5847 37.5842 78.5847 37.8984C78.5847 38.2125 78.6436 38.4874 78.7614 38.7231C78.8848 38.9587 79.0532 39.1438 79.2663 39.2785C79.4851 39.4075 79.732 39.472 80.0069 39.472Z" fill="black"/>
<path d="M20.2242 54.8457L22.3953 48.955H23.1443L25.307 54.8457H24.5581L24.0195 53.331H21.5117L20.9647 54.8457H20.2242ZM21.7221 52.7587H23.8091L22.7656 49.847L21.7221 52.7587ZM26.1407 54.8457V50.6717H26.7802L26.8307 51.2776C26.9654 51.0532 27.1449 50.8793 27.3693 50.7559C27.5937 50.6324 27.8462 50.5707 28.1267 50.5707C28.4577 50.5707 28.741 50.6381 28.9766 50.7727C29.2179 50.9073 29.403 51.1121 29.532 51.387C29.6779 51.1346 29.8771 50.9354 30.1295 50.7895C30.3876 50.6437 30.6653 50.5707 30.9626 50.5707C31.4619 50.5707 31.8603 50.7222 32.1576 51.0252C32.4549 51.3225 32.6036 51.7825 32.6036 52.4053V54.8457H31.9051V52.481C31.9051 52.049 31.8182 51.7236 31.6443 51.5048C31.4704 51.286 31.2207 51.1766 30.8953 51.1766C30.5587 51.1766 30.2782 51.3085 30.0538 51.5722C29.835 51.8302 29.7256 52.2005 29.7256 52.683V54.8457H29.0187V52.481C29.0187 52.049 28.9317 51.7236 28.7578 51.5048C28.5839 51.286 28.3343 51.1766 28.0089 51.1766C27.6779 51.1766 27.4002 51.3085 27.1758 51.5722C26.957 51.8302 26.8476 52.2005 26.8476 52.683V54.8457H26.1407ZM33.6684 56.6971V50.6717H34.308L34.3753 51.3618C34.5099 51.1598 34.7007 50.9775 34.9475 50.8148C35.2 50.6521 35.5198 50.5707 35.9069 50.5707C36.322 50.5707 36.6839 50.6661 36.9925 50.8569C37.301 51.0476 37.5395 51.3085 37.7078 51.6395C37.8817 51.9705 37.9686 52.3464 37.9686 52.7671C37.9686 53.1879 37.8817 53.5638 37.7078 53.8948C37.5395 54.2202 37.2982 54.4782 36.984 54.669C36.6755 54.8541 36.3136 54.9467 35.8985 54.9467C35.5562 54.9467 35.2505 54.8766 34.9812 54.7363C34.7175 54.596 34.5156 54.3997 34.3753 54.1472V56.6971H33.6684ZM35.8227 54.3324C36.1032 54.3324 36.3501 54.2679 36.5633 54.1388C36.7765 54.0042 36.9448 53.819 37.0682 53.5834C37.1916 53.3478 37.2533 53.0729 37.2533 52.7587C37.2533 52.4445 37.1916 52.1696 37.0682 51.934C36.9448 51.6984 36.7765 51.5161 36.5633 51.387C36.3501 51.2524 36.1032 51.1851 35.8227 51.1851C35.5422 51.1851 35.2954 51.2524 35.0822 51.387C34.869 51.5161 34.7007 51.6984 34.5773 51.934C34.4538 52.1696 34.3921 52.4445 34.3921 52.7587C34.3921 53.0729 34.4538 53.3478 34.5773 53.5834C34.7007 53.819 34.869 54.0042 35.0822 54.1388C35.2954 54.2679 35.5422 54.3324 35.8227 54.3324ZM38.9526 54.8457V48.7867H39.6595V54.8457H38.9526ZM42.6947 54.9467C42.2964 54.9467 41.943 54.8569 41.6344 54.6774C41.3258 54.4923 41.0818 54.237 40.9023 53.9116C40.7284 53.5862 40.6414 53.2019 40.6414 52.7587C40.6414 52.3211 40.7284 51.9396 40.9023 51.6142C41.0762 51.2832 41.3174 51.028 41.626 50.8484C41.9402 50.6633 42.302 50.5707 42.7116 50.5707C43.1155 50.5707 43.4633 50.6633 43.7551 50.8484C44.0524 51.028 44.2796 51.2664 44.4367 51.5637C44.5938 51.8611 44.6723 52.1809 44.6723 52.5231C44.6723 52.5848 44.6695 52.6465 44.6639 52.7082C44.6639 52.7699 44.6639 52.8401 44.6639 52.9186H41.3399C41.3567 53.2384 41.4296 53.5049 41.5587 53.7181C41.6933 53.9256 41.8588 54.0827 42.0552 54.1893C42.2571 54.2959 42.4703 54.3492 42.6947 54.3492C42.9865 54.3492 43.2305 54.2819 43.4269 54.1472C43.6232 54.0126 43.7663 53.8303 43.856 53.6002H44.5545C44.4423 53.9873 44.2263 54.3099 43.9065 54.568C43.5924 54.8205 43.1884 54.9467 42.6947 54.9467ZM42.6947 51.1682C42.3581 51.1682 42.058 51.272 41.7943 51.4796C41.5362 51.6816 41.3876 51.9789 41.3483 52.3716H43.9739C43.957 51.9957 43.828 51.7012 43.5868 51.488C43.3455 51.2748 43.0482 51.1682 42.6947 51.1682ZM49.4353 54.9467C48.9359 54.9467 48.5208 54.8205 48.1898 54.568C47.8588 54.3155 47.6652 53.9733 47.6091 53.5413H48.3328C48.3777 53.7601 48.4927 53.9509 48.6779 54.1136C48.8686 54.2707 49.1239 54.3492 49.4437 54.3492C49.741 54.3492 49.9598 54.2875 50.1001 54.1641C50.2403 54.035 50.3104 53.8836 50.3104 53.7096C50.3104 53.4572 50.2179 53.2889 50.0327 53.2047C49.8532 53.1206 49.5979 53.0448 49.2669 52.9775C49.0425 52.9326 48.8181 52.8681 48.5937 52.784C48.3693 52.6998 48.1814 52.582 48.0299 52.4305C47.8784 52.2734 47.8027 52.0687 47.8027 51.8162C47.8027 51.4515 47.9373 51.1542 48.2066 50.9242C48.4815 50.6885 48.8518 50.5707 49.3174 50.5707C49.7606 50.5707 50.1225 50.6829 50.403 50.9073C50.6891 51.1261 50.8546 51.4403 50.8995 51.8499H50.201C50.173 51.6367 50.0804 51.4712 49.9233 51.3534C49.7719 51.2299 49.5671 51.1682 49.309 51.1682C49.0566 51.1682 48.8602 51.2215 48.72 51.3281C48.5853 51.4347 48.518 51.575 48.518 51.7489C48.518 51.9172 48.6049 52.049 48.7789 52.1444C48.9584 52.2398 49.1996 52.3211 49.5026 52.3884C49.7606 52.4445 50.0047 52.5147 50.2347 52.5988C50.4703 52.6774 50.6611 52.798 50.8069 52.9607C50.9584 53.1178 51.0342 53.3478 51.0342 53.6507C51.0398 54.0266 50.8967 54.338 50.605 54.5848C50.3189 54.8261 49.9289 54.9467 49.4353 54.9467ZM53.5044 54.8457C53.1229 54.8457 52.8227 54.7531 52.6039 54.568C52.3851 54.3829 52.2757 54.0491 52.2757 53.5666V51.2692H51.552V50.6717H52.2757L52.3683 49.6703H52.9826V50.6717H54.2113V51.2692H52.9826V53.5666C52.9826 53.8303 53.0359 54.0098 53.1425 54.1052C53.2491 54.1949 53.4371 54.2398 53.7063 54.2398H54.1439V54.8457H53.5044ZM56.8961 54.9467C56.5034 54.9467 56.15 54.8569 55.8358 54.6774C55.5216 54.4979 55.272 54.2454 55.0868 53.92C54.9073 53.589 54.8176 53.2019 54.8176 52.7587C54.8176 52.3155 54.9101 51.9312 55.0953 51.6058C55.2804 51.2748 55.53 51.0196 55.8442 50.84C56.164 50.6605 56.5202 50.5707 56.913 50.5707C57.3057 50.5707 57.6591 50.6605 57.9733 50.84C58.2875 51.0196 58.5343 51.2748 58.7138 51.6058C58.899 51.9312 58.9915 52.3155 58.9915 52.7587C58.9915 53.2019 58.899 53.589 58.7138 53.92C58.5287 54.2454 58.2762 54.4979 57.9565 54.6774C57.6423 54.8569 57.2888 54.9467 56.8961 54.9467ZM56.8961 54.3408C57.1374 54.3408 57.3618 54.2819 57.5694 54.1641C57.7769 54.0463 57.9452 53.8695 58.0743 53.6339C58.2033 53.3983 58.2678 53.1065 58.2678 52.7587C58.2678 52.4109 58.2033 52.1191 58.0743 51.8835C57.9508 51.6479 57.7853 51.4712 57.5778 51.3534C57.3702 51.2355 57.1486 51.1766 56.913 51.1766C56.6717 51.1766 56.4473 51.2355 56.2397 51.3534C56.0322 51.4712 55.8639 51.6479 55.7348 51.8835C55.6058 52.1191 55.5413 52.4109 55.5413 52.7587C55.5413 53.1065 55.6058 53.3983 55.7348 53.6339C55.8639 53.8695 56.0294 54.0463 56.2313 54.1641C56.4389 54.2819 56.6605 54.3408 56.8961 54.3408ZM59.9744 54.8457V50.6717H60.614L60.6729 51.4712C60.8019 51.1963 60.9983 50.9775 61.262 50.8148C61.5256 50.6521 61.851 50.5707 62.2381 50.5707V51.3113H62.0446C61.7977 51.3113 61.5705 51.3562 61.3629 51.4459C61.1554 51.5301 60.9899 51.6759 60.8664 51.8835C60.743 52.0911 60.6813 52.3772 60.6813 52.7419V54.8457H59.9744ZM64.4201 54.9467C64.0722 54.9467 63.7833 54.8878 63.5533 54.77C63.3233 54.6522 63.1522 54.4951 63.0399 54.2987C62.9277 54.1024 62.8716 53.8892 62.8716 53.6591C62.8716 53.2328 63.0343 52.9046 63.3597 52.6746C63.6851 52.4445 64.1283 52.3295 64.6893 52.3295H65.817V52.279C65.817 51.9144 65.7216 51.6395 65.5309 51.4543C65.3401 51.2636 65.0849 51.1682 64.7651 51.1682C64.4902 51.1682 64.2518 51.2383 64.0498 51.3786C63.8534 51.5132 63.73 51.7124 63.6795 51.9761H62.9558C62.9838 51.6731 63.0848 51.4179 63.2587 51.2103C63.4383 51.0027 63.6599 50.8456 63.9236 50.739C64.1872 50.6268 64.4677 50.5707 64.7651 50.5707C65.3485 50.5707 65.7861 50.7278 66.0779 51.042C66.3752 51.3506 66.5239 51.7629 66.5239 52.279V54.8457H65.8927L65.8507 54.0967C65.7328 54.3324 65.5589 54.5343 65.3289 54.7026C65.1045 54.8653 64.8015 54.9467 64.4201 54.9467ZM64.5295 54.3492C64.7987 54.3492 65.0288 54.2791 65.2195 54.1388C65.4159 53.9986 65.5645 53.8162 65.6655 53.5918C65.7665 53.3674 65.817 53.1318 65.817 52.8849V52.8765H64.7483C64.3331 52.8765 64.0386 52.9495 63.8646 53.0953C63.6963 53.2356 63.6122 53.4123 63.6122 53.6255C63.6122 53.8443 63.6907 54.021 63.8478 54.1556C64.0105 54.2847 64.2377 54.3492 64.5295 54.3492ZM69.2337 53.5329C68.9981 53.5329 68.7821 53.5021 68.5858 53.4403L68.165 53.8359C68.2267 53.8807 68.3024 53.92 68.3922 53.9537C68.4876 53.9817 68.6222 54.0098 68.7961 54.0378C68.9701 54.0603 69.2141 54.0855 69.5283 54.1136C70.0893 54.1528 70.4904 54.2819 70.7317 54.5007C70.9729 54.7195 71.0935 55.0056 71.0935 55.359C71.0935 55.6003 71.0262 55.8303 70.8915 56.0491C70.7625 56.2679 70.5605 56.4474 70.2856 56.5877C70.0164 56.7279 69.6685 56.7981 69.2422 56.7981C68.8663 56.7981 68.5325 56.7476 68.2407 56.6466C67.949 56.5512 67.7218 56.4025 67.5591 56.2006C67.3964 56.0042 67.3151 55.7546 67.3151 55.4516C67.3151 55.2945 67.3571 55.1234 67.4413 54.9383C67.5254 54.7587 67.6825 54.5876 67.9125 54.4249C67.7891 54.3744 67.6825 54.3211 67.5928 54.265C67.5086 54.2033 67.4301 54.136 67.3571 54.0631V53.8695L68.0724 53.1626C67.7414 52.8821 67.5759 52.5119 67.5759 52.0518C67.5759 51.7769 67.6404 51.5273 67.7695 51.3029C67.8985 51.0785 68.0865 50.9017 68.3333 50.7727C68.5801 50.6381 68.8803 50.5707 69.2337 50.5707C69.475 50.5707 69.6938 50.6044 69.8901 50.6717H71.4301V51.2019L70.6475 51.2355C70.8102 51.4712 70.8915 51.7433 70.8915 52.0518C70.8915 52.3267 70.8242 52.5764 70.6896 52.8008C70.5605 53.0252 70.3726 53.2047 70.1258 53.3394C69.8845 53.4684 69.5872 53.5329 69.2337 53.5329ZM69.2337 52.9523C69.5311 52.9523 69.7667 52.8765 69.9406 52.725C70.1201 52.568 70.2099 52.3436 70.2099 52.0518C70.2099 51.7657 70.1201 51.5469 69.9406 51.3954C69.7667 51.2383 69.5311 51.1598 69.2337 51.1598C68.9308 51.1598 68.6895 51.2383 68.51 51.3954C68.3361 51.5469 68.2491 51.7657 68.2491 52.0518C68.2491 52.3436 68.3361 52.568 68.51 52.725C68.6895 52.8765 68.9308 52.9523 69.2337 52.9523ZM68.0051 55.3843C68.0051 55.6648 68.1229 55.8724 68.3585 56.007C68.5942 56.1473 68.8887 56.2174 69.2422 56.2174C69.59 56.2174 69.8677 56.1417 70.0753 55.9902C70.2885 55.8387 70.395 55.6367 70.395 55.3843C70.395 55.2048 70.3221 55.0477 70.1762 54.913C70.0304 54.784 69.7611 54.7083 69.3684 54.6858C69.0598 54.6634 68.7933 54.6353 68.5689 54.6017C68.3389 54.7251 68.1874 54.8569 68.1145 54.9972C68.0416 55.143 68.0051 55.2721 68.0051 55.3843ZM73.9398 54.9467C73.5415 54.9467 73.188 54.8569 72.8795 54.6774C72.5709 54.4923 72.3269 54.237 72.1473 53.9116C71.9734 53.5862 71.8865 53.2019 71.8865 52.7587C71.8865 52.3211 71.9734 51.9396 72.1473 51.6142C72.3212 51.2832 72.5625 51.028 72.871 50.8484C73.1852 50.6633 73.5471 50.5707 73.9566 50.5707C74.3606 50.5707 74.7084 50.6633 75.0001 50.8484C75.2975 51.028 75.5247 51.2664 75.6818 51.5637C75.8388 51.8611 75.9174 52.1809 75.9174 52.5231C75.9174 52.5848 75.9146 52.6465 75.909 52.7082C75.909 52.7699 75.909 52.8401 75.909 52.9186H72.5849C72.6018 53.2384 72.6747 53.5049 72.8037 53.7181C72.9384 53.9256 73.1039 54.0827 73.3002 54.1893C73.5022 54.2959 73.7154 54.3492 73.9398 54.3492C74.2315 54.3492 74.4756 54.2819 74.6719 54.1472C74.8683 54.0126 75.0113 53.8303 75.1011 53.6002H75.7996C75.6874 53.9873 75.4714 54.3099 75.1516 54.568C74.8374 54.8205 74.4335 54.9467 73.9398 54.9467ZM73.9398 51.1682C73.6032 51.1682 73.303 51.272 73.0394 51.4796C72.7813 51.6816 72.6326 51.9789 72.5933 52.3716H75.2189C75.2021 51.9957 75.073 51.7012 74.8318 51.488C74.5906 51.2748 74.2932 51.1682 73.9398 51.1682ZM76.7702 52.6998V52.1023H82.8965V52.6998H76.7702ZM85.8478 54.9467C85.4494 54.9467 85.096 54.8569 84.7874 54.6774C84.4789 54.4923 84.2348 54.237 84.0553 53.9116C83.8814 53.5862 83.7944 53.2019 83.7944 52.7587C83.7944 52.3211 83.8814 51.9396 84.0553 51.6142C84.2292 51.2832 84.4705 51.028 84.779 50.8484C85.0932 50.6633 85.455 50.5707 85.8646 50.5707C86.2685 50.5707 86.6164 50.6633 86.9081 50.8484C87.2054 51.028 87.4326 51.2664 87.5897 51.5637C87.7468 51.8611 87.8253 52.1809 87.8253 52.5231C87.8253 52.5848 87.8225 52.6465 87.8169 52.7082C87.8169 52.7699 87.8169 52.8401 87.8169 52.9186H84.4929C84.5097 53.2384 84.5827 53.5049 84.7117 53.7181C84.8463 53.9256 85.0118 54.0827 85.2082 54.1893C85.4102 54.2959 85.6233 54.3492 85.8478 54.3492C86.1395 54.3492 86.3835 54.2819 86.5799 54.1472C86.7762 54.0126 86.9193 53.8303 87.0091 53.6002H87.7075C87.5953 53.9873 87.3793 54.3099 87.0596 54.568C86.7454 54.8205 86.3415 54.9467 85.8478 54.9467ZM85.8478 51.1682C85.5111 51.1682 85.211 51.272 84.9473 51.4796C84.6893 51.6816 84.5406 51.9789 84.5013 52.3716H87.1269C87.1101 51.9957 86.981 51.7012 86.7398 51.488C86.4985 51.2748 86.2012 51.1682 85.8478 51.1682ZM89.8013 54.8457L88.2192 50.6717H88.9598L90.2136 54.1641L91.4759 50.6717H92.1997L90.6176 54.8457H89.8013ZM94.6493 54.9467C94.251 54.9467 93.8975 54.8569 93.589 54.6774C93.2804 54.4923 93.0364 54.237 92.8568 53.9116C92.6829 53.5862 92.596 53.2019 92.596 52.7587C92.596 52.3211 92.6829 51.9396 92.8568 51.6142C93.0308 51.2832 93.272 51.028 93.5806 50.8484C93.8947 50.6633 94.2566 50.5707 94.6661 50.5707C95.0701 50.5707 95.4179 50.6633 95.7096 50.8484C96.007 51.028 96.2342 51.2664 96.3913 51.5637C96.5483 51.8611 96.6269 52.1809 96.6269 52.5231C96.6269 52.5848 96.6241 52.6465 96.6185 52.7082C96.6185 52.7699 96.6185 52.8401 96.6185 52.9186H93.2944C93.3113 53.2384 93.3842 53.5049 93.5132 53.7181C93.6479 53.9256 93.8134 54.0827 94.0097 54.1893C94.2117 54.2959 94.4249 54.3492 94.6493 54.3492C94.941 54.3492 95.1851 54.2819 95.3814 54.1472C95.5778 54.0126 95.7208 53.8303 95.8106 53.6002H96.5091C96.3969 53.9873 96.1809 54.3099 95.8611 54.568C95.5469 54.8205 95.143 54.9467 94.6493 54.9467ZM94.6493 51.1682C94.3127 51.1682 94.0125 51.272 93.7489 51.4796C93.4908 51.6816 93.3421 51.9789 93.3029 52.3716H95.9284C95.9116 51.9957 95.7826 51.7012 95.5413 51.488C95.3001 51.2748 95.0027 51.1682 94.6493 51.1682ZM97.5638 54.8457V50.6717H98.2034L98.2454 51.4207C98.3801 51.157 98.5736 50.9494 98.8261 50.7979C99.0786 50.6465 99.3647 50.5707 99.6845 50.5707C100.178 50.5707 100.571 50.7222 100.863 51.0252C101.16 51.3225 101.309 51.7825 101.309 52.4053V54.8457H100.602V52.481C100.602 51.6114 100.243 51.1766 99.5246 51.1766C99.1655 51.1766 98.8654 51.3085 98.6241 51.5722C98.3885 51.8302 98.2707 52.2005 98.2707 52.683V54.8457H97.5638ZM104.834 54.8457V51.2692H104.203V50.6717H104.834V49.948C104.834 49.5441 104.935 49.2495 105.137 49.0644C105.339 48.8793 105.633 48.7867 106.02 48.7867H106.441V49.3926H106.13C105.917 49.3926 105.765 49.4375 105.675 49.5272C105.586 49.6114 105.541 49.7573 105.541 49.9648V50.6717H106.567V51.2692H105.541V54.8457H104.834ZM109.147 54.9467C108.754 54.9467 108.4 54.8569 108.086 54.6774C107.772 54.4979 107.522 54.2454 107.337 53.92C107.158 53.589 107.068 53.2019 107.068 52.7587C107.068 52.3155 107.161 51.9312 107.346 51.6058C107.531 51.2748 107.78 51.0196 108.095 50.84C108.414 50.6605 108.771 50.5707 109.163 50.5707C109.556 50.5707 109.91 50.6605 110.224 50.84C110.538 51.0196 110.785 51.2748 110.964 51.6058C111.149 51.9312 111.242 52.3155 111.242 52.7587C111.242 53.2019 111.149 53.589 110.964 53.92C110.779 54.2454 110.527 54.4979 110.207 54.6774C109.893 54.8569 109.539 54.9467 109.147 54.9467ZM109.147 54.3408C109.388 54.3408 109.612 54.2819 109.82 54.1641C110.027 54.0463 110.196 53.8695 110.325 53.6339C110.454 53.3983 110.518 53.1065 110.518 52.7587C110.518 52.4109 110.454 52.1191 110.325 51.8835C110.201 51.6479 110.036 51.4712 109.828 51.3534C109.621 51.2355 109.399 51.1766 109.163 51.1766C108.922 51.1766 108.698 51.2355 108.49 51.3534C108.283 51.4712 108.114 51.6479 107.985 51.8835C107.856 52.1191 107.792 52.4109 107.792 52.7587C107.792 53.1065 107.856 53.3983 107.985 53.6339C108.114 53.8695 108.28 54.0463 108.482 54.1641C108.689 54.2819 108.911 54.3408 109.147 54.3408ZM112.225 54.8457V50.6717H112.864L112.923 51.4712C113.052 51.1963 113.249 50.9775 113.512 50.8148C113.776 50.6521 114.101 50.5707 114.489 50.5707V51.3113H114.295C114.048 51.3113 113.821 51.3562 113.613 51.4459C113.406 51.5301 113.24 51.6759 113.117 51.8835C112.993 52.0911 112.932 52.3772 112.932 52.7419V54.8457H112.225ZM119.411 54.9467C119.018 54.9467 118.665 54.8569 118.351 54.6774C118.036 54.4979 117.787 54.2454 117.602 53.92C117.422 53.589 117.332 53.2019 117.332 52.7587C117.332 52.3155 117.425 51.9312 117.61 51.6058C117.795 51.2748 118.045 51.0196 118.359 50.84C118.679 50.6605 119.035 50.5707 119.428 50.5707C119.82 50.5707 120.174 50.6605 120.488 50.84C120.802 51.0196 121.049 51.2748 121.229 51.6058C121.414 51.9312 121.506 52.3155 121.506 52.7587C121.506 53.2019 121.414 53.589 121.229 53.92C121.043 54.2454 120.791 54.4979 120.471 54.6774C120.157 54.8569 119.804 54.9467 119.411 54.9467ZM119.411 54.3408C119.652 54.3408 119.877 54.2819 120.084 54.1641C120.292 54.0463 120.46 53.8695 120.589 53.6339C120.718 53.3983 120.783 53.1065 120.783 52.7587C120.783 52.4109 120.718 52.1191 120.589 51.8835C120.466 51.6479 120.3 51.4712 120.093 51.3534C119.885 51.2355 119.663 51.1766 119.428 51.1766C119.186 51.1766 118.962 51.2355 118.755 51.3534C118.547 51.4712 118.379 51.6479 118.25 51.8835C118.121 52.1191 118.056 52.4109 118.056 52.7587C118.056 53.1065 118.121 53.3983 118.25 53.6339C118.379 53.8695 118.544 54.0463 118.746 54.1641C118.954 54.2819 119.175 54.3408 119.411 54.3408ZM126.141 50.6717V54.8457H125.502L125.46 54.0967C125.325 54.3604 125.132 54.568 124.879 54.7195C124.627 54.8709 124.341 54.9467 124.021 54.9467C123.527 54.9467 123.132 54.798 122.834 54.5007C122.542 54.1977 122.397 53.7349 122.397 53.1122V50.6717H123.103V53.0364C123.103 53.906 123.463 54.3408 124.181 54.3408C124.54 54.3408 124.837 54.2118 125.073 53.9537C125.314 53.69 125.435 53.3169 125.435 52.8344V50.6717H126.141ZM127.305 54.8457V50.6717H127.945L128.003 51.4712C128.132 51.1963 128.329 50.9775 128.592 50.8148C128.856 50.6521 129.182 50.5707 129.569 50.5707V51.3113H129.375C129.128 51.3113 128.901 51.3562 128.693 51.4459C128.486 51.5301 128.32 51.6759 128.197 51.8835C128.074 52.0911 128.012 52.3772 128.012 52.7419V54.8457H127.305ZM20.7796 65.8457V62.2692H20.1485V61.6717H20.7796V60.948C20.7796 60.5441 20.8806 60.2495 21.0826 60.0644C21.2845 59.8793 21.5791 59.7867 21.9662 59.7867H22.3869V60.3926H22.0756C21.8624 60.3926 21.7109 60.4375 21.6211 60.5272C21.5314 60.6114 21.4865 60.7573 21.4865 60.9648V61.6717H22.5132V62.2692H21.4865V65.8457H20.7796ZM23.3548 65.8457V61.6717H23.9943L24.0532 62.4712C24.1823 62.1963 24.3786 61.9775 24.6423 61.8148C24.906 61.6521 25.2314 61.5707 25.6185 61.5707V62.3113H25.4249C25.1781 62.3113 24.9509 62.3562 24.7433 62.4459C24.5357 62.5301 24.3702 62.6759 24.2468 62.8835C24.1234 63.0911 24.0616 63.3772 24.0616 63.7419V65.8457H23.3548ZM28.1323 65.9467C27.734 65.9467 27.3806 65.8569 27.072 65.6774C26.7635 65.4923 26.5194 65.237 26.3399 64.9116C26.166 64.5862 26.079 64.2019 26.079 63.7587C26.079 63.3211 26.166 62.9396 26.3399 62.6142C26.5138 62.2832 26.755 62.028 27.0636 61.8484C27.3778 61.6633 27.7396 61.5707 28.1492 61.5707C28.5531 61.5707 28.9009 61.6633 29.1927 61.8484C29.49 62.028 29.7172 62.2664 29.8743 62.5637C30.0314 62.8611 30.1099 63.1809 30.1099 63.5231C30.1099 63.5848 30.1071 63.6465 30.1015 63.7082C30.1015 63.7699 30.1015 63.8401 30.1015 63.9186H26.7775C26.7943 64.2384 26.8672 64.5049 26.9963 64.7181C27.1309 64.9256 27.2964 65.0827 27.4928 65.1893C27.6947 65.2959 27.9079 65.3492 28.1323 65.3492C28.4241 65.3492 28.6681 65.2819 28.8645 65.1472C29.0608 65.0126 29.2039 64.8303 29.2936 64.6002H29.9921C29.8799 64.9873 29.6639 65.3099 29.3441 65.568C29.03 65.8205 28.626 65.9467 28.1323 65.9467ZM28.1323 62.1682C27.7957 62.1682 27.4956 62.272 27.2319 62.4796C26.9738 62.6816 26.8252 62.9789 26.7859 63.3716H29.4115C29.3946 62.9957 29.2656 62.7012 29.0244 62.488C28.7831 62.2748 28.4858 62.1682 28.1323 62.1682ZM32.9235 65.9467C32.5251 65.9467 32.1717 65.8569 31.8631 65.6774C31.5546 65.4923 31.3105 65.237 31.131 64.9116C30.9571 64.5862 30.8701 64.2019 30.8701 63.7587C30.8701 63.3211 30.9571 62.9396 31.131 62.6142C31.3049 62.2832 31.5462 62.028 31.8547 61.8484C32.1689 61.6633 32.5308 61.5707 32.9403 61.5707C33.3442 61.5707 33.6921 61.6633 33.9838 61.8484C34.2811 62.028 34.5083 62.2664 34.6654 62.5637C34.8225 62.8611 34.9011 63.1809 34.9011 63.5231C34.9011 63.5848 34.8983 63.6465 34.8926 63.7082C34.8926 63.7699 34.8926 63.8401 34.8926 63.9186H31.5686C31.5854 64.2384 31.6584 64.5049 31.7874 64.7181C31.922 64.9256 32.0875 65.0827 32.2839 65.1893C32.4859 65.2959 32.6991 65.3492 32.9235 65.3492C33.2152 65.3492 33.4592 65.2819 33.6556 65.1472C33.852 65.0126 33.995 64.8303 34.0848 64.6002H34.7832C34.671 64.9873 34.455 65.3099 34.1353 65.568C33.8211 65.8205 33.4172 65.9467 32.9235 65.9467ZM32.9235 62.1682C32.5869 62.1682 32.2867 62.272 32.023 62.4796C31.765 62.6816 31.6163 62.9789 31.577 63.3716H34.2026C34.1858 62.9957 34.0567 62.7012 33.8155 62.488C33.5742 62.2748 33.2769 62.1682 32.9235 62.1682ZM38.0651 67.6971V61.6717H38.7046L38.772 62.3618C38.9066 62.1598 39.0974 61.9775 39.3442 61.8148C39.5967 61.6521 39.9164 61.5707 40.3035 61.5707C40.7187 61.5707 41.0806 61.6661 41.3891 61.8569C41.6977 62.0476 41.9361 62.3085 42.1044 62.6395C42.2783 62.9705 42.3653 63.3464 42.3653 63.7671C42.3653 64.1879 42.2783 64.5638 42.1044 64.8948C41.9361 65.2202 41.6949 65.4782 41.3807 65.669C41.0721 65.8541 40.7103 65.9467 40.2951 65.9467C39.9529 65.9467 39.6472 65.8766 39.3779 65.7363C39.1142 65.596 38.9122 65.3997 38.772 65.1472V67.6971H38.0651ZM40.2194 65.3324C40.4999 65.3324 40.7467 65.2679 40.9599 65.1388C41.1731 65.0042 41.3414 64.819 41.4649 64.5834C41.5883 64.3478 41.65 64.0729 41.65 63.7587C41.65 63.4445 41.5883 63.1696 41.4649 62.934C41.3414 62.6984 41.1731 62.5161 40.9599 62.387C40.7467 62.2524 40.4999 62.1851 40.2194 62.1851C39.9389 62.1851 39.692 62.2524 39.4788 62.387C39.2657 62.5161 39.0974 62.6984 38.9739 62.934C38.8505 63.1696 38.7888 63.4445 38.7888 63.7587C38.7888 64.0729 38.8505 64.3478 38.9739 64.5834C39.0974 64.819 39.2657 65.0042 39.4788 65.1388C39.692 65.2679 39.9389 65.3324 40.2194 65.3324ZM44.7378 65.9467C44.39 65.9467 44.1011 65.8878 43.871 65.77C43.641 65.6522 43.4699 65.4951 43.3577 65.2987C43.2455 65.1024 43.1894 64.8892 43.1894 64.6591C43.1894 64.2328 43.3521 63.9046 43.6775 63.6746C44.0029 63.4445 44.4461 63.3295 45.0071 63.3295H46.1347V63.279C46.1347 62.9144 46.0394 62.6395 45.8486 62.4543C45.6579 62.2636 45.4026 62.1682 45.0828 62.1682C44.8079 62.1682 44.5695 62.2383 44.3675 62.3786C44.1712 62.5132 44.0478 62.7124 43.9973 62.9761H43.2736C43.3016 62.6731 43.4026 62.4179 43.5765 62.2103C43.756 62.0027 43.9776 61.8456 44.2413 61.739C44.505 61.6268 44.7855 61.5707 45.0828 61.5707C45.6663 61.5707 46.1039 61.7278 46.3956 62.042C46.693 62.3506 46.8416 62.7629 46.8416 63.279V65.8457H46.2105L46.1684 65.0967C46.0506 65.3324 45.8767 65.5343 45.6467 65.7026C45.4223 65.8653 45.1193 65.9467 44.7378 65.9467ZM44.8472 65.3492C45.1165 65.3492 45.3465 65.2791 45.5373 65.1388C45.7336 64.9986 45.8823 64.8162 45.9833 64.5918C46.0843 64.3674 46.1347 64.1318 46.1347 63.8849V63.8765H45.066C44.6509 63.8765 44.3563 63.9495 44.1824 64.0953C44.0141 64.2356 43.9299 64.4123 43.9299 64.6255C43.9299 64.8443 44.0085 65.021 44.1656 65.1556C44.3283 65.2847 44.5555 65.3492 44.8472 65.3492ZM49.8208 65.9467C49.4225 65.9467 49.0634 65.8569 48.7436 65.6774C48.4294 65.4923 48.1798 65.237 47.9947 64.9116C47.8151 64.5806 47.7254 64.1963 47.7254 63.7587C47.7254 63.3211 47.8151 62.9396 47.9947 62.6142C48.1798 62.2832 48.4294 62.028 48.7436 61.8484C49.0634 61.6633 49.4225 61.5707 49.8208 61.5707C50.3145 61.5707 50.7296 61.6998 51.0662 61.9578C51.4085 62.2159 51.6245 62.5609 51.7142 62.9929H50.9905C50.9344 62.7349 50.797 62.5357 50.5782 62.3954C50.3594 62.2496 50.1041 62.1766 49.8124 62.1766C49.5767 62.1766 49.3551 62.2355 49.1476 62.3534C48.94 62.4712 48.7717 62.6479 48.6426 62.8835C48.5136 63.1191 48.4491 63.4109 48.4491 63.7587C48.4491 64.1065 48.5136 64.3983 48.6426 64.6339C48.7717 64.8695 48.94 65.0491 49.1476 65.1725C49.3551 65.2903 49.5767 65.3492 49.8124 65.3492C50.1041 65.3492 50.3594 65.2791 50.5782 65.1388C50.797 64.993 50.9344 64.7882 50.9905 64.5245H51.7142C51.6301 64.9453 51.4169 65.2875 51.0747 65.5512C50.7324 65.8148 50.3145 65.9467 49.8208 65.9467ZM52.7014 65.8457V59.7867H53.4083V63.4305L55.1166 61.6717H55.9834L54.132 63.5567L56.219 65.8457H55.3186L53.4083 63.683V65.8457H52.7014ZM58.2976 65.9467C57.9498 65.9467 57.6608 65.8878 57.4308 65.77C57.2008 65.6522 57.0297 65.4951 56.9175 65.2987C56.8053 65.1024 56.7492 64.8892 56.7492 64.6591C56.7492 64.2328 56.9119 63.9046 57.2373 63.6746C57.5627 63.4445 58.0059 63.3295 58.5669 63.3295H59.6945V63.279C59.6945 62.9144 59.5992 62.6395 59.4084 62.4543C59.2177 62.2636 58.9624 62.1682 58.6426 62.1682C58.3677 62.1682 58.1293 62.2383 57.9273 62.3786C57.731 62.5132 57.6076 62.7124 57.5571 62.9761H56.8333C56.8614 62.6731 56.9624 62.4179 57.1363 62.2103C57.3158 62.0027 57.5374 61.8456 57.8011 61.739C58.0648 61.6268 58.3453 61.5707 58.6426 61.5707C59.2261 61.5707 59.6637 61.7278 59.9554 62.042C60.2528 62.3506 60.4014 62.7629 60.4014 63.279V65.8457H59.7703L59.7282 65.0967C59.6104 65.3324 59.4365 65.5343 59.2065 65.7026C58.982 65.8653 58.6791 65.9467 58.2976 65.9467ZM58.407 65.3492C58.6763 65.3492 58.9063 65.2791 59.0971 65.1388C59.2934 64.9986 59.4421 64.8162 59.5431 64.5918C59.6441 64.3674 59.6945 64.1318 59.6945 63.8849V63.8765H58.6258C58.2106 63.8765 57.9161 63.9495 57.7422 64.0953C57.5739 64.2356 57.4897 64.4123 57.4897 64.6255C57.4897 64.8443 57.5683 65.021 57.7254 65.1556C57.8881 65.2847 58.1153 65.3492 58.407 65.3492ZM63.1113 64.5329C62.8757 64.5329 62.6597 64.5021 62.4633 64.4403L62.0425 64.8359C62.1043 64.8807 62.18 64.92 62.2698 64.9537C62.3651 64.9817 62.4998 65.0098 62.6737 65.0378C62.8476 65.0603 63.0916 65.0855 63.4058 65.1136C63.9668 65.1528 64.368 65.2819 64.6092 65.5007C64.8504 65.7195 64.9711 66.0056 64.9711 66.359C64.9711 66.6003 64.9037 66.8303 64.7691 67.0491C64.6401 67.2679 64.4381 67.4474 64.1632 67.5877C63.8939 67.7279 63.5461 67.7981 63.1197 67.7981C62.7438 67.7981 62.41 67.7476 62.1183 67.6466C61.8266 67.5512 61.5993 67.4025 61.4366 67.2006C61.2739 67.0042 61.1926 66.7546 61.1926 66.4516C61.1926 66.2945 61.2347 66.1234 61.3188 65.9383C61.403 65.7587 61.5601 65.5876 61.7901 65.4249C61.6667 65.3744 61.5601 65.3211 61.4703 65.265C61.3862 65.2033 61.3076 65.136 61.2347 65.0631V64.8695L61.95 64.1626C61.619 63.8821 61.4535 63.5119 61.4535 63.0518C61.4535 62.7769 61.518 62.5273 61.647 62.3029C61.7761 62.0785 61.964 61.9017 62.2108 61.7727C62.4577 61.6381 62.7578 61.5707 63.1113 61.5707C63.3525 61.5707 63.5713 61.6044 63.7677 61.6717H65.3077V62.2019L64.5251 62.2355C64.6877 62.4712 64.7691 62.7433 64.7691 63.0518C64.7691 63.3267 64.7018 63.5764 64.5671 63.8008C64.4381 64.0252 64.2502 64.2047 64.0033 64.3394C63.7621 64.4684 63.4647 64.5329 63.1113 64.5329ZM63.1113 63.9523C63.4086 63.9523 63.6443 63.8765 63.8182 63.725C63.9977 63.568 64.0875 63.3436 64.0875 63.0518C64.0875 62.7657 63.9977 62.5469 63.8182 62.3954C63.6443 62.2383 63.4086 62.1598 63.1113 62.1598C62.8083 62.1598 62.5671 62.2383 62.3876 62.3954C62.2137 62.5469 62.1267 62.7657 62.1267 63.0518C62.1267 63.3436 62.2137 63.568 62.3876 63.725C62.5671 63.8765 62.8083 63.9523 63.1113 63.9523ZM61.8827 66.3843C61.8827 66.6648 62.0005 66.8724 62.2361 67.007C62.4717 67.1473 62.7663 67.2174 63.1197 67.2174C63.4675 67.2174 63.7452 67.1417 63.9528 66.9902C64.166 66.8387 64.2726 66.6367 64.2726 66.3843C64.2726 66.2048 64.1997 66.0477 64.0538 65.913C63.9079 65.784 63.6386 65.7083 63.2459 65.6858C62.9374 65.6634 62.6709 65.6353 62.4465 65.6017C62.2165 65.7251 62.065 65.8569 61.9921 65.9972C61.9191 66.143 61.8827 66.2721 61.8827 66.3843ZM67.8173 65.9467C67.419 65.9467 67.0656 65.8569 66.757 65.6774C66.4485 65.4923 66.2044 65.237 66.0249 64.9116C65.851 64.5862 65.764 64.2019 65.764 63.7587C65.764 63.3211 65.851 62.9396 66.0249 62.6142C66.1988 62.2832 66.44 62.028 66.7486 61.8484C67.0628 61.6633 67.4246 61.5707 67.8342 61.5707C68.2381 61.5707 68.5859 61.6633 68.8777 61.8484C69.175 62.028 69.4022 62.2664 69.5593 62.5637C69.7164 62.8611 69.7949 63.1809 69.7949 63.5231C69.7949 63.5848 69.7921 63.6465 69.7865 63.7082C69.7865 63.7699 69.7865 63.8401 69.7865 63.9186H66.4625C66.4793 64.2384 66.5522 64.5049 66.6813 64.7181C66.8159 64.9256 66.9814 65.0827 67.1778 65.1893C67.3797 65.2959 67.5929 65.3492 67.8173 65.3492C68.1091 65.3492 68.3531 65.2819 68.5495 65.1472C68.7458 65.0126 68.8889 64.8303 68.9786 64.6002H69.6771C69.5649 64.9873 69.3489 65.3099 69.0291 65.568C68.715 65.8205 68.311 65.9467 67.8173 65.9467ZM67.8173 62.1682C67.4807 62.1682 67.1806 62.272 66.9169 62.4796C66.6588 62.6816 66.5102 62.9789 66.4709 63.3716H69.0965C69.0796 62.9957 68.9506 62.7012 68.7094 62.488C68.4681 62.2748 68.1708 62.1682 67.8173 62.1682Z" fill="black"/>
<path d="M20.2242 84.6924L22.3953 78.8017H23.1443L25.307 84.6924H24.5581L24.0195 83.1776H21.5117L20.9647 84.6924H20.2242ZM21.7221 82.6054H23.8091L22.7656 79.6937L21.7221 82.6054ZM27.8293 84.7934C27.4309 84.7934 27.0719 84.7036 26.7521 84.5241C26.4379 84.3389 26.1883 84.0837 26.0031 83.7583C25.8236 83.4273 25.7338 83.043 25.7338 82.6054C25.7338 82.1678 25.8236 81.7863 26.0031 81.4609C26.1883 81.1299 26.4379 80.8746 26.7521 80.6951C27.0719 80.51 27.4309 80.4174 27.8293 80.4174C28.323 80.4174 28.7381 80.5464 29.0747 80.8045C29.4169 81.0626 29.6329 81.4076 29.7227 81.8396H28.999C28.9429 81.5815 28.8054 81.3824 28.5866 81.2421C28.3678 81.0962 28.1126 81.0233 27.8208 81.0233C27.5852 81.0233 27.3636 81.0822 27.156 81.2C26.9485 81.3179 26.7801 81.4946 26.6511 81.7302C26.5221 81.9658 26.4576 82.2576 26.4576 82.6054C26.4576 82.9532 26.5221 83.245 26.6511 83.4806C26.7801 83.7162 26.9485 83.8957 27.156 84.0192C27.3636 84.137 27.5852 84.1959 27.8208 84.1959C28.1126 84.1959 28.3678 84.1258 28.5866 83.9855C28.8054 83.8396 28.9429 83.6349 28.999 83.3712H29.7227C29.6385 83.7919 29.4254 84.1342 29.0831 84.3978C28.7409 84.6615 28.323 84.7934 27.8293 84.7934ZM32.6286 84.7934C32.2303 84.7934 31.8712 84.7036 31.5514 84.5241C31.2373 84.3389 30.9876 84.0837 30.8025 83.7583C30.623 83.4273 30.5332 83.043 30.5332 82.6054C30.5332 82.1678 30.623 81.7863 30.8025 81.4609C30.9876 81.1299 31.2373 80.8746 31.5514 80.6951C31.8712 80.51 32.2303 80.4174 32.6286 80.4174C33.1223 80.4174 33.5375 80.5464 33.8741 80.8045C34.2163 81.0626 34.4323 81.4076 34.522 81.8396H33.7983C33.7422 81.5815 33.6048 81.3824 33.386 81.2421C33.1672 81.0962 32.9119 81.0233 32.6202 81.0233C32.3846 81.0233 32.163 81.0822 31.9554 81.2C31.7478 81.3179 31.5795 81.4946 31.4505 81.7302C31.3214 81.9658 31.2569 82.2576 31.2569 82.6054C31.2569 82.9532 31.3214 83.245 31.4505 83.4806C31.5795 83.7162 31.7478 83.8957 31.9554 84.0192C32.163 84.137 32.3846 84.1959 32.6202 84.1959C32.9119 84.1959 33.1672 84.1258 33.386 83.9855C33.6048 83.8396 33.7422 83.6349 33.7983 83.3712H34.522C34.4379 83.7919 34.2247 84.1342 33.8825 84.3978C33.5403 84.6615 33.1223 84.7934 32.6286 84.7934ZM37.3859 84.7934C36.9875 84.7934 36.6341 84.7036 36.3255 84.5241C36.017 84.3389 35.7729 84.0837 35.5934 83.7583C35.4195 83.4329 35.3325 83.0486 35.3325 82.6054C35.3325 82.1678 35.4195 81.7863 35.5934 81.4609C35.7673 81.1299 36.0086 80.8746 36.3171 80.6951C36.6313 80.51 36.9932 80.4174 37.4027 80.4174C37.8066 80.4174 38.1545 80.51 38.4462 80.6951C38.7435 80.8746 38.9707 81.1131 39.1278 81.4104C39.2849 81.7078 39.3635 82.0275 39.3635 82.3698C39.3635 82.4315 39.3607 82.4932 39.355 82.5549C39.355 82.6166 39.355 82.6867 39.355 82.7653H36.031C36.0478 83.0851 36.1208 83.3515 36.2498 83.5647C36.3845 83.7723 36.55 83.9294 36.7463 84.036C36.9483 84.1426 37.1615 84.1959 37.3859 84.1959C37.6776 84.1959 37.9216 84.1286 38.118 83.9939C38.3144 83.8593 38.4574 83.6769 38.5472 83.4469H39.2456C39.1334 83.834 38.9175 84.1566 38.5977 84.4147C38.2835 84.6671 37.8796 84.7934 37.3859 84.7934ZM37.3859 81.0149C37.0493 81.0149 36.7491 81.1187 36.4854 81.3263C36.2274 81.5282 36.0787 81.8256 36.0394 82.2183H38.665C38.6482 81.8424 38.5191 81.5479 38.2779 81.3347C38.0367 81.1215 37.7393 81.0149 37.3859 81.0149ZM41.8993 84.7934C41.4 84.7934 40.9848 84.6671 40.6538 84.4147C40.3228 84.1622 40.1293 83.82 40.0732 83.388H40.7969C40.8418 83.6068 40.9568 83.7976 41.1419 83.9603C41.3327 84.1173 41.5879 84.1959 41.9077 84.1959C42.205 84.1959 42.4238 84.1342 42.5641 84.0107C42.7044 83.8817 42.7745 83.7302 42.7745 83.5563C42.7745 83.3039 42.6819 83.1356 42.4968 83.0514C42.3173 82.9672 42.062 82.8915 41.731 82.8242C41.5066 82.7793 41.2822 82.7148 41.0578 82.6306C40.8334 82.5465 40.6454 82.4287 40.4939 82.2772C40.3425 82.1201 40.2667 81.9153 40.2667 81.6629C40.2667 81.2982 40.4014 81.0009 40.6707 80.7709C40.9456 80.5352 41.3158 80.4174 41.7815 80.4174C42.2247 80.4174 42.5865 80.5296 42.8671 80.754C43.1532 80.9728 43.3187 81.287 43.3636 81.6965H42.6651C42.637 81.4834 42.5445 81.3179 42.3874 81.2C42.2359 81.0766 42.0311 81.0149 41.7731 81.0149C41.5206 81.0149 41.3242 81.0682 41.184 81.1748C41.0493 81.2814 40.982 81.4216 40.982 81.5956C40.982 81.7639 41.069 81.8957 41.2429 81.9911C41.4224 82.0864 41.6637 82.1678 41.9666 82.2351C42.2247 82.2912 42.4687 82.3613 42.6987 82.4455C42.9344 82.524 43.1251 82.6447 43.271 82.8074C43.4225 82.9644 43.4982 83.1945 43.4982 83.4974C43.5038 83.8733 43.3607 84.1847 43.069 84.4315C42.7829 84.6727 42.393 84.7934 41.8993 84.7934ZM46.1069 84.7934C45.6076 84.7934 45.1925 84.6671 44.8615 84.4147C44.5305 84.1622 44.3369 83.82 44.2808 83.388H45.0045C45.0494 83.6068 45.1644 83.7976 45.3496 83.9603C45.5403 84.1173 45.7956 84.1959 46.1154 84.1959C46.4127 84.1959 46.6315 84.1342 46.7717 84.0107C46.912 83.8817 46.9821 83.7302 46.9821 83.5563C46.9821 83.3039 46.8896 83.1356 46.7044 83.0514C46.5249 82.9672 46.2696 82.8915 45.9386 82.8242C45.7142 82.7793 45.4898 82.7148 45.2654 82.6306C45.041 82.5465 44.8531 82.4287 44.7016 82.2772C44.5501 82.1201 44.4744 81.9153 44.4744 81.6629C44.4744 81.2982 44.609 81.0009 44.8783 80.7709C45.1532 80.5352 45.5235 80.4174 45.9891 80.4174C46.4323 80.4174 46.7942 80.5296 47.0747 80.754C47.3608 80.9728 47.5263 81.287 47.5712 81.6965H46.8727C46.8447 81.4834 46.7521 81.3179 46.595 81.2C46.4435 81.0766 46.2388 81.0149 45.9807 81.0149C45.7283 81.0149 45.5319 81.0682 45.3916 81.1748C45.257 81.2814 45.1897 81.4216 45.1897 81.5956C45.1897 81.7639 45.2766 81.8957 45.4505 81.9911C45.6301 82.0864 45.8713 82.1678 46.1743 82.2351C46.4323 82.2912 46.6764 82.3613 46.9064 82.4455C47.142 82.524 47.3328 82.6447 47.4786 82.8074C47.6301 82.9644 47.7058 83.1945 47.7058 83.4974C47.7115 83.8733 47.5684 84.1847 47.2767 84.4315C46.9905 84.6727 46.6006 84.7934 46.1069 84.7934ZM52.3313 84.7934C51.9835 84.7934 51.6945 84.7345 51.4645 84.6166C51.2345 84.4988 51.0634 84.3417 50.9512 84.1454C50.839 83.949 50.7829 83.7358 50.7829 83.5058C50.7829 83.0795 50.9456 82.7513 51.271 82.5212C51.5964 82.2912 52.0396 82.1762 52.6006 82.1762H53.7282V82.1257C53.7282 81.7611 53.6329 81.4862 53.4421 81.301C53.2514 81.1103 52.9961 81.0149 52.6763 81.0149C52.4014 81.0149 52.163 81.085 51.961 81.2253C51.7647 81.3599 51.6412 81.5591 51.5908 81.8228H50.867C50.8951 81.5198 50.9961 81.2646 51.17 81.057C51.3495 80.8494 51.5711 80.6923 51.8348 80.5857C52.0985 80.4735 52.379 80.4174 52.6763 80.4174C53.2598 80.4174 53.6974 80.5745 53.9891 80.8887C54.2864 81.1972 54.4351 81.6096 54.4351 82.1257V84.6924H53.804L53.7619 83.9434C53.6441 84.1791 53.4702 84.381 53.2401 84.5493C53.0157 84.712 52.7128 84.7934 52.3313 84.7934ZM52.4407 84.1959C52.71 84.1959 52.94 84.1258 53.1307 83.9855C53.3271 83.8452 53.4758 83.6629 53.5768 83.4385C53.6777 83.2141 53.7282 82.9785 53.7282 82.7316V82.7232H52.6595C52.2443 82.7232 51.9498 82.7961 51.7759 82.942C51.6076 83.0823 51.5234 83.259 51.5234 83.4722C51.5234 83.691 51.602 83.8677 51.7591 84.0023C51.9218 84.1314 52.149 84.1959 52.4407 84.1959ZM55.4956 84.6924V80.5184H56.1351L56.1772 81.2674C56.3119 81.0037 56.5054 80.7961 56.7579 80.6446C57.0103 80.4932 57.2964 80.4174 57.6162 80.4174C58.1099 80.4174 58.5026 80.5689 58.7944 80.8718C59.0917 81.1692 59.2404 81.6292 59.2404 82.2519V84.6924H58.5335V82.3277C58.5335 81.4581 58.1744 81.0233 57.4563 81.0233C57.0973 81.0233 56.7971 81.1552 56.5559 81.4188C56.3203 81.6769 56.2025 82.0472 56.2025 82.5297V84.6924H55.4956ZM60.6425 86.5437L61.6776 84.2884H61.4336L59.7757 80.5184H60.5415L61.9216 83.7667L63.3859 80.5184H64.118L61.3831 86.5437H60.6425ZM65.7057 84.6924L64.4855 80.5184H65.1924L66.076 83.7919L67.0521 80.5184H67.8516L68.8362 83.7919L69.7114 80.5184H70.4267L69.2064 84.6924H68.4827L67.4561 81.2505L66.4294 84.6924H65.7057ZM71.2085 84.6924V78.6334H71.9154V81.2337C72.0556 80.9756 72.2548 80.7765 72.5129 80.6362C72.7709 80.4903 73.0514 80.4174 73.3544 80.4174C73.8369 80.4174 74.224 80.5689 74.5157 80.8718C74.8074 81.1692 74.9533 81.6292 74.9533 82.2519V84.6924H74.2548V82.3277C74.2548 81.4581 73.9042 81.0233 73.2029 81.0233C72.8383 81.0233 72.5325 81.1552 72.2857 81.4188C72.0388 81.6769 71.9154 82.0472 71.9154 82.5297V84.6924H71.2085ZM77.9009 84.7934C77.5026 84.7934 77.1491 84.7036 76.8406 84.5241C76.532 84.3389 76.288 84.0837 76.1084 83.7583C75.9345 83.4329 75.8476 83.0486 75.8476 82.6054C75.8476 82.1678 75.9345 81.7863 76.1084 81.4609C76.2824 81.1299 76.5236 80.8746 76.8321 80.6951C77.1463 80.51 77.5082 80.4174 77.9177 80.4174C78.3217 80.4174 78.6695 80.51 78.9612 80.6951C79.2586 80.8746 79.4858 81.1131 79.6429 81.4104C79.7999 81.7078 79.8785 82.0275 79.8785 82.3698C79.8785 82.4315 79.8757 82.4932 79.8701 82.5549C79.8701 82.6166 79.8701 82.6867 79.8701 82.7653H76.546C76.5629 83.0851 76.6358 83.3515 76.7648 83.5647C76.8995 83.7723 77.065 83.9294 77.2613 84.036C77.4633 84.1426 77.6765 84.1959 77.9009 84.1959C78.1926 84.1959 78.4367 84.1286 78.633 83.9939C78.8294 83.8593 78.9724 83.6769 79.0622 83.4469H79.7607C79.6485 83.834 79.4325 84.1566 79.1127 84.4147C78.7985 84.6671 78.3946 84.7934 77.9009 84.7934ZM77.9009 81.0149C77.5643 81.0149 77.2641 81.1187 77.0005 81.3263C76.7424 81.5282 76.5937 81.8256 76.5544 82.2183H79.18C79.1632 81.8424 79.0342 81.5479 78.7929 81.3347C78.5517 81.1215 78.2543 81.0149 77.9009 81.0149ZM80.8154 84.6924V80.5184H81.455L81.5139 81.3179C81.6429 81.043 81.8393 80.8242 82.103 80.6615C82.3666 80.4988 82.692 80.4174 83.0791 80.4174V81.158H82.8856C82.6387 81.158 82.4115 81.2028 82.2039 81.2926C81.9964 81.3768 81.8309 81.5226 81.7074 81.7302C81.584 81.9378 81.5223 82.2239 81.5223 82.5886V84.6924H80.8154ZM85.593 84.7934C85.1947 84.7934 84.8412 84.7036 84.5327 84.5241C84.2241 84.3389 83.9801 84.0837 83.8005 83.7583C83.6266 83.4329 83.5397 83.0486 83.5397 82.6054C83.5397 82.1678 83.6266 81.7863 83.8005 81.4609C83.9745 81.1299 84.2157 80.8746 84.5243 80.6951C84.8384 80.51 85.2003 80.4174 85.6098 80.4174C86.0138 80.4174 86.3616 80.51 86.6533 80.6951C86.9507 80.8746 87.1779 81.1131 87.335 81.4104C87.492 81.7078 87.5706 82.0275 87.5706 82.3698C87.5706 82.4315 87.5678 82.4932 87.5622 82.5549C87.5622 82.6166 87.5622 82.6867 87.5622 82.7653H84.2381C84.255 83.0851 84.3279 83.3515 84.4569 83.5647C84.5916 83.7723 84.7571 83.9294 84.9534 84.036C85.1554 84.1426 85.3686 84.1959 85.593 84.1959C85.8847 84.1959 86.1288 84.1286 86.3251 83.9939C86.5215 83.8593 86.6645 83.6769 86.7543 83.4469H87.4528C87.3406 83.834 87.1246 84.1566 86.8048 84.4147C86.4906 84.6671 86.0867 84.7934 85.593 84.7934ZM85.593 81.0149C85.2564 81.0149 84.9562 81.1187 84.6926 81.3263C84.4345 81.5282 84.2858 81.8256 84.2465 82.2183H86.8721C86.8553 81.8424 86.7263 81.5479 86.485 81.3347C86.2438 81.1215 85.9464 81.0149 85.593 81.0149Z" fill="black"/>
</svg>
