<svg width="144" height="112" viewBox="0 0 144 112" fill="none" xmlns="http://www.w3.org/2000/svg">
<path d="M18.566 110.695V105.622H19.4936V109.971H21.7402V110.695H18.566ZM24.1195 110.782C23.7572 110.782 23.4359 110.705 23.1557 110.55C22.8754 110.396 22.6556 110.178 22.4962 109.898C22.3367 109.618 22.257 109.294 22.257 108.927C22.257 108.555 22.3343 108.224 22.4889 107.934C22.6484 107.644 22.8658 107.42 23.1412 107.26C23.4214 107.096 23.7499 107.014 24.1268 107.014C24.4795 107.014 24.7911 107.091 25.0616 107.246C25.3322 107.4 25.5424 107.613 25.6921 107.883C25.8467 108.149 25.924 108.446 25.924 108.775C25.924 108.828 25.9216 108.884 25.9168 108.942C25.9168 109 25.9144 109.06 25.9095 109.123H23.1774C23.1967 109.403 23.2934 109.623 23.4673 109.782C23.6461 109.942 23.861 110.021 24.1123 110.021C24.3007 110.021 24.4577 109.98 24.5833 109.898C24.7138 109.811 24.8104 109.7 24.8732 109.565H25.8153C25.7477 109.792 25.6342 110 25.4747 110.188C25.3201 110.372 25.1269 110.517 24.895 110.623C24.6679 110.729 24.4094 110.782 24.1195 110.782ZM24.1268 107.768C23.8997 107.768 23.6992 107.833 23.5253 107.963C23.3513 108.089 23.2402 108.282 23.1919 108.543H24.9819C24.9674 108.306 24.8805 108.118 24.721 107.978C24.5616 107.838 24.3635 107.768 24.1268 107.768ZM27.9435 110.782C27.6343 110.782 27.3806 110.734 27.1825 110.637C26.9845 110.536 26.8371 110.403 26.7405 110.239C26.6438 110.074 26.5955 109.893 26.5955 109.695C26.5955 109.362 26.726 109.091 26.9869 108.884C27.2478 108.676 27.6391 108.572 28.1609 108.572H29.074V108.485C29.074 108.239 29.004 108.057 28.8639 107.941C28.7237 107.825 28.5498 107.768 28.3421 107.768C28.1536 107.768 27.9894 107.813 27.8493 107.905C27.7092 107.992 27.6222 108.123 27.5884 108.297H26.6825C26.7066 108.036 26.7936 107.809 26.9434 107.615C27.098 107.422 27.2961 107.275 27.5376 107.173C27.7792 107.067 28.0498 107.014 28.3493 107.014C28.8614 107.014 29.2649 107.142 29.5596 107.398C29.8543 107.654 30.0016 108.016 30.0016 108.485V110.695H29.2117L29.1248 110.116C29.0185 110.309 28.8687 110.468 28.6754 110.594C28.487 110.719 28.243 110.782 27.9435 110.782ZM28.1536 110.058C28.4194 110.058 28.6247 109.971 28.7696 109.797C28.9194 109.623 29.0136 109.408 29.0523 109.152H28.2624C28.016 109.152 27.8396 109.198 27.7333 109.289C27.627 109.376 27.5739 109.485 27.5739 109.616C27.5739 109.756 27.627 109.864 27.7333 109.942C27.8396 110.019 27.9797 110.058 28.1536 110.058ZM30.8869 110.695V107.101H31.713L31.8 107.775C31.9304 107.543 32.1068 107.359 32.329 107.224C32.5561 107.084 32.8218 107.014 33.1262 107.014V107.992H32.8653C32.6624 107.992 32.4812 108.024 32.3218 108.086C32.1623 108.149 32.0367 108.258 31.9449 108.412C31.858 108.567 31.8145 108.782 31.8145 109.057V110.695H30.8869ZM33.7602 110.695V107.101H34.5791L34.6516 107.71C34.7627 107.497 34.9222 107.328 35.1299 107.202C35.3425 107.077 35.5913 107.014 35.8763 107.014C36.3208 107.014 36.6663 107.154 36.9127 107.434C37.1591 107.714 37.2823 108.125 37.2823 108.666V110.695H36.3547V108.753C36.3547 108.444 36.2918 108.207 36.1662 108.043C36.0406 107.879 35.8449 107.796 35.5792 107.796C35.3183 107.796 35.1033 107.888 34.9342 108.072C34.77 108.255 34.6878 108.512 34.6878 108.84V110.695H33.7602ZM39.9179 110.695V105.622H41.0194L42.6355 108.84L44.2299 105.622H45.3314V110.695H44.4038V107.195L42.9906 109.971H42.2587L40.8455 107.195V110.695H39.9179ZM48.0187 110.782C47.6709 110.782 47.3568 110.703 47.0766 110.543C46.8012 110.384 46.5814 110.164 46.4171 109.884C46.2577 109.599 46.178 109.27 46.178 108.898C46.178 108.526 46.2601 108.2 46.4244 107.92C46.5887 107.635 46.8085 107.412 47.0839 107.253C47.3641 107.094 47.6781 107.014 48.026 107.014C48.369 107.014 48.6782 107.094 48.9536 107.253C49.2338 107.412 49.4537 107.635 49.6131 107.92C49.7774 108.2 49.8595 108.526 49.8595 108.898C49.8595 109.27 49.7774 109.599 49.6131 109.884C49.4537 110.164 49.2338 110.384 48.9536 110.543C48.6734 110.703 48.3618 110.782 48.0187 110.782ZM48.0187 109.978C48.2603 109.978 48.4705 109.888 48.6492 109.71C48.828 109.526 48.9174 109.256 48.9174 108.898C48.9174 108.541 48.828 108.272 48.6492 108.094C48.4705 107.91 48.2627 107.818 48.026 107.818C47.7796 107.818 47.567 107.91 47.3882 108.094C47.2143 108.272 47.1274 108.541 47.1274 108.898C47.1274 109.256 47.2143 109.526 47.3882 109.71C47.567 109.888 47.7772 109.978 48.0187 109.978ZM50.6889 110.695V107.101H51.5151L51.602 107.775C51.7325 107.543 51.9088 107.359 52.1311 107.224C52.3581 107.084 52.6239 107.014 52.9282 107.014V107.992H52.6673C52.4644 107.992 52.2832 108.024 52.1238 108.086C51.9644 108.149 51.8388 108.258 51.747 108.412C51.66 108.567 51.6165 108.782 51.6165 109.057V110.695H50.6889ZM55.2451 110.782C54.8827 110.782 54.5614 110.705 54.2812 110.55C54.001 110.396 53.7812 110.178 53.6217 109.898C53.4623 109.618 53.3826 109.294 53.3826 108.927C53.3826 108.555 53.4599 108.224 53.6145 107.934C53.7739 107.644 53.9913 107.42 54.2667 107.26C54.5469 107.096 54.8755 107.014 55.2523 107.014C55.605 107.014 55.9166 107.091 56.1872 107.246C56.4577 107.4 56.6679 107.613 56.8177 107.883C56.9723 108.149 57.0496 108.446 57.0496 108.775C57.0496 108.828 57.0472 108.884 57.0423 108.942C57.0423 109 57.0399 109.06 57.0351 109.123H54.303C54.3223 109.403 54.4189 109.623 54.5928 109.782C54.7716 109.942 54.9866 110.021 55.2378 110.021C55.4262 110.021 55.5833 109.98 55.7089 109.898C55.8393 109.811 55.936 109.7 55.9988 109.565H56.9409C56.8732 109.792 56.7597 110 56.6003 110.188C56.4457 110.372 56.2524 110.517 56.0205 110.623C55.7934 110.729 55.535 110.782 55.2451 110.782ZM55.2523 107.768C55.0252 107.768 54.8247 107.833 54.6508 107.963C54.4769 108.089 54.3658 108.282 54.3174 108.543H56.1075C56.093 108.306 56.006 108.118 55.8466 107.978C55.6871 107.838 55.4891 107.768 55.2523 107.768Z" fill="#726172"/>
<path d="M18.0732 111.601H57.3612V111.964H18.0732V111.601Z" fill="#726172"/>
<path d="M1.19917 12.266V9.44421C1.19917 9.35438 1.23087 9.30417 1.29428 9.29361C1.3577 9.27775 1.40526 9.30682 1.43696 9.3808C1.6272 9.81411 1.83328 10.1972 2.05523 10.5301C2.28245 10.863 2.53081 11.1431 2.80031 11.3703C3.0751 11.5923 3.3763 11.7614 3.70393 11.8776C4.03156 11.9939 4.39618 12.052 4.79778 12.052C5.02501 12.052 5.24167 12.0203 5.44775 11.9569C5.65384 11.8882 5.83351 11.7825 5.98675 11.6398C6.14528 11.4972 6.26947 11.3149 6.3593 11.0929C6.45442 10.871 6.50198 10.6041 6.50198 10.2923C6.50198 9.99642 6.44649 9.73749 6.33552 9.51555C6.22983 9.28832 6.08451 9.08752 5.89956 8.91313C5.7199 8.73875 5.51381 8.58815 5.2813 8.46133C5.04879 8.32922 4.811 8.21032 4.56792 8.10464C4.29842 7.98838 4.03156 7.86684 3.76734 7.74002C3.50841 7.61319 3.26005 7.47052 3.02226 7.31199C2.78446 7.15346 2.56516 6.97115 2.36436 6.76506C2.16884 6.55897 2.00238 6.32118 1.86499 6.05168C1.74345 5.81917 1.64833 5.58138 1.57964 5.3383C1.51623 5.09522 1.48452 4.84421 1.48452 4.58528C1.48452 4.2101 1.55057 3.83227 1.68268 3.4518C1.81479 3.07133 2.03145 2.72785 2.33265 2.42136C2.63386 2.11487 3.0249 1.8665 3.50577 1.67627C3.99193 1.48075 4.58905 1.38299 5.29715 1.38299C5.74632 1.38299 6.13472 1.41998 6.46234 1.49396C6.78997 1.56266 7.06211 1.64192 7.27877 1.73175C7.50071 1.8163 7.66981 1.89821 7.78606 1.97747C7.90232 2.05145 7.96837 2.09637 7.98422 2.11222C8.04764 2.15978 8.07934 2.21527 8.07934 2.27868V3.7213C8.07934 3.75829 8.06877 3.78999 8.04764 3.81641C8.0265 3.83755 8.00272 3.85076 7.9763 3.85605C7.94988 3.85605 7.92346 3.85076 7.89703 3.84019C7.87061 3.82434 7.84948 3.79792 7.83362 3.76093C7.73322 3.52314 7.61432 3.28798 7.47693 3.05547C7.33954 2.81768 7.16516 2.60895 6.95378 2.42928C6.7477 2.24433 6.49405 2.09637 6.19284 1.9854C5.89164 1.86915 5.52966 1.81102 5.10692 1.81102C4.55735 1.81102 4.12932 1.94048 3.82283 2.19941C3.51634 2.45835 3.36309 2.80975 3.36309 3.25364C3.36309 3.50728 3.40537 3.72922 3.48992 3.91946C3.57447 4.10969 3.71714 4.28936 3.91795 4.45846C4.12403 4.62227 4.39618 4.78873 4.73437 4.95783C5.07257 5.12164 5.49796 5.30659 6.01053 5.51268C6.50726 5.71348 6.94586 5.93014 7.32633 6.16265C7.7068 6.39516 8.02386 6.65673 8.2775 6.94737C8.53644 7.23272 8.72931 7.55771 8.85614 7.92233C8.98824 8.28694 9.0543 8.7044 9.0543 9.17471C9.0543 9.63973 8.96975 10.0757 8.80065 10.4826C8.63684 10.8895 8.38319 11.2462 8.03971 11.5526C7.69623 11.8539 7.26292 12.0916 6.73977 12.266C6.21662 12.4404 5.601 12.5276 4.8929 12.5276C4.44374 12.5276 3.99721 12.4695 3.55333 12.3532C3.11473 12.2423 2.68934 12.1181 2.27717 11.9807C2.21904 11.9595 2.15563 11.9384 2.08693 11.9173C2.01824 11.8961 1.95218 11.8856 1.88877 11.8856C1.76195 11.8856 1.66947 11.9278 1.61134 12.0124C1.55322 12.0916 1.49773 12.1921 1.44489 12.3136C1.41318 12.3876 1.36298 12.4193 1.29428 12.4087C1.23087 12.3981 1.19917 12.3506 1.19917 12.266ZM14.4702 11.1563C14.5653 11.1088 14.634 11.1141 14.6763 11.1722C14.7185 11.2303 14.7212 11.2911 14.6842 11.3545C14.5891 11.5236 14.4675 11.6795 14.3196 11.8221C14.1769 11.9595 14.0131 12.0811 13.8281 12.1868C13.6432 12.2872 13.4397 12.3638 13.2178 12.4166C13.0011 12.4748 12.7713 12.5038 12.5282 12.5038C12.264 12.5038 12.0024 12.4695 11.7435 12.4008C11.4845 12.3321 11.252 12.2105 11.0459 12.0362C10.8399 11.8565 10.6708 11.6161 10.5387 11.3149C10.4118 11.0084 10.3484 10.62 10.3484 10.1497V5.69499C10.3484 5.65271 10.3273 5.63158 10.285 5.63158H10.0789C9.95209 5.63158 9.87283 5.62365 9.84112 5.6078C9.8147 5.59194 9.80149 5.5576 9.80149 5.50475C9.80149 5.43606 9.83056 5.36472 9.88868 5.29074C9.95209 5.21147 10.0287 5.17184 10.1186 5.17184H10.2929C10.3299 5.17184 10.3484 5.1507 10.3484 5.10843V3.214C10.3484 3.09775 10.396 3.03169 10.4911 3.01584C10.6232 2.98942 10.7632 2.95507 10.9112 2.9128C11.0644 2.86524 11.2177 2.8124 11.3709 2.75427C11.5295 2.69086 11.6827 2.6248 11.8307 2.55611C11.9839 2.48213 12.1239 2.4055 12.2508 2.32624C12.3089 2.29453 12.3617 2.28925 12.4093 2.31039C12.4621 2.33152 12.4886 2.38437 12.4886 2.46892V5.11636C12.4886 5.15335 12.5097 5.17184 12.552 5.17184H14.0422C14.169 5.17184 14.2456 5.17977 14.272 5.19562C14.3037 5.21147 14.3196 5.24582 14.3196 5.29866C14.3196 5.36736 14.2826 5.44134 14.2086 5.52061C14.1346 5.59459 14.0527 5.63158 13.9629 5.63158H12.5441C12.5071 5.63158 12.4886 5.65007 12.4886 5.68706V10.5618C12.4886 10.7045 12.5123 10.8313 12.5599 10.9423C12.6127 11.048 12.6788 11.1405 12.7581 11.2197C12.8426 11.2937 12.9377 11.3492 13.0434 11.3862C13.1544 11.4232 13.2654 11.4417 13.3763 11.4417C13.6036 11.4417 13.8149 11.41 14.0104 11.3466C14.206 11.2779 14.3592 11.2145 14.4702 11.1563ZM18.8118 4.97368C19.3561 4.97368 19.8554 5.07144 20.3099 5.26696C20.7696 5.45719 21.1633 5.72141 21.4909 6.05961C21.8186 6.39252 22.0748 6.7862 22.2598 7.24065C22.4447 7.6951 22.5372 8.18126 22.5372 8.69912C22.5372 9.22227 22.4368 9.71371 22.236 10.1734C22.0352 10.6332 21.7604 11.0374 21.4117 11.3862C21.0629 11.7297 20.6507 12.0018 20.1751 12.2026C19.7048 12.4034 19.1975 12.5038 18.6533 12.5038C18.109 12.5038 17.607 12.4087 17.1472 12.2185C16.6928 12.023 16.3017 11.7587 15.9741 11.4258C15.6465 11.0876 15.3902 10.6939 15.2052 10.2448C15.0203 9.79033 14.9278 9.30153 14.9278 8.77839C14.9278 8.26052 15.0282 7.77172 15.229 7.31199C15.4298 6.84697 15.7046 6.44272 16.0534 6.09924C16.4021 5.75047 16.8117 5.47569 17.282 5.27489C17.7576 5.07408 18.2675 4.97368 18.8118 4.97368ZM18.7325 12.0837C18.9862 12.0837 19.2055 11.9965 19.3904 11.8221C19.5807 11.6478 19.7365 11.41 19.8581 11.1088C19.9849 10.8023 20.08 10.4456 20.1434 10.0387C20.2068 9.6318 20.2385 9.19849 20.2385 8.73875C20.2385 8.27902 20.2068 7.8457 20.1434 7.43881C20.08 7.03192 19.9849 6.67787 19.8581 6.37666C19.7365 6.07017 19.5807 5.82974 19.3904 5.65536C19.2055 5.48097 18.9862 5.39378 18.7325 5.39378C18.4789 5.39378 18.2569 5.48097 18.0667 5.65536C17.8817 5.82974 17.7259 6.07017 17.599 6.37666C17.4722 6.67787 17.3771 7.03192 17.3137 7.43881C17.2556 7.8457 17.2265 8.27902 17.2265 8.73875C17.2265 9.19849 17.2556 9.6318 17.3137 10.0387C17.3771 10.4456 17.4722 10.8023 17.599 11.1088C17.7259 11.41 17.8817 11.6478 18.0667 11.8221C18.2569 11.9965 18.4789 12.0837 18.7325 12.0837ZM27.9246 4.97368C28.1466 4.97368 28.3342 5.00274 28.4874 5.06087C28.6406 5.11371 28.7648 5.18769 28.8599 5.28281C28.9551 5.37265 29.0238 5.48097 29.066 5.6078C29.1083 5.72934 29.1294 5.8588 29.1294 5.99619C29.1294 6.24984 29.0475 6.448 28.8837 6.59068C28.7252 6.73336 28.5112 6.80469 28.2417 6.80469C28.0356 6.80469 27.8744 6.7677 27.7582 6.69372C27.6419 6.61974 27.5415 6.54048 27.457 6.45593C27.3777 6.3661 27.3037 6.28419 27.235 6.21021C27.1663 6.13623 27.0818 6.09924 26.9814 6.09924C26.8915 6.09924 26.7938 6.13094 26.6881 6.19436C26.5877 6.25248 26.4926 6.3661 26.4027 6.53519C26.3182 6.70429 26.2469 6.9368 26.1887 7.23272C26.1306 7.52864 26.1015 7.91176 26.1015 8.38206V11.1246C26.1015 11.336 26.1359 11.5024 26.2046 11.624C26.2786 11.7455 26.3605 11.838 26.4503 11.9014C26.5454 11.9648 26.6379 12.0097 26.7277 12.0362C26.8176 12.0573 26.8836 12.0705 26.9259 12.0758C26.9682 12.0864 26.9972 12.1049 27.0131 12.1313C27.0342 12.1524 27.0421 12.1762 27.0369 12.2026C27.0316 12.229 27.0157 12.2528 26.9893 12.274C26.9682 12.2951 26.9365 12.3057 26.8942 12.3057H26.1015H26.0302H24.0327H23.9614H23.1687C23.1265 12.3057 23.0921 12.2951 23.0657 12.274C23.0446 12.2528 23.0313 12.229 23.0261 12.2026C23.0208 12.1762 23.0261 12.1524 23.0419 12.1313C23.0631 12.1049 23.0948 12.0864 23.137 12.0758C23.1793 12.0705 23.2454 12.0573 23.3352 12.0362C23.425 12.0097 23.5149 11.9648 23.6047 11.9014C23.6998 11.838 23.7817 11.7455 23.8504 11.624C23.9244 11.5024 23.9614 11.336 23.9614 11.1246V6.65409C23.9614 6.5854 23.9297 6.54312 23.8663 6.52727C23.8557 6.52727 23.8161 6.51934 23.7474 6.50349C23.684 6.48764 23.61 6.46914 23.5254 6.448C23.4409 6.42687 23.3616 6.40837 23.2876 6.39252C23.2189 6.37666 23.1767 6.3661 23.1608 6.36081C23.0921 6.34496 23.0551 6.31061 23.0498 6.25777C23.0498 6.19964 23.0895 6.16001 23.1687 6.13887C23.3748 6.09131 23.5968 6.0279 23.8346 5.94864C24.0776 5.86409 24.3207 5.77161 24.5638 5.67121C24.8069 5.56552 25.042 5.45455 25.2693 5.3383C25.4965 5.21676 25.6999 5.09522 25.8796 4.97368C25.9272 4.94197 25.9747 4.92876 26.0223 4.93405C26.0751 4.93933 26.1015 4.97896 26.1015 5.05294V6.18643C26.2865 5.77954 26.5375 5.47569 26.8545 5.27489C27.1716 5.07408 27.5283 4.97368 27.9246 4.97368ZM31.526 8.10464C31.4414 8.10464 31.3991 8.14955 31.3991 8.23939C31.3991 8.77839 31.4467 9.24076 31.5418 9.62652C31.6369 10.0123 31.7743 10.3293 31.954 10.5777C32.1389 10.8208 32.3662 11.0004 32.6357 11.1167C32.9105 11.2329 33.2275 11.2911 33.5868 11.2911C33.8616 11.2911 34.1047 11.262 34.3161 11.2039C34.5327 11.1458 34.7203 11.0797 34.8789 11.0057C35.0374 10.9265 35.1669 10.8525 35.2673 10.7838C35.3677 10.7151 35.4416 10.6702 35.4892 10.649C35.5632 10.6173 35.6213 10.6253 35.6636 10.6728C35.7059 10.7151 35.7059 10.7811 35.6636 10.871C35.6477 10.9027 35.6107 10.9661 35.5526 11.0612C35.4998 11.151 35.4205 11.2567 35.3148 11.3783C35.2091 11.4998 35.077 11.6266 34.9185 11.7587C34.76 11.8908 34.5697 12.0124 34.3478 12.1234C34.1311 12.2343 33.8801 12.3242 33.5948 12.3929C33.3147 12.4668 33.0003 12.5038 32.6515 12.5038C32.1231 12.5038 31.6449 12.4219 31.2168 12.2581C30.7888 12.089 30.4215 11.8459 30.1151 11.5289C29.8138 11.2118 29.5787 10.8261 29.4096 10.3716C29.2458 9.91715 29.1639 9.40458 29.1639 8.83387C29.1639 8.21032 29.2669 7.65811 29.473 7.17724C29.6791 6.69637 29.9486 6.29476 30.2815 5.97241C30.6144 5.64479 30.9922 5.39642 31.415 5.22733C31.8377 5.05823 32.2684 4.97368 32.707 4.97368C33.1192 4.97368 33.4812 5.03181 33.7929 5.14806C34.11 5.25903 34.3821 5.40699 34.6094 5.59194C34.8419 5.77161 35.0321 5.97506 35.1801 6.20228C35.3333 6.42422 35.4549 6.64616 35.5447 6.86811C35.6398 7.09005 35.7059 7.29878 35.7428 7.4943C35.7798 7.68982 35.7983 7.8457 35.7983 7.96196C35.7983 8.0148 35.7798 8.05179 35.7428 8.07293C35.7111 8.09407 35.6662 8.10464 35.6081 8.10464H31.526ZM31.4388 7.58149C31.4282 7.65018 31.4599 7.68453 31.5339 7.68453C31.5497 7.68453 31.6026 7.68453 31.6924 7.68453C31.7823 7.67925 31.8906 7.67396 32.0174 7.66868C32.1495 7.66339 32.2895 7.65811 32.4375 7.65283C32.5855 7.64754 32.7255 7.64226 32.8576 7.63697C32.995 7.63169 33.1113 7.62905 33.2064 7.62905C33.3068 7.62376 33.3702 7.61848 33.3966 7.61319C33.4812 7.60791 33.5684 7.57092 33.6582 7.50222C33.7533 7.43353 33.8009 7.31463 33.8009 7.14553C33.8009 6.99229 33.7797 6.81526 33.7374 6.61446C33.6952 6.41365 33.6265 6.22342 33.5314 6.04375C33.4415 5.86409 33.3253 5.71348 33.1826 5.59194C33.0399 5.46512 32.8655 5.40171 32.6594 5.40171C32.4956 5.40171 32.353 5.44663 32.2314 5.53646C32.1099 5.62101 32.0042 5.73462 31.9144 5.8773C31.8298 6.01469 31.7585 6.16793 31.7003 6.33703C31.6422 6.50613 31.5947 6.67259 31.5577 6.8364C31.5207 6.99493 31.4916 7.14289 31.4705 7.28028C31.4546 7.41239 31.4441 7.51279 31.4388 7.58149ZM47.2432 1.60493C47.3541 1.60493 47.4096 1.65513 47.4096 1.75553V3.4835C47.4096 3.56277 47.3779 3.60768 47.3145 3.61825C47.2511 3.62354 47.1982 3.58919 47.156 3.51521C47.1243 3.44651 47.0609 3.3329 46.9657 3.17437C46.8706 3.01584 46.7385 2.85467 46.5694 2.69086C46.4003 2.52176 46.1889 2.3738 45.9353 2.24697C45.6816 2.12015 45.3778 2.05674 45.0238 2.05674C44.7754 2.05674 44.5482 2.07788 44.3421 2.12015C44.136 2.16242 43.959 2.23112 43.811 2.32624C43.6683 2.41607 43.5547 2.53497 43.4702 2.68293C43.3909 2.82561 43.3513 2.99999 43.3513 3.20608V6.66994V6.55105C43.3513 6.58275 43.3618 6.61182 43.383 6.63824C43.4094 6.65938 43.4385 6.66994 43.4702 6.66994H44.4848C44.7225 6.66994 44.9154 6.62239 45.0634 6.52727C45.2166 6.43215 45.3355 6.32118 45.4201 6.19436C45.5099 6.06753 45.5733 5.94335 45.6103 5.82181C45.6473 5.69499 45.6711 5.59987 45.6816 5.53646C45.6869 5.49418 45.7028 5.46512 45.7292 5.44927C45.7609 5.42813 45.79 5.4202 45.8164 5.42549C45.8481 5.42549 45.8745 5.4387 45.8957 5.46512C45.9221 5.48626 45.9353 5.51796 45.9353 5.56024V8.25524C45.9353 8.29751 45.9221 8.33186 45.8957 8.35828C45.8745 8.37942 45.8481 8.39263 45.8164 8.39791C45.79 8.39791 45.7609 8.38999 45.7292 8.37414C45.7028 8.353 45.6869 8.32129 45.6816 8.27902C45.6711 8.21561 45.6473 8.12313 45.6103 8.00159C45.5733 7.87477 45.5099 7.74794 45.4201 7.62112C45.3355 7.4943 45.2166 7.38333 45.0634 7.28821C44.9154 7.19309 44.7225 7.14553 44.4848 7.14553H43.4702C43.4385 7.14553 43.4094 7.15874 43.383 7.18516C43.3618 7.2063 43.3513 7.23272 43.3513 7.26443V7.14553V10.8313C43.3513 11.0797 43.4041 11.2805 43.5098 11.4338C43.6155 11.587 43.737 11.7085 43.8744 11.7984C44.0171 11.8882 44.1571 11.9516 44.2945 11.9886C44.4319 12.0203 44.5323 12.0414 44.5957 12.052C44.6433 12.0626 44.6776 12.0811 44.6988 12.1075C44.7252 12.1339 44.7358 12.163 44.7305 12.1947C44.7305 12.2211 44.7173 12.2475 44.6908 12.274C44.6644 12.2951 44.6248 12.3057 44.5719 12.3057H39.5149C39.462 12.3057 39.4224 12.2951 39.396 12.274C39.3695 12.2475 39.3537 12.2211 39.3484 12.1947C39.3484 12.163 39.359 12.1339 39.3801 12.1075C39.4065 12.0811 39.4435 12.0626 39.4911 12.052C39.5545 12.0414 39.6549 12.0203 39.7923 11.9886C39.9297 11.9516 40.0671 11.8882 40.2045 11.7984C40.3471 11.7085 40.4713 11.587 40.577 11.4338C40.6827 11.2805 40.7355 11.0797 40.7355 10.8313V3.07925C40.7355 2.83618 40.6827 2.63801 40.577 2.48477C40.4713 2.32624 40.3471 2.2047 40.2045 2.12015C40.0671 2.03032 39.9297 1.96691 39.7923 1.92992C39.6549 1.89292 39.5545 1.86915 39.4911 1.85858C39.4435 1.85329 39.4065 1.83744 39.3801 1.81102C39.359 1.77931 39.3484 1.75025 39.3484 1.72383C39.3537 1.69212 39.3695 1.6657 39.396 1.64456C39.4224 1.61814 39.462 1.60493 39.5149 1.60493H47.2432ZM50.9269 5.05294C50.9269 4.97896 50.9004 4.93933 50.8476 4.93405C50.8 4.92876 50.7525 4.94197 50.7049 4.97368C50.5253 5.09522 50.3218 5.21676 50.0946 5.3383C49.8674 5.45455 49.6322 5.56552 49.3891 5.67121C49.1461 5.77161 48.903 5.86409 48.6599 5.94864C48.4221 6.0279 48.2002 6.09131 47.9941 6.13887C47.9148 6.16001 47.8752 6.19964 47.8752 6.25777C47.8805 6.31061 47.9174 6.34496 47.9861 6.36081C48.002 6.3661 48.0443 6.37666 48.113 6.39252C48.1869 6.40837 48.2662 6.42687 48.3508 6.448C48.4353 6.46914 48.5093 6.48764 48.5727 6.50349C48.6414 6.51934 48.681 6.52727 48.6916 6.52727C48.755 6.54312 48.7867 6.5854 48.7867 6.65409V11.0612C48.7867 11.2726 48.7444 11.4443 48.6599 11.5764C48.5753 11.7033 48.4776 11.8037 48.3666 11.8776C48.2609 11.9463 48.1552 11.9965 48.0496 12.0282C47.9492 12.0547 47.8778 12.0705 47.8355 12.0758C47.7933 12.0864 47.7616 12.1049 47.7404 12.1313C47.7246 12.1524 47.7193 12.1762 47.7246 12.2026C47.7299 12.229 47.7431 12.2528 47.7642 12.274C47.7906 12.2951 47.825 12.3057 47.8672 12.3057H51.8463C51.8886 12.3057 51.9203 12.2951 51.9415 12.274C51.9679 12.2528 51.9837 12.229 51.989 12.2026C51.9943 12.1762 51.9864 12.1524 51.9652 12.1313C51.9494 12.1049 51.9203 12.0864 51.878 12.0758C51.8358 12.0705 51.7618 12.0547 51.6561 12.0282C51.5557 11.9965 51.45 11.9463 51.339 11.8776C51.2334 11.8037 51.1382 11.7033 51.0537 11.5764C50.9691 11.4443 50.9269 11.2726 50.9269 11.0612V5.05294ZM51.0854 2.62744C51.0854 2.80183 51.051 2.96828 50.9824 3.12681C50.9137 3.28006 50.8185 3.41481 50.697 3.53106C50.5755 3.64203 50.4328 3.73187 50.269 3.80056C50.1104 3.86926 49.9361 3.90361 49.7458 3.90361C49.5609 3.90361 49.3891 3.8719 49.2306 3.80849C49.0774 3.73979 48.9426 3.64996 48.8264 3.53899C48.7154 3.42802 48.6282 3.29591 48.5648 3.14267C48.5014 2.98942 48.4697 2.82561 48.4697 2.65122C48.4697 2.47684 48.504 2.31303 48.5727 2.15978C48.6414 2.00125 48.7339 1.86386 48.8501 1.74761C48.9717 1.63135 49.1143 1.53888 49.2782 1.47018C49.442 1.40148 49.6164 1.36714 49.8013 1.36714C49.9915 1.36714 50.1633 1.40148 50.3165 1.47018C50.4751 1.53359 50.6098 1.62343 50.7208 1.73968C50.837 1.85065 50.9269 1.98276 50.9903 2.136C51.0537 2.28925 51.0854 2.45306 51.0854 2.62744ZM55.4312 11.0216C55.4312 11.2382 55.4761 11.4126 55.566 11.5447C55.6611 11.6768 55.7668 11.7825 55.883 11.8618C56.0046 11.9358 56.1208 11.9886 56.2318 12.0203C56.348 12.052 56.4273 12.0705 56.4696 12.0758C56.5118 12.0864 56.5409 12.1049 56.5568 12.1313C56.5779 12.1524 56.5858 12.1762 56.5805 12.2026C56.5753 12.229 56.5594 12.2528 56.533 12.274C56.5118 12.2951 56.4801 12.3057 56.4379 12.3057H52.2844C52.2421 12.3057 52.2078 12.2951 52.1814 12.274C52.1602 12.2528 52.147 12.229 52.1417 12.2026C52.1364 12.1762 52.1417 12.1524 52.1576 12.1313C52.1787 12.1049 52.2104 12.0864 52.2527 12.0758C52.295 12.0705 52.3716 12.052 52.4826 12.0203C52.5988 11.9886 52.7151 11.9358 52.8313 11.8618C52.9529 11.7825 53.0585 11.6768 53.1484 11.5447C53.2435 11.4126 53.2911 11.2382 53.2911 11.0216V2.136C53.2911 2.06731 53.2594 2.02503 53.1959 2.00918C53.1854 2.00918 53.1457 2.00125 53.077 1.9854C53.0136 1.96955 52.9397 1.95105 52.8551 1.92992C52.7706 1.90878 52.6913 1.89028 52.6173 1.87443C52.5486 1.85858 52.5063 1.84801 52.4905 1.84272C52.4218 1.82687 52.3848 1.79252 52.3795 1.73968C52.3795 1.68155 52.4191 1.64192 52.4984 1.62078C52.7045 1.57322 52.9264 1.50981 53.1642 1.43055C53.4073 1.346 53.6504 1.25352 53.8935 1.15312C54.1365 1.04744 54.3717 0.936464 54.5989 0.820209C54.8262 0.69867 55.0296 0.577131 55.2093 0.455591C55.2568 0.423886 55.3044 0.410675 55.3519 0.415959C55.4048 0.421244 55.4312 0.460876 55.4312 0.534857V11.0216ZM59.2686 8.10464C59.1841 8.10464 59.1418 8.14955 59.1418 8.23939C59.1418 8.77839 59.1893 9.24076 59.2845 9.62652C59.3796 10.0123 59.517 10.3293 59.6966 10.5777C59.8816 10.8208 60.1088 11.0004 60.3783 11.1167C60.6531 11.2329 60.9702 11.2911 61.3295 11.2911C61.6043 11.2911 61.8473 11.262 62.0587 11.2039C62.2754 11.1458 62.463 11.0797 62.6215 11.0057C62.78 10.9265 62.9095 10.8525 63.0099 10.7838C63.1103 10.7151 63.1843 10.6702 63.2318 10.649C63.3058 10.6173 63.3639 10.6253 63.4062 10.6728C63.4485 10.7151 63.4485 10.7811 63.4062 10.871C63.3904 10.9027 63.3534 10.9661 63.2953 11.0612C63.2424 11.151 63.1631 11.2567 63.0575 11.3783C62.9518 11.4998 62.8197 11.6266 62.6611 11.7587C62.5026 11.8908 62.3124 12.0124 62.0904 12.1234C61.8738 12.2343 61.6228 12.3242 61.3374 12.3929C61.0573 12.4668 60.7429 12.5038 60.3942 12.5038C59.8657 12.5038 59.3875 12.4219 58.9595 12.2581C58.5314 12.089 58.1642 11.8459 57.8577 11.5289C57.5565 11.2118 57.3213 10.8261 57.1522 10.3716C56.9884 9.91715 56.9065 9.40458 56.9065 8.83387C56.9065 8.21032 57.0096 7.65811 57.2156 7.17724C57.4217 6.69637 57.6912 6.29476 58.0241 5.97241C58.3571 5.64479 58.7349 5.39642 59.1576 5.22733C59.5804 5.05823 60.0111 4.97368 60.4496 4.97368C60.8618 4.97368 61.2238 5.03181 61.5356 5.14806C61.8526 5.25903 62.1248 5.40699 62.352 5.59194C62.5845 5.77161 62.7747 5.97506 62.9227 6.20228C63.076 6.42422 63.1975 6.64616 63.2873 6.86811C63.3824 7.09005 63.4485 7.29878 63.4855 7.4943C63.5225 7.68982 63.541 7.8457 63.541 7.96196C63.541 8.0148 63.5225 8.05179 63.4855 8.07293C63.4538 8.09407 63.4089 8.10464 63.3507 8.10464H59.2686ZM59.1814 7.58149C59.1708 7.65018 59.2026 7.68453 59.2765 7.68453C59.2924 7.68453 59.3452 7.68453 59.4351 7.68453C59.5249 7.67925 59.6332 7.67396 59.76 7.66868C59.8922 7.66339 60.0322 7.65811 60.1801 7.65283C60.3281 7.64754 60.4681 7.64226 60.6003 7.63697C60.7376 7.63169 60.8539 7.62905 60.949 7.62905C61.0494 7.62376 61.1128 7.61848 61.1393 7.61319C61.2238 7.60791 61.311 7.57092 61.4008 7.50222C61.4959 7.43353 61.5435 7.31463 61.5435 7.14553C61.5435 6.99229 61.5224 6.81526 61.4801 6.61446C61.4378 6.41365 61.3691 6.22342 61.274 6.04375C61.1842 5.86409 61.0679 5.71348 60.9252 5.59194C60.7826 5.46512 60.6082 5.40171 60.4021 5.40171C60.2383 5.40171 60.0956 5.44663 59.9741 5.53646C59.8525 5.62101 59.7468 5.73462 59.657 5.8773C59.5725 6.01469 59.5011 6.16793 59.443 6.33703C59.3849 6.50613 59.3373 6.67259 59.3003 6.8364C59.2633 6.99493 59.2343 7.14289 59.2131 7.28028C59.1973 7.41239 59.1867 7.51279 59.1814 7.58149ZM64.4624 11.7587C64.4624 11.7482 64.4492 11.6742 64.4228 11.5368C64.4017 11.3941 64.3779 11.2382 64.3515 11.0691C64.325 10.9 64.2986 10.7415 64.2722 10.5935C64.2511 10.4403 64.2378 10.3452 64.2326 10.3082C64.222 10.2342 64.2431 10.1919 64.296 10.1814C64.3488 10.1655 64.3884 10.1787 64.4149 10.221C64.4202 10.2369 64.4545 10.2923 64.5179 10.3875C64.5813 10.4826 64.6685 10.5988 64.7795 10.7362C64.8905 10.8736 65.0226 11.0216 65.1758 11.1801C65.3343 11.3386 65.5087 11.4866 65.699 11.624C65.8945 11.7561 66.1058 11.8671 66.3331 11.9569C66.5603 12.0414 66.8034 12.0837 67.0623 12.0837C67.3635 12.0837 67.5987 12.0018 67.7678 11.838C67.9421 11.6742 68.0293 11.4575 68.0293 11.188C68.0293 11.0454 68.0108 10.9053 67.9739 10.7679C67.9369 10.6305 67.8576 10.4931 67.7361 10.3558C67.6145 10.2184 67.4401 10.0836 67.2129 9.9515C66.9857 9.81411 66.6818 9.67672 66.3014 9.53933C65.9526 9.41779 65.6593 9.27247 65.4215 9.10337C65.1837 8.93427 64.9909 8.74668 64.8429 8.54059C64.6949 8.32922 64.5866 8.10464 64.5179 7.86684C64.4545 7.62376 64.4228 7.36747 64.4228 7.09797C64.4228 6.89189 64.4598 6.6673 64.5338 6.42422C64.6077 6.17586 64.7399 5.94599 64.9301 5.73462C65.1256 5.51796 65.3898 5.3383 65.7227 5.19562C66.0556 5.04766 66.481 4.97368 66.9989 4.97368C67.3265 4.97368 67.6304 5.0001 67.9104 5.05294C68.1905 5.10579 68.4336 5.16656 68.6397 5.23525C68.851 5.29866 69.0175 5.35943 69.139 5.41756C69.2659 5.47569 69.3372 5.5074 69.3531 5.51268C69.3848 5.52853 69.4033 5.54174 69.4085 5.55231C69.4138 5.56288 69.4191 5.58138 69.4244 5.6078C69.4244 5.61837 69.4376 5.69235 69.464 5.82974C69.4905 5.96185 69.5169 6.10716 69.5433 6.26569C69.5697 6.42422 69.5961 6.56954 69.6226 6.70165C69.649 6.83376 69.6622 6.90774 69.6622 6.92359C69.6728 6.97643 69.6543 7.01607 69.6067 7.04249C69.5591 7.06363 69.5169 7.04777 69.4799 6.99493C69.4059 6.88924 69.2896 6.74657 69.1311 6.5669C68.9726 6.38723 68.7797 6.21021 68.5525 6.03583C68.3253 5.86144 68.0716 5.71084 67.7915 5.58402C67.5168 5.45191 67.2235 5.38586 66.9117 5.38586C66.5841 5.38586 66.3436 5.47305 66.1904 5.64743C66.0372 5.82181 65.9605 6.03318 65.9605 6.28155C65.9605 6.40837 65.979 6.53255 66.016 6.65409C66.053 6.77035 66.1323 6.88396 66.2538 6.99493C66.3753 7.1059 66.5497 7.21951 66.777 7.33577C67.0095 7.44674 67.3186 7.56035 67.7044 7.67661C68.4759 7.9144 69.0598 8.23674 69.4561 8.64364C69.8524 9.05053 70.0506 9.57632 70.0506 10.221C70.0506 10.5486 69.9951 10.8525 69.8841 11.1325C69.7732 11.4073 69.6014 11.6478 69.3689 11.8539C69.1364 12.0547 68.8405 12.2132 68.4811 12.3294C68.1218 12.4457 67.6938 12.5038 67.1971 12.5038C66.7796 12.5038 66.4071 12.4721 66.0794 12.4087C65.7571 12.3506 65.4823 12.2845 65.2551 12.2105C65.0331 12.1366 64.8587 12.0679 64.7319 12.0045C64.6051 11.9358 64.5311 11.8935 64.51 11.8776C64.4994 11.8671 64.4888 11.8512 64.4783 11.8301C64.473 11.8089 64.4677 11.7852 64.4624 11.7587Z" fill="black"/>
<path d="M21.9406 31.5659V25.2247H22.7016V28.0964L25.3467 25.2247H26.307L23.9517 27.7522L26.3432 31.5659H25.4192L23.4081 28.341L22.7016 29.0929V31.5659H21.9406ZM28.8872 31.6746C28.4584 31.6746 28.0779 31.578 27.7458 31.3847C27.4136 31.1854 27.1509 30.9107 26.9576 30.5604C26.7704 30.2101 26.6768 29.7964 26.6768 29.3193C26.6768 28.8483 26.7704 28.4376 26.9576 28.0873C27.1449 27.731 27.4045 27.4562 27.7367 27.263C28.0749 27.0637 28.4644 26.964 28.9053 26.964C29.3401 26.964 29.7145 27.0637 30.0286 27.263C30.3487 27.4562 30.5933 27.7129 30.7624 28.033C30.9315 28.3531 31.016 28.6973 31.016 29.0657C31.016 29.1321 31.013 29.1985 31.0069 29.265C31.0069 29.3314 31.0069 29.4069 31.0069 29.4914H27.4287C27.4468 29.8357 27.5253 30.1225 27.6642 30.352C27.8092 30.5755 27.9873 30.7446 28.1987 30.8593C28.4161 30.9741 28.6456 31.0314 28.8872 31.0314C29.2012 31.0314 29.4639 30.959 29.6753 30.814C29.8867 30.6691 30.0407 30.4728 30.1373 30.2252H30.8892C30.7684 30.6419 30.5359 30.9892 30.1916 31.267C29.8535 31.5387 29.4186 31.6746 28.8872 31.6746ZM28.8872 27.6072C28.5248 27.6072 28.2017 27.7189 27.9179 27.9424C27.6401 28.1598 27.48 28.4799 27.4378 28.9026H30.2641C30.246 28.498 30.1071 28.1809 29.8474 27.9514C29.5877 27.722 29.2676 27.6072 28.8872 27.6072ZM34.0447 31.6746C33.6159 31.6746 33.2354 31.578 32.9033 31.3847C32.5711 31.1854 32.3084 30.9107 32.1152 30.5604C31.9279 30.2101 31.8343 29.7964 31.8343 29.3193C31.8343 28.8483 31.9279 28.4376 32.1152 28.0873C32.3024 27.731 32.5621 27.4562 32.8942 27.263C33.2324 27.0637 33.6219 26.964 34.0628 26.964C34.4976 26.964 34.8721 27.0637 35.1861 27.263C35.5062 27.4562 35.7508 27.7129 35.9199 28.033C36.089 28.3531 36.1735 28.6973 36.1735 29.0657C36.1735 29.1321 36.1705 29.1985 36.1645 29.265C36.1645 29.3314 36.1645 29.4069 36.1645 29.4914H32.5862C32.6043 29.8357 32.6828 30.1225 32.8217 30.352C32.9667 30.5755 33.1448 30.7446 33.3562 30.8593C33.5736 30.9741 33.8031 31.0314 34.0447 31.0314C34.3587 31.0314 34.6214 30.959 34.8328 30.814C35.0442 30.6691 35.1982 30.4728 35.2948 30.2252H36.0467C35.9259 30.6419 35.6934 30.9892 35.3492 31.267C35.011 31.5387 34.5761 31.6746 34.0447 31.6746ZM34.0447 27.6072C33.6823 27.6072 33.3592 27.7189 33.0754 27.9424C32.7976 28.1598 32.6376 28.4799 32.5953 28.9026H35.4216C35.4035 28.498 35.2646 28.1809 35.0049 27.9514C34.7452 27.722 34.4252 27.6072 34.0447 27.6072ZM37.1821 33.5589V27.0727H37.8706L37.943 27.8156C38.088 27.5982 38.2933 27.4019 38.559 27.2267C38.8308 27.0516 39.175 26.964 39.5917 26.964C40.0386 26.964 40.4282 27.0667 40.7603 27.272C41.0925 27.4774 41.3491 27.7582 41.5303 28.1145C41.7175 28.4708 41.8111 28.8754 41.8111 29.3284C41.8111 29.7813 41.7175 30.186 41.5303 30.5423C41.3491 30.8925 41.0895 31.1703 40.7513 31.3757C40.4191 31.575 40.0296 31.6746 39.5827 31.6746C39.2143 31.6746 38.8851 31.5991 38.5953 31.4482C38.3114 31.2972 38.094 31.0858 37.943 30.814V33.5589H37.1821ZM39.5011 31.0133C39.8031 31.0133 40.0688 30.9439 40.2983 30.805C40.5278 30.66 40.709 30.4607 40.8418 30.2071C40.9747 29.9534 41.0411 29.6575 41.0411 29.3193C41.0411 28.9811 40.9747 28.6852 40.8418 28.4316C40.709 28.1779 40.5278 27.9816 40.2983 27.8427C40.0688 27.6978 39.8031 27.6253 39.5011 27.6253C39.1992 27.6253 38.9335 27.6978 38.704 27.8427C38.4745 27.9816 38.2933 28.1779 38.1604 28.4316C38.0276 28.6852 37.9611 28.9811 37.9611 29.3193C37.9611 29.6575 38.0276 29.9534 38.1604 30.2071C38.2933 30.4607 38.4745 30.66 38.704 30.805C38.9335 30.9439 39.1992 31.0133 39.5011 31.0133ZM45.757 33.5589L46.8712 31.1311H46.6085L44.8239 27.0727H45.6483L47.1339 30.5694L48.7101 27.0727H49.4983L46.5541 33.5589H45.757ZM51.9241 31.6746C51.5014 31.6746 51.1209 31.578 50.7827 31.3847C50.4445 31.1915 50.1758 30.9197 49.9765 30.5694C49.7832 30.2131 49.6866 29.7964 49.6866 29.3193C49.6866 28.8422 49.7862 28.4285 49.9855 28.0783C50.1848 27.722 50.4536 27.4472 50.7918 27.2539C51.136 27.0607 51.5195 26.964 51.9422 26.964C52.365 26.964 52.7454 27.0607 53.0836 27.2539C53.4218 27.4472 53.6876 27.722 53.8808 28.0783C54.0801 28.4285 54.1798 28.8422 54.1798 29.3193C54.1798 29.7964 54.0801 30.2131 53.8808 30.5694C53.6815 30.9197 53.4098 31.1915 53.0655 31.3847C52.7273 31.578 52.3469 31.6746 51.9241 31.6746ZM51.9241 31.0224C52.1838 31.0224 52.4254 30.959 52.6488 30.8322C52.8723 30.7053 53.0534 30.5151 53.1924 30.2614C53.3313 30.0078 53.4007 29.6938 53.4007 29.3193C53.4007 28.9449 53.3313 28.6309 53.1924 28.3772C53.0595 28.1236 52.8813 27.9333 52.6579 27.8065C52.4344 27.6797 52.1959 27.6163 51.9422 27.6163C51.6825 27.6163 51.441 27.6797 51.2175 27.8065C50.9941 27.9333 50.8129 28.1236 50.674 28.3772C50.5351 28.6309 50.4656 28.9449 50.4656 29.3193C50.4656 29.6938 50.5351 30.0078 50.674 30.2614C50.8129 30.5151 50.9911 30.7053 51.2085 30.8322C51.4319 30.959 51.6705 31.0224 51.9241 31.0224ZM59.1693 27.0727V31.5659H58.4809L58.4356 30.7597C58.2906 31.0435 58.0823 31.267 57.8105 31.43C57.5387 31.5931 57.2307 31.6746 56.8865 31.6746C56.3551 31.6746 55.9293 31.5146 55.6092 31.1945C55.2952 30.8684 55.1382 30.3702 55.1382 29.6998V27.0727H55.8991V29.6183C55.8991 30.5543 56.2856 31.0224 57.0586 31.0224C57.4451 31.0224 57.7652 30.8835 58.0189 30.6057C58.2786 30.3218 58.4084 29.9202 58.4084 29.4009V27.0727H59.1693ZM60.4219 31.5659V27.0727H61.1103L61.1737 27.9333C61.3126 27.6374 61.524 27.4019 61.8079 27.2267C62.0917 27.0516 62.442 26.964 62.8587 26.964V27.7612H62.6503C62.3846 27.7612 62.14 27.8095 61.9166 27.9062C61.6931 27.9967 61.515 28.1538 61.3821 28.3772C61.2492 28.6007 61.1828 28.9087 61.1828 29.3012V31.5659H60.4219ZM66.3548 31.5659V27.7159H65.6753V27.0727H66.3548V26.2937C66.3548 25.8589 66.4635 25.5418 66.6809 25.3425C66.8983 25.1432 67.2153 25.0436 67.632 25.0436H68.085V25.6958H67.7498C67.5203 25.6958 67.3573 25.7441 67.2606 25.8407C67.164 25.9313 67.1157 26.0883 67.1157 26.3118V27.0727H69.9058V31.5659H69.1449V27.7159H67.1157V31.5659H66.3548ZM69.5344 26.2122C69.3895 26.2122 69.2657 26.1638 69.163 26.0672C69.0603 25.9645 69.009 25.8377 69.009 25.6867C69.009 25.5418 69.0603 25.421 69.163 25.3244C69.2657 25.2278 69.3895 25.1794 69.5344 25.1794C69.6854 25.1794 69.8092 25.2278 69.9058 25.3244C70.0085 25.421 70.0598 25.5418 70.0598 25.6867C70.0598 25.8377 70.0085 25.9645 69.9058 26.0672C69.8092 26.1638 69.6854 26.2122 69.5344 26.2122ZM71.25 31.5659V25.0436H72.0109V31.5659H71.25ZM75.2783 31.6746C74.8495 31.6746 74.469 31.578 74.1368 31.3847C73.8047 31.1854 73.542 30.9107 73.3487 30.5604C73.1615 30.2101 73.0679 29.7964 73.0679 29.3193C73.0679 28.8483 73.1615 28.4376 73.3487 28.0873C73.5359 27.731 73.7956 27.4562 74.1278 27.263C74.466 27.0637 74.8555 26.964 75.2964 26.964C75.7312 26.964 76.1056 27.0637 76.4197 27.263C76.7397 27.4562 76.9843 27.7129 77.1534 28.033C77.3225 28.3531 77.4071 28.6973 77.4071 29.0657C77.4071 29.1321 77.4041 29.1985 77.398 29.265C77.398 29.3314 77.398 29.4069 77.398 29.4914H73.8198C73.8379 29.8357 73.9164 30.1225 74.0553 30.352C74.2003 30.5755 74.3784 30.7446 74.5898 30.8593C74.8072 30.9741 75.0367 31.0314 75.2783 31.0314C75.5923 31.0314 75.855 30.959 76.0664 30.814C76.2777 30.6691 76.4317 30.4728 76.5284 30.2252H77.2803C77.1595 30.6419 76.927 30.9892 76.5827 31.267C76.2445 31.5387 75.8097 31.6746 75.2783 31.6746ZM75.2783 27.6072C74.9159 27.6072 74.5928 27.7189 74.309 27.9424C74.0312 28.1598 73.8711 28.4799 73.8288 28.9026H76.6552C76.6371 28.498 76.4982 28.1809 76.2385 27.9514C75.9788 27.722 75.6587 27.6072 75.2783 27.6072ZM80.1368 31.6746C79.5993 31.6746 79.1524 31.5387 78.7961 31.267C78.4398 30.9952 78.2315 30.6268 78.1711 30.1618H78.9501C78.9984 30.3973 79.1222 30.6027 79.3215 30.7778C79.5269 30.9469 79.8017 31.0314 80.1459 31.0314C80.466 31.0314 80.7015 30.965 80.8525 30.8322C81.0035 30.6933 81.0789 30.5302 81.0789 30.343C81.0789 30.0712 80.9793 29.89 80.78 29.7994C80.5867 29.7089 80.312 29.6273 79.9557 29.5549C79.7141 29.5065 79.4725 29.4371 79.2309 29.3465C78.9894 29.2559 78.7871 29.1291 78.624 28.966C78.4609 28.7969 78.3794 28.5765 78.3794 28.3047C78.3794 27.9122 78.5244 27.5921 78.8142 27.3445C79.1102 27.0909 79.5087 26.964 80.01 26.964C80.4871 26.964 80.8766 27.0848 81.1786 27.3264C81.4866 27.5619 81.6647 27.9001 81.7131 28.341H80.9612C80.931 28.1115 80.8313 27.9333 80.6622 27.8065C80.4992 27.6736 80.2787 27.6072 80.0009 27.6072C79.7292 27.6072 79.5178 27.6646 79.3668 27.7793C79.2219 27.8941 79.1494 28.0451 79.1494 28.2323C79.1494 28.4134 79.243 28.5554 79.4302 28.658C79.6235 28.7607 79.8832 28.8483 80.2093 28.9207C80.4871 28.9811 80.7498 29.0566 80.9974 29.1472C81.2511 29.2318 81.4564 29.3616 81.6134 29.5367C81.7765 29.7058 81.858 29.9534 81.858 30.2796C81.864 30.6842 81.71 31.0194 81.396 31.2851C81.088 31.5448 80.6683 31.6746 80.1368 31.6746ZM87.0636 31.6746C86.5262 31.6746 86.0793 31.5387 85.7229 31.267C85.3666 30.9952 85.1583 30.6268 85.0979 30.1618H85.8769C85.9253 30.3973 86.0491 30.6027 86.2483 30.7778C86.4537 30.9469 86.7285 31.0314 87.0727 31.0314C87.3928 31.0314 87.6283 30.965 87.7793 30.8322C87.9303 30.6933 88.0058 30.5302 88.0058 30.343C88.0058 30.0712 87.9061 29.89 87.7068 29.7994C87.5136 29.7089 87.2388 29.6273 86.8825 29.5549C86.6409 29.5065 86.3993 29.4371 86.1578 29.3465C85.9162 29.2559 85.7139 29.1291 85.5508 28.966C85.3878 28.7969 85.3062 28.5765 85.3062 28.3047C85.3062 27.9122 85.4512 27.5921 85.7411 27.3445C86.037 27.0909 86.4356 26.964 86.9368 26.964C87.4139 26.964 87.8034 27.0848 88.1054 27.3264C88.4134 27.5619 88.5916 27.9001 88.6399 28.341H87.888C87.8578 28.1115 87.7582 27.9333 87.5891 27.8065C87.426 27.6736 87.2056 27.6072 86.9278 27.6072C86.656 27.6072 86.4446 27.6646 86.2936 27.7793C86.1487 27.8941 86.0762 28.0451 86.0762 28.2323C86.0762 28.4134 86.1698 28.5554 86.3571 28.658C86.5503 28.7607 86.81 28.8483 87.1361 28.9207C87.4139 28.9811 87.6766 29.0566 87.9242 29.1472C88.1779 29.2318 88.3832 29.3616 88.5402 29.5367C88.7033 29.7058 88.7848 29.9534 88.7848 30.2796C88.7909 30.6842 88.6369 31.0194 88.3228 31.2851C88.0148 31.5448 87.5951 31.6746 87.0636 31.6746ZM91.3666 31.6746C90.9922 31.6746 90.6811 31.6112 90.4335 31.4844C90.1859 31.3576 90.0017 31.1885 89.8809 30.9771C89.7602 30.7657 89.6998 30.5362 89.6998 30.2886C89.6998 29.8296 89.8749 29.4763 90.2252 29.2287C90.5754 28.9811 91.0525 28.8573 91.6565 28.8573H92.8703V28.803C92.8703 28.4104 92.7677 28.1145 92.5623 27.9152C92.357 27.7099 92.0822 27.6072 91.738 27.6072C91.4421 27.6072 91.1854 27.6827 90.968 27.8337C90.7566 27.9786 90.6238 28.193 90.5694 28.4769H89.7903C89.8205 28.1507 89.9292 27.876 90.1165 27.6525C90.3097 27.4291 90.5483 27.26 90.8321 27.1452C91.116 27.0244 91.4179 26.964 91.738 26.964C92.3661 26.964 92.8371 27.1331 93.1512 27.4713C93.4712 27.8035 93.6313 28.2474 93.6313 28.803V31.5659H92.9519L92.9066 30.7597C92.7798 31.0133 92.5925 31.2307 92.3449 31.4119C92.1034 31.5871 91.7772 31.6746 91.3666 31.6746ZM91.4843 31.0314C91.7742 31.0314 92.0218 30.956 92.2272 30.805C92.4385 30.654 92.5986 30.4577 92.7073 30.2162C92.816 29.9746 92.8703 29.7209 92.8703 29.4552V29.4462H91.7199C91.273 29.4462 90.9559 29.5247 90.7687 29.6817C90.5875 29.8327 90.4969 30.0229 90.4969 30.2524C90.4969 30.4879 90.5815 30.6782 90.7506 30.8231C90.9257 30.962 91.1703 31.0314 91.4843 31.0314ZM95.0174 31.5659V27.7159H94.338V27.0727H95.0174V26.2937C95.0174 25.8589 95.1261 25.5418 95.3435 25.3425C95.561 25.1432 95.878 25.0436 96.2947 25.0436H96.7477V25.6958H96.4125C96.183 25.6958 96.0199 25.7441 95.9233 25.8407C95.8267 25.9313 95.7784 26.0883 95.7784 26.3118V27.0727H96.8835V27.7159H95.7784V31.5659H95.0174ZM99.6327 31.6746C99.2039 31.6746 98.8234 31.578 98.4913 31.3847C98.1591 31.1854 97.8964 30.9107 97.7032 30.5604C97.5159 30.2101 97.4223 29.7964 97.4223 29.3193C97.4223 28.8483 97.5159 28.4376 97.7032 28.0873C97.8904 27.731 98.1501 27.4562 98.4822 27.263C98.8204 27.0637 99.2099 26.964 99.6508 26.964C100.086 26.964 100.46 27.0637 100.774 27.263C101.094 27.4562 101.339 27.7129 101.508 28.033C101.677 28.3531 101.762 28.6973 101.762 29.0657C101.762 29.1321 101.758 29.1985 101.752 29.265C101.752 29.3314 101.752 29.4069 101.752 29.4914H98.1742C98.1923 29.8357 98.2708 30.1225 98.4097 30.352C98.5547 30.5755 98.7328 30.7446 98.9442 30.8593C99.1616 30.9741 99.3911 31.0314 99.6327 31.0314C99.9467 31.0314 100.209 30.959 100.421 30.814C100.632 30.6691 100.786 30.4728 100.883 30.2252H101.635C101.514 30.6419 101.281 30.9892 100.937 31.267C100.599 31.5387 100.164 31.6746 99.6327 31.6746ZM99.6327 27.6072C99.2703 27.6072 98.9472 27.7189 98.6634 27.9424C98.3856 28.1598 98.2255 28.4799 98.1833 28.9026H101.01C100.992 28.498 100.853 28.1809 100.593 27.9514C100.333 27.722 100.013 27.6072 99.6327 27.6072ZM102.163 32.6439L102.689 30.6419H103.477L102.689 32.6439H102.163ZM108.499 31.6746C107.961 31.6746 107.514 31.5387 107.158 31.267C106.802 30.9952 106.593 30.6268 106.533 30.1618H107.312C107.36 30.3973 107.484 30.6027 107.683 30.7778C107.889 30.9469 108.164 31.0314 108.508 31.0314C108.828 31.0314 109.063 30.965 109.214 30.8322C109.365 30.6933 109.441 30.5302 109.441 30.343C109.441 30.0712 109.341 29.89 109.142 29.7994C108.949 29.7089 108.674 29.6273 108.318 29.5549C108.076 29.5065 107.834 29.4371 107.593 29.3465C107.351 29.2559 107.149 29.1291 106.986 28.966C106.823 28.7969 106.741 28.5765 106.741 28.3047C106.741 27.9122 106.886 27.5921 107.176 27.3445C107.472 27.0909 107.871 26.964 108.372 26.964C108.849 26.964 109.239 27.0848 109.54 27.3264C109.848 27.5619 110.027 27.9001 110.075 28.341H109.323C109.293 28.1115 109.193 27.9333 109.024 27.8065C108.861 27.6736 108.641 27.6072 108.363 27.6072C108.091 27.6072 107.88 27.6646 107.729 27.7793C107.584 27.8941 107.511 28.0451 107.511 28.2323C107.511 28.4134 107.605 28.5554 107.792 28.658C107.985 28.7607 108.245 28.8483 108.571 28.9207C108.849 28.9811 109.112 29.0566 109.359 29.1472C109.613 29.2318 109.818 29.3616 109.975 29.5367C110.138 29.7058 110.22 29.9534 110.22 30.2796C110.226 30.6842 110.072 31.0194 109.758 31.2851C109.45 31.5448 109.03 31.6746 108.499 31.6746ZM113.327 31.6746C112.898 31.6746 112.518 31.578 112.186 31.3847C111.854 31.1854 111.591 30.9107 111.398 30.5604C111.21 30.2101 111.117 29.7964 111.117 29.3193C111.117 28.8483 111.21 28.4376 111.398 28.0873C111.585 27.731 111.844 27.4562 112.177 27.263C112.515 27.0637 112.904 26.964 113.345 26.964C113.78 26.964 114.154 27.0637 114.468 27.263C114.789 27.4562 115.033 27.7129 115.202 28.033C115.371 28.3531 115.456 28.6973 115.456 29.0657C115.456 29.1321 115.453 29.1985 115.447 29.265C115.447 29.3314 115.447 29.4069 115.447 29.4914H111.869C111.887 29.8357 111.965 30.1225 112.104 30.352C112.249 30.5755 112.427 30.7446 112.639 30.8593C112.856 30.9741 113.086 31.0314 113.327 31.0314C113.641 31.0314 113.904 30.959 114.115 30.814C114.327 30.6691 114.481 30.4728 114.577 30.2252H115.329C115.208 30.6419 114.976 30.9892 114.632 31.267C114.293 31.5387 113.859 31.6746 113.327 31.6746ZM113.327 27.6072C112.965 27.6072 112.642 27.7189 112.358 27.9424C112.08 28.1598 111.92 28.4799 111.878 28.9026H114.704C114.686 28.498 114.547 28.1809 114.287 27.9514C114.028 27.722 113.708 27.6072 113.327 27.6072ZM118.53 31.6746C118.101 31.6746 117.715 31.578 117.37 31.3847C117.032 31.1854 116.763 30.9107 116.564 30.5604C116.371 30.2041 116.274 29.7904 116.274 29.3193C116.274 28.8483 116.371 28.4376 116.564 28.0873C116.763 27.731 117.032 27.4562 117.37 27.263C117.715 27.0637 118.101 26.964 118.53 26.964C119.061 26.964 119.508 27.1029 119.871 27.3807C120.239 27.6585 120.471 28.03 120.568 28.495H119.789C119.729 28.2172 119.581 28.0028 119.345 27.8518C119.11 27.6948 118.835 27.6163 118.521 27.6163C118.267 27.6163 118.029 27.6797 117.805 27.8065C117.582 27.9333 117.401 28.1236 117.262 28.3772C117.123 28.6309 117.053 28.9449 117.053 29.3193C117.053 29.6938 117.123 30.0078 117.262 30.2614C117.401 30.5151 117.582 30.7083 117.805 30.8412C118.029 30.968 118.267 31.0314 118.521 31.0314C118.835 31.0314 119.11 30.956 119.345 30.805C119.581 30.648 119.729 30.4275 119.789 30.1437H120.568C120.478 30.5966 120.248 30.965 119.88 31.2489C119.511 31.5327 119.061 31.6746 118.53 31.6746ZM125.562 27.0727V31.5659H124.874L124.829 30.7597C124.684 31.0435 124.475 31.267 124.204 31.43C123.932 31.5931 123.624 31.6746 123.28 31.6746C122.748 31.6746 122.322 31.5146 122.002 31.1945C121.688 30.8684 121.531 30.3702 121.531 29.6998V27.0727H122.292V29.6183C122.292 30.5543 122.679 31.0224 123.452 31.0224C123.838 31.0224 124.158 30.8835 124.412 30.6057C124.672 30.3218 124.801 29.9202 124.801 29.4009V27.0727H125.562ZM126.815 31.5659V27.0727H127.503L127.567 27.9333C127.706 27.6374 127.917 27.4019 128.201 27.2267C128.485 27.0516 128.835 26.964 129.252 26.964V27.7612H129.043C128.778 27.7612 128.533 27.8095 128.31 27.9062C128.086 27.9967 127.908 28.1538 127.775 28.3772C127.642 28.6007 127.576 28.9087 127.576 29.3012V31.5659H126.815ZM131.958 31.6746C131.529 31.6746 131.149 31.578 130.816 31.3847C130.484 31.1854 130.222 30.9107 130.028 30.5604C129.841 30.2101 129.747 29.7964 129.747 29.3193C129.747 28.8483 129.841 28.4376 130.028 28.0873C130.216 27.731 130.475 27.4562 130.807 27.263C131.146 27.0637 131.535 26.964 131.976 26.964C132.411 26.964 132.785 27.0637 133.099 27.263C133.419 27.4562 133.664 27.7129 133.833 28.033C134.002 28.3531 134.087 28.6973 134.087 29.0657C134.087 29.1321 134.084 29.1985 134.078 29.265C134.078 29.3314 134.078 29.4069 134.078 29.4914H130.499C130.517 29.8357 130.596 30.1225 130.735 30.352C130.88 30.5755 131.058 30.7446 131.269 30.8593C131.487 30.9741 131.716 31.0314 131.958 31.0314C132.272 31.0314 132.535 30.959 132.746 30.814C132.957 30.6691 133.111 30.4728 133.208 30.2252H133.96C133.839 30.6419 133.607 30.9892 133.262 31.267C132.924 31.5387 132.489 31.6746 131.958 31.6746ZM131.958 27.6072C131.595 27.6072 131.272 27.7189 130.989 27.9424C130.711 28.1598 130.551 28.4799 130.508 28.9026H133.335C133.317 28.498 133.178 28.1809 132.918 27.9514C132.658 27.722 132.338 27.6072 131.958 27.6072ZM23.39 43.6746C23.0156 43.6746 22.7046 43.6112 22.457 43.4844C22.2094 43.3576 22.0252 43.1885 21.9044 42.9771C21.7836 42.7657 21.7232 42.5362 21.7232 42.2886C21.7232 41.8296 21.8983 41.4763 22.2486 41.2287C22.5989 40.9811 23.076 40.8573 23.6799 40.8573H24.8938V40.803C24.8938 40.4104 24.7911 40.1145 24.5858 39.9152C24.3805 39.7099 24.1057 39.6072 23.7614 39.6072C23.4655 39.6072 23.2089 39.6827 22.9914 39.8337C22.7801 39.9786 22.6472 40.193 22.5929 40.4769H21.8138C21.844 40.1507 21.9527 39.876 22.1399 39.6525C22.3332 39.4291 22.5717 39.26 22.8556 39.1452C23.1394 39.0244 23.4414 38.964 23.7614 38.964C24.3895 38.964 24.8606 39.1331 25.1746 39.4713C25.4947 39.8035 25.6547 40.2474 25.6547 40.803V43.5659H24.9753L24.93 42.7597C24.8032 43.0133 24.616 43.2307 24.3684 43.4119C24.1268 43.5871 23.8007 43.6746 23.39 43.6746ZM23.5078 43.0314C23.7977 43.0314 24.0453 42.956 24.2506 42.805C24.462 42.654 24.622 42.4577 24.7307 42.2162C24.8394 41.9746 24.8938 41.7209 24.8938 41.4552V41.4462H23.7433C23.2964 41.4462 22.9794 41.5247 22.7921 41.6817C22.611 41.8327 22.5204 42.0229 22.5204 42.2524C22.5204 42.4879 22.6049 42.6782 22.774 42.8231C22.9492 42.962 23.1938 43.0314 23.5078 43.0314ZM26.7963 43.5659V39.0727H27.4848L27.5301 39.879C27.675 39.5951 27.8833 39.3717 28.1551 39.2086C28.4269 39.0456 28.7349 38.964 29.0791 38.964C29.6106 38.964 30.0333 39.1271 30.3473 39.4532C30.6674 39.7733 30.8275 40.2685 30.8275 40.9389V43.5659H30.0665V41.0204C30.0665 40.0843 29.68 39.6163 28.907 39.6163C28.5205 39.6163 28.1974 39.7582 27.9377 40.042C27.6841 40.3198 27.5572 40.7184 27.5572 41.2378V43.5659H26.7963ZM34.0186 43.6746C33.5717 43.6746 33.1791 43.572 32.8409 43.3666C32.5088 43.1613 32.2491 42.8805 32.0619 42.5242C31.8807 42.1678 31.7901 41.7632 31.7901 41.3103C31.7901 40.8573 31.8837 40.4557 32.0709 40.1054C32.2581 39.7491 32.5178 39.4713 32.85 39.272C33.1821 39.0667 33.5747 38.964 34.0276 38.964C34.396 38.964 34.7221 39.0395 35.006 39.1905C35.2898 39.3415 35.5103 39.5529 35.6673 39.8246V37.0436H36.4282V43.5659H35.7398L35.6673 42.8231C35.5223 43.0405 35.314 43.2368 35.0422 43.4119C34.7705 43.5871 34.4292 43.6746 34.0186 43.6746ZM34.1001 43.0133C34.4021 43.0133 34.6678 42.9439 34.8973 42.805C35.1328 42.66 35.314 42.4607 35.4408 42.2071C35.5737 41.9534 35.6401 41.6575 35.6401 41.3193C35.6401 40.9811 35.5737 40.6852 35.4408 40.4316C35.314 40.1779 35.1328 39.9816 34.8973 39.8427C34.6678 39.6978 34.4021 39.6253 34.1001 39.6253C33.8042 39.6253 33.5385 39.6978 33.3029 39.8427C33.0734 39.9816 32.8923 40.1779 32.7594 40.4316C32.6326 40.6852 32.5692 40.9811 32.5692 41.3193C32.5692 41.6575 32.6326 41.9534 32.7594 42.2071C32.8923 42.4607 33.0734 42.66 33.3029 42.805C33.5385 42.9439 33.8042 43.0133 34.1001 43.0133ZM40.528 38.0763C40.3771 38.0763 40.2502 38.028 40.1476 37.9313C40.0509 37.8287 40.0026 37.7018 40.0026 37.5509C40.0026 37.4059 40.0509 37.2851 40.1476 37.1885C40.2502 37.0919 40.3771 37.0436 40.528 37.0436C40.673 37.0436 40.7968 37.0919 40.8995 37.1885C41.0021 37.2851 41.0535 37.4059 41.0535 37.5509C41.0535 37.7018 41.0021 37.8287 40.8995 37.9313C40.7968 38.028 40.673 38.0763 40.528 38.0763ZM40.1476 43.5659V39.0727H40.9085V43.5659H40.1476ZM42.2334 43.5659V39.0727H42.9219L42.9672 39.879C43.1121 39.5951 43.3205 39.3717 43.5923 39.2086C43.864 39.0456 44.172 38.964 44.5163 38.964C45.0477 38.964 45.4705 39.1271 45.7845 39.4532C46.1046 39.7733 46.2646 40.2685 46.2646 40.9389V43.5659H45.5037V41.0204C45.5037 40.0843 45.1172 39.6163 44.3441 39.6163C43.9576 39.6163 43.6345 39.7582 43.3749 40.042C43.1212 40.3198 42.9944 40.7184 42.9944 41.2378V43.5659H42.2334ZM51.5904 43.5659C51.1798 43.5659 50.8567 43.4663 50.6211 43.267C50.3856 43.0677 50.2678 42.7083 50.2678 42.189V39.7159H49.4888V39.0727H50.2678L50.3675 37.9947H51.0288V39.0727H52.3514V39.7159H51.0288V42.189C51.0288 42.4728 51.0862 42.6661 51.2009 42.7687C51.3156 42.8654 51.518 42.9137 51.8078 42.9137H52.2789V43.5659H51.5904ZM53.3181 43.5659V37.0436H54.0791V39.8427C54.23 39.5649 54.4444 39.3505 54.7222 39.1996C55 39.0425 55.302 38.964 55.6281 38.964C56.1475 38.964 56.5642 39.1271 56.8782 39.4532C57.1923 39.7733 57.3493 40.2685 57.3493 40.9389V43.5659H56.5974V41.0204C56.5974 40.0843 56.22 39.6163 55.4651 39.6163C55.0725 39.6163 54.7434 39.7582 54.4776 40.042C54.2119 40.3198 54.0791 40.7184 54.0791 41.2378V43.5659H53.3181ZM60.5223 43.6746C60.0935 43.6746 59.713 43.578 59.3809 43.3847C59.0487 43.1854 58.786 42.9107 58.5928 42.5604C58.4055 42.2101 58.3119 41.7964 58.3119 41.3193C58.3119 40.8483 58.4055 40.4376 58.5928 40.0873C58.78 39.731 59.0397 39.4562 59.3718 39.263C59.71 39.0637 60.0995 38.964 60.5404 38.964C60.9752 38.964 61.3497 39.0637 61.6637 39.263C61.9838 39.4562 62.2284 39.7129 62.3975 40.033C62.5666 40.3531 62.6511 40.6973 62.6511 41.0657C62.6511 41.1321 62.6481 41.1985 62.6421 41.265C62.6421 41.3314 62.6421 41.4069 62.6421 41.4914H59.0638C59.0819 41.8357 59.1604 42.1225 59.2993 42.352C59.4443 42.5755 59.6224 42.7446 59.8338 42.8593C60.0512 42.9741 60.2807 43.0314 60.5223 43.0314C60.8363 43.0314 61.099 42.959 61.3104 42.814C61.5218 42.6691 61.6758 42.4728 61.7724 42.2252H62.5243C62.4035 42.6419 62.171 42.9892 61.8268 43.267C61.4886 43.5387 61.0537 43.6746 60.5223 43.6746ZM60.5223 39.6072C60.1599 39.6072 59.8368 39.7189 59.553 39.9424C59.2752 40.1598 59.1151 40.4799 59.0729 40.9026H61.8992C61.8811 40.498 61.7422 40.1809 61.4825 39.9514C61.2228 39.722 60.9028 39.6072 60.5223 39.6072ZM68.1225 43.6746C67.6937 43.6746 67.3072 43.578 66.963 43.3847C66.6248 43.1854 66.356 42.9107 66.1567 42.5604C65.9635 42.2041 65.8668 41.7904 65.8668 41.3193C65.8668 40.8483 65.9635 40.4376 66.1567 40.0873C66.356 39.731 66.6248 39.4562 66.963 39.263C67.3072 39.0637 67.6937 38.964 68.1225 38.964C68.6539 38.964 69.1008 39.1029 69.4632 39.3807C69.8316 39.6585 70.0641 40.03 70.1607 40.495H69.3817C69.3213 40.2172 69.1733 40.0028 68.9378 39.8518C68.7023 39.6948 68.4275 39.6163 68.1134 39.6163C67.8598 39.6163 67.6212 39.6797 67.3978 39.8065C67.1743 39.9333 66.9932 40.1236 66.8543 40.3772C66.7154 40.6309 66.6459 40.9449 66.6459 41.3193C66.6459 41.6938 66.7154 42.0078 66.8543 42.2614C66.9932 42.5151 67.1743 42.7083 67.3978 42.8412C67.6212 42.968 67.8598 43.0314 68.1134 43.0314C68.4275 43.0314 68.7023 42.956 68.9378 42.805C69.1733 42.648 69.3213 42.4275 69.3817 42.1437H70.1607C70.0701 42.5966 69.8407 42.965 69.4723 43.2489C69.1039 43.5327 68.6539 43.6746 68.1225 43.6746ZM71.2234 43.5659V37.0436H71.9844V43.5659H71.2234ZM75.2789 43.6746C74.8561 43.6746 74.4757 43.578 74.1375 43.3847C73.7993 43.1915 73.5305 42.9197 73.3312 42.5694C73.138 42.2131 73.0414 41.7964 73.0414 41.3193C73.0414 40.8422 73.141 40.4285 73.3403 40.0783C73.5396 39.722 73.8083 39.4472 74.1465 39.2539C74.4908 39.0607 74.8743 38.964 75.297 38.964C75.7198 38.964 76.1002 39.0607 76.4384 39.2539C76.7766 39.4472 77.0423 39.722 77.2356 40.0783C77.4349 40.4285 77.5345 40.8422 77.5345 41.3193C77.5345 41.7964 77.4349 42.2131 77.2356 42.5694C77.0363 42.9197 76.7645 43.1915 76.4203 43.3847C76.0821 43.578 75.7016 43.6746 75.2789 43.6746ZM75.2789 43.0224C75.5386 43.0224 75.7801 42.959 76.0036 42.8322C76.2271 42.7053 76.4082 42.5151 76.5471 42.2614C76.686 42.0078 76.7555 41.6938 76.7555 41.3193C76.7555 40.9449 76.686 40.6309 76.5471 40.3772C76.4143 40.1236 76.2361 39.9333 76.0127 39.8065C75.7892 39.6797 75.5507 39.6163 75.297 39.6163C75.0373 39.6163 74.7958 39.6797 74.5723 39.8065C74.3489 39.9333 74.1677 40.1236 74.0288 40.3772C73.8899 40.6309 73.8204 40.9449 73.8204 41.3193C73.8204 41.6938 73.8899 42.0078 74.0288 42.2614C74.1677 42.5151 74.3458 42.7053 74.5632 42.8322C74.7867 42.959 75.0252 43.0224 75.2789 43.0224ZM82.5241 39.0727V43.5659H81.8356L81.7903 42.7597C81.6454 43.0435 81.4371 43.267 81.1653 43.43C80.8935 43.5931 80.5855 43.6746 80.2413 43.6746C79.7098 43.6746 79.2841 43.5146 78.964 43.1945C78.65 42.8684 78.4929 42.3702 78.4929 41.6998V39.0727H79.2539V41.6183C79.2539 42.5543 79.6404 43.0224 80.4134 43.0224C80.7999 43.0224 81.12 42.8835 81.3736 42.6057C81.6333 42.3218 81.7632 41.9202 81.7632 41.4009V39.0727H82.5241ZM85.8149 43.6746C85.368 43.6746 84.9754 43.572 84.6372 43.3666C84.3051 43.1613 84.0454 42.8805 83.8582 42.5242C83.677 42.1678 83.5864 41.7632 83.5864 41.3103C83.5864 40.8573 83.68 40.4557 83.8672 40.1054C84.0544 39.7491 84.3141 39.4713 84.6463 39.272C84.9784 39.0667 85.371 38.964 85.8239 38.964C86.1923 38.964 86.5184 39.0395 86.8023 39.1905C87.0861 39.3415 87.3066 39.5529 87.4636 39.8246V37.0436H88.2245V43.5659H87.536L87.4636 42.8231C87.3186 43.0405 87.1103 43.2368 86.8385 43.4119C86.5668 43.5871 86.2255 43.6746 85.8149 43.6746ZM85.8964 43.0133C86.1984 43.0133 86.4641 42.9439 86.6936 42.805C86.9291 42.66 87.1103 42.4607 87.2371 42.2071C87.37 41.9534 87.4364 41.6575 87.4364 41.3193C87.4364 40.9811 87.37 40.6852 87.2371 40.4316C87.1103 40.1779 86.9291 39.9816 86.6936 39.8427C86.4641 39.6978 86.1984 39.6253 85.8964 39.6253C85.6005 39.6253 85.3348 39.6978 85.0992 39.8427C84.8697 39.9816 84.6886 40.1779 84.5557 40.4316C84.4289 40.6852 84.3655 40.9811 84.3655 41.3193C84.3655 41.6575 84.4289 41.9534 84.5557 42.2071C84.6886 42.4607 84.8697 42.66 85.0992 42.805C85.3348 42.9439 85.6005 43.0133 85.8964 43.0133Z" fill="black"/>
<path d="M21.542 59.4043L23.8792 53.0631H24.6854L27.0136 59.4043H26.2073L25.6276 57.7737H22.928L22.3392 59.4043H21.542ZM23.1545 57.1577H25.4011L24.2778 54.0234L23.1545 57.1577ZM27.9109 59.4043V54.9111H28.5994L28.6538 55.5634C28.7987 55.3218 28.992 55.1346 29.2335 55.0017C29.4751 54.8688 29.7469 54.8024 30.0488 54.8024C30.4051 54.8024 30.7101 54.8749 30.9638 55.0198C31.2235 55.1648 31.4228 55.3852 31.5617 55.6811C31.7187 55.4094 31.9331 55.195 32.2048 55.0379C32.4826 54.8809 32.7816 54.8024 33.1017 54.8024C33.6391 54.8024 34.0679 54.9655 34.388 55.2916C34.7081 55.6117 34.8681 56.1069 34.8681 56.7772V59.4043H34.1162V56.8588C34.1162 56.3937 34.0226 56.0435 33.8354 55.8079C33.6482 55.5724 33.3795 55.4547 33.0292 55.4547C32.6668 55.4547 32.3649 55.5966 32.1233 55.8804C31.8878 56.1582 31.77 56.5568 31.77 57.0762V59.4043H31.0091V56.8588C31.0091 56.3937 30.9155 56.0435 30.7282 55.8079C30.541 55.5724 30.2723 55.4547 29.922 55.4547C29.5657 55.4547 29.2668 55.5966 29.0252 55.8804C28.7897 56.1582 28.6719 56.5568 28.6719 57.0762V59.4043H27.9109ZM36.0143 61.3972V54.9111H36.7028L36.7753 55.6539C36.9202 55.4365 37.1256 55.2403 37.3913 55.0651C37.6631 54.89 38.0073 54.8024 38.424 54.8024C38.8709 54.8024 39.2604 54.9051 39.5926 55.1104C39.9247 55.3157 40.1814 55.5966 40.3626 55.9529C40.5498 56.3092 40.6434 56.7138 40.6434 57.1668C40.6434 57.6197 40.5498 58.0243 40.3626 58.3806C40.1814 58.7309 39.9217 59.0087 39.5835 59.2141C39.2514 59.4134 38.8618 59.513 38.4149 59.513C38.0465 59.513 37.7174 59.4375 37.4275 59.2865C37.1437 59.1356 36.9263 58.9242 36.7753 58.6524V61.3972H36.0143ZM38.3334 58.8517C38.6354 58.8517 38.9011 58.7823 39.1306 58.6434C39.3601 58.4984 39.5412 58.2991 39.6741 58.0455C39.807 57.7918 39.8734 57.4959 39.8734 57.1577C39.8734 56.8195 39.807 56.5236 39.6741 56.2699C39.5412 56.0163 39.3601 55.82 39.1306 55.6811C38.9011 55.5362 38.6354 55.4637 38.3334 55.4637C38.0314 55.4637 37.7657 55.5362 37.5362 55.6811C37.3067 55.82 37.1256 56.0163 36.9927 56.2699C36.8598 56.5236 36.7934 56.8195 36.7934 57.1577C36.7934 57.4959 36.8598 57.7918 36.9927 58.0455C37.1256 58.2991 37.3067 58.4984 37.5362 58.6434C37.7657 58.7823 38.0314 58.8517 38.3334 58.8517ZM41.7026 59.4043V52.8819H42.4636V59.4043H41.7026ZM45.7309 59.513C45.3021 59.513 44.9217 59.4164 44.5895 59.2231C44.2574 59.0238 43.9947 58.749 43.8014 58.3988C43.6142 58.0485 43.5206 57.6348 43.5206 57.1577C43.5206 56.6867 43.6142 56.276 43.8014 55.9257C43.9886 55.5694 44.2483 55.2946 44.5805 55.1014C44.9187 54.9021 45.3082 54.8024 45.749 54.8024C46.1839 54.8024 46.5583 54.9021 46.8723 55.1014C47.1924 55.2946 47.437 55.5513 47.6061 55.8714C47.7752 56.1914 47.8597 56.5357 47.8597 56.9041C47.8597 56.9705 47.8567 57.0369 47.8507 57.1034C47.8507 57.1698 47.8507 57.2453 47.8507 57.3298H44.2725C44.2906 57.6741 44.3691 57.9609 44.508 58.1904C44.6529 58.4139 44.8311 58.583 45.0425 58.6977C45.2599 58.8125 45.4894 58.8698 45.7309 58.8698C46.045 58.8698 46.3077 58.7974 46.519 58.6524C46.7304 58.5075 46.8844 58.3112 46.981 58.0636H47.7329C47.6121 58.4803 47.3796 58.8276 47.0354 59.1054C46.6972 59.3771 46.2624 59.513 45.7309 59.513ZM45.7309 55.4456C45.3686 55.4456 45.0455 55.5573 44.7616 55.7808C44.4838 55.9982 44.3238 56.3183 44.2815 56.741H47.1079C47.0897 56.3364 46.9508 56.0193 46.6912 55.7898C46.4315 55.5603 46.1114 55.4456 45.7309 55.4456ZM52.9869 59.513C52.4494 59.513 52.0025 59.3771 51.6462 59.1054C51.2899 58.8336 51.0815 58.4652 51.0211 58.0002H51.8002C51.8485 58.2357 51.9723 58.441 52.1716 58.6162C52.3769 58.7853 52.6517 58.8698 52.996 58.8698C53.316 58.8698 53.5516 58.8034 53.7025 58.6705C53.8535 58.5316 53.929 58.3686 53.929 58.1814C53.929 57.9096 53.8294 57.7284 53.6301 57.6378C53.4368 57.5472 53.162 57.4657 52.8057 57.3932C52.5642 57.3449 52.3226 57.2755 52.081 57.1849C51.8394 57.0943 51.6371 56.9675 51.4741 56.8044C51.311 56.6353 51.2295 56.4149 51.2295 56.1431C51.2295 55.7506 51.3744 55.4305 51.6643 55.1829C51.9602 54.9292 52.3588 54.8024 52.8601 54.8024C53.3372 54.8024 53.7267 54.9232 54.0287 55.1648C54.3367 55.4003 54.5148 55.7385 54.5631 56.1794H53.8113C53.7811 55.9499 53.6814 55.7717 53.5123 55.6449C53.3493 55.512 53.1288 55.4456 52.851 55.4456C52.5793 55.4456 52.3679 55.503 52.2169 55.6177C52.072 55.7325 51.9995 55.8834 51.9995 56.0706C51.9995 56.2518 52.0931 56.3937 52.2803 56.4964C52.4736 56.5991 52.7333 56.6866 53.0594 56.7591C53.3372 56.8195 53.5999 56.895 53.8475 56.9856C54.1011 57.0701 54.3065 57.2 54.4635 57.3751C54.6265 57.5442 54.7081 57.7918 54.7081 58.1179C54.7141 58.5226 54.5601 58.8577 54.2461 59.1235C53.9381 59.3832 53.5184 59.513 52.9869 59.513ZM57.3672 59.4043C56.9565 59.4043 56.6334 59.3046 56.3979 59.1054C56.1624 58.9061 56.0446 58.5467 56.0446 58.0274V55.5543H55.2655V54.9111H56.0446L56.1443 53.8331H56.8055V54.9111H58.1281V55.5543H56.8055V58.0274C56.8055 58.3112 56.8629 58.5045 56.9777 58.6071C57.0924 58.7037 57.2947 58.7521 57.5846 58.7521H58.0557V59.4043H57.3672ZM61.0183 59.513C60.5956 59.513 60.2151 59.4164 59.8769 59.2231C59.5387 59.0299 59.27 58.7581 59.0707 58.4078C58.8774 58.0515 58.7808 57.6348 58.7808 57.1577C58.7808 56.6806 58.8804 56.2669 59.0797 55.9166C59.279 55.5603 59.5478 55.2856 59.886 55.0923C60.2302 54.899 60.6137 54.8024 61.0364 54.8024C61.4592 54.8024 61.8397 54.899 62.1779 55.0923C62.5161 55.2856 62.7818 55.5603 62.975 55.9166C63.1743 56.2669 63.274 56.6806 63.274 57.1577C63.274 57.6348 63.1743 58.0515 62.975 58.4078C62.7757 58.7581 62.504 59.0299 62.1597 59.2231C61.8215 59.4164 61.4411 59.513 61.0183 59.513ZM61.0183 58.8608C61.278 58.8608 61.5196 58.7974 61.743 58.6705C61.9665 58.5437 62.1477 58.3535 62.2866 58.0998C62.4255 57.8462 62.4949 57.5321 62.4949 57.1577C62.4949 56.7833 62.4255 56.4692 62.2866 56.2156C62.1537 55.9619 61.9755 55.7717 61.7521 55.6449C61.5286 55.5181 61.2901 55.4547 61.0364 55.4547C60.7768 55.4547 60.5352 55.5181 60.3117 55.6449C60.0883 55.7717 59.9071 55.9619 59.7682 56.2156C59.6293 56.4692 59.5599 56.7833 59.5599 57.1577C59.5599 57.5321 59.6293 57.8462 59.7682 58.0998C59.9071 58.3535 60.0853 58.5437 60.3027 58.6705C60.5261 58.7974 60.7647 58.8608 61.0183 58.8608ZM64.332 59.4043V54.9111H65.0205L65.0839 55.7717C65.2228 55.4758 65.4342 55.2403 65.718 55.0651C66.0019 54.89 66.3521 54.8024 66.7688 54.8024V55.5996H66.5605C66.2948 55.5996 66.0502 55.6479 65.8267 55.7445C65.6033 55.8351 65.4251 55.9921 65.2922 56.2156C65.1594 56.439 65.093 56.747 65.093 57.1396V59.4043H64.332ZM69.1176 59.513C68.7432 59.513 68.4322 59.4496 68.1846 59.3228C67.937 59.1959 67.7528 59.0268 67.632 58.8155C67.5112 58.6041 67.4508 58.3746 67.4508 58.127C67.4508 57.668 67.6259 57.3147 67.9762 57.0671C68.3265 56.8195 68.8036 56.6957 69.4075 56.6957H70.6214V56.6414C70.6214 56.2488 70.5187 55.9529 70.3134 55.7536C70.1081 55.5483 69.8333 55.4456 69.489 55.4456C69.1931 55.4456 68.9364 55.5211 68.719 55.6721C68.5077 55.817 68.3748 56.0314 68.3204 56.3152H67.5414C67.5716 55.9891 67.6803 55.7143 67.8675 55.4909C68.0608 55.2674 68.2993 55.0983 68.5832 54.9836C68.867 54.8628 69.169 54.8024 69.489 54.8024C70.1171 54.8024 70.5882 54.9715 70.9022 55.3097C71.2223 55.6419 71.3823 56.0857 71.3823 56.6414V59.4043H70.7029L70.6576 58.5981C70.5308 58.8517 70.3436 59.0691 70.096 59.2503C69.8544 59.4254 69.5283 59.513 69.1176 59.513ZM69.2354 58.8698C69.5253 58.8698 69.7729 58.7943 69.9782 58.6434C70.1896 58.4924 70.3496 58.2961 70.4583 58.0545C70.567 57.813 70.6214 57.5593 70.6214 57.2936V57.2845H69.4709C69.024 57.2845 68.707 57.363 68.5197 57.5201C68.3386 57.671 68.248 57.8613 68.248 58.0908C68.248 58.3263 68.3325 58.5165 68.5016 58.6615C68.6768 58.8004 68.9213 58.8698 69.2354 58.8698ZM74.2994 57.9911C74.0458 57.9911 73.8133 57.9579 73.6019 57.8915L73.1489 58.3172C73.2154 58.3656 73.2969 58.4078 73.3935 58.4441C73.4962 58.4743 73.6411 58.5045 73.8283 58.5346C74.0156 58.5588 74.2783 58.586 74.6165 58.6162C75.2204 58.6585 75.6522 58.7974 75.9119 59.0329C76.1716 59.2684 76.3014 59.5764 76.3014 59.9569C76.3014 60.2166 76.2289 60.4642 76.084 60.6997C75.9451 60.9352 75.7277 61.1285 75.4318 61.2795C75.1419 61.4305 74.7674 61.5059 74.3085 61.5059C73.9038 61.5059 73.5445 61.4516 73.2305 61.3429C72.9164 61.2402 72.6718 61.0802 72.4967 60.8628C72.3216 60.6514 72.234 60.3826 72.234 60.0565C72.234 59.8874 72.2793 59.7032 72.3699 59.5039C72.4605 59.3107 72.6296 59.1265 72.8772 58.9514C72.7443 58.897 72.6296 58.8396 72.5329 58.7792C72.4423 58.7128 72.3578 58.6403 72.2793 58.5618V58.3535L73.0493 57.5925C72.693 57.2906 72.5148 56.892 72.5148 56.3968C72.5148 56.1008 72.5843 55.8321 72.7232 55.5905C72.8621 55.349 73.0644 55.1587 73.3301 55.0198C73.5958 54.8749 73.9189 54.8024 74.2994 54.8024C74.5591 54.8024 74.7946 54.8387 75.006 54.9111H76.6638V55.4818L75.8213 55.5181C75.9964 55.7717 76.084 56.0646 76.084 56.3968C76.084 56.6927 76.0115 56.9614 75.8666 57.203C75.7277 57.4446 75.5254 57.6378 75.2596 57.7828C75 57.9217 74.6799 57.9911 74.2994 57.9911ZM74.2994 57.3661C74.6195 57.3661 74.8731 57.2845 75.0603 57.1215C75.2536 56.9524 75.3502 56.7108 75.3502 56.3968C75.3502 56.0888 75.2536 55.8532 75.0603 55.6902C74.8731 55.5211 74.6195 55.4365 74.2994 55.4365C73.9733 55.4365 73.7136 55.5211 73.5203 55.6902C73.3331 55.8532 73.2395 56.0888 73.2395 56.3968C73.2395 56.7108 73.3331 56.9524 73.5203 57.1215C73.7136 57.2845 73.9733 57.3661 74.2994 57.3661ZM72.9768 59.9841C72.9768 60.286 73.1036 60.5095 73.3573 60.6544C73.6109 60.8054 73.928 60.8809 74.3085 60.8809C74.6829 60.8809 74.9818 60.7994 75.2053 60.6363C75.4348 60.4732 75.5495 60.2558 75.5495 59.9841C75.5495 59.7908 75.471 59.6217 75.314 59.4768C75.157 59.3379 74.8671 59.2563 74.4443 59.2322C74.1122 59.208 73.8253 59.1778 73.5838 59.1416C73.3362 59.2745 73.1731 59.4164 73.0946 59.5674C73.0161 59.7244 72.9768 59.8633 72.9768 59.9841ZM79.3653 59.513C78.9366 59.513 78.5561 59.4164 78.2239 59.2231C77.8918 59.0238 77.6291 58.749 77.4358 58.3988C77.2486 58.0485 77.155 57.6348 77.155 57.1577C77.155 56.6867 77.2486 56.276 77.4358 55.9257C77.623 55.5694 77.8827 55.2946 78.2149 55.1014C78.5531 54.9021 78.9426 54.8024 79.3835 54.8024C79.8183 54.8024 80.1927 54.9021 80.5068 55.1014C80.8268 55.2946 81.0714 55.5513 81.2405 55.8714C81.4096 56.1914 81.4942 56.5357 81.4942 56.9041C81.4942 56.9705 81.4911 57.0369 81.4851 57.1034C81.4851 57.1698 81.4851 57.2453 81.4851 57.3298H77.9069C77.925 57.6741 78.0035 57.9609 78.1424 58.1904C78.2873 58.4139 78.4655 58.583 78.6769 58.6977C78.8943 58.8125 79.1238 58.8698 79.3653 58.8698C79.6794 58.8698 79.9421 58.7974 80.1535 58.6524C80.3648 58.5075 80.5188 58.3112 80.6155 58.0636H81.3673C81.2466 58.4803 81.014 58.8276 80.6698 59.1054C80.3316 59.3771 79.8968 59.513 79.3653 59.513ZM79.3653 55.4456C79.003 55.4456 78.6799 55.5573 78.396 55.7808C78.1182 55.9982 77.9582 56.3183 77.9159 56.741H80.7423C80.7242 56.3364 80.5853 56.0193 80.3256 55.7898C80.0659 55.5603 79.7458 55.4456 79.3653 55.4456ZM82.4121 57.0943V56.4511H89.007V57.0943H82.4121ZM92.1839 59.513C91.7551 59.513 91.3747 59.4164 91.0425 59.2231C90.7104 59.0238 90.4477 58.749 90.2544 58.3988C90.0672 58.0485 89.9736 57.6348 89.9736 57.1577C89.9736 56.6867 90.0672 56.276 90.2544 55.9257C90.4416 55.5694 90.7013 55.2946 91.0335 55.1014C91.3717 54.9021 91.7612 54.8024 92.2021 54.8024C92.6369 54.8024 93.0113 54.9021 93.3253 55.1014C93.6454 55.2946 93.89 55.5513 94.0591 55.8714C94.2282 56.1914 94.3128 56.5357 94.3128 56.9041C94.3128 56.9705 94.3097 57.0369 94.3037 57.1034C94.3037 57.1698 94.3037 57.2453 94.3037 57.3298H90.7255C90.7436 57.6741 90.8221 57.9609 90.961 58.1904C91.1059 58.4139 91.2841 58.583 91.4955 58.6977C91.7129 58.8125 91.9424 58.8698 92.1839 58.8698C92.498 58.8698 92.7607 58.7974 92.9721 58.6524C93.1834 58.5075 93.3374 58.3112 93.4341 58.0636H94.1859C94.0651 58.4803 93.8326 58.8276 93.4884 59.1054C93.1502 59.3771 92.7154 59.513 92.1839 59.513ZM92.1839 55.4456C91.8216 55.4456 91.4985 55.5573 91.2146 55.7808C90.9368 55.9982 90.7768 56.3183 90.7345 56.741H93.5609C93.5428 56.3364 93.4039 56.0193 93.1442 55.7898C92.8845 55.5603 92.5644 55.4456 92.1839 55.4456ZM96.4398 59.4043L94.7368 54.9111H95.5339L96.8837 58.6705L98.2425 54.9111H99.0216L97.3185 59.4043H96.4398ZM101.659 59.513C101.23 59.513 100.849 59.4164 100.517 59.2231C100.185 59.0238 99.9223 58.749 99.729 58.3988C99.5418 58.0485 99.4482 57.6348 99.4482 57.1577C99.4482 56.6867 99.5418 56.276 99.729 55.9257C99.9162 55.5694 100.176 55.2946 100.508 55.1014C100.846 54.9021 101.236 54.8024 101.677 54.8024C102.111 54.8024 102.486 54.9021 102.8 55.1014C103.12 55.2946 103.365 55.5513 103.534 55.8714C103.703 56.1914 103.787 56.5357 103.787 56.9041C103.787 56.9705 103.784 57.0369 103.778 57.1034C103.778 57.1698 103.778 57.2453 103.778 57.3298H100.2C100.218 57.6741 100.297 57.9609 100.436 58.1904C100.581 58.4139 100.759 58.583 100.97 58.6977C101.187 58.8125 101.417 58.8698 101.659 58.8698C101.973 58.8698 102.235 58.7974 102.447 58.6524C102.658 58.5075 102.812 58.3112 102.909 58.0636H103.661C103.54 58.4803 103.307 58.8276 102.963 59.1054C102.625 59.3771 102.19 59.513 101.659 59.513ZM101.659 55.4456C101.296 55.4456 100.973 55.5573 100.689 55.7808C100.411 55.9982 100.251 56.3183 100.209 56.741H103.035C103.017 56.3364 102.878 56.0193 102.619 55.7898C102.359 55.5603 102.039 55.4456 101.659 55.4456ZM104.796 59.4043V54.9111H105.484L105.53 55.7174C105.675 55.4335 105.883 55.2101 106.155 55.047C106.427 54.8839 106.735 54.8024 107.079 54.8024C107.61 54.8024 108.033 54.9655 108.347 55.2916C108.667 55.6117 108.827 56.1069 108.827 56.7772V59.4043H108.066V56.8588C108.066 55.9227 107.68 55.4547 106.907 55.4547C106.52 55.4547 106.197 55.5966 105.937 55.8804C105.684 56.1582 105.557 56.5568 105.557 57.0762V59.4043H104.796ZM112.622 59.4043V55.5543H111.943V54.9111H112.622V54.1321C112.622 53.6972 112.731 53.3802 112.948 53.1809C113.166 52.9816 113.483 52.8819 113.899 52.8819H114.352V53.5342H114.017C113.788 53.5342 113.624 53.5825 113.528 53.6791C113.431 53.7697 113.383 53.9267 113.383 54.1502V54.9111H114.488V55.5543H113.383V59.4043H112.622ZM117.264 59.513C116.842 59.513 116.461 59.4164 116.123 59.2231C115.785 59.0299 115.516 58.7581 115.317 58.4078C115.124 58.0515 115.027 57.6348 115.027 57.1577C115.027 56.6806 115.127 56.2669 115.326 55.9166C115.525 55.5603 115.794 55.2856 116.132 55.0923C116.476 54.899 116.86 54.8024 117.283 54.8024C117.705 54.8024 118.086 54.899 118.424 55.0923C118.762 55.2856 119.028 55.5603 119.221 55.9166C119.42 56.2669 119.52 56.6806 119.52 57.1577C119.52 57.6348 119.42 58.0515 119.221 58.4078C119.022 58.7581 118.75 59.0299 118.406 59.2231C118.068 59.4164 117.687 59.513 117.264 59.513ZM117.264 58.8608C117.524 58.8608 117.766 58.7974 117.989 58.6705C118.213 58.5437 118.394 58.3535 118.533 58.0998C118.672 57.8462 118.741 57.5321 118.741 57.1577C118.741 56.7833 118.672 56.4692 118.533 56.2156C118.4 55.9619 118.222 55.7717 117.998 55.6449C117.775 55.5181 117.536 55.4547 117.283 55.4547C117.023 55.4547 116.781 55.5181 116.558 55.6449C116.334 55.7717 116.153 55.9619 116.014 56.2156C115.875 56.4692 115.806 56.7833 115.806 57.1577C115.806 57.5321 115.875 57.8462 116.014 58.0998C116.153 58.3535 116.331 58.5437 116.549 58.6705C116.772 58.7974 117.011 58.8608 117.264 58.8608ZM120.578 59.4043V54.9111H121.267L121.33 55.7717C121.469 55.4758 121.68 55.2403 121.964 55.0651C122.248 54.89 122.598 54.8024 123.015 54.8024V55.5996H122.807C122.541 55.5996 122.296 55.6479 122.073 55.7445C121.849 55.8351 121.671 55.9921 121.538 56.2156C121.405 56.439 121.339 56.747 121.339 57.1396V59.4043H120.578ZM128.314 59.513C127.891 59.513 127.51 59.4164 127.172 59.2231C126.834 59.0299 126.565 58.7581 126.366 58.4078C126.173 58.0515 126.076 57.6348 126.076 57.1577C126.076 56.6806 126.176 56.2669 126.375 55.9166C126.574 55.5603 126.843 55.2856 127.181 55.0923C127.526 54.899 127.909 54.8024 128.332 54.8024C128.755 54.8024 129.135 54.899 129.473 55.0923C129.811 55.2856 130.077 55.5603 130.27 55.9166C130.47 56.2669 130.569 56.6806 130.569 57.1577C130.569 57.6348 130.47 58.0515 130.27 58.4078C130.071 58.7581 129.799 59.0299 129.455 59.2231C129.117 59.4164 128.736 59.513 128.314 59.513ZM128.314 58.8608C128.573 58.8608 128.815 58.7974 129.038 58.6705C129.262 58.5437 129.443 58.3535 129.582 58.0998C129.721 57.8462 129.79 57.5321 129.79 57.1577C129.79 56.7833 129.721 56.4692 129.582 56.2156C129.449 55.9619 129.271 55.7717 129.047 55.6449C128.824 55.5181 128.585 55.4547 128.332 55.4547C128.072 55.4547 127.831 55.5181 127.607 55.6449C127.384 55.7717 127.202 55.9619 127.064 56.2156C126.925 56.4692 126.855 56.7833 126.855 57.1577C126.855 57.5321 126.925 57.8462 127.064 58.0998C127.202 58.3535 127.381 58.5437 127.598 58.6705C127.822 58.7974 128.06 58.8608 128.314 58.8608ZM135.559 54.9111V59.4043H134.87L134.825 58.5981C134.68 58.8819 134.472 59.1054 134.2 59.2684C133.928 59.4315 133.62 59.513 133.276 59.513C132.745 59.513 132.319 59.353 131.999 59.0329C131.685 58.7068 131.528 58.2085 131.528 57.5382V54.9111H132.289V57.4566C132.289 58.3927 132.675 58.8608 133.448 58.8608C133.835 58.8608 134.155 58.7219 134.408 58.4441C134.668 58.1602 134.798 57.7586 134.798 57.2392V54.9111H135.559ZM136.811 59.4043V54.9111H137.5L137.563 55.7717C137.702 55.4758 137.914 55.2403 138.197 55.0651C138.481 54.89 138.832 54.8024 139.248 54.8024V55.5996H139.04C138.774 55.5996 138.53 55.6479 138.306 55.7445C138.083 55.8351 137.905 55.9921 137.772 56.2156C137.639 56.439 137.572 56.747 137.572 57.1396V59.4043H136.811ZM22.1399 71.4043V67.5543H21.4605V66.9111H22.1399V66.1321C22.1399 65.6972 22.2486 65.3802 22.466 65.1809C22.6834 64.9816 23.0005 64.8819 23.4172 64.8819H23.8701V65.5342H23.535C23.3055 65.5342 23.1424 65.5825 23.0458 65.6791C22.9492 65.7697 22.9009 65.9267 22.9009 66.1502V66.9111H24.006V67.5543H22.9009V71.4043H22.1399ZM24.912 71.4043V66.9111H25.6005L25.6639 67.7717C25.8028 67.4758 26.0141 67.2403 26.298 67.0651C26.5818 66.89 26.9321 66.8024 27.3488 66.8024V67.5996H27.1405C26.8747 67.5996 26.6301 67.6479 26.4067 67.7445C26.1832 67.8351 26.0051 67.9921 25.8722 68.2156C25.7394 68.439 25.6729 68.747 25.6729 69.1396V71.4043H24.912ZM30.0549 71.513C29.6261 71.513 29.2457 71.4164 28.9135 71.2231C28.5813 71.0238 28.3186 70.749 28.1254 70.3988C27.9382 70.0485 27.8446 69.6348 27.8446 69.1577C27.8446 68.6867 27.9382 68.276 28.1254 67.9257C28.3126 67.5694 28.5723 67.2946 28.9044 67.1014C29.2426 66.9021 29.6322 66.8024 30.073 66.8024C30.5079 66.8024 30.8823 66.9021 31.1963 67.1014C31.5164 67.2946 31.761 67.5513 31.9301 67.8714C32.0992 68.1914 32.1837 68.5357 32.1837 68.9041C32.1837 68.9705 32.1807 69.0369 32.1747 69.1034C32.1747 69.1698 32.1747 69.2453 32.1747 69.3298H28.5964C28.6146 69.6741 28.6931 69.9609 28.832 70.1904C28.9769 70.4139 29.1551 70.583 29.3664 70.6977C29.5839 70.8125 29.8133 70.8698 30.0549 70.8698C30.369 70.8698 30.6317 70.7974 30.843 70.6524C31.0544 70.5075 31.2084 70.3112 31.305 70.0636H32.0569C31.9361 70.4803 31.7036 70.8276 31.3594 71.1054C31.0212 71.3771 30.5864 71.513 30.0549 71.513ZM30.0549 67.4456C29.6926 67.4456 29.3695 67.5573 29.0856 67.7808C28.8078 67.9982 28.6478 68.3183 28.6055 68.741H31.4319C31.4137 68.3364 31.2748 68.0193 31.0152 67.7898C30.7555 67.5603 30.4354 67.4456 30.0549 67.4456ZM35.2124 71.513C34.7836 71.513 34.4032 71.4164 34.071 71.2231C33.7389 71.0238 33.4762 70.749 33.2829 70.3988C33.0957 70.0485 33.0021 69.6348 33.0021 69.1577C33.0021 68.6867 33.0957 68.276 33.2829 67.9257C33.4701 67.5694 33.7298 67.2946 34.062 67.1014C34.4002 66.9021 34.7897 66.8024 35.2305 66.8024C35.6654 66.8024 36.0398 66.9021 36.3538 67.1014C36.6739 67.2946 36.9185 67.5513 37.0876 67.8714C37.2567 68.1914 37.3413 68.5357 37.3413 68.9041C37.3413 68.9705 37.3382 69.0369 37.3322 69.1034C37.3322 69.1698 37.3322 69.2453 37.3322 69.3298H33.754C33.7721 69.6741 33.8506 69.9609 33.9895 70.1904C34.1344 70.4139 34.3126 70.583 34.524 70.6977C34.7414 70.8125 34.9709 70.8698 35.2124 70.8698C35.5265 70.8698 35.7892 70.7974 36.0005 70.6524C36.2119 70.5075 36.3659 70.3112 36.4625 70.0636H37.2144C37.0936 70.4803 36.8611 70.8276 36.5169 71.1054C36.1787 71.3771 35.7439 71.513 35.2124 71.513ZM35.2124 67.4456C34.8501 67.4456 34.527 67.5573 34.2431 67.7808C33.9653 67.9982 33.8053 68.3183 33.763 68.741H36.5894C36.5713 68.3364 36.4323 68.0193 36.1727 67.7898C35.913 67.5603 35.5929 67.4456 35.2124 67.4456ZM40.7472 73.3972V66.9111H41.4357L41.5082 67.6539C41.6531 67.4365 41.8584 67.2403 42.1242 67.0651C42.3959 66.89 42.7402 66.8024 43.1569 66.8024C43.6038 66.8024 43.9933 66.9051 44.3255 67.1104C44.6576 67.3157 44.9143 67.5966 45.0955 67.9529C45.2827 68.3092 45.3763 68.7138 45.3763 69.1668C45.3763 69.6197 45.2827 70.0243 45.0955 70.3806C44.9143 70.7309 44.6546 71.0087 44.3164 71.2141C43.9842 71.4134 43.5947 71.513 43.1478 71.513C42.7794 71.513 42.4503 71.4375 42.1604 71.2865C41.8766 71.1356 41.6591 70.9242 41.5082 70.6524V73.3972H40.7472ZM43.0663 70.8517C43.3682 70.8517 43.634 70.7823 43.8635 70.6434C44.093 70.4984 44.2741 70.2991 44.407 70.0455C44.5399 69.7918 44.6063 69.4959 44.6063 69.1577C44.6063 68.8195 44.5399 68.5236 44.407 68.2699C44.2741 68.0163 44.093 67.82 43.8635 67.6811C43.634 67.5362 43.3682 67.4637 43.0663 67.4637C42.7643 67.4637 42.4986 67.5362 42.2691 67.6811C42.0396 67.82 41.8584 68.0163 41.7256 68.2699C41.5927 68.5236 41.5263 68.8195 41.5263 69.1577C41.5263 69.4959 41.5927 69.7918 41.7256 70.0455C41.8584 70.2991 42.0396 70.4984 42.2691 70.6434C42.4986 70.7823 42.7643 70.8517 43.0663 70.8517ZM47.9302 71.513C47.5558 71.513 47.2448 71.4496 46.9972 71.3228C46.7496 71.1959 46.5654 71.0268 46.4446 70.8155C46.3238 70.6041 46.2634 70.3746 46.2634 70.127C46.2634 69.668 46.4386 69.3147 46.7888 69.0671C47.1391 68.8195 47.6162 68.6957 48.2201 68.6957H49.434V68.6414C49.434 68.2488 49.3313 67.9529 49.126 67.7536C48.9207 67.5483 48.6459 67.4456 48.3016 67.4456C48.0057 67.4456 47.7491 67.5211 47.5316 67.6721C47.3203 67.817 47.1874 68.0314 47.1331 68.3152H46.354C46.3842 67.9891 46.4929 67.7143 46.6801 67.4909C46.8734 67.2674 47.1119 67.0983 47.3958 66.9836C47.6796 66.8628 47.9816 66.8024 48.3016 66.8024C48.9297 66.8024 49.4008 66.9715 49.7148 67.3097C50.0349 67.6419 50.1949 68.0857 50.1949 68.6414V71.4043H49.5155L49.4702 70.5981C49.3434 70.8517 49.1562 71.0691 48.9086 71.2503C48.667 71.4254 48.3409 71.513 47.9302 71.513ZM48.048 70.8698C48.3379 70.8698 48.5855 70.7943 48.7908 70.6434C49.0022 70.4924 49.1622 70.2961 49.2709 70.0545C49.3796 69.813 49.434 69.5593 49.434 69.2936V69.2845H48.2835C47.8366 69.2845 47.5196 69.363 47.3324 69.5201C47.1512 69.671 47.0606 69.8613 47.0606 70.0908C47.0606 70.3263 47.1451 70.5165 47.3142 70.6615C47.4894 70.8004 47.734 70.8698 48.048 70.8698ZM53.4019 71.513C52.9731 71.513 52.5866 71.4164 52.2424 71.2231C51.9042 71.0238 51.6354 70.749 51.4361 70.3988C51.2429 70.0425 51.1463 69.6288 51.1463 69.1577C51.1463 68.6867 51.2429 68.276 51.4361 67.9257C51.6354 67.5694 51.9042 67.2946 52.2424 67.1014C52.5866 66.9021 52.9731 66.8024 53.4019 66.8024C53.9334 66.8024 54.3803 66.9413 54.7426 67.2191C55.111 67.4969 55.3435 67.8683 55.4401 68.3334H54.6611C54.6007 68.0556 54.4527 67.8412 54.2172 67.6902C53.9817 67.5332 53.7069 67.4547 53.3928 67.4547C53.1392 67.4547 52.9007 67.5181 52.6772 67.6449C52.4538 67.7717 52.2726 67.9619 52.1337 68.2156C51.9948 68.4692 51.9253 68.7833 51.9253 69.1577C51.9253 69.5321 51.9948 69.8462 52.1337 70.0998C52.2726 70.3535 52.4538 70.5467 52.6772 70.6796C52.9007 70.8064 53.1392 70.8698 53.3928 70.8698C53.7069 70.8698 53.9817 70.7943 54.2172 70.6434C54.4527 70.4863 54.6007 70.2659 54.6611 69.9821H55.4401C55.3496 70.435 55.1201 70.8034 54.7517 71.0872C54.3833 71.3711 53.9334 71.513 53.4019 71.513ZM56.5029 71.4043V64.8819H57.2638V68.8044L59.1027 66.9111H60.0358L58.0429 68.9403L60.2894 71.4043H59.3201L57.2638 69.0762V71.4043H56.5029ZM62.527 71.513C62.1525 71.513 61.8415 71.4496 61.5939 71.3228C61.3463 71.1959 61.1621 71.0268 61.0413 70.8155C60.9205 70.6041 60.8601 70.3746 60.8601 70.127C60.8601 69.668 61.0353 69.3147 61.3856 69.0671C61.7358 68.8195 62.2129 68.6957 62.8169 68.6957H64.0307V68.6414C64.0307 68.2488 63.9281 67.9529 63.7227 67.7536C63.5174 67.5483 63.2426 67.4456 62.8984 67.4456C62.6025 67.4456 62.3458 67.5211 62.1284 67.6721C61.917 67.817 61.7841 68.0314 61.7298 68.3152H60.9507C60.9809 67.9891 61.0896 67.7143 61.2769 67.4909C61.4701 67.2674 61.7087 67.0983 61.9925 66.9836C62.2763 66.8628 62.5783 66.8024 62.8984 66.8024C63.5265 66.8024 63.9975 66.9715 64.3116 67.3097C64.6316 67.6419 64.7917 68.0857 64.7917 68.6414V71.4043H64.1123L64.067 70.5981C63.9401 70.8517 63.7529 71.0691 63.5053 71.2503C63.2638 71.4254 62.9376 71.513 62.527 71.513ZM62.6447 70.8698C62.9346 70.8698 63.1822 70.7943 63.3876 70.6434C63.5989 70.4924 63.759 70.2961 63.8677 70.0545C63.9764 69.813 64.0307 69.5593 64.0307 69.2936V69.2845H62.8803C62.4334 69.2845 62.1163 69.363 61.9291 69.5201C61.7479 69.671 61.6573 69.8613 61.6573 70.0908C61.6573 70.3263 61.7419 70.5165 61.911 70.6615C62.0861 70.8004 62.3307 70.8698 62.6447 70.8698ZM67.7088 69.9911C67.4551 69.9911 67.2226 69.9579 67.0112 69.8915L66.5583 70.3172C66.6247 70.3656 66.7063 70.4078 66.8029 70.4441C66.9055 70.4743 67.0505 70.5045 67.2377 70.5346C67.4249 70.5588 67.6876 70.586 68.0258 70.6162C68.6297 70.6585 69.0615 70.7974 69.3212 71.0329C69.5809 71.2684 69.7108 71.5764 69.7108 71.9569C69.7108 72.2166 69.6383 72.4642 69.4934 72.6997C69.3544 72.9352 69.137 73.1285 68.8411 73.2795C68.5512 73.4305 68.1768 73.5059 67.7178 73.5059C67.3132 73.5059 66.9539 73.4516 66.6398 73.3429C66.3258 73.2402 66.0812 73.0802 65.9061 72.8628C65.7309 72.6514 65.6434 72.3826 65.6434 72.0565C65.6434 71.8874 65.6886 71.7032 65.7792 71.5039C65.8698 71.3107 66.0389 71.1265 66.2865 70.9514C66.1537 70.897 66.0389 70.8396 65.9423 70.7792C65.8517 70.7128 65.7672 70.6403 65.6886 70.5618V70.3535L66.4586 69.5925C66.1023 69.2906 65.9242 68.892 65.9242 68.3968C65.9242 68.1008 65.9936 67.8321 66.1325 67.5905C66.2714 67.349 66.4737 67.1587 66.7395 67.0198C67.0052 66.8749 67.3283 66.8024 67.7088 66.8024C67.9684 66.8024 68.204 66.8387 68.4154 66.9111H70.0731V67.4818L69.2306 67.5181C69.4058 67.7717 69.4934 68.0646 69.4934 68.3968C69.4934 68.6927 69.4209 68.9614 69.2759 69.203C69.137 69.4446 68.9347 69.6378 68.669 69.7828C68.4093 69.9217 68.0892 69.9911 67.7088 69.9911ZM67.7088 69.3661C68.0288 69.3661 68.2825 69.2845 68.4697 69.1215C68.663 68.9524 68.7596 68.7108 68.7596 68.3968C68.7596 68.0888 68.663 67.8532 68.4697 67.6902C68.2825 67.5211 68.0288 67.4365 67.7088 67.4365C67.3826 67.4365 67.123 67.5211 66.9297 67.6902C66.7425 67.8532 66.6489 68.0888 66.6489 68.3968C66.6489 68.7108 66.7425 68.9524 66.9297 69.1215C67.123 69.2845 67.3826 69.3661 67.7088 69.3661ZM66.3862 71.9841C66.3862 72.286 66.513 72.5095 66.7666 72.6544C67.0203 72.8054 67.3374 72.8809 67.7178 72.8809C68.0923 72.8809 68.3912 72.7994 68.6146 72.6363C68.8441 72.4732 68.9589 72.2558 68.9589 71.9841C68.9589 71.7908 68.8804 71.6217 68.7234 71.4768C68.5663 71.3379 68.2764 71.2563 67.8537 71.2322C67.5215 71.208 67.2347 71.1778 66.9931 71.1416C66.7455 71.2745 66.5824 71.4164 66.5039 71.5674C66.4254 71.7244 66.3862 71.8633 66.3862 71.9841ZM72.7747 71.513C72.3459 71.513 71.9654 71.4164 71.6333 71.2231C71.3011 71.0238 71.0384 70.749 70.8452 70.3988C70.658 70.0485 70.5643 69.6348 70.5643 69.1577C70.5643 68.6867 70.658 68.276 70.8452 67.9257C71.0324 67.5694 71.2921 67.2946 71.6242 67.1014C71.9624 66.9021 72.352 66.8024 72.7928 66.8024C73.2276 66.8024 73.6021 66.9021 73.9161 67.1014C74.2362 67.2946 74.4808 67.5513 74.6499 67.8714C74.819 68.1914 74.9035 68.5357 74.9035 68.9041C74.9035 68.9705 74.9005 69.0369 74.8945 69.1034C74.8945 69.1698 74.8945 69.2453 74.8945 69.3298H71.3162C71.3343 69.6741 71.4129 69.9609 71.5518 70.1904C71.6967 70.4139 71.8749 70.583 72.0862 70.6977C72.3036 70.8125 72.5331 70.8698 72.7747 70.8698C73.0887 70.8698 73.3514 70.7974 73.5628 70.6524C73.7742 70.5075 73.9282 70.3112 74.0248 70.0636H74.7767C74.6559 70.4803 74.4234 70.8276 74.0792 71.1054C73.741 71.3771 73.3061 71.513 72.7747 71.513ZM72.7747 67.4456C72.4123 67.4456 72.0892 67.5573 71.8054 67.7808C71.5276 67.9982 71.3676 68.3183 71.3253 68.741H74.1516C74.1335 68.3364 73.9946 68.0193 73.7349 67.7898C73.4752 67.5603 73.1552 67.4456 72.7747 67.4456Z" fill="black"/>
<path d="M21.542 90.4561L23.8792 84.1149H24.6854L27.0136 90.4561H26.2073L25.6276 88.8255H22.928L22.3392 90.4561H21.542ZM23.1545 88.2095H25.4011L24.2778 85.0751L23.1545 88.2095ZM29.7287 90.5648C29.2999 90.5648 28.9134 90.4681 28.5691 90.2749C28.2309 90.0756 27.9622 89.8008 27.7629 89.4505C27.5696 89.0942 27.473 88.6805 27.473 88.2095C27.473 87.7384 27.5696 87.3277 27.7629 86.9775C27.9622 86.6212 28.2309 86.3464 28.5691 86.1531C28.9134 85.9538 29.2999 85.8542 29.7287 85.8542C30.2601 85.8542 30.707 85.9931 31.0694 86.2709C31.4378 86.5487 31.6703 86.9201 31.7669 87.3851H30.9878C30.9274 87.1073 30.7795 86.8929 30.544 86.7419C30.3084 86.5849 30.0336 86.5064 29.7196 86.5064C29.466 86.5064 29.2274 86.5698 29.004 86.6966C28.7805 86.8235 28.5993 87.0137 28.4604 87.2673C28.3215 87.521 28.2521 87.835 28.2521 88.2095C28.2521 88.5839 28.3215 88.8979 28.4604 89.1516C28.5993 89.4052 28.7805 89.5985 29.004 89.7313C29.2274 89.8582 29.466 89.9216 29.7196 89.9216C30.0336 89.9216 30.3084 89.8461 30.544 89.6951C30.7795 89.5381 30.9274 89.3177 30.9878 89.0338H31.7669C31.6763 89.4868 31.4468 89.8552 31.0784 90.139C30.71 90.4228 30.2601 90.5648 29.7287 90.5648ZM34.895 90.5648C34.4662 90.5648 34.0797 90.4681 33.7355 90.2749C33.3973 90.0756 33.1285 89.8008 32.9293 89.4505C32.736 89.0942 32.6394 88.6805 32.6394 88.2095C32.6394 87.7384 32.736 87.3277 32.9293 86.9775C33.1285 86.6212 33.3973 86.3464 33.7355 86.1531C34.0797 85.9538 34.4662 85.8542 34.895 85.8542C35.4265 85.8542 35.8734 85.9931 36.2357 86.2709C36.6041 86.5487 36.8366 86.9201 36.9333 87.3851H36.1542C36.0938 87.1073 35.9458 86.8929 35.7103 86.7419C35.4748 86.5849 35.2 86.5064 34.886 86.5064C34.6323 86.5064 34.3938 86.5698 34.1703 86.6966C33.9469 86.8235 33.7657 87.0137 33.6268 87.2673C33.4879 87.521 33.4184 87.835 33.4184 88.2095C33.4184 88.5839 33.4879 88.8979 33.6268 89.1516C33.7657 89.4052 33.9469 89.5985 34.1703 89.7313C34.3938 89.8582 34.6323 89.9216 34.886 89.9216C35.2 89.9216 35.4748 89.8461 35.7103 89.6951C35.9458 89.5381 36.0938 89.3177 36.1542 89.0338H36.9333C36.8427 89.4868 36.6132 89.8552 36.2448 90.139C35.8764 90.4228 35.4265 90.5648 34.895 90.5648ZM40.0161 90.5648C39.5873 90.5648 39.2068 90.4681 38.8747 90.2749C38.5425 90.0756 38.2798 89.8008 38.0866 89.4505C37.8993 89.1003 37.8057 88.6866 37.8057 88.2095C37.8057 87.7384 37.8993 87.3277 38.0866 86.9775C38.2738 86.6212 38.5335 86.3464 38.8656 86.1531C39.2038 85.9538 39.5933 85.8542 40.0342 85.8542C40.469 85.8542 40.8435 85.9538 41.1575 86.1531C41.4776 86.3464 41.7222 86.603 41.8913 86.9231C42.0604 87.2432 42.1449 87.5874 42.1449 87.9558C42.1449 88.0223 42.1419 88.0887 42.1358 88.1551C42.1358 88.2215 42.1358 88.297 42.1358 88.3816H38.5576C38.5757 88.7258 38.6542 89.0127 38.7931 89.2422C38.9381 89.4656 39.1162 89.6347 39.3276 89.7495C39.545 89.8642 39.7745 89.9216 40.0161 89.9216C40.3301 89.9216 40.5928 89.8491 40.8042 89.7042C41.0156 89.5592 41.1696 89.363 41.2662 89.1153H42.0181C41.8973 89.5321 41.6648 89.8793 41.3206 90.1571C40.9824 90.4289 40.5475 90.5648 40.0161 90.5648ZM40.0161 86.4973C39.6537 86.4973 39.3306 86.6091 39.0468 86.8325C38.769 87.0499 38.6089 87.37 38.5667 87.7928H41.393C41.3749 87.3881 41.236 87.0711 40.9763 86.8416C40.7166 86.6121 40.3966 86.4973 40.0161 86.4973ZM44.8747 90.5648C44.3372 90.5648 43.8903 90.4289 43.5339 90.1571C43.1776 89.8853 42.9693 89.517 42.9089 89.0519H43.6879C43.7363 89.2875 43.8601 89.4928 44.0594 89.6679C44.2647 89.837 44.5395 89.9216 44.8837 89.9216C45.2038 89.9216 45.4393 89.8552 45.5903 89.7223C45.7413 89.5834 45.8168 89.4203 45.8168 89.2331C45.8168 88.9613 45.7171 88.7802 45.5178 88.6896C45.3246 88.599 45.0498 88.5175 44.6935 88.445C44.4519 88.3967 44.2103 88.3272 43.9688 88.2366C43.7272 88.1461 43.5249 88.0192 43.3618 87.8562C43.1988 87.6871 43.1172 87.4666 43.1172 87.1949C43.1172 86.8023 43.2622 86.4823 43.5521 86.2346C43.848 85.981 44.2466 85.8542 44.7478 85.8542C45.2249 85.8542 45.6145 85.975 45.9164 86.2165C46.2244 86.4521 46.4026 86.7903 46.4509 87.2311H45.699C45.6688 87.0016 45.5692 86.8235 45.4001 86.6966C45.237 86.5638 45.0166 86.4973 44.7388 86.4973C44.467 86.4973 44.2556 86.5547 44.1047 86.6695C43.9597 86.7842 43.8872 86.9352 43.8872 87.1224C43.8872 87.3036 43.9809 87.4455 44.1681 87.5482C44.3613 87.6508 44.621 87.7384 44.9471 87.8109C45.2249 87.8713 45.4876 87.9468 45.7352 88.0373C45.9889 88.1219 46.1942 88.2517 46.3512 88.4269C46.5143 88.596 46.5958 88.8436 46.5958 89.1697C46.6019 89.5743 46.4479 89.9095 46.1338 90.1752C45.8258 90.4349 45.4061 90.5648 44.8747 90.5648ZM49.4041 90.5648C48.8666 90.5648 48.4197 90.4289 48.0634 90.1571C47.707 89.8853 47.4987 89.517 47.4383 89.0519H48.2174C48.2657 89.2875 48.3895 89.4928 48.5888 89.6679C48.7941 89.837 49.0689 89.9216 49.4131 89.9216C49.7332 89.9216 49.9687 89.8552 50.1197 89.7223C50.2707 89.5834 50.3462 89.4203 50.3462 89.2331C50.3462 88.9613 50.2465 88.7802 50.0472 88.6896C49.854 88.599 49.5792 88.5175 49.2229 88.445C48.9813 88.3967 48.7398 88.3272 48.4982 88.2366C48.2566 88.1461 48.0543 88.0192 47.8912 87.8562C47.7282 87.6871 47.6467 87.4666 47.6467 87.1949C47.6467 86.8023 47.7916 86.4823 48.0815 86.2346C48.3774 85.981 48.776 85.8542 49.2772 85.8542C49.7543 85.8542 50.1439 85.975 50.4458 86.2165C50.7538 86.4521 50.932 86.7903 50.9803 87.2311H50.2284C50.1982 87.0016 50.0986 86.8235 49.9295 86.6966C49.7664 86.5638 49.546 86.4973 49.2682 86.4973C48.9964 86.4973 48.785 86.5547 48.6341 86.6695C48.4891 86.7842 48.4167 86.9352 48.4167 87.1224C48.4167 87.3036 48.5103 87.4455 48.6975 87.5482C48.8907 87.6508 49.1504 87.7384 49.4765 87.8109C49.7543 87.8713 50.017 87.9468 50.2647 88.0373C50.5183 88.1219 50.7236 88.2517 50.8807 88.4269C51.0437 88.596 51.1252 88.8436 51.1252 89.1697C51.1313 89.5743 50.9773 89.9095 50.6632 90.1752C50.3552 90.4349 49.9355 90.5648 49.4041 90.5648ZM56.1044 90.5648C55.73 90.5648 55.419 90.5013 55.1714 90.3745C54.9237 90.2477 54.7395 90.0786 54.6188 89.8672C54.498 89.6559 54.4376 89.4264 54.4376 89.1788C54.4376 88.7198 54.6127 88.3665 54.963 88.1189C55.3133 87.8713 55.7904 87.7475 56.3943 87.7475H57.6082V87.6931C57.6082 87.3006 57.5055 87.0046 57.3002 86.8053C57.0948 86.6 56.8201 86.4973 56.4758 86.4973C56.1799 86.4973 55.9232 86.5728 55.7058 86.7238C55.4944 86.8688 55.3616 87.0832 55.3072 87.367H54.5282C54.5584 87.0409 54.6671 86.7661 54.8543 86.5426C55.0475 86.3192 55.2861 86.1501 55.5699 86.0353C55.8538 85.9146 56.1557 85.8542 56.4758 85.8542C57.1039 85.8542 57.575 86.0233 57.889 86.3615C58.2091 86.6936 58.3691 87.1375 58.3691 87.6931V90.4561H57.6897L57.6444 89.6498C57.5176 89.9035 57.3304 90.1209 57.0828 90.3021C56.8412 90.4772 56.5151 90.5648 56.1044 90.5648ZM56.2222 89.9216C56.5121 89.9216 56.7597 89.8461 56.965 89.6951C57.1764 89.5441 57.3364 89.3479 57.4451 89.1063C57.5538 88.8647 57.6082 88.6111 57.6082 88.3453V88.3363H56.4577C56.0108 88.3363 55.6937 88.4148 55.5065 88.5718C55.3254 88.7228 55.2348 88.913 55.2348 89.1425C55.2348 89.3781 55.3193 89.5683 55.4884 89.7132C55.6635 89.8521 55.9081 89.9216 56.2222 89.9216ZM59.5107 90.4561V85.9629H60.1991L60.2444 86.7691C60.3894 86.4853 60.5977 86.2618 60.8695 86.0988C61.1413 85.9357 61.4493 85.8542 61.7935 85.8542C62.3249 85.8542 62.7477 86.0172 63.0617 86.3433C63.3818 86.6634 63.5418 87.1586 63.5418 87.829V90.4561H62.7809V87.9105C62.7809 86.9744 62.3944 86.5064 61.6214 86.5064C61.2349 86.5064 60.9118 86.6483 60.6521 86.9322C60.3984 87.21 60.2716 87.6086 60.2716 88.1279V90.4561H59.5107ZM65.0512 92.449L66.1654 90.0212H65.9027L64.1181 85.9629H64.9425L66.4281 89.4596L68.0044 85.9629H68.7925L65.8484 92.449H65.0512ZM70.5016 90.4561L69.188 85.9629H69.949L70.9002 89.4868L71.951 85.9629H72.8116L73.8714 89.4868L74.8136 85.9629H75.5836L74.27 90.4561H73.491L72.3858 86.751L71.2806 90.4561H70.5016ZM76.4252 90.4561V83.9337H77.1861V86.7329C77.3371 86.4551 77.5515 86.2407 77.8293 86.0897C78.1071 85.9327 78.4091 85.8542 78.7352 85.8542C79.2546 85.8542 79.6713 86.0172 79.9853 86.3433C80.2993 86.6634 80.4564 87.1586 80.4564 87.829V90.4561H79.7045V87.9105C79.7045 86.9744 79.327 86.5064 78.5721 86.5064C78.1796 86.5064 77.8504 86.6483 77.5847 86.9322C77.319 87.21 77.1861 87.6086 77.1861 88.1279V90.4561H76.4252ZM83.6294 90.5648C83.2006 90.5648 82.8201 90.4681 82.4879 90.2749C82.1558 90.0756 81.8931 89.8008 81.6998 89.4505C81.5126 89.1003 81.419 88.6866 81.419 88.2095C81.419 87.7384 81.5126 87.3277 81.6998 86.9775C81.887 86.6212 82.1467 86.3464 82.4789 86.1531C82.8171 85.9538 83.2066 85.8542 83.6475 85.8542C84.0823 85.8542 84.4567 85.9538 84.7708 86.1531C85.0909 86.3464 85.3354 86.603 85.5045 86.9231C85.6736 87.2432 85.7582 87.5874 85.7582 87.9558C85.7582 88.0223 85.7552 88.0887 85.7491 88.1551C85.7491 88.2215 85.7491 88.297 85.7491 88.3816H82.1709C82.189 88.7258 82.2675 89.0127 82.4064 89.2422C82.5514 89.4656 82.7295 89.6347 82.9409 89.7495C83.1583 89.8642 83.3878 89.9216 83.6294 89.9216C83.9434 89.9216 84.2061 89.8491 84.4175 89.7042C84.6289 89.5592 84.7829 89.363 84.8795 89.1153H85.6314C85.5106 89.5321 85.2781 89.8793 84.9338 90.1571C84.5956 90.4289 84.1608 90.5648 83.6294 90.5648ZM83.6294 86.4973C83.267 86.4973 82.9439 86.6091 82.6601 86.8325C82.3823 87.0499 82.2222 87.37 82.1799 87.7928H85.0063C84.9882 87.3881 84.8493 87.0711 84.5896 86.8416C84.3299 86.6121 84.0098 86.4973 83.6294 86.4973ZM86.7668 90.4561V85.9629H87.4552L87.5186 86.8235C87.6575 86.5275 87.8689 86.292 88.1528 86.1169C88.4366 85.9417 88.7869 85.8542 89.2036 85.8542V86.6513H88.9952C88.7295 86.6513 88.4849 86.6997 88.2615 86.7963C88.038 86.8869 87.8598 87.0439 87.727 87.2673C87.5941 87.4908 87.5277 87.7988 87.5277 88.1913V90.4561H86.7668ZM91.9097 90.5648C91.4809 90.5648 91.1004 90.4681 90.7683 90.2749C90.4361 90.0756 90.1734 89.8008 89.9802 89.4505C89.7929 89.1003 89.6993 88.6866 89.6993 88.2095C89.6993 87.7384 89.7929 87.3277 89.9802 86.9775C90.1674 86.6212 90.4271 86.3464 90.7592 86.1531C91.0974 85.9538 91.4869 85.8542 91.9278 85.8542C92.3626 85.8542 92.7371 85.9538 93.0511 86.1531C93.3712 86.3464 93.6158 86.603 93.7849 86.9231C93.954 87.2432 94.0385 87.5874 94.0385 87.9558C94.0385 88.0223 94.0355 88.0887 94.0295 88.1551C94.0295 88.2215 94.0295 88.297 94.0295 88.3816H90.4512C90.4693 88.7258 90.5478 89.0127 90.6867 89.2422C90.8317 89.4656 91.0098 89.6347 91.2212 89.7495C91.4386 89.8642 91.6681 89.9216 91.9097 89.9216C92.2237 89.9216 92.4864 89.8491 92.6978 89.7042C92.9092 89.5592 93.0632 89.363 93.1598 89.1153H93.9117C93.7909 89.5321 93.5584 89.8793 93.2142 90.1571C92.876 90.4289 92.4411 90.5648 91.9097 90.5648ZM91.9097 86.4973C91.5473 86.4973 91.2242 86.6091 90.9404 86.8325C90.6626 87.0499 90.5026 87.37 90.4603 87.7928H93.2866C93.2685 87.3881 93.1296 87.0711 92.8699 86.8416C92.6102 86.6121 92.2902 86.4973 91.9097 86.4973Z" fill="black"/>
<path d="M11.4849 24.5312L14.4269 26.0054V28.9537L11.4849 30.4279L8.54301 28.9537V26.0054L11.4849 24.5312Z" fill="#F7CB33"/>
<path d="M11.4849 84.4243L14.4269 85.8985V88.8468L11.4849 90.3209L8.54301 88.8468V85.8985L11.4849 84.4243Z" fill="#F7CB33"/>
<path d="M11.4849 52.3042L14.4269 53.7784V56.7267L11.4849 58.2008L8.54301 56.7267V53.7784L11.4849 52.3042Z" fill="#F7CB33"/>
</svg>
