<svg xmlns="http://www.w3.org/2000/svg" viewBox="0 0 137.18 112.27"><defs><style>.cls-1{fill:none;}.cls-1,.cls-2,.cls-5{stroke:#e8e9e8;stroke-miterlimit:10;}.cls-1,.cls-2{stroke-width:1.86px;}.cls-2,.cls-3,.cls-4,.cls-5{fill:#e8e9e8;}.cls-4{font-size:9.32px;font-family:Moon-Light, Moon;font-weight:300;letter-spacing:0em;}.cls-5{stroke-width:0.62px;}</style></defs><title>Asset 29</title><g id="Layer_2" data-name="Layer 2"><g id="Layer_2-2" data-name="Layer 2"><polyline class="cls-1" points="4.33 49.36 97.4 49.36 134.19 49.36 93.75 9.52 54.07 49.2"/><polygon class="cls-2" points="91.22 12.05 128.47 49.3 134.19 49.3 93.75 9.52 91.22 12.05"/><polygon class="cls-2" points="107.03 49.36 63.69 5.74 68.11 1.32 116.17 49.38 107.03 49.36"/><line class="cls-1" x1="21.13" y1="49.18" x2="63.69" y2="5.74"/><polyline class="cls-1" points="77.83 47.94 79.26 49.36 77.83 47.94 40.89 10.99 3.28 49.3"/><polygon class="cls-2" points="40.89 10.99 38.45 13.48 73.62 48.66 77.83 47.94 40.89 10.99"/><polygon class="cls-1" points="39.29 13.55 75.48 49.36 3.09 49.36 39.29 13.55"/><polyline class="cls-1" points="4.33 62.9 97.4 62.9 134.19 62.9 93.75 102.74 54.07 63.06"/><line class="cls-1" x1="91.22" y1="100.22" x2="128.46" y2="62.97"/><path class="cls-2" d="M115.26,62.9s-8.9,1.84-8,1L63.69,106.52,68.11,111l48.06-48.07"/><line class="cls-1" x1="21.13" y1="63.09" x2="63.69" y2="106.52"/><polyline class="cls-1" points="79.26 62.9 40.89 101.27 3.28 62.97"/><polygon class="cls-3" points="40.89 101.27 38.45 98.78 73.62 63.61 77.83 63.61 40.89 101.27"/><polygon class="cls-1" points="39.29 98.71 75.48 62.9 3.09 62.9 39.29 98.71"/><text class="cls-4" transform="translate(0 59.34)">abbott-mickelson designs</text><polygon class="cls-5" points="127.83 63.61 133.48 63.61 93.75 102.74 91.22 100.22 127.83 63.61"/></g></g></svg>