<svg width="1441" height="699" viewBox="0 0 1441 699" fill="none" xmlns="http://www.w3.org/2000/svg">
<mask id="mask0" mask-type="alpha" maskUnits="userSpaceOnUse" x="0" y="0" width="1441" height="699">
<rect x="0.127197" width="1440" height="698.672" fill="#C4C4C4"/>
</mask>
<g mask="url(#mask0)">
<g filter="url(#filter0_d)">
<path fill-rule="evenodd" clip-rule="evenodd" d="M919.526 865.523L919.721 865.523L919.859 865.384L1408.26 371.729L1409.05 370.933L1407.93 370.933L1274.73 370.933L320.127 370.933L319.06 370.933L319.783 371.717L774.883 865.372L775.021 865.523L775.226 865.523L919.526 865.523ZM1273.59 371.868L775.242 864.382L321.194 371.868L1273.59 371.868Z" fill="#F9F9F9" fill-opacity="0.125"/>
<path d="M919.721 865.523L921.423 867.207L920.721 867.917L919.721 867.917L919.721 865.523ZM919.859 865.384L921.561 867.068L921.561 867.068L919.859 865.384ZM1408.26 371.729L1409.96 373.413L1409.96 373.413L1408.26 371.729ZM1409.05 370.933L1409.05 368.538L1414.78 368.538L1410.75 372.617L1409.05 370.933ZM319.06 370.933L317.299 372.555L313.596 368.538L319.06 368.538L319.06 370.933ZM319.783 371.717L318.022 373.34L318.022 373.34L319.783 371.717ZM774.883 865.372L773.122 866.995L773.122 866.995L774.883 865.372ZM775.021 865.523L775.021 867.917L773.972 867.917L773.261 867.146L775.021 865.523ZM775.242 864.382L776.925 866.085L775.162 867.828L773.482 866.005L775.242 864.382ZM1273.59 371.868L1273.59 369.473L1279.42 369.473L1275.27 373.571L1273.59 371.868ZM321.194 371.868L319.433 373.491L315.73 369.473L321.194 369.473L321.194 371.868ZM919.721 867.917L919.526 867.917L919.526 863.128L919.721 863.128L919.721 867.917ZM921.561 867.068L921.423 867.207L918.019 863.839L918.157 863.7L921.561 867.068ZM1409.96 373.413L921.561 867.068L918.157 863.7L1406.56 370.045L1409.96 373.413ZM1410.75 372.617L1409.96 373.413L1406.56 370.045L1407.34 369.249L1410.75 372.617ZM1407.93 368.538L1409.05 368.538L1409.05 373.327L1407.93 373.327L1407.93 368.538ZM1274.73 368.538L1407.93 368.538L1407.93 373.327L1274.73 373.327L1274.73 368.538ZM320.127 368.538L1274.73 368.538L1274.73 373.327L320.127 373.327L320.127 368.538ZM319.06 368.538L320.127 368.538L320.127 373.327L319.06 373.327L319.06 368.538ZM318.022 373.34L317.299 372.555L320.82 369.31L321.543 370.094L318.022 373.34ZM773.122 866.995L318.022 373.34L321.543 370.094L776.643 863.749L773.122 866.995ZM773.261 867.146L773.122 866.995L776.643 863.749L776.782 863.899L773.261 867.146ZM775.226 867.917L775.021 867.917L775.021 863.128L775.226 863.128L775.226 867.917ZM919.526 867.917L775.226 867.917L775.226 863.128L919.526 863.128L919.526 867.917ZM773.559 862.679L1271.9 370.165L1275.27 373.571L776.925 866.085L773.559 862.679ZM322.954 370.245L777.002 862.759L773.482 866.005L319.433 373.491L322.954 370.245ZM1273.59 374.262L321.194 374.262L321.194 369.473L1273.59 369.473L1273.59 374.262Z" fill="#F9F9F9" fill-opacity="0.125"/>
<path fill-rule="evenodd" clip-rule="evenodd" d="M677.092 803.178L677.263 803.178L677.383 803.057L1104.24 371.607L1104.93 370.911L1103.95 370.911L987.534 370.911L153.223 370.911L152.291 370.911L152.923 371.597L550.675 803.046L550.797 803.178L550.976 803.178L677.092 803.178ZM986.539 371.728L550.989 802.181L154.156 371.728L986.539 371.728Z" fill="#F9F9F9" fill-opacity="0.125"/>
<path d="M677.263 803.178L678.965 804.862L678.262 805.572L677.263 805.572L677.263 803.178ZM677.092 803.178L677.092 805.572L677.092 803.178ZM677.383 803.057L679.085 804.741L679.085 804.741L677.383 803.057ZM1104.24 371.607L1105.94 373.291L1105.94 373.291L1104.24 371.607ZM1104.93 370.911L1104.93 368.517L1110.66 368.517L1106.63 372.595L1104.93 370.911ZM152.291 370.911L150.53 372.534L146.827 368.517L152.291 368.517L152.291 370.911ZM152.923 371.597L151.162 373.22L151.162 373.22L152.923 371.597ZM550.675 803.046L548.915 804.669L548.915 804.669L550.675 803.046ZM550.797 803.178L550.797 805.572L549.748 805.572L549.036 804.801L550.797 803.178ZM550.976 803.178L550.976 800.784L550.976 803.178ZM550.989 802.181L552.672 803.884L550.909 805.627L549.229 803.804L550.989 802.181ZM986.539 371.728L986.539 369.334L992.368 369.334L988.222 373.431L986.539 371.728ZM154.156 371.728L152.395 373.351L148.692 369.334L154.156 369.334L154.156 371.728ZM677.263 805.572L677.092 805.572L677.092 800.784L677.263 800.784L677.263 805.572ZM679.085 804.741L678.965 804.862L675.561 801.494L675.681 801.373L679.085 804.741ZM1105.94 373.291L679.085 804.741L675.681 801.373L1102.54 369.923L1105.94 373.291ZM1106.63 372.595L1105.94 373.291L1102.54 369.923L1103.23 369.227L1106.63 372.595ZM1103.95 368.517L1104.93 368.517L1104.93 373.305L1103.95 373.305L1103.95 368.517ZM987.534 368.517L1103.95 368.517L1103.95 373.305L987.534 373.305L987.534 368.517ZM153.223 368.517L987.534 368.517L987.534 373.305L153.223 373.305L153.223 368.517ZM152.291 368.517L153.223 368.517L153.223 373.305L152.291 373.305L152.291 368.517ZM151.162 373.22L150.53 372.534L154.051 369.288L154.683 369.974L151.162 373.22ZM548.915 804.669L151.162 373.22L154.683 369.974L552.436 801.423L548.915 804.669ZM549.036 804.801L548.915 804.669L552.436 801.423L552.557 801.555L549.036 804.801ZM550.976 805.572L550.797 805.572L550.797 800.784L550.976 800.784L550.976 805.572ZM677.092 805.572L550.976 805.572L550.976 800.784L677.092 800.784L677.092 805.572ZM549.306 800.478L984.856 370.025L988.222 373.431L552.672 803.884L549.306 800.478ZM155.916 370.105L552.75 800.558L549.229 803.804L152.395 373.351L155.916 370.105ZM986.539 374.123L154.156 374.123L154.156 369.334L986.539 369.334L986.539 374.123Z" fill="#F9F9F9" fill-opacity="0.125"/>
<path fill-rule="evenodd" clip-rule="evenodd" d="M448.127 740.399L448.273 740.399L448.375 740.295L812.764 371.986L813.352 371.392L812.516 371.392L713.137 371.392L0.923218 371.392L0.127197 371.392L0.666748 371.977L340.211 740.286L340.314 740.399L340.467 740.399L448.127 740.399ZM712.288 372.089L340.479 739.548L1.71924 372.089L712.288 372.089Z" fill="#F9F9F9" fill-opacity="0.125"/>
<path d="M448.273 740.399L449.975 742.082L449.272 742.793L448.273 742.793L448.273 740.399ZM448.375 740.295L446.673 738.611L446.673 738.611L448.375 740.295ZM812.764 371.986L811.062 370.302L811.062 370.302L812.764 371.986ZM813.352 371.392L813.352 368.997L819.089 368.997L815.054 373.076L813.352 371.392ZM812.516 371.392L812.516 368.997L812.516 371.392ZM0.127197 371.392L-1.63324 373.014L-5.33643 368.997L0.127197 368.997L0.127197 371.392ZM0.666748 371.977L-1.09363 373.6L-1.09369 373.6L0.666748 371.977ZM340.211 740.286L341.971 738.663L341.971 738.663L340.211 740.286ZM340.314 740.399L340.314 742.793L339.265 742.793L338.554 742.021L340.314 740.399ZM340.467 740.399L340.467 738.004L340.467 740.399ZM340.479 739.548L342.162 741.251L340.399 742.993L338.718 741.171L340.479 739.548ZM712.288 372.089L712.288 369.695L718.117 369.695L713.971 373.792L712.288 372.089ZM1.71924 372.089L-0.0411379 373.712L-3.74463 369.695L1.71924 369.695L1.71924 372.089ZM448.273 742.793L448.127 742.793L448.127 738.004L448.273 738.004L448.273 742.793ZM450.078 741.979L449.975 742.082L446.571 738.715L446.673 738.611L450.078 741.979ZM814.466 373.67L450.077 741.979L446.673 738.611L811.062 370.302L814.466 373.67ZM815.054 373.076L814.466 373.67L811.062 370.302L811.649 369.708L815.054 373.076ZM812.516 368.997L813.352 368.997L813.352 373.786L812.516 373.786L812.516 368.997ZM713.137 368.997L812.516 368.997L812.516 373.786L713.137 373.786L713.137 368.997ZM0.923218 368.997L713.137 368.997L713.137 373.786L0.923218 373.786L0.923218 368.997ZM0.127197 368.997L0.923218 368.997L0.923218 373.786L0.127197 373.786L0.127197 368.997ZM-1.09369 373.6L-1.63324 373.014L1.8877 369.769L2.42725 370.354L-1.09369 373.6ZM338.45 741.909L-1.09363 373.6L2.42719 370.354L341.971 738.663L338.45 741.909ZM338.554 742.021L338.45 741.909L341.971 738.663L342.075 738.776L338.554 742.021ZM340.467 742.793L340.314 742.793L340.314 738.004L340.467 738.004L340.467 742.793ZM448.127 742.793L340.467 742.793L340.467 738.004L448.127 738.004L448.127 742.793ZM338.796 737.845L710.605 370.386L713.971 373.792L342.162 741.251L338.796 737.845ZM3.47968 370.466L342.239 737.925L338.718 741.171L-0.0411379 373.712L3.47968 370.466ZM712.288 374.484L1.71924 374.484L1.71924 369.695L712.288 369.695L712.288 374.484Z" fill="#F9F9F9" fill-opacity="0.125"/>
<path fill-rule="evenodd" clip-rule="evenodd" d="M919.527 -166.849L919.722 -166.849L919.859 -166.711L1408.26 326.944L1409.05 327.741L1407.93 327.741L1274.73 327.741L320.127 327.741L319.061 327.741L319.784 326.956L774.883 -166.699L775.022 -166.849L775.227 -166.849L919.527 -166.849ZM1273.59 326.806L775.243 -165.709L321.194 326.806L1273.59 326.806Z" fill="#F9F9F9" fill-opacity="0.125"/>
<path d="M919.722 -166.849L921.424 -168.533L920.721 -169.244L919.722 -169.244L919.722 -166.849ZM919.859 -166.711L921.562 -168.395L921.561 -168.395L919.859 -166.711ZM1408.26 326.944L1409.96 325.26L1409.96 325.26L1408.26 326.944ZM1409.05 327.741L1409.05 330.135L1414.78 330.135L1410.75 326.057L1409.05 327.741ZM319.061 327.741L317.3 326.118L313.597 330.135L319.061 330.135L319.061 327.741ZM319.784 326.956L318.023 325.333L318.023 325.333L319.784 326.956ZM774.883 -166.699L773.123 -168.322L773.123 -168.322L774.883 -166.699ZM775.022 -166.849L775.022 -169.244L773.973 -169.244L773.262 -168.473L775.022 -166.849ZM775.243 -165.709L776.926 -167.412L775.163 -169.155L773.482 -167.332L775.243 -165.709ZM1273.59 326.806L1273.59 329.2L1279.42 329.2L1275.27 325.103L1273.59 326.806ZM321.194 326.806L319.434 325.183L315.731 329.2L321.194 329.2L321.194 326.806ZM919.722 -169.244L919.527 -169.244L919.527 -164.455L919.722 -164.455L919.722 -169.244ZM921.561 -168.395L921.424 -168.533L918.02 -165.165L918.157 -165.027L921.561 -168.395ZM1409.96 325.26L921.562 -168.395L918.157 -165.027L1406.56 328.628L1409.96 325.26ZM1410.75 326.057L1409.96 325.26L1406.56 328.628L1407.34 329.425L1410.75 326.057ZM1407.93 330.135L1409.05 330.135L1409.05 325.346L1407.93 325.346L1407.93 330.135ZM1274.73 330.135L1407.93 330.135L1407.93 325.346L1274.73 325.346L1274.73 330.135ZM320.127 330.135L1274.73 330.135L1274.73 325.346L320.127 325.346L320.127 330.135ZM319.061 330.135L320.127 330.135L320.127 325.346L319.061 325.346L319.061 330.135ZM318.023 325.333L317.3 326.118L320.821 329.363L321.544 328.579L318.023 325.333ZM773.123 -168.322L318.023 325.333L321.544 328.579L776.644 -165.076L773.123 -168.322ZM773.262 -168.473L773.123 -168.322L776.643 -165.076L776.782 -165.226L773.262 -168.473ZM775.227 -169.244L775.022 -169.244L775.022 -164.455L775.227 -164.455L775.227 -169.244ZM919.527 -169.244L775.227 -169.244L775.227 -164.455L919.527 -164.455L919.527 -169.244ZM773.56 -164.006L1271.91 328.509L1275.27 325.103L776.926 -167.412L773.56 -164.006ZM322.955 328.428L777.003 -164.086L773.482 -167.332L319.434 325.183L322.955 328.428ZM1273.59 324.411L321.194 324.411L321.194 329.2L1273.59 329.2L1273.59 324.411Z" fill="#F9F9F9" fill-opacity="0.125"/>
<path fill-rule="evenodd" clip-rule="evenodd" d="M677.091 -103.585L677.261 -103.585L677.381 -103.464L1104.24 327.986L1104.93 328.682L1103.95 328.682L987.532 328.682L153.221 328.682L152.289 328.682L152.921 327.996L550.673 -103.454L550.795 -103.585L550.974 -103.585L677.091 -103.585ZM986.537 327.864L550.988 -102.589L154.154 327.864L986.537 327.864Z" fill="#F9F9F9" fill-opacity="0.125"/>
<path d="M677.261 -103.585L678.963 -105.269L678.26 -105.98L677.261 -105.98L677.261 -103.585ZM677.381 -103.464L679.083 -105.148L679.083 -105.148L677.381 -103.464ZM1104.24 327.986L1105.94 326.302L1105.94 326.302L1104.24 327.986ZM1104.93 328.682L1104.93 331.076L1110.66 331.076L1106.63 326.998L1104.93 328.682ZM1103.95 328.682L1103.95 326.287L1103.95 328.682ZM987.532 328.682L987.532 331.076L987.532 328.682ZM153.221 328.682L153.221 331.076L153.221 328.682ZM152.289 328.682L150.528 327.059L146.825 331.076L152.289 331.076L152.289 328.682ZM152.921 327.996L151.16 326.373L151.16 326.373L152.921 327.996ZM550.673 -103.454L548.913 -105.077L548.913 -105.077L550.673 -103.454ZM550.795 -103.585L550.795 -105.98L549.746 -105.98L549.035 -105.208L550.795 -103.585ZM550.988 -102.589L552.671 -104.292L550.907 -106.034L549.227 -104.212L550.988 -102.589ZM986.537 327.864L986.537 330.259L992.366 330.259L988.22 326.161L986.537 327.864ZM154.154 327.864L152.393 326.241L148.69 330.259L154.154 330.259L154.154 327.864ZM677.261 -105.98L677.091 -105.98L677.091 -101.191L677.261 -101.191L677.261 -105.98ZM679.083 -105.148L678.963 -105.269L675.559 -101.901L675.679 -101.78L679.083 -105.148ZM1105.94 326.302L679.083 -105.148L675.679 -101.78L1102.54 329.67L1105.94 326.302ZM1106.63 326.998L1105.94 326.302L1102.54 329.67L1103.22 330.366L1106.63 326.998ZM1103.95 331.076L1104.93 331.076L1104.93 326.287L1103.95 326.287L1103.95 331.076ZM987.532 331.076L1103.95 331.076L1103.95 326.287L987.532 326.287L987.532 331.076ZM153.221 331.076L987.532 331.076L987.532 326.287L153.221 326.287L153.221 331.076ZM152.289 331.076L153.221 331.076L153.221 326.287L152.289 326.287L152.289 331.076ZM151.16 326.373L150.528 327.059L154.049 330.304L154.681 329.619L151.16 326.373ZM548.913 -105.077L151.16 326.373L154.681 329.619L552.434 -101.831L548.913 -105.077ZM549.035 -105.208L548.913 -105.077L552.434 -101.831L552.555 -101.962L549.035 -105.208ZM550.974 -105.98L550.795 -105.98L550.795 -101.191L550.974 -101.191L550.974 -105.98ZM677.091 -105.98L550.974 -105.98L550.974 -101.191L677.091 -101.191L677.091 -105.98ZM549.304 -100.886L984.854 329.567L988.22 326.161L552.671 -104.292L549.304 -100.886ZM155.914 329.487L552.748 -100.966L549.227 -104.212L152.393 326.241L155.914 329.487ZM986.537 325.47L154.154 325.47L154.154 330.259L986.537 330.259L986.537 325.47Z" fill="#F9F9F9" fill-opacity="0.125"/>
<path fill-rule="evenodd" clip-rule="evenodd" d="M448.13 -40.2976L448.275 -40.2976L448.378 -40.1941L812.766 328.115L813.354 328.709L812.518 328.709L713.14 328.709L0.925659 328.709L0.129639 328.709L0.66919 328.124L340.213 -40.1852L340.317 -40.2976L340.47 -40.2976L448.13 -40.2976ZM712.291 328.012L340.481 -39.4468L1.72168 328.012L712.291 328.012Z" fill="#F9F9F9" fill-opacity="0.125"/>
<path d="M448.275 -40.2976L449.978 -41.9814L449.275 -42.692L448.275 -42.692L448.275 -40.2976ZM448.378 -40.1941L446.676 -38.5103L446.676 -38.5101L448.378 -40.1941ZM812.766 328.115L811.064 329.799L811.064 329.799L812.766 328.115ZM813.354 328.709L813.354 331.104L819.091 331.104L815.056 327.025L813.354 328.709ZM713.14 328.709L713.14 326.315L713.14 328.709ZM0.925659 328.709L0.925659 331.104L0.925659 328.709ZM0.129639 328.709L-1.6308 327.087L-5.33398 331.104L0.129638 331.104L0.129639 328.709ZM0.66919 328.124L-1.09119 326.501L-1.09125 326.501L0.66919 328.124ZM340.213 -40.1852L341.974 -38.5623L341.974 -38.5624L340.213 -40.1852ZM340.317 -40.2976L340.317 -42.692L339.267 -42.692L338.556 -41.9205L340.317 -40.2976ZM340.47 -40.2976L340.47 -42.692L340.47 -40.2976ZM340.481 -39.4468L342.164 -41.1497L340.401 -42.8923L338.721 -41.0697L340.481 -39.4468ZM712.291 328.012L712.291 330.406L718.12 330.406L713.974 326.309L712.291 328.012ZM1.72168 328.012L-0.0386961 326.389L-3.74219 330.406L1.72168 330.406L1.72168 328.012ZM448.275 -42.692L448.13 -42.692L448.13 -37.9033L448.275 -37.9033L448.275 -42.692ZM450.08 -41.8778L449.978 -41.9814L446.573 -38.6139L446.676 -38.5103L450.08 -41.8778ZM814.468 326.431L450.08 -41.8781L446.676 -38.5101L811.064 329.799L814.468 326.431ZM815.056 327.025L814.468 326.431L811.064 329.799L811.652 330.393L815.056 327.025ZM812.518 331.104L813.354 331.104L813.354 326.315L812.518 326.315L812.518 331.104ZM713.14 331.104L812.518 331.104L812.518 326.315L713.14 326.315L713.14 331.104ZM0.925659 331.104L713.14 331.104L713.14 326.315L0.925659 326.315L0.925659 331.104ZM0.129638 331.104L0.925659 331.104L0.925659 326.315L0.129639 326.315L0.129638 331.104ZM-1.09125 326.501L-1.6308 327.087L1.89014 330.332L2.42969 329.747L-1.09125 326.501ZM338.453 -41.8081L-1.09119 326.501L2.42963 329.747L341.974 -38.5623L338.453 -41.8081ZM338.556 -41.9205L338.453 -41.8081L341.974 -38.5624L342.077 -38.6748L338.556 -41.9205ZM340.47 -42.692L340.317 -42.692L340.317 -37.9033L340.47 -37.9033L340.47 -42.692ZM448.13 -42.692L340.47 -42.692L340.47 -37.9033L448.13 -37.9033L448.13 -42.692ZM338.798 -37.7438L710.608 329.715L713.974 326.309L342.164 -41.1497L338.798 -37.7438ZM3.48212 329.635L342.242 -37.8238L338.721 -41.0697L-0.0386961 326.389L3.48212 329.635ZM712.291 325.617L1.72168 325.617L1.72168 330.406L712.291 330.406L712.291 325.617Z" fill="#F9F9F9" fill-opacity="0.125"/>
</g>
</g>
<defs>
<filter id="filter0_d" x="-8.36316" y="-170.758" width="1426.17" height="1043.21" filterUnits="userSpaceOnUse" color-interpolation-filters="sRGB">
<feFlood flood-opacity="0" result="BackgroundImageFix"/>
<feColorMatrix in="SourceAlpha" type="matrix" values="0 0 0 0 0 0 0 0 0 0 0 0 0 0 0 0 0 0 127 0"/>
<feOffset dy="1.51337"/>
<feGaussianBlur stdDeviation="1.51337"/>
<feColorMatrix type="matrix" values="0 0 0 0 0 0 0 0 0 0 0 0 0 0 0 0 0 0 0.25 0"/>
<feBlend mode="normal" in2="BackgroundImageFix" result="effect1_dropShadow"/>
<feBlend mode="normal" in="SourceGraphic" in2="effect1_dropShadow" result="shape"/>
</filter>
</defs>
</svg>
