<svg width="56" height="59" viewBox="0 0 56 59" fill="none" xmlns="http://www.w3.org/2000/svg">
<path fill-rule="evenodd" clip-rule="evenodd" d="M21.0254 39.6682L15.7982 30.6145L5.34396 30.6145L0.11682 39.6682L5.34396 48.7219L15.7982 48.7219L21.0254 39.6682ZM32.897 40.5725L38.1242 49.6262L32.897 58.6799L22.4427 58.6799L17.2156 49.6262L22.4427 40.5725L32.897 40.5725ZM50.11 30.6145L55.3372 39.6682L50.11 48.7219L39.6558 48.7219L34.4286 39.6682L39.6558 30.6145L50.11 30.6145ZM32.8968 20.728L38.1239 29.7817L32.8968 38.8353L22.4425 38.8353L17.2153 29.7817L22.4425 20.728L32.8968 20.728ZM55.3372 19.9056L50.11 10.8519L39.6558 10.8519L34.4286 19.9056L39.6558 28.9593L50.11 28.9593L55.3372 19.9056ZM32.8971 0.893984L38.1242 9.94766L32.8971 19.0013L22.4428 19.0013L17.2156 9.94766L22.4428 0.893985L32.8971 0.893984ZM21.0254 19.9056L15.7982 10.8519L5.34396 10.8519L0.116821 19.9056L5.34396 28.9593L15.7982 28.9593L21.0254 19.9056Z" fill="#F7CB33"/>
</svg>
