<svg xmlns="http://www.w3.org/2000/svg" viewBox="0 0 355.3 37.54"><defs><style>.cls-1{font-size:20px;font-family:Moon-Light, Moon;font-weight:300;letter-spacing:0.02em;}.cls-1,.cls-3,.cls-4,.cls-5,.cls-6{fill:#e8e9e8;}.cls-2{fill:none;}.cls-2,.cls-3,.cls-4,.cls-6{stroke:#e8e9e8;stroke-miterlimit:10;}.cls-2,.cls-3{stroke-width:0.66px;}.cls-4{stroke-width:0.66px;}.cls-6{stroke-width:0.22px;}</style></defs><title>horiz-logo-light_1</title><g id="Layer_2" data-name="Layer 2"><g id="Layer_2-2" data-name="Layer 2"><text class="cls-1" transform="translate(53.83 25.23)">abbott-mickelson designs</text><polyline class="cls-2" points="1.24 17.47 34.19 17.47 47.21 17.47 32.9 3.37 18.85 17.41"/><polygon class="cls-3" points="32 4.26 45.19 17.45 47.21 17.45 32.9 3.37 32 4.26"/><polygon class="cls-4" points="37.6 17.44 22.27 2.03 23.83 0.47 40.83 17.45 37.6 17.44"/><line class="cls-2" x1="7.01" y1="17.36" x2="22.28" y2="2.02"/><polyline class="cls-2" points="27.26 16.97 27.77 17.47 27.26 16.97 14.18 3.89 0.87 17.45"/><polygon class="cls-3" points="14.18 3.89 13.32 4.77 25.77 17.22 27.26 16.97 14.18 3.89"/><polygon class="cls-2" points="13.62 4.79 26.43 17.47 0.8 17.47 13.62 4.79"/><polyline class="cls-2" points="1.24 20.06 34.19 20.06 47.21 20.06 32.9 34.17 18.85 20.12"/><line class="cls-2" x1="32" y1="33.27" x2="45.18" y2="20.09"/><polyline class="cls-3" points="40.51 20.06 37.67 20.41 22.25 35.51 23.82 37.07 40.83 20.06"/><line class="cls-2" x1="7.19" y1="20.13" x2="22.25" y2="35.51"/><polyline class="cls-2" points="27.77 20.06 14.18 33.65 0.87 20.09"/><polygon class="cls-5" points="14.18 33.65 13.32 32.77 25.77 20.32 27.26 20.32 14.18 33.65"/><polygon class="cls-2" points="13.62 32.74 26.43 20.06 0.8 20.06 13.62 32.74"/><polygon class="cls-6" points="44.96 20.32 46.96 20.32 32.9 34.17 32 33.27 44.96 20.32"/></g></g></svg>